G04 #@! TF.GenerationSoftware,KiCad,Pcbnew,(5.0.0)*
G04 #@! TF.CreationDate,2018-09-09T11:50:12+09:00*
G04 #@! TF.ProjectId,ZynqBoard2,5A796E71426F617264322E6B69636164,rev?*
G04 #@! TF.SameCoordinates,Original*
G04 #@! TF.FileFunction,Copper,L6,Bot,Signal*
G04 #@! TF.FilePolarity,Positive*
%FSLAX46Y46*%
G04 Gerber Fmt 4.6, Leading zero omitted, Abs format (unit mm)*
G04 Created by KiCad (PCBNEW (5.0.0)) date 09/09/18 11:50:12*
%MOMM*%
%LPD*%
G01*
G04 APERTURE LIST*
G04 #@! TA.AperFunction,SMDPad,CuDef*
%ADD10R,0.800000X0.750000*%
G04 #@! TD*
G04 #@! TA.AperFunction,SMDPad,CuDef*
%ADD11C,0.500000*%
G04 #@! TD*
G04 #@! TA.AperFunction,Conductor*
%ADD12C,0.100000*%
G04 #@! TD*
G04 #@! TA.AperFunction,SMDPad,CuDef*
%ADD13R,0.600000X0.400000*%
G04 #@! TD*
G04 #@! TA.AperFunction,SMDPad,CuDef*
%ADD14R,0.600000X0.500000*%
G04 #@! TD*
G04 #@! TA.AperFunction,SMDPad,CuDef*
%ADD15R,0.500000X0.600000*%
G04 #@! TD*
G04 #@! TA.AperFunction,SMDPad,CuDef*
%ADD16R,0.750000X0.800000*%
G04 #@! TD*
G04 #@! TA.AperFunction,SMDPad,CuDef*
%ADD17R,1.000000X1.250000*%
G04 #@! TD*
G04 #@! TA.AperFunction,SMDPad,CuDef*
%ADD18R,0.800000X0.800000*%
G04 #@! TD*
G04 #@! TA.AperFunction,ComponentPad*
%ADD19O,1.350000X1.350000*%
G04 #@! TD*
G04 #@! TA.AperFunction,ComponentPad*
%ADD20R,1.350000X1.350000*%
G04 #@! TD*
G04 #@! TA.AperFunction,ComponentPad*
%ADD21C,1.750000*%
G04 #@! TD*
G04 #@! TA.AperFunction,ComponentPad*
%ADD22R,1.750000X1.750000*%
G04 #@! TD*
G04 #@! TA.AperFunction,ComponentPad*
%ADD23C,0.600000*%
G04 #@! TD*
G04 #@! TA.AperFunction,ComponentPad*
%ADD24O,1.200000X2.300000*%
G04 #@! TD*
G04 #@! TA.AperFunction,ComponentPad*
%ADD25C,1.500000*%
G04 #@! TD*
G04 #@! TA.AperFunction,ComponentPad*
%ADD26O,2.000000X1.100000*%
G04 #@! TD*
G04 #@! TA.AperFunction,ComponentPad*
%ADD27O,1.100000X2.000000*%
G04 #@! TD*
G04 #@! TA.AperFunction,SMDPad,CuDef*
%ADD28R,0.900000X1.000000*%
G04 #@! TD*
G04 #@! TA.AperFunction,ComponentPad*
%ADD29O,1.700000X1.700000*%
G04 #@! TD*
G04 #@! TA.AperFunction,ComponentPad*
%ADD30R,1.700000X1.700000*%
G04 #@! TD*
G04 #@! TA.AperFunction,SMDPad,CuDef*
%ADD31R,1.550000X0.600000*%
G04 #@! TD*
G04 #@! TA.AperFunction,SMDPad,CuDef*
%ADD32R,0.900000X0.800000*%
G04 #@! TD*
G04 #@! TA.AperFunction,SMDPad,CuDef*
%ADD33R,0.500000X0.900000*%
G04 #@! TD*
G04 #@! TA.AperFunction,SMDPad,CuDef*
%ADD34R,0.900000X0.500000*%
G04 #@! TD*
G04 #@! TA.AperFunction,ComponentPad*
%ADD35O,3.500000X2.200000*%
G04 #@! TD*
G04 #@! TA.AperFunction,ComponentPad*
%ADD36O,2.500000X1.500000*%
G04 #@! TD*
G04 #@! TA.AperFunction,ComponentPad*
%ADD37R,2.500000X1.500000*%
G04 #@! TD*
G04 #@! TA.AperFunction,ComponentPad*
%ADD38R,1.500000X2.500000*%
G04 #@! TD*
G04 #@! TA.AperFunction,ComponentPad*
%ADD39O,1.500000X2.500000*%
G04 #@! TD*
G04 #@! TA.AperFunction,ComponentPad*
%ADD40O,2.200000X3.500000*%
G04 #@! TD*
G04 #@! TA.AperFunction,SMDPad,CuDef*
%ADD41R,0.840000X0.940000*%
G04 #@! TD*
G04 #@! TA.AperFunction,SMDPad,CuDef*
%ADD42R,0.890000X0.420000*%
G04 #@! TD*
G04 #@! TA.AperFunction,SMDPad,CuDef*
%ADD43R,0.800000X0.900000*%
G04 #@! TD*
G04 #@! TA.AperFunction,ComponentPad*
%ADD44C,1.300000*%
G04 #@! TD*
G04 #@! TA.AperFunction,SMDPad,CuDef*
%ADD45C,0.400000*%
G04 #@! TD*
G04 #@! TA.AperFunction,SMDPad,CuDef*
%ADD46R,0.400000X0.600000*%
G04 #@! TD*
G04 #@! TA.AperFunction,ComponentPad*
%ADD47C,4.400000*%
G04 #@! TD*
G04 #@! TA.AperFunction,ViaPad*
%ADD48C,0.450000*%
G04 #@! TD*
G04 #@! TA.AperFunction,Conductor*
%ADD49C,0.210000*%
G04 #@! TD*
G04 #@! TA.AperFunction,Conductor*
%ADD50C,0.400000*%
G04 #@! TD*
G04 #@! TA.AperFunction,Conductor*
%ADD51C,0.250000*%
G04 #@! TD*
G04 #@! TA.AperFunction,Conductor*
%ADD52C,0.150000*%
G04 #@! TD*
G04 #@! TA.AperFunction,Conductor*
%ADD53C,0.200000*%
G04 #@! TD*
G04 #@! TA.AperFunction,Conductor*
%ADD54C,1.000000*%
G04 #@! TD*
G04 #@! TA.AperFunction,Conductor*
%ADD55C,0.145000*%
G04 #@! TD*
G04 APERTURE END LIST*
D10*
G04 #@! TO.P,C70,2*
G04 #@! TO.N,GND*
X85250000Y-106400000D03*
G04 #@! TO.P,C70,1*
G04 #@! TO.N,+3V3*
X83750000Y-106400000D03*
G04 #@! TD*
D11*
G04 #@! TO.P,C65,1*
G04 #@! TO.N,+1V35*
X67111091Y-93611091D03*
D12*
G04 #@! TD*
G04 #@! TO.N,+1V35*
G04 #@! TO.C,C65*
G36*
X66722182Y-93575736D02*
X67075736Y-93222182D01*
X67500000Y-93646446D01*
X67146446Y-94000000D01*
X66722182Y-93575736D01*
X66722182Y-93575736D01*
G37*
D11*
G04 #@! TO.P,C65,2*
G04 #@! TO.N,GND*
X67888909Y-94388909D03*
D12*
G04 #@! TD*
G04 #@! TO.N,GND*
G04 #@! TO.C,C65*
G36*
X67500000Y-94353554D02*
X67853554Y-94000000D01*
X68277818Y-94424264D01*
X67924264Y-94777818D01*
X67500000Y-94353554D01*
X67500000Y-94353554D01*
G37*
D13*
G04 #@! TO.P,R24,1*
G04 #@! TO.N,+1V8*
X74100000Y-92250000D03*
G04 #@! TO.P,R24,2*
G04 #@! TO.N,/SD/VREF0V9*
X74100000Y-93150000D03*
G04 #@! TD*
D14*
G04 #@! TO.P,C1,1*
G04 #@! TO.N,+1V35*
X46750000Y-101700000D03*
G04 #@! TO.P,C1,2*
G04 #@! TO.N,/DDR/DDR_VREF*
X47850000Y-101700000D03*
G04 #@! TD*
G04 #@! TO.P,C2,1*
G04 #@! TO.N,/DDR/DDR_VREF*
X52850000Y-94400000D03*
G04 #@! TO.P,C2,2*
G04 #@! TO.N,GND*
X53950000Y-94400000D03*
G04 #@! TD*
G04 #@! TO.P,C3,1*
G04 #@! TO.N,/DDR/DDR_VREF*
X72350000Y-101000000D03*
G04 #@! TO.P,C3,2*
G04 #@! TO.N,GND*
X73450000Y-101000000D03*
G04 #@! TD*
G04 #@! TO.P,C23,1*
G04 #@! TO.N,/DDR/DDR_VREF*
X53200000Y-92900000D03*
G04 #@! TO.P,C23,2*
G04 #@! TO.N,GND*
X52100000Y-92900000D03*
G04 #@! TD*
D15*
G04 #@! TO.P,C26,1*
G04 #@! TO.N,+1V0*
X73300000Y-102150000D03*
G04 #@! TO.P,C26,2*
G04 #@! TO.N,GND*
X73300000Y-103250000D03*
G04 #@! TD*
G04 #@! TO.P,C27,1*
G04 #@! TO.N,+1V0*
X72500000Y-94950000D03*
G04 #@! TO.P,C27,2*
G04 #@! TO.N,GND*
X72500000Y-96050000D03*
G04 #@! TD*
D14*
G04 #@! TO.P,C28,1*
G04 #@! TO.N,+1V0*
X83550000Y-101500000D03*
G04 #@! TO.P,C28,2*
G04 #@! TO.N,GND*
X84650000Y-101500000D03*
G04 #@! TD*
G04 #@! TO.P,C29,1*
G04 #@! TO.N,+1V0*
X78750000Y-100500000D03*
G04 #@! TO.P,C29,2*
G04 #@! TO.N,GND*
X79850000Y-100500000D03*
G04 #@! TD*
G04 #@! TO.P,C30,1*
G04 #@! TO.N,+1V0*
X78750000Y-101900000D03*
G04 #@! TO.P,C30,2*
G04 #@! TO.N,GND*
X79850000Y-101900000D03*
G04 #@! TD*
D15*
G04 #@! TO.P,C31,1*
G04 #@! TO.N,+1V0*
X77200000Y-101750000D03*
G04 #@! TO.P,C31,2*
G04 #@! TO.N,GND*
X77200000Y-102850000D03*
G04 #@! TD*
D14*
G04 #@! TO.P,C32,1*
G04 #@! TO.N,+1V0*
X78950000Y-97200000D03*
G04 #@! TO.P,C32,2*
G04 #@! TO.N,GND*
X80050000Y-97200000D03*
G04 #@! TD*
D15*
G04 #@! TO.P,C45,1*
G04 #@! TO.N,+3V3*
X71700000Y-91550000D03*
G04 #@! TO.P,C45,2*
G04 #@! TO.N,GND*
X71700000Y-90450000D03*
G04 #@! TD*
D14*
G04 #@! TO.P,C46,1*
G04 #@! TO.N,+1V0*
X82750000Y-97100000D03*
G04 #@! TO.P,C46,2*
G04 #@! TO.N,GND*
X83850000Y-97100000D03*
G04 #@! TD*
G04 #@! TO.P,C51,1*
G04 #@! TO.N,+1V8*
X74650000Y-89300000D03*
G04 #@! TO.P,C51,2*
G04 #@! TO.N,GND*
X75750000Y-89300000D03*
G04 #@! TD*
D15*
G04 #@! TO.P,C53,1*
G04 #@! TO.N,+3V3*
X71700000Y-105250000D03*
G04 #@! TO.P,C53,2*
G04 #@! TO.N,GND*
X71700000Y-104150000D03*
G04 #@! TD*
G04 #@! TO.P,C54,1*
G04 #@! TO.N,+3V3*
X72500000Y-104150000D03*
G04 #@! TO.P,C54,2*
G04 #@! TO.N,GND*
X72500000Y-105250000D03*
G04 #@! TD*
D14*
G04 #@! TO.P,C55,1*
G04 #@! TO.N,+3V3*
X74650000Y-105900000D03*
G04 #@! TO.P,C55,2*
G04 #@! TO.N,GND*
X75750000Y-105900000D03*
G04 #@! TD*
G04 #@! TO.P,C56,1*
G04 #@! TO.N,+3V3*
X74650000Y-105000000D03*
G04 #@! TO.P,C56,2*
G04 #@! TO.N,GND*
X75750000Y-105000000D03*
G04 #@! TD*
G04 #@! TO.P,C62,1*
G04 #@! TO.N,+1V35*
X70750000Y-92500000D03*
G04 #@! TO.P,C62,2*
G04 #@! TO.N,GND*
X71850000Y-92500000D03*
G04 #@! TD*
G04 #@! TO.P,C66,1*
G04 #@! TO.N,+3V3*
X78850000Y-105100000D03*
G04 #@! TO.P,C66,2*
G04 #@! TO.N,GND*
X79950000Y-105100000D03*
G04 #@! TD*
G04 #@! TO.P,C67,1*
G04 #@! TO.N,+3V3*
X81050000Y-102800000D03*
G04 #@! TO.P,C67,2*
G04 #@! TO.N,GND*
X82150000Y-102800000D03*
G04 #@! TD*
G04 #@! TO.P,C68,1*
G04 #@! TO.N,+3V3*
X83050000Y-104300000D03*
G04 #@! TO.P,C68,2*
G04 #@! TO.N,GND*
X81950000Y-104300000D03*
G04 #@! TD*
G04 #@! TO.P,C69,1*
G04 #@! TO.N,+3V3*
X77950000Y-107500000D03*
G04 #@! TO.P,C69,2*
G04 #@! TO.N,GND*
X79050000Y-107500000D03*
G04 #@! TD*
D15*
G04 #@! TO.P,C74,1*
G04 #@! TO.N,Net-(C73-Pad1)*
X75700000Y-95850000D03*
G04 #@! TO.P,C74,2*
G04 #@! TO.N,GND*
X75700000Y-94750000D03*
G04 #@! TD*
G04 #@! TO.P,C75,1*
G04 #@! TO.N,+3V3*
X82100000Y-92950000D03*
G04 #@! TO.P,C75,2*
G04 #@! TO.N,GND*
X82100000Y-94050000D03*
G04 #@! TD*
G04 #@! TO.P,C76,1*
G04 #@! TO.N,+3V3*
X79600000Y-93750000D03*
G04 #@! TO.P,C76,2*
G04 #@! TO.N,GND*
X79600000Y-94850000D03*
G04 #@! TD*
G04 #@! TO.P,C77,1*
G04 #@! TO.N,+3V3*
X84400000Y-92750000D03*
G04 #@! TO.P,C77,2*
G04 #@! TO.N,GND*
X84400000Y-91650000D03*
G04 #@! TD*
G04 #@! TO.P,C82,1*
G04 #@! TO.N,XADC_1V8*
X78800000Y-96250000D03*
G04 #@! TO.P,C82,2*
G04 #@! TO.N,GND*
X78800000Y-95150000D03*
G04 #@! TD*
D14*
G04 #@! TO.P,C83,1*
G04 #@! TO.N,XADC_1V25*
X75450000Y-98700000D03*
G04 #@! TO.P,C83,2*
G04 #@! TO.N,GND*
X74350000Y-98700000D03*
G04 #@! TD*
D15*
G04 #@! TO.P,C84,1*
G04 #@! TO.N,+3V3*
X74000000Y-86750000D03*
G04 #@! TO.P,C84,2*
G04 #@! TO.N,GND*
X74000000Y-87850000D03*
G04 #@! TD*
D14*
G04 #@! TO.P,C86,1*
G04 #@! TO.N,+3V3*
X42850000Y-81600000D03*
G04 #@! TO.P,C86,2*
G04 #@! TO.N,GND*
X43950000Y-81600000D03*
G04 #@! TD*
G04 #@! TO.P,C87,1*
G04 #@! TO.N,+3V3*
X41450000Y-78400000D03*
G04 #@! TO.P,C87,2*
G04 #@! TO.N,GND*
X42550000Y-78400000D03*
G04 #@! TD*
D11*
G04 #@! TO.P,C88,1*
G04 #@! TO.N,/SD/VREF0V9*
X73311091Y-93911091D03*
D12*
G04 #@! TD*
G04 #@! TO.N,/SD/VREF0V9*
G04 #@! TO.C,C88*
G36*
X72922182Y-93875736D02*
X73275736Y-93522182D01*
X73700000Y-93946446D01*
X73346446Y-94300000D01*
X72922182Y-93875736D01*
X72922182Y-93875736D01*
G37*
D11*
G04 #@! TO.P,C88,2*
G04 #@! TO.N,GND*
X74088909Y-94688909D03*
D12*
G04 #@! TD*
G04 #@! TO.N,GND*
G04 #@! TO.C,C88*
G36*
X73700000Y-94653554D02*
X74053554Y-94300000D01*
X74477818Y-94724264D01*
X74124264Y-95077818D01*
X73700000Y-94653554D01*
X73700000Y-94653554D01*
G37*
D15*
G04 #@! TO.P,C96,1*
G04 #@! TO.N,+3V3*
X107800000Y-97150000D03*
G04 #@! TO.P,C96,2*
G04 #@! TO.N,GND*
X107800000Y-96050000D03*
G04 #@! TD*
G04 #@! TO.P,C106,1*
G04 #@! TO.N,Net-(C106-Pad1)*
X107900000Y-101050000D03*
G04 #@! TO.P,C106,2*
G04 #@! TO.N,Net-(C106-Pad2)*
X107900000Y-99950000D03*
G04 #@! TD*
G04 #@! TO.P,C111,1*
G04 #@! TO.N,Net-(C111-Pad1)*
X109800000Y-94850000D03*
G04 #@! TO.P,C111,2*
G04 #@! TO.N,Net-(C111-Pad2)*
X109800000Y-95950000D03*
G04 #@! TD*
G04 #@! TO.P,C115,1*
G04 #@! TO.N,+5V*
X89750593Y-75990976D03*
G04 #@! TO.P,C115,2*
G04 #@! TO.N,GND*
X89750593Y-74890976D03*
G04 #@! TD*
G04 #@! TO.P,C116,1*
G04 #@! TO.N,HP_3V3*
X82950593Y-75290976D03*
G04 #@! TO.P,C116,2*
G04 #@! TO.N,GND*
X82950593Y-74190976D03*
G04 #@! TD*
D14*
G04 #@! TO.P,C118,1*
G04 #@! TO.N,Net-(C118-Pad1)*
X115050000Y-89000000D03*
G04 #@! TO.P,C118,2*
G04 #@! TO.N,GND*
X116150000Y-89000000D03*
G04 #@! TD*
D15*
G04 #@! TO.P,C119,1*
G04 #@! TO.N,XADC_1V8*
X85800000Y-100250000D03*
G04 #@! TO.P,C119,2*
G04 #@! TO.N,GND*
X85800000Y-99150000D03*
G04 #@! TD*
G04 #@! TO.P,C120,1*
G04 #@! TO.N,XADC_1V25*
X81400000Y-100450000D03*
G04 #@! TO.P,C120,2*
G04 #@! TO.N,GND*
X81400000Y-101550000D03*
G04 #@! TD*
D16*
G04 #@! TO.P,C25,1*
G04 #@! TO.N,+1V0*
X85400000Y-96250000D03*
G04 #@! TO.P,C25,2*
G04 #@! TO.N,GND*
X85400000Y-97750000D03*
G04 #@! TD*
G04 #@! TO.P,C33,1*
G04 #@! TO.N,+1V0*
X86800000Y-96250000D03*
G04 #@! TO.P,C33,2*
G04 #@! TO.N,GND*
X86800000Y-97750000D03*
G04 #@! TD*
G04 #@! TO.P,C34,2*
G04 #@! TO.N,GND*
X88200000Y-96250000D03*
G04 #@! TO.P,C34,1*
G04 #@! TO.N,+1V0*
X88200000Y-97750000D03*
G04 #@! TD*
D14*
G04 #@! TO.P,C38,2*
G04 #@! TO.N,GND*
X72350000Y-98800000D03*
G04 #@! TO.P,C38,1*
G04 #@! TO.N,+1V8*
X73450000Y-98800000D03*
G04 #@! TD*
D15*
G04 #@! TO.P,C39,1*
G04 #@! TO.N,+1V8*
X75700000Y-101750000D03*
G04 #@! TO.P,C39,2*
G04 #@! TO.N,GND*
X75700000Y-102850000D03*
G04 #@! TD*
D14*
G04 #@! TO.P,C40,2*
G04 #@! TO.N,GND*
X80450000Y-85800000D03*
G04 #@! TO.P,C40,1*
G04 #@! TO.N,+1V8*
X79350000Y-85800000D03*
G04 #@! TD*
D17*
G04 #@! TO.P,C42,2*
G04 #@! TO.N,GND*
X81400000Y-83900000D03*
G04 #@! TO.P,C42,1*
G04 #@! TO.N,+1V8*
X79400000Y-83900000D03*
G04 #@! TD*
G04 #@! TO.P,C43,2*
G04 #@! TO.N,GND*
X93200000Y-101800000D03*
G04 #@! TO.P,C43,1*
G04 #@! TO.N,+3V3*
X91200000Y-101800000D03*
G04 #@! TD*
D16*
G04 #@! TO.P,C44,1*
G04 #@! TO.N,+3V3*
X68300000Y-88850000D03*
G04 #@! TO.P,C44,2*
G04 #@! TO.N,GND*
X68300000Y-87350000D03*
G04 #@! TD*
D10*
G04 #@! TO.P,C47,2*
G04 #@! TO.N,GND*
X88750000Y-101200000D03*
G04 #@! TO.P,C47,1*
G04 #@! TO.N,+1V0*
X87250000Y-101200000D03*
G04 #@! TD*
D17*
G04 #@! TO.P,C52,2*
G04 #@! TO.N,GND*
X96600000Y-101800000D03*
G04 #@! TO.P,C52,1*
G04 #@! TO.N,+3V3*
X94600000Y-101800000D03*
G04 #@! TD*
D10*
G04 #@! TO.P,C57,2*
G04 #@! TO.N,GND*
X85250000Y-108300000D03*
G04 #@! TO.P,C57,1*
G04 #@! TO.N,+3V3*
X83750000Y-108300000D03*
G04 #@! TD*
G04 #@! TO.P,C58,2*
G04 #@! TO.N,GND*
X90450000Y-103200000D03*
G04 #@! TO.P,C58,1*
G04 #@! TO.N,+3V3*
X88950000Y-103200000D03*
G04 #@! TD*
D17*
G04 #@! TO.P,C59,2*
G04 #@! TO.N,GND*
X95100000Y-106800000D03*
G04 #@! TO.P,C59,1*
G04 #@! TO.N,+3V3*
X93100000Y-106800000D03*
G04 #@! TD*
D16*
G04 #@! TO.P,C71,1*
G04 #@! TO.N,+3V3*
X81700000Y-106050000D03*
G04 #@! TO.P,C71,2*
G04 #@! TO.N,GND*
X81700000Y-107550000D03*
G04 #@! TD*
D17*
G04 #@! TO.P,C72,2*
G04 #@! TO.N,GND*
X94200000Y-104400000D03*
G04 #@! TO.P,C72,1*
G04 #@! TO.N,+3V3*
X92200000Y-104400000D03*
G04 #@! TD*
D10*
G04 #@! TO.P,C73,2*
G04 #@! TO.N,GND*
X81450000Y-98500000D03*
G04 #@! TO.P,C73,1*
G04 #@! TO.N,Net-(C73-Pad1)*
X79950000Y-98500000D03*
G04 #@! TD*
G04 #@! TO.P,C79,1*
G04 #@! TO.N,+3V3*
X87150000Y-94600000D03*
G04 #@! TO.P,C79,2*
G04 #@! TO.N,GND*
X88650000Y-94600000D03*
G04 #@! TD*
G04 #@! TO.P,C80,2*
G04 #@! TO.N,GND*
X88650000Y-93000000D03*
G04 #@! TO.P,C80,1*
G04 #@! TO.N,+3V3*
X87150000Y-93000000D03*
G04 #@! TD*
D17*
G04 #@! TO.P,C81,1*
G04 #@! TO.N,+3V3*
X95600000Y-104400000D03*
G04 #@! TO.P,C81,2*
G04 #@! TO.N,GND*
X97600000Y-104400000D03*
G04 #@! TD*
D16*
G04 #@! TO.P,C114,1*
G04 #@! TO.N,+5V*
X90950593Y-75890976D03*
G04 #@! TO.P,C114,2*
G04 #@! TO.N,GND*
X90950593Y-74390976D03*
G04 #@! TD*
G04 #@! TO.P,C117,2*
G04 #@! TO.N,GND*
X81750593Y-73590976D03*
G04 #@! TO.P,C117,1*
G04 #@! TO.N,HP_3V3*
X81750593Y-75090976D03*
G04 #@! TD*
D18*
G04 #@! TO.P,D2,2*
G04 #@! TO.N,GND*
X92900000Y-71200000D03*
G04 #@! TO.P,D2,1*
G04 #@! TO.N,/USB/DP*
X94500000Y-71200000D03*
G04 #@! TD*
G04 #@! TO.P,D3,1*
G04 #@! TO.N,/USB/DM*
X95900000Y-71200000D03*
G04 #@! TO.P,D3,2*
G04 #@! TO.N,GND*
X97500000Y-71200000D03*
G04 #@! TD*
D19*
G04 #@! TO.P,J1,14*
G04 #@! TO.N,PS_SRST_B*
X54300000Y-79100000D03*
G04 #@! TO.P,J1,13*
G04 #@! TO.N,GND*
X54300000Y-77100000D03*
G04 #@! TO.P,J1,12*
G04 #@! TO.N,N/C*
X56300000Y-79100000D03*
G04 #@! TO.P,J1,11*
G04 #@! TO.N,GND*
X56300000Y-77100000D03*
G04 #@! TO.P,J1,10*
G04 #@! TO.N,/Config/TDI*
X58300000Y-79100000D03*
G04 #@! TO.P,J1,9*
G04 #@! TO.N,GND*
X58300000Y-77100000D03*
G04 #@! TO.P,J1,8*
G04 #@! TO.N,/Config/TDO*
X60300000Y-79100000D03*
G04 #@! TO.P,J1,7*
G04 #@! TO.N,GND*
X60300000Y-77100000D03*
G04 #@! TO.P,J1,6*
G04 #@! TO.N,/Config/TCK*
X62300000Y-79100000D03*
G04 #@! TO.P,J1,5*
G04 #@! TO.N,GND*
X62300000Y-77100000D03*
G04 #@! TO.P,J1,4*
G04 #@! TO.N,/Config/TMS*
X64300000Y-79100000D03*
G04 #@! TO.P,J1,3*
G04 #@! TO.N,GND*
X64300000Y-77100000D03*
G04 #@! TO.P,J1,2*
G04 #@! TO.N,+3V3*
X66300000Y-79100000D03*
D20*
G04 #@! TO.P,J1,1*
G04 #@! TO.N,GND*
X66300000Y-77100000D03*
G04 #@! TD*
D21*
G04 #@! TO.P,J3,5*
G04 #@! TO.N,VIN*
X112700000Y-84800000D03*
G04 #@! TO.P,J3,4*
X112700000Y-82300000D03*
G04 #@! TO.P,J3,3*
G04 #@! TO.N,GND*
X112700000Y-79800000D03*
G04 #@! TO.P,J3,2*
X112700000Y-77300000D03*
D22*
G04 #@! TO.P,J3,1*
G04 #@! TO.N,Net-(J3-Pad1)*
X112700000Y-74800000D03*
G04 #@! TD*
D23*
G04 #@! TO.P,J4,B6*
G04 #@! TO.N,/USB/DP*
X94700000Y-66200000D03*
G04 #@! TO.P,J4,B5*
G04 #@! TO.N,Net-(J4-PadB5)*
X93900000Y-66200000D03*
G04 #@! TO.P,J4,B4*
G04 #@! TO.N,Net-(C121-Pad1)*
X93100000Y-66200000D03*
G04 #@! TO.P,J4,B7*
G04 #@! TO.N,/USB/DM*
X95500000Y-66200000D03*
G04 #@! TO.P,J4,B8*
G04 #@! TO.N,N/C*
X96300000Y-66200000D03*
G04 #@! TO.P,J4,B9*
G04 #@! TO.N,Net-(C121-Pad1)*
X97100000Y-66200000D03*
D24*
G04 #@! TO.P,J4,S1*
G04 #@! TO.N,GND*
X89550000Y-61600000D03*
X89550000Y-66650000D03*
X100650000Y-66650000D03*
X100650000Y-61600000D03*
G04 #@! TD*
D25*
G04 #@! TO.P,J5,*
G04 #@! TO.N,*
X72000000Y-60800000D03*
X82000000Y-60800000D03*
X72000000Y-63300000D03*
X82000000Y-63300000D03*
D26*
G04 #@! TO.P,J5,1*
G04 #@! TO.N,Net-(J5-Pad1)*
X77000000Y-63300000D03*
D27*
G04 #@! TO.P,J5,2*
G04 #@! TO.N,Net-(J5-Pad2)*
X82000000Y-68300000D03*
G04 #@! TO.P,J5,10*
G04 #@! TO.N,N/C*
X79500000Y-68300000D03*
G04 #@! TO.P,J5,11*
X74500000Y-68300000D03*
G04 #@! TO.P,J5,3*
G04 #@! TO.N,Net-(J5-Pad3)*
X72000000Y-68300000D03*
D25*
G04 #@! TO.P,J5,*
G04 #@! TO.N,*
X77000000Y-68300000D03*
G04 #@! TD*
D28*
G04 #@! TO.P,O1,2*
G04 #@! TO.N,GND*
X75650000Y-83450000D03*
G04 #@! TO.P,O1,1*
G04 #@! TO.N,+3V3*
X73550000Y-83450000D03*
G04 #@! TO.P,O1,3*
G04 #@! TO.N,Net-(O1-Pad3)*
X75650000Y-85350000D03*
G04 #@! TO.P,O1,4*
G04 #@! TO.N,+3V3*
X73550000Y-85350000D03*
G04 #@! TD*
D29*
G04 #@! TO.P,P1,10*
G04 #@! TO.N,GND*
X113460000Y-121160000D03*
G04 #@! TO.P,P1,9*
G04 #@! TO.N,Net-(P1-Pad9)*
X116000000Y-121160000D03*
G04 #@! TO.P,P1,8*
G04 #@! TO.N,/I/F/1_HTXD*
X113460000Y-118620000D03*
G04 #@! TO.P,P1,7*
G04 #@! TO.N,/I/F/1_HRXD*
X116000000Y-118620000D03*
G04 #@! TO.P,P1,6*
G04 #@! TO.N,/I/F/1_HSCK*
X113460000Y-116080000D03*
G04 #@! TO.P,P1,5*
G04 #@! TO.N,/I/F/1_STXD*
X116000000Y-116080000D03*
G04 #@! TO.P,P1,4*
G04 #@! TO.N,/I/F/1_SRXD*
X113460000Y-113540000D03*
G04 #@! TO.P,P1,3*
G04 #@! TO.N,/I/F/1_SSCK*
X116000000Y-113540000D03*
G04 #@! TO.P,P1,2*
G04 #@! TO.N,GND*
X113460000Y-111000000D03*
D30*
G04 #@! TO.P,P1,1*
G04 #@! TO.N,+5V*
X116000000Y-111000000D03*
G04 #@! TD*
G04 #@! TO.P,P2,1*
G04 #@! TO.N,+5V*
X106000000Y-124000000D03*
D29*
G04 #@! TO.P,P2,2*
G04 #@! TO.N,GND*
X106000000Y-121460000D03*
G04 #@! TO.P,P2,3*
G04 #@! TO.N,/I/F/2_SSCK*
X103460000Y-124000000D03*
G04 #@! TO.P,P2,4*
G04 #@! TO.N,/I/F/2_SRXD*
X103460000Y-121460000D03*
G04 #@! TO.P,P2,5*
G04 #@! TO.N,/I/F/2_STXD*
X100920000Y-124000000D03*
G04 #@! TO.P,P2,6*
G04 #@! TO.N,/I/F/2_HSCK*
X100920000Y-121460000D03*
G04 #@! TO.P,P2,7*
G04 #@! TO.N,/I/F/2_HRXD*
X98380000Y-124000000D03*
G04 #@! TO.P,P2,8*
G04 #@! TO.N,/I/F/2_HTXD*
X98380000Y-121460000D03*
G04 #@! TO.P,P2,9*
G04 #@! TO.N,Net-(P2-Pad9)*
X95840000Y-124000000D03*
G04 #@! TO.P,P2,10*
G04 #@! TO.N,GND*
X95840000Y-121460000D03*
G04 #@! TD*
G04 #@! TO.P,P3,10*
G04 #@! TO.N,GND*
X75840000Y-121460000D03*
G04 #@! TO.P,P3,9*
G04 #@! TO.N,Net-(P3-Pad9)*
X75840000Y-124000000D03*
G04 #@! TO.P,P3,8*
G04 #@! TO.N,/I/F/3_HTXD*
X78380000Y-121460000D03*
G04 #@! TO.P,P3,7*
G04 #@! TO.N,/I/F/3_HRXD*
X78380000Y-124000000D03*
G04 #@! TO.P,P3,6*
G04 #@! TO.N,/I/F/3_HSCK*
X80920000Y-121460000D03*
G04 #@! TO.P,P3,5*
G04 #@! TO.N,/I/F/3_STXD*
X80920000Y-124000000D03*
G04 #@! TO.P,P3,4*
G04 #@! TO.N,/I/F/3_SRXD*
X83460000Y-121460000D03*
G04 #@! TO.P,P3,3*
G04 #@! TO.N,/I/F/3_SSCK*
X83460000Y-124000000D03*
G04 #@! TO.P,P3,2*
G04 #@! TO.N,GND*
X86000000Y-121460000D03*
D30*
G04 #@! TO.P,P3,1*
G04 #@! TO.N,+5V*
X86000000Y-124000000D03*
G04 #@! TD*
G04 #@! TO.P,P4,1*
G04 #@! TO.N,+5V*
X66000000Y-124000000D03*
D29*
G04 #@! TO.P,P4,2*
G04 #@! TO.N,GND*
X66000000Y-121460000D03*
G04 #@! TO.P,P4,3*
G04 #@! TO.N,/I/F/4_SSCK*
X63460000Y-124000000D03*
G04 #@! TO.P,P4,4*
G04 #@! TO.N,/I/F/4_SRXD*
X63460000Y-121460000D03*
G04 #@! TO.P,P4,5*
G04 #@! TO.N,/I/F/4_STXD*
X60920000Y-124000000D03*
G04 #@! TO.P,P4,6*
G04 #@! TO.N,/I/F/4_HSCK*
X60920000Y-121460000D03*
G04 #@! TO.P,P4,7*
G04 #@! TO.N,/I/F/4_HRXD*
X58380000Y-124000000D03*
G04 #@! TO.P,P4,8*
G04 #@! TO.N,/I/F/4_HTXD*
X58380000Y-121460000D03*
G04 #@! TO.P,P4,9*
G04 #@! TO.N,Net-(P4-Pad9)*
X55840000Y-124000000D03*
G04 #@! TO.P,P4,10*
G04 #@! TO.N,GND*
X55840000Y-121460000D03*
G04 #@! TD*
D30*
G04 #@! TO.P,P5,1*
G04 #@! TO.N,+5V*
X46000000Y-124000000D03*
D29*
G04 #@! TO.P,P5,2*
G04 #@! TO.N,GND*
X46000000Y-121460000D03*
G04 #@! TO.P,P5,3*
G04 #@! TO.N,/I/F/5_SSCK*
X43460000Y-124000000D03*
G04 #@! TO.P,P5,4*
G04 #@! TO.N,/I/F/5_SRXD*
X43460000Y-121460000D03*
G04 #@! TO.P,P5,5*
G04 #@! TO.N,/I/F/5_STXD*
X40920000Y-124000000D03*
G04 #@! TO.P,P5,6*
G04 #@! TO.N,/I/F/5_HSCK*
X40920000Y-121460000D03*
G04 #@! TO.P,P5,7*
G04 #@! TO.N,/I/F/5_HRXD*
X38380000Y-124000000D03*
G04 #@! TO.P,P5,8*
G04 #@! TO.N,/I/F/5_HTXD*
X38380000Y-121460000D03*
G04 #@! TO.P,P5,9*
G04 #@! TO.N,Net-(P5-Pad9)*
X35840000Y-124000000D03*
G04 #@! TO.P,P5,10*
G04 #@! TO.N,GND*
X35840000Y-121460000D03*
G04 #@! TD*
G04 #@! TO.P,P6,10*
G04 #@! TO.N,GND*
X37540000Y-103840000D03*
G04 #@! TO.P,P6,9*
G04 #@! TO.N,Net-(P6-Pad9)*
X35000000Y-103840000D03*
G04 #@! TO.P,P6,8*
G04 #@! TO.N,/I/F/6_HTXD*
X37540000Y-106380000D03*
G04 #@! TO.P,P6,7*
G04 #@! TO.N,/I/F/6_HRXD*
X35000000Y-106380000D03*
G04 #@! TO.P,P6,6*
G04 #@! TO.N,/I/F/6_HSCK*
X37540000Y-108920000D03*
G04 #@! TO.P,P6,5*
G04 #@! TO.N,/I/F/6_STXD*
X35000000Y-108920000D03*
G04 #@! TO.P,P6,4*
G04 #@! TO.N,/I/F/6_SRXD*
X37540000Y-111460000D03*
G04 #@! TO.P,P6,3*
G04 #@! TO.N,/I/F/6_SSCK*
X35000000Y-111460000D03*
G04 #@! TO.P,P6,2*
G04 #@! TO.N,GND*
X37540000Y-114000000D03*
D30*
G04 #@! TO.P,P6,1*
G04 #@! TO.N,+5V*
X35000000Y-114000000D03*
G04 #@! TD*
D31*
G04 #@! TO.P,Q1,8*
G04 #@! TO.N,Net-(C93-Pad2)*
X98000000Y-99905000D03*
G04 #@! TO.P,Q1,7*
X98000000Y-98635000D03*
G04 #@! TO.P,Q1,6*
G04 #@! TO.N,Net-(C100-Pad1)*
X98000000Y-97365000D03*
G04 #@! TO.P,Q1,5*
X98000000Y-96095000D03*
G04 #@! TO.P,Q1,4*
G04 #@! TO.N,Net-(Q1-Pad4)*
X92600000Y-96095000D03*
G04 #@! TO.P,Q1,3*
G04 #@! TO.N,GND*
X92600000Y-97365000D03*
G04 #@! TO.P,Q1,2*
G04 #@! TO.N,Net-(Q1-Pad2)*
X92600000Y-98635000D03*
G04 #@! TO.P,Q1,1*
G04 #@! TO.N,GND*
X92600000Y-99905000D03*
G04 #@! TD*
D32*
G04 #@! TO.P,Q2,3*
G04 #@! TO.N,Net-(J3-Pad1)*
X105500000Y-70300000D03*
G04 #@! TO.P,Q2,2*
G04 #@! TO.N,Net-(C121-Pad1)*
X103500000Y-69350000D03*
G04 #@! TO.P,Q2,1*
G04 #@! TO.N,Net-(Q2-Pad1)*
X103500000Y-71250000D03*
G04 #@! TD*
D33*
G04 #@! TO.P,R3,1*
G04 #@! TO.N,Net-(R3-Pad1)*
X48650000Y-99300000D03*
G04 #@! TO.P,R3,2*
G04 #@! TO.N,GND*
X47150000Y-99300000D03*
G04 #@! TD*
G04 #@! TO.P,R6,2*
G04 #@! TO.N,/DDR/DDR_VREF*
X54150000Y-91000000D03*
G04 #@! TO.P,R6,1*
G04 #@! TO.N,+1V35*
X55650000Y-91000000D03*
G04 #@! TD*
G04 #@! TO.P,R7,1*
G04 #@! TO.N,/DDR/DDR_VREF*
X53050000Y-91000000D03*
G04 #@! TO.P,R7,2*
G04 #@! TO.N,GND*
X51550000Y-91000000D03*
G04 #@! TD*
D34*
G04 #@! TO.P,R19,2*
G04 #@! TO.N,/Config/PS_CLK*
X75600000Y-88250000D03*
G04 #@! TO.P,R19,1*
G04 #@! TO.N,Net-(O1-Pad3)*
X75600000Y-86750000D03*
G04 #@! TD*
G04 #@! TO.P,R23,2*
G04 #@! TO.N,/SD/SD_CD*
X50500000Y-83350000D03*
G04 #@! TO.P,R23,1*
G04 #@! TO.N,+1V8*
X50500000Y-84850000D03*
G04 #@! TD*
D33*
G04 #@! TO.P,R45,2*
G04 #@! TO.N,Net-(R45-Pad2)*
X113750000Y-97900000D03*
G04 #@! TO.P,R45,1*
G04 #@! TO.N,XADC_1V8*
X112250000Y-97900000D03*
G04 #@! TD*
G04 #@! TO.P,R46,2*
G04 #@! TO.N,GND*
X116450000Y-97900000D03*
G04 #@! TO.P,R46,1*
G04 #@! TO.N,Net-(R45-Pad2)*
X114950000Y-97900000D03*
G04 #@! TD*
G04 #@! TO.P,R52,2*
G04 #@! TO.N,Net-(Q2-Pad1)*
X104950000Y-67800000D03*
G04 #@! TO.P,R52,1*
G04 #@! TO.N,Net-(C121-Pad1)*
X103450000Y-67800000D03*
G04 #@! TD*
G04 #@! TO.P,R53,1*
G04 #@! TO.N,VBUS_0.5A*
X105150000Y-72600000D03*
G04 #@! TO.P,R53,2*
G04 #@! TO.N,+1V8*
X103650000Y-72600000D03*
G04 #@! TD*
G04 #@! TO.P,R54,1*
G04 #@! TO.N,VBUS_1.5A*
X105150000Y-74000000D03*
G04 #@! TO.P,R54,2*
G04 #@! TO.N,+1V8*
X103650000Y-74000000D03*
G04 #@! TD*
G04 #@! TO.P,R55,2*
G04 #@! TO.N,+1V8*
X103650000Y-75400000D03*
G04 #@! TO.P,R55,1*
G04 #@! TO.N,VBUS_3.0A*
X105150000Y-75400000D03*
G04 #@! TD*
G04 #@! TO.P,R61,2*
G04 #@! TO.N,GND*
X91350000Y-69300000D03*
G04 #@! TO.P,R61,1*
G04 #@! TO.N,Net-(J4-PadB5)*
X92850000Y-69300000D03*
G04 #@! TD*
G04 #@! TO.P,R62,1*
G04 #@! TO.N,Net-(J4-PadA5)*
X97850000Y-69300000D03*
G04 #@! TO.P,R62,2*
G04 #@! TO.N,GND*
X99350000Y-69300000D03*
G04 #@! TD*
G04 #@! TO.P,R64,1*
G04 #@! TO.N,GND*
X96550000Y-76800000D03*
G04 #@! TO.P,R64,2*
G04 #@! TO.N,Net-(R64-Pad2)*
X95050000Y-76800000D03*
G04 #@! TD*
D35*
G04 #@! TO.P,SW1,*
G04 #@! TO.N,*
X38000000Y-90600000D03*
X38000000Y-82400000D03*
D36*
G04 #@! TO.P,SW1,3*
G04 #@! TO.N,GND*
X38000000Y-88500000D03*
G04 #@! TO.P,SW1,2*
G04 #@! TO.N,Net-(R18-Pad2)*
X38000000Y-86500000D03*
D37*
G04 #@! TO.P,SW1,1*
G04 #@! TO.N,+3V3*
X38000000Y-84500000D03*
G04 #@! TD*
D38*
G04 #@! TO.P,SW2,1*
G04 #@! TO.N,N/C*
X109100000Y-64200000D03*
D39*
G04 #@! TO.P,SW2,2*
G04 #@! TO.N,/PowerSupply/SW_EN*
X111100000Y-64200000D03*
G04 #@! TO.P,SW2,3*
G04 #@! TO.N,GND*
X113100000Y-64200000D03*
D40*
G04 #@! TO.P,SW2,*
G04 #@! TO.N,*
X107000000Y-64200000D03*
X115200000Y-64200000D03*
G04 #@! TD*
D41*
G04 #@! TO.P,U6,9*
G04 #@! TO.N,GND*
X85930593Y-75610976D03*
X85930593Y-74670976D03*
X86770593Y-75610976D03*
X86770593Y-74670976D03*
D42*
G04 #@! TO.P,U6,8*
G04 #@! TO.N,+5V*
X88455593Y-76115976D03*
G04 #@! TO.P,U6,7*
X88455593Y-75465976D03*
G04 #@! TO.P,U6,6*
G04 #@! TO.N,N/C*
X88455593Y-74815976D03*
G04 #@! TO.P,U6,5*
G04 #@! TO.N,+3V3*
X88455593Y-74165976D03*
G04 #@! TO.P,U6,4*
G04 #@! TO.N,GND*
X84245593Y-74165976D03*
G04 #@! TO.P,U6,3*
G04 #@! TO.N,HP_3V3*
X84245593Y-74815976D03*
G04 #@! TO.P,U6,2*
X84245593Y-75465976D03*
G04 #@! TO.P,U6,1*
X84245593Y-76115976D03*
G04 #@! TD*
D43*
G04 #@! TO.P,U7,1*
G04 #@! TO.N,XADC_1V8*
X84650000Y-100300000D03*
G04 #@! TO.P,U7,2*
G04 #@! TO.N,XADC_1V25*
X82750000Y-100300000D03*
G04 #@! TO.P,U7,3*
G04 #@! TO.N,GND*
X83700000Y-98300000D03*
G04 #@! TD*
D44*
G04 #@! TO.P,U12,1*
G04 #@! TO.N,SPDIF_OUT*
X62360000Y-70700000D03*
G04 #@! TO.P,U12,2*
G04 #@! TO.N,+3V3*
X64900000Y-70700000D03*
G04 #@! TO.P,U12,3*
G04 #@! TO.N,GND*
X67440000Y-70700000D03*
D25*
G04 #@! TO.P,U12,5*
G04 #@! TO.N,N/C*
X67440000Y-68070000D03*
G04 #@! TO.P,U12,4*
X62360000Y-68070000D03*
G04 #@! TD*
G04 #@! TO.P,U13,4*
G04 #@! TO.N,N/C*
X51660000Y-68070000D03*
G04 #@! TO.P,U13,5*
X56740000Y-68070000D03*
D44*
G04 #@! TO.P,U13,3*
G04 #@! TO.N,SPDIF_IN*
X56740000Y-70700000D03*
G04 #@! TO.P,U13,2*
G04 #@! TO.N,GND*
X54200000Y-70700000D03*
G04 #@! TO.P,U13,1*
G04 #@! TO.N,Net-(C144-Pad1)*
X51660000Y-70700000D03*
G04 #@! TD*
D45*
G04 #@! TO.P,R1,2*
G04 #@! TO.N,/DDR/DDR_CK_N*
X50381802Y-99081802D03*
D12*
G04 #@! TD*
G04 #@! TO.N,/DDR/DDR_CK_N*
G04 #@! TO.C,R1*
G36*
X50735355Y-99011091D02*
X50311091Y-99435355D01*
X50028249Y-99152513D01*
X50452513Y-98728249D01*
X50735355Y-99011091D01*
X50735355Y-99011091D01*
G37*
D45*
G04 #@! TO.P,R1,1*
G04 #@! TO.N,/DDR/DDR_CK_P*
X51018198Y-99718198D03*
D12*
G04 #@! TD*
G04 #@! TO.N,/DDR/DDR_CK_P*
G04 #@! TO.C,R1*
G36*
X51371751Y-99647487D02*
X50947487Y-100071751D01*
X50664645Y-99788909D01*
X51088909Y-99364645D01*
X51371751Y-99647487D01*
X51371751Y-99647487D01*
G37*
D46*
G04 #@! TO.P,R4,2*
G04 #@! TO.N,GND*
X71950000Y-101900000D03*
G04 #@! TO.P,R4,1*
G04 #@! TO.N,Net-(R4-Pad1)*
X71050000Y-101900000D03*
G04 #@! TD*
G04 #@! TO.P,R5,1*
G04 #@! TO.N,Net-(R5-Pad1)*
X69650000Y-109600000D03*
G04 #@! TO.P,R5,2*
G04 #@! TO.N,+1V35*
X68750000Y-109600000D03*
G04 #@! TD*
D13*
G04 #@! TO.P,R21,2*
G04 #@! TO.N,Net-(R21-Pad2)*
X78800000Y-93150000D03*
G04 #@! TO.P,R21,1*
G04 #@! TO.N,/SD/SD_CLK*
X78800000Y-92250000D03*
G04 #@! TD*
D46*
G04 #@! TO.P,R11,2*
G04 #@! TO.N,Net-(R11-Pad2)*
X74950000Y-103500000D03*
G04 #@! TO.P,R11,1*
G04 #@! TO.N,+3V3*
X74050000Y-103500000D03*
G04 #@! TD*
D13*
G04 #@! TO.P,R12,1*
G04 #@! TO.N,Net-(R12-Pad1)*
X78100000Y-103350000D03*
G04 #@! TO.P,R12,2*
G04 #@! TO.N,+3V3*
X78100000Y-104250000D03*
G04 #@! TD*
G04 #@! TO.P,L1,2*
G04 #@! TO.N,Net-(C73-Pad1)*
X75700000Y-99550000D03*
G04 #@! TO.P,L1,1*
G04 #@! TO.N,+1V8*
X75700000Y-100450000D03*
G04 #@! TD*
G04 #@! TO.P,R25,1*
G04 #@! TO.N,/SD/VREF0V9*
X74900000Y-92550000D03*
G04 #@! TO.P,R25,2*
G04 #@! TO.N,GND*
X74900000Y-93450000D03*
G04 #@! TD*
D47*
G04 #@! TO.P,REF\002A\002A,1*
G04 #@! TO.N,N/C*
X86000000Y-71000000D03*
G04 #@! TD*
G04 #@! TO.P,REF\002A\002A,1*
G04 #@! TO.N,N/C*
X107000000Y-116000000D03*
G04 #@! TD*
G04 #@! TO.P,REF\002A\002A,1*
G04 #@! TO.N,N/C*
X37000000Y-96000000D03*
G04 #@! TD*
D11*
G04 #@! TO.P,C78,2*
G04 #@! TO.N,GND*
X84088909Y-88111091D03*
D12*
G04 #@! TD*
G04 #@! TO.N,GND*
G04 #@! TO.C,C78*
G36*
X84053554Y-88500000D02*
X83700000Y-88146446D01*
X84124264Y-87722182D01*
X84477818Y-88075736D01*
X84053554Y-88500000D01*
X84053554Y-88500000D01*
G37*
D11*
G04 #@! TO.P,C78,1*
G04 #@! TO.N,+3V3*
X83311091Y-88888909D03*
D12*
G04 #@! TD*
G04 #@! TO.N,+3V3*
G04 #@! TO.C,C78*
G36*
X83275736Y-89277818D02*
X82922182Y-88924264D01*
X83346446Y-88500000D01*
X83700000Y-88853554D01*
X83275736Y-89277818D01*
X83275736Y-89277818D01*
G37*
D33*
G04 #@! TO.P,R48,2*
G04 #@! TO.N,+3V3*
X102150000Y-92200000D03*
G04 #@! TO.P,R48,1*
G04 #@! TO.N,PG_ALL*
X103650000Y-92200000D03*
G04 #@! TD*
D48*
G04 #@! TO.N,/DDR/DDR_VREF*
X48300000Y-101000000D03*
X71700000Y-101100000D03*
X71700000Y-95500000D03*
X52000000Y-94400000D03*
G04 #@! TO.N,+1V35*
X67700000Y-101900000D03*
X70900000Y-100300000D03*
X71700000Y-97100000D03*
X70100000Y-93900000D03*
X67700000Y-93100000D03*
X69300000Y-96300000D03*
X66709096Y-103907472D03*
X46300008Y-102500000D03*
X59400000Y-101100000D03*
X66800000Y-96200000D03*
X56200000Y-104300000D03*
X67500000Y-88500000D03*
X67500000Y-87700000D03*
X66900000Y-87000000D03*
X66900000Y-87700000D03*
X66900000Y-88500000D03*
X66800000Y-108400000D03*
X66800000Y-109100000D03*
X66800000Y-109800000D03*
X67500000Y-109800000D03*
X67500000Y-109100000D03*
X67500000Y-108400000D03*
X67500000Y-87000000D03*
X70800000Y-111000000D03*
X110600000Y-105300000D03*
X109200000Y-104400000D03*
X109200000Y-105000000D03*
X111200000Y-105300000D03*
X110000000Y-106000000D03*
X57100000Y-92100000D03*
X68500000Y-99500000D03*
G04 #@! TO.N,GND*
X106600000Y-85700000D03*
X107000000Y-85000000D03*
X106200000Y-85000000D03*
X106600000Y-84300000D03*
X86800000Y-75150000D03*
X86350000Y-75650000D03*
X86350000Y-74650000D03*
X107800000Y-70800000D03*
X105275000Y-99750000D03*
X103525000Y-99750000D03*
X105275000Y-98000000D03*
X103525000Y-98000000D03*
X105275000Y-96250000D03*
X103525000Y-96250000D03*
X106150000Y-98875000D03*
X106150000Y-97100000D03*
X104400000Y-97125000D03*
X104400000Y-98875000D03*
X102650000Y-98875000D03*
X102650000Y-97125000D03*
X46400000Y-80900000D03*
X45700000Y-81500000D03*
X45700000Y-80200000D03*
X54700000Y-101000000D03*
X54700000Y-95400000D03*
X50700000Y-101000000D03*
X48700000Y-94400000D03*
X67700000Y-105900000D03*
X68500000Y-103500000D03*
X70100000Y-97900000D03*
X70900000Y-95500000D03*
X68500000Y-94700000D03*
X69300000Y-92300000D03*
X48100000Y-92100000D03*
X50200000Y-92100000D03*
X52300000Y-92100000D03*
X54400000Y-92100000D03*
X50700000Y-95400000D03*
X46000000Y-104300000D03*
X50200000Y-104300000D03*
X52900000Y-104300000D03*
X48700000Y-102000000D03*
X54400000Y-104300000D03*
X57100000Y-104300000D03*
X57100000Y-97000000D03*
X69300000Y-101100000D03*
X46054063Y-92154063D03*
X70100000Y-106700000D03*
X73300000Y-105100000D03*
X44400000Y-100400000D03*
X72500000Y-99500000D03*
X73300000Y-100300000D03*
X74100000Y-101100000D03*
X71700000Y-93100000D03*
X74100000Y-93900000D03*
X73300000Y-96300000D03*
X76500000Y-95500000D03*
X74900000Y-96300000D03*
X74100000Y-97100000D03*
X74900000Y-97900000D03*
X76500000Y-97900000D03*
X76500000Y-97100000D03*
X77300000Y-97900000D03*
X77300000Y-96300000D03*
X66600000Y-91700000D03*
X66800000Y-99900000D03*
X59400000Y-102200000D03*
X48100000Y-104300000D03*
X43200000Y-97900000D03*
X42400000Y-95300000D03*
X50800000Y-92100000D03*
X40700000Y-95200000D03*
X46100000Y-106200000D03*
X69200000Y-108700000D03*
X74900000Y-91500000D03*
X78100000Y-92300000D03*
X78900000Y-89900000D03*
X81300000Y-90700000D03*
X83700000Y-91500000D03*
X80500000Y-93100000D03*
X82900000Y-93900000D03*
X79700000Y-95500000D03*
X82100000Y-96300000D03*
X84500000Y-97100000D03*
X81300000Y-99500000D03*
X78900000Y-97900000D03*
X76500000Y-100300000D03*
X76500000Y-99500000D03*
X74900000Y-100300000D03*
X74100000Y-99500000D03*
X76490000Y-101080000D03*
X78100000Y-99500000D03*
X77300000Y-100300000D03*
X74900000Y-101900000D03*
X77300000Y-103500000D03*
X78900000Y-106700000D03*
X76500000Y-105900000D03*
X82100000Y-105100000D03*
X80900000Y-107700000D03*
X79700000Y-104300000D03*
X82900000Y-102700000D03*
X80500000Y-101900000D03*
X83700000Y-100300000D03*
X88400000Y-81100000D03*
X65800000Y-84400000D03*
X68500000Y-84900000D03*
X70500000Y-89700000D03*
X74700000Y-87500000D03*
X74600000Y-83500000D03*
X74600000Y-82800000D03*
X76500000Y-83000000D03*
X72100000Y-82700000D03*
X74500000Y-80100000D03*
X75800000Y-79800000D03*
X45100000Y-85500000D03*
X43100000Y-77600000D03*
X36100000Y-77600000D03*
X48200000Y-72100000D03*
X48200000Y-65900000D03*
X45000000Y-80900000D03*
X110000000Y-83400000D03*
X98700000Y-93200000D03*
X100800000Y-93200000D03*
X104100000Y-93800000D03*
X104600000Y-93300000D03*
X105200000Y-93800000D03*
X105500000Y-89900000D03*
X107100000Y-102300000D03*
X101781797Y-102281791D03*
X110700000Y-100800000D03*
X110700000Y-95200000D03*
X111400000Y-97400000D03*
X117200000Y-97900000D03*
X99400000Y-103600000D03*
X99900000Y-88900000D03*
X99600000Y-85900000D03*
X98900000Y-88000000D03*
X93800000Y-88000000D03*
X92900000Y-89000000D03*
X108600000Y-92500000D03*
X109600000Y-92900000D03*
X111200000Y-92900000D03*
X117200000Y-88800000D03*
X98700000Y-102300000D03*
X42300000Y-90100000D03*
X44100000Y-88300000D03*
X45700000Y-86700000D03*
X52300000Y-86100000D03*
X58600000Y-86100000D03*
X65600000Y-86100000D03*
X42300000Y-102900000D03*
X53000000Y-109700000D03*
X60000000Y-109700000D03*
X64100000Y-109700000D03*
X100150000Y-97750000D03*
X91100000Y-99900000D03*
X91100000Y-97400000D03*
X91100000Y-98600000D03*
X111200000Y-102400000D03*
X109200000Y-102400000D03*
X108500000Y-102600000D03*
X94100000Y-107000000D03*
X95500000Y-109400000D03*
X94600000Y-108600000D03*
X104400000Y-106000000D03*
X104300000Y-105200000D03*
X105600000Y-105100000D03*
X105400000Y-79500000D03*
X106800000Y-79800000D03*
X108200000Y-79500000D03*
X91700000Y-72100000D03*
X92500000Y-72100000D03*
X96300000Y-75800000D03*
X98100000Y-72100000D03*
X48500000Y-80200000D03*
X48200000Y-61800000D03*
X33700000Y-62800000D03*
X107400000Y-93700000D03*
X78100000Y-95500000D03*
X82100000Y-101900000D03*
X85100000Y-99400000D03*
X97500000Y-84500000D03*
X98200000Y-84400000D03*
X98700000Y-83800000D03*
X101200000Y-83800000D03*
X101400000Y-82600000D03*
X103400000Y-82300000D03*
X98100000Y-79500000D03*
X103400000Y-77400000D03*
X102300000Y-76400000D03*
X109100000Y-76700000D03*
X100400000Y-71600000D03*
X100600000Y-74000000D03*
X101700000Y-76000000D03*
X97300000Y-67900000D03*
X98500000Y-67900000D03*
X99200000Y-67900000D03*
X91700000Y-67900000D03*
X92900000Y-67900000D03*
X91000000Y-67900000D03*
X111200000Y-71300000D03*
X85900000Y-75150000D03*
X85900000Y-75150000D03*
X85900000Y-75150000D03*
X82900000Y-73500000D03*
X114900000Y-69000000D03*
X104400000Y-83400000D03*
X108800000Y-83400000D03*
X108200000Y-74900000D03*
X89600000Y-74000000D03*
X90200000Y-73700000D03*
X73000000Y-70500000D03*
X72100000Y-72500000D03*
X78000000Y-74100000D03*
X70700000Y-73700000D03*
X54200000Y-72300000D03*
X46800000Y-107700000D03*
X40800000Y-114200000D03*
X54800000Y-118500000D03*
X60900000Y-116500000D03*
X60900000Y-112000000D03*
X33100000Y-102500000D03*
X50900000Y-124900000D03*
X72500000Y-90700000D03*
X71700000Y-103500000D03*
X66300000Y-118500000D03*
X77800000Y-118500000D03*
X71000000Y-124900000D03*
X56300000Y-92100000D03*
X81800000Y-72800000D03*
X87900000Y-118500000D03*
X90900000Y-124900000D03*
X84800000Y-105500000D03*
X117900000Y-125100000D03*
X81400000Y-116600000D03*
X81400000Y-112000000D03*
X91500000Y-116600000D03*
X91500000Y-112000000D03*
X98700000Y-117600000D03*
X70200000Y-111500000D03*
X72800000Y-111000000D03*
X104000000Y-112000000D03*
X73300000Y-104300000D03*
X76500000Y-88900000D03*
X67700000Y-97100000D03*
X80500000Y-100300000D03*
X78100000Y-101100000D03*
X79700000Y-96300000D03*
X73300000Y-97900000D03*
X75700000Y-103500000D03*
X75700000Y-104300000D03*
X85500000Y-86700000D03*
X85300000Y-101500000D03*
X80200000Y-86400000D03*
X84700000Y-97800000D03*
X86100000Y-97800000D03*
X87500002Y-96300000D03*
X89800000Y-99900000D03*
X91100000Y-104000000D03*
X80400000Y-83900000D03*
X88800000Y-100400000D03*
X89800000Y-97900000D03*
X89400000Y-94800000D03*
X68800000Y-84100000D03*
X91600000Y-89800000D03*
X61300000Y-84900000D03*
X64100000Y-84700000D03*
X91100000Y-83600000D03*
X85200000Y-107500000D03*
X88600000Y-95400000D03*
X89400000Y-92500000D03*
X69100000Y-87500000D03*
X93200000Y-102800000D03*
X96600000Y-102800000D03*
X94200000Y-103400000D03*
X97600000Y-103400000D03*
X96000000Y-106800000D03*
X72500000Y-107500000D03*
X98300000Y-71200000D03*
X92100000Y-71200000D03*
G04 #@! TO.N,+1V0*
X72500000Y-97900000D03*
X72500000Y-100300000D03*
X73300000Y-95500000D03*
X74100000Y-96300000D03*
X74900000Y-95500000D03*
X76500000Y-96300000D03*
X77300000Y-97100000D03*
X72500000Y-101900000D03*
X77300000Y-99500000D03*
X78100000Y-97900000D03*
X77300000Y-101100000D03*
X96800000Y-89000000D03*
X98900000Y-91800000D03*
X96800000Y-89800000D03*
X98100000Y-91800000D03*
X97500000Y-89000000D03*
X97500000Y-89800000D03*
X99750000Y-89900000D03*
X106700000Y-93700000D03*
X72500000Y-97100000D03*
X78100000Y-100300000D03*
X78100000Y-101900000D03*
X82100000Y-97100000D03*
X82900000Y-101100000D03*
X84700000Y-96300000D03*
X86100000Y-96300000D03*
X87500002Y-97800000D03*
X87800000Y-99900000D03*
X86500000Y-101200000D03*
X88800000Y-98900000D03*
X89400000Y-96000000D03*
G04 #@! TO.N,+1V8*
X74100000Y-100300000D03*
X74100000Y-97900000D03*
X73300000Y-94700000D03*
X73300000Y-92300000D03*
X74100000Y-89900000D03*
X74100000Y-101900000D03*
X74900000Y-101100000D03*
X77300000Y-90700000D03*
X76500000Y-93100000D03*
X73300000Y-99500000D03*
X50500000Y-86100000D03*
X45900000Y-85600000D03*
X54300000Y-86100000D03*
X109000000Y-91450000D03*
X109550000Y-91450000D03*
X109550000Y-90850000D03*
X109000000Y-90850000D03*
X110350000Y-88650000D03*
X75700000Y-101100000D03*
X102500000Y-75400000D03*
X73300000Y-97100000D03*
X79600000Y-86400000D03*
X79600000Y-84900000D03*
X67600000Y-84100000D03*
X91600000Y-88400000D03*
X59300000Y-84900000D03*
X62700000Y-84700000D03*
X87800000Y-84600000D03*
G04 #@! TO.N,+3V3*
X72500000Y-102700000D03*
X71700000Y-102700000D03*
X71700000Y-105900000D03*
X68499989Y-90700000D03*
X78900000Y-93900000D03*
X82500000Y-89700000D03*
X84700000Y-93500000D03*
X82100000Y-92300000D03*
X83700000Y-95500000D03*
X81300000Y-94700000D03*
X74100000Y-102700000D03*
X74900000Y-104300000D03*
X76500000Y-101900000D03*
X78100000Y-105100000D03*
X74100000Y-106700000D03*
X77300000Y-107500000D03*
X80500000Y-105900000D03*
X82900000Y-106700000D03*
X81300000Y-103500000D03*
X83700000Y-104300000D03*
X73200000Y-87500000D03*
X73900004Y-79800000D03*
X78700000Y-77900000D03*
X44900000Y-78100000D03*
X42900000Y-80700000D03*
X40900000Y-77600000D03*
X108600000Y-97200000D03*
X98000000Y-107000000D03*
X98000000Y-108600000D03*
X98000000Y-107800000D03*
X98000000Y-106200000D03*
X99400000Y-106900000D03*
X85700000Y-62300000D03*
X79700000Y-91500000D03*
X88400000Y-73400000D03*
X78000000Y-75100000D03*
X53500000Y-74700000D03*
X47800000Y-107700000D03*
X53800000Y-118500000D03*
X69300000Y-106700000D03*
X70900000Y-105900000D03*
X72500000Y-103500000D03*
X70900000Y-104300000D03*
X65300000Y-118500000D03*
X76800000Y-118500000D03*
X86900000Y-118500000D03*
X96100000Y-117600000D03*
X70900011Y-91500000D03*
X83700000Y-107500000D03*
X87300000Y-93800000D03*
X86400000Y-95000000D03*
X89600000Y-104800000D03*
X91500000Y-102800000D03*
X94600000Y-102800000D03*
X92200000Y-103400000D03*
X95600000Y-103400000D03*
X92200000Y-106800000D03*
X101500000Y-92200000D03*
G04 #@! TO.N,Net-(C73-Pad1)*
X74100000Y-95500000D03*
G04 #@! TO.N,XADC_1V8*
X74900000Y-97100000D03*
X110700000Y-97500000D03*
X78100000Y-97100000D03*
X86600000Y-98600000D03*
G04 #@! TO.N,XADC_1V25*
X74900000Y-99500000D03*
X80500000Y-99500000D03*
G04 #@! TO.N,/SD/VREF0V9*
X72500000Y-93900000D03*
G04 #@! TO.N,+5V*
X104300000Y-85200000D03*
X103900000Y-85700000D03*
X104300000Y-86200000D03*
X105800000Y-87700000D03*
X106300000Y-88100000D03*
X98700000Y-94600000D03*
X110700000Y-99300000D03*
X110700000Y-96700000D03*
X98700000Y-100900000D03*
X103400000Y-78800000D03*
X103400000Y-79600000D03*
G04 #@! TO.N,Net-(C93-Pad2)*
X95600000Y-98700000D03*
X96800000Y-98700000D03*
G04 #@! TO.N,/PowerSupply/SW_EN*
X109100000Y-84500000D03*
X112900000Y-67900000D03*
G04 #@! TO.N,Net-(C100-Pad1)*
X95600000Y-97300000D03*
X96800000Y-97300000D03*
G04 #@! TO.N,Net-(C106-Pad2)*
X109000000Y-100000000D03*
G04 #@! TO.N,Net-(C106-Pad1)*
X108700000Y-101200000D03*
G04 #@! TO.N,Net-(C111-Pad1)*
X108600000Y-94900000D03*
G04 #@! TO.N,Net-(C111-Pad2)*
X109000000Y-96000000D03*
G04 #@! TO.N,HP_3V3*
X69200000Y-79800000D03*
X81750000Y-75900000D03*
X82850000Y-75950000D03*
X77300000Y-71400000D03*
G04 #@! TO.N,Net-(C118-Pad1)*
X107700000Y-102200000D03*
X101100000Y-102200000D03*
X109000000Y-98700000D03*
X114100000Y-89600000D03*
G04 #@! TO.N,Net-(C121-Pad1)*
X96400000Y-67900000D03*
X94100000Y-67900000D03*
X102700000Y-67800000D03*
X102100000Y-67800000D03*
X110700000Y-67800000D03*
X111200000Y-70300000D03*
G04 #@! TO.N,+3.3VA*
X88400000Y-82100000D03*
X90700000Y-72100000D03*
X101700000Y-75400000D03*
X101700000Y-77000000D03*
X103400000Y-80900000D03*
X108200000Y-76700000D03*
X96700000Y-70100000D03*
X93800000Y-70100000D03*
X104400000Y-73300000D03*
G04 #@! TO.N,/USB/DP*
X94800000Y-73400000D03*
X94900000Y-69300000D03*
G04 #@! TO.N,/USB/DM*
X95400000Y-73400000D03*
X95500000Y-68800000D03*
G04 #@! TO.N,PS_SRST_B*
X73300000Y-91500000D03*
G04 #@! TO.N,/Config/TDI*
X77300000Y-95500000D03*
G04 #@! TO.N,/Config/TDO*
X78100000Y-94700000D03*
G04 #@! TO.N,/Config/TCK*
X74900000Y-94700000D03*
G04 #@! TO.N,/Config/TMS*
X76500000Y-94700000D03*
G04 #@! TO.N,/SD/SD_CD*
X74100000Y-90700000D03*
X51600000Y-83400000D03*
G04 #@! TO.N,Net-(J4-PadA5)*
X96800000Y-68500000D03*
G04 #@! TO.N,Net-(J4-PadB5)*
X93900000Y-69300000D03*
G04 #@! TO.N,Net-(J5-Pad1)*
X74400000Y-73200000D03*
G04 #@! TO.N,Net-(J5-Pad2)*
X71700000Y-73400000D03*
G04 #@! TO.N,Net-(J5-Pad3)*
X72300000Y-73200000D03*
G04 #@! TO.N,Net-(Q1-Pad4)*
X99700000Y-97300000D03*
G04 #@! TO.N,Net-(Q1-Pad2)*
X99700000Y-98200000D03*
G04 #@! TO.N,Net-(Q2-Pad1)*
X105600000Y-69000000D03*
G04 #@! TO.N,/DDR/DDR_CK_P*
X51401526Y-99101526D03*
X69290938Y-100320010D03*
G04 #@! TO.N,/DDR/DDR_CK_N*
X70100000Y-100300000D03*
X50998474Y-98698474D03*
G04 #@! TO.N,/DDR/DDR_DRST*
X68500000Y-93900000D03*
X43400000Y-96000000D03*
G04 #@! TO.N,Net-(R3-Pad1)*
X49100000Y-101000000D03*
G04 #@! TO.N,Net-(R4-Pad1)*
X71700000Y-100300000D03*
G04 #@! TO.N,Net-(R5-Pad1)*
X71700000Y-99500000D03*
X70500000Y-108300000D03*
G04 #@! TO.N,/Config/DONE*
X76500000Y-102700000D03*
X86900000Y-102100000D03*
G04 #@! TO.N,Net-(R11-Pad2)*
X74900000Y-102700000D03*
G04 #@! TO.N,Net-(R12-Pad1)*
X78100000Y-102700000D03*
G04 #@! TO.N,/Config/VMODE1*
X70100000Y-93100000D03*
X72500000Y-89200000D03*
G04 #@! TO.N,/Config/VMODE0*
X70100000Y-92300000D03*
X71900000Y-89200000D03*
G04 #@! TO.N,/Config/BOOT_MODE1*
X70900000Y-93900000D03*
X72500000Y-89799990D03*
G04 #@! TO.N,/Config/BOOT_MODE0*
X68900000Y-89700000D03*
X44400000Y-86200000D03*
G04 #@! TO.N,/Config/PS_CLK*
X71700000Y-93900000D03*
G04 #@! TO.N,/Config/BOOT_MODE2*
X69300000Y-93100000D03*
X44400000Y-87700000D03*
G04 #@! TO.N,/SD/SD_CLK*
X79100000Y-89200000D03*
X48800000Y-81100000D03*
G04 #@! TO.N,Net-(R21-Pad2)*
X78100000Y-93100000D03*
G04 #@! TO.N,Net-(R44-Pad2)*
X100800000Y-88300000D03*
X102100000Y-93700000D03*
G04 #@! TO.N,Net-(R45-Pad2)*
X108600000Y-98300000D03*
G04 #@! TO.N,PG_ALL*
X70400000Y-89100000D03*
X103700000Y-93300000D03*
G04 #@! TO.N,VBUS_0.5A*
X79200000Y-81400000D03*
X105400000Y-71600000D03*
G04 #@! TO.N,VBUS_1.5A*
X79800000Y-81400000D03*
X107000000Y-73200000D03*
G04 #@! TO.N,VBUS_3.0A*
X80400000Y-81400000D03*
X107600000Y-73500000D03*
G04 #@! TO.N,Net-(R64-Pad2)*
X95500000Y-75800000D03*
G04 #@! TO.N,Net-(R65-Pad2)*
X100400000Y-78800000D03*
X103400000Y-78100000D03*
G04 #@! TO.N,USB_RSTN*
X82100000Y-94700000D03*
X96000000Y-86600000D03*
G04 #@! TO.N,HP_SCL*
X71700000Y-94700000D03*
X71000000Y-85600000D03*
G04 #@! TO.N,HP_SDA*
X70300000Y-85900000D03*
X69300000Y-90700000D03*
G04 #@! TO.N,HP_RSTN*
X70100000Y-91500000D03*
X69600000Y-85900000D03*
G04 #@! TO.N,IF1_RST*
X110600000Y-123600000D03*
X88400000Y-108099998D03*
G04 #@! TO.N,IF3_RST*
X79700000Y-105900000D03*
X74100000Y-121400000D03*
G04 #@! TO.N,IF4_RST*
X77300000Y-105900000D03*
X54300000Y-121400000D03*
G04 #@! TO.N,IF5_RST*
X73300000Y-106700000D03*
X43900000Y-115400000D03*
G04 #@! TO.N,IF6_RST*
X69300000Y-107500000D03*
X43000000Y-106000000D03*
G04 #@! TO.N,/PL_IO/R*
X80500000Y-95500000D03*
X87800000Y-67100000D03*
G04 #@! TO.N,/PL_IO/G*
X81300000Y-96300000D03*
X84600000Y-67100000D03*
G04 #@! TO.N,/PL_IO/B*
X81300000Y-95500000D03*
X86200000Y-67600000D03*
G04 #@! TO.N,IF1_STXD*
X101400000Y-115300000D03*
X84800000Y-103100000D03*
G04 #@! TO.N,IF1_SSCK*
X101400000Y-112700000D03*
X84800000Y-102300000D03*
G04 #@! TO.N,IF1_SRXD*
X83700000Y-102700000D03*
X101400000Y-114600000D03*
G04 #@! TO.N,SPDIF_OUT*
X80200000Y-87800000D03*
G04 #@! TO.N,USB_CLK60*
X82900000Y-90700000D03*
X94200000Y-84700000D03*
G04 #@! TO.N,SPDIF_IN*
X79600000Y-88300000D03*
G04 #@! TO.N,USB_SIWU#*
X82900000Y-94700000D03*
X93700000Y-85300000D03*
G04 #@! TO.N,USB_DBUS5*
X82900000Y-92300000D03*
X88600000Y-78800000D03*
G04 #@! TO.N,HP_MCLK*
X81300000Y-92300000D03*
X82300000Y-88200000D03*
G04 #@! TO.N,USB_RXF#*
X82900000Y-93100000D03*
X88600000Y-80300000D03*
G04 #@! TO.N,IF4_SRXD*
X78900000Y-105900000D03*
X72400000Y-114600000D03*
G04 #@! TO.N,USB_CBUS8*
X82900000Y-95500000D03*
X95700000Y-85000000D03*
G04 #@! TO.N,IF4_HSCK*
X78100000Y-106700000D03*
X67000000Y-116000000D03*
G04 #@! TO.N,IF4_HRXD*
X78100000Y-105900000D03*
X67400000Y-115500000D03*
G04 #@! TO.N,IF4_HTXD*
X77300000Y-106700000D03*
X67900000Y-115000000D03*
G04 #@! TO.N,/SD/SD_D2*
X77300000Y-93100000D03*
X44400000Y-83800000D03*
G04 #@! TO.N,IF5_SSCK*
X76500000Y-107500000D03*
X61500000Y-114000000D03*
G04 #@! TO.N,IF5_SRXD*
X76500000Y-106700000D03*
X60900000Y-113400000D03*
G04 #@! TO.N,IF5_STXD*
X74900000Y-107500000D03*
X60900000Y-112700000D03*
G04 #@! TO.N,IF5_HSCK*
X74900000Y-106700000D03*
X55000000Y-115300000D03*
G04 #@! TO.N,/SD/SD_D1*
X74900000Y-90700000D03*
X49100000Y-82800000D03*
G04 #@! TO.N,IF5_HRXD*
X74100000Y-107500000D03*
X55000000Y-114600000D03*
G04 #@! TO.N,IF5_HTXD*
X55600000Y-114000000D03*
X73300000Y-107500000D03*
G04 #@! TO.N,/SD/SD_D3*
X73300000Y-90700000D03*
X45400000Y-83700000D03*
G04 #@! TO.N,IF6_SSCK*
X72500000Y-106700000D03*
X43200000Y-113500000D03*
G04 #@! TO.N,/SD/SD_D0*
X72500000Y-92300000D03*
X47000000Y-83700000D03*
G04 #@! TO.N,/SD/SD_CMD*
X72500000Y-91500000D03*
X46000000Y-83700000D03*
G04 #@! TO.N,IF6_SRXD*
X43200000Y-112900000D03*
X71700000Y-107500000D03*
G04 #@! TO.N,IF6_STXD*
X71700000Y-106700000D03*
X43800000Y-112200000D03*
G04 #@! TO.N,/DDR/DDR_BA0*
X71700000Y-97900000D03*
X49100000Y-95400000D03*
G04 #@! TO.N,/DDR/DDR_A6*
X71700000Y-96300000D03*
X45800000Y-102000000D03*
X66100000Y-107100000D03*
G04 #@! TO.N,IF6_HSCK*
X49700000Y-112300000D03*
X70900000Y-107500000D03*
G04 #@! TO.N,IF6_HRXD*
X70900000Y-106700000D03*
X49100000Y-111600000D03*
G04 #@! TO.N,/DDR/DDR_CS*
X70900000Y-101100000D03*
X49100000Y-96200000D03*
X49700000Y-106000000D03*
G04 #@! TO.N,/DDR/DDR_BA2*
X48300000Y-96200004D03*
X70900000Y-99500000D03*
G04 #@! TO.N,/DDR/DDR_BA1*
X70900000Y-97900000D03*
X47500000Y-101000000D03*
G04 #@! TO.N,/DDR/DDR_A4*
X70900000Y-97100000D03*
X65100000Y-103100000D03*
X46900004Y-102700000D03*
G04 #@! TO.N,/DDR/DDR_A7*
X70900000Y-96300000D03*
X45900000Y-96200000D03*
G04 #@! TO.N,IF6_HTXD*
X49100000Y-110900000D03*
X70100000Y-107500000D03*
G04 #@! TO.N,/DDR/DDR_RAS*
X70100000Y-101900000D03*
X51100000Y-97300000D03*
X62400000Y-100100000D03*
G04 #@! TO.N,/DDR/DDR_ODT*
X50300000Y-94300000D03*
X70100000Y-101100000D03*
X49900000Y-98700000D03*
G04 #@! TO.N,/DDR/DDR_A1*
X47500000Y-100200000D03*
X70100000Y-99500000D03*
X65800000Y-101600000D03*
G04 #@! TO.N,/DDR/DDR_A5*
X70100000Y-97100000D03*
X47500006Y-96200000D03*
X63800000Y-97505011D03*
G04 #@! TO.N,/DDR/DDR_A8*
X70100000Y-96300000D03*
X45100000Y-101000000D03*
X64399998Y-103200000D03*
G04 #@! TO.N,/DDR/DDR_A9*
X70100000Y-95500000D03*
X44900000Y-97300000D03*
G04 #@! TO.N,/DDR/DDR_A11*
X70100000Y-94700000D03*
X45900000Y-99400004D03*
G04 #@! TO.N,/DDR/DDR_WE*
X69300000Y-101900000D03*
X49500000Y-97300000D03*
X61800000Y-100100000D03*
G04 #@! TO.N,/DDR/DDR_A0*
X47900000Y-97300000D03*
X69300000Y-99479979D03*
X48900000Y-98300000D03*
G04 #@! TO.N,/DDR/DDR_A3*
X69300000Y-97900000D03*
X48300000Y-95400000D03*
X48400000Y-93900000D03*
G04 #@! TO.N,/DDR/DDR_A2*
X69300000Y-97100000D03*
X46400000Y-97500000D03*
G04 #@! TO.N,/DDR/DDR_A12*
X69300000Y-95500000D03*
X46400000Y-99000000D03*
X64600000Y-95100000D03*
G04 #@! TO.N,/DDR/DDR_A14*
X69300000Y-94700000D03*
X44800008Y-99800000D03*
G04 #@! TO.N,/DDR/DDR_A13*
X69300000Y-93900000D03*
X43300000Y-96600000D03*
G04 #@! TO.N,/DDR/DDR_CKE*
X68500000Y-104300000D03*
X50600000Y-102200000D03*
G04 #@! TO.N,/DDR/DDR_CAS*
X50300000Y-97300000D03*
X68500000Y-101100000D03*
X65800000Y-99999996D03*
G04 #@! TO.N,/DDR/DDR_A10*
X60700000Y-97704063D03*
X48400000Y-97800000D03*
X68500000Y-96300000D03*
G04 #@! TO.N,/DDR/DDR_DM1*
X66700000Y-91100000D03*
X55500000Y-96200000D03*
G04 #@! TO.N,/DDR/DDR_DQ4*
X51900000Y-97300000D03*
X58500004Y-104200000D03*
G04 #@! TO.N,/DDR/DDR_DQ3*
X53100000Y-101000000D03*
X62900000Y-105800000D03*
G04 #@! TO.N,/DDR/DDR_DQ1*
X53900000Y-100200000D03*
X63700000Y-105200000D03*
G04 #@! TO.N,/DDR/DDR_DQ11*
X68500000Y-92300000D03*
X66100000Y-90400000D03*
G04 #@! TO.N,/DDR/DDR_DQS_1_N*
X67700000Y-92300000D03*
X64400000Y-94475000D03*
G04 #@! TO.N,/DDR/DDR_DQS_1_P*
X67700000Y-91500000D03*
X64400000Y-93925000D03*
G04 #@! TO.N,/DDR/DDR_DQ8*
X66400000Y-93100000D03*
X68500000Y-93100000D03*
G04 #@! TO.N,/DDR/DDR_DQ6*
X52300000Y-96200000D03*
X60300000Y-104400000D03*
G04 #@! TO.N,/DDR/DDR_DQS_0_N*
X54200000Y-97900000D03*
X67700000Y-96300000D03*
G04 #@! TO.N,/DDR/DDR_DQS_0_P*
X54600000Y-97500000D03*
X67700000Y-95500000D03*
G04 #@! TO.N,/DDR/DDR_DQ2*
X53100000Y-96200000D03*
X61400000Y-103800000D03*
G04 #@! TO.N,/DDR/DDR_DQ13*
X68500000Y-91500000D03*
X65900000Y-89800000D03*
G04 #@! TO.N,/DDR/DDR_DQ7*
X51500000Y-100200000D03*
X61000000Y-105800000D03*
G04 #@! TO.N,/DDR/DDR_DQ5*
X51500000Y-101000000D03*
X61800000Y-106000000D03*
G04 #@! TO.N,/DDR/DDR_DQ0*
X53900000Y-96200000D03*
X61800000Y-102700000D03*
G04 #@! TO.N,/DDR/DDR_DM0*
X68500000Y-95500000D03*
X54800000Y-99200000D03*
G04 #@! TO.N,Net-(U10-Pad5)*
X101200000Y-77800000D03*
X107700000Y-77100000D03*
G04 #@! TO.N,Net-(U10-Pad4)*
X100700000Y-78300000D03*
X107700000Y-78000000D03*
G04 #@! TO.N,/PL_IO/TEST1*
X81300000Y-105100000D03*
X85900000Y-109700000D03*
G04 #@! TO.N,/PL_IO/TEST2*
X79700000Y-103500000D03*
X80000000Y-109800000D03*
G04 #@! TO.N,/PL_IO/TEST3*
X80500000Y-103500000D03*
X89500000Y-110000000D03*
G04 #@! TO.N,/PL_IO/TEST4*
X80500000Y-104300000D03*
X82200000Y-109600000D03*
G04 #@! TD*
D49*
G04 #@! TO.N,/DDR/DDR_VREF*
X48300000Y-101250000D02*
X47850000Y-101700000D01*
X48300000Y-101000000D02*
X48300000Y-101250000D01*
D50*
X53600000Y-91000000D02*
X53600000Y-93000000D01*
X53050000Y-91000000D02*
X53600000Y-91000000D01*
X53600000Y-91000000D02*
X54150000Y-91000000D01*
X52850000Y-93750000D02*
X52850000Y-94400000D01*
X53600000Y-93000000D02*
X52850000Y-93750000D01*
X52850000Y-94400000D02*
X52000000Y-94400000D01*
X53500000Y-92900000D02*
X53600000Y-93000000D01*
X53200000Y-92900000D02*
X53500000Y-92900000D01*
X71800000Y-101000000D02*
X71700000Y-101100000D01*
X72350000Y-101000000D02*
X71800000Y-101000000D01*
D51*
G04 #@! TO.N,+1V35*
X46300008Y-102149992D02*
X46750000Y-101700000D01*
X46300008Y-102500000D02*
X46300008Y-102149992D01*
D50*
X55650000Y-91000000D02*
X56500000Y-91000000D01*
X56500000Y-91000000D02*
X57100000Y-91600000D01*
X57100000Y-91600000D02*
X57100000Y-92100000D01*
D51*
X70500000Y-93500000D02*
X70500000Y-93400000D01*
X70750000Y-92500000D02*
X70500000Y-92750000D01*
D52*
X70500000Y-93400000D02*
X70500000Y-92750000D01*
D51*
X70100000Y-93900000D02*
X69875001Y-93675001D01*
X69875001Y-93675001D02*
X69700000Y-93500000D01*
X69700000Y-93500000D02*
X69700000Y-93400000D01*
D52*
X69700000Y-92900000D02*
X69900000Y-92700000D01*
X69700000Y-93500000D02*
X69700000Y-92900000D01*
D51*
X70550000Y-92700000D02*
X70750000Y-92500000D01*
X70400000Y-92700000D02*
X70550000Y-92700000D01*
D52*
X69900000Y-92700000D02*
X70400000Y-92700000D01*
D51*
X70324999Y-93675001D02*
X70400000Y-93600000D01*
X69875001Y-93675001D02*
X70324999Y-93675001D01*
X70100000Y-93900000D02*
X70400000Y-93600000D01*
X70400000Y-93600000D02*
X70500000Y-93500000D01*
D50*
X57100000Y-92100000D02*
X57100000Y-92100000D01*
X67622182Y-93100000D02*
X67111091Y-93611091D01*
X67700000Y-93100000D02*
X67622182Y-93100000D01*
D53*
X67700000Y-109600000D02*
X67500000Y-109800000D01*
X68750000Y-109600000D02*
X67700000Y-109600000D01*
D51*
G04 #@! TO.N,GND*
X47150000Y-99500000D02*
X46250000Y-100400000D01*
X47150000Y-99300000D02*
X47150000Y-99500000D01*
X46250000Y-100400000D02*
X44400000Y-100400000D01*
D50*
X54700000Y-95150000D02*
X53950000Y-94400000D01*
X54700000Y-95400000D02*
X54700000Y-95150000D01*
X52100000Y-92300000D02*
X52300000Y-92100000D01*
X52100000Y-92900000D02*
X52100000Y-92300000D01*
X52000000Y-92300000D02*
X52100000Y-92300000D01*
X51550000Y-91850000D02*
X52000000Y-92300000D01*
X50800000Y-91750000D02*
X51550000Y-91000000D01*
X50800000Y-92100000D02*
X50800000Y-91750000D01*
X50200000Y-91700000D02*
X50200000Y-92100000D01*
X50200000Y-92100000D02*
X50800000Y-92100000D01*
X50350000Y-91850000D02*
X50200000Y-91700000D01*
X51550000Y-91850000D02*
X50350000Y-91850000D01*
X50900000Y-91000000D02*
X50200000Y-91700000D01*
X50300000Y-91600000D02*
X50200000Y-91700000D01*
X51550000Y-91000000D02*
X51550000Y-91600000D01*
X51550000Y-91600000D02*
X51550000Y-91850000D01*
X51200000Y-91000000D02*
X50600000Y-91600000D01*
X50600000Y-91600000D02*
X50300000Y-91600000D01*
X51550000Y-91600000D02*
X50600000Y-91600000D01*
X51550000Y-91000000D02*
X51200000Y-91000000D01*
X51200000Y-91000000D02*
X50900000Y-91000000D01*
X51250000Y-92100000D02*
X51200000Y-92100000D01*
X52050000Y-92900000D02*
X51250000Y-92100000D01*
X52100000Y-92900000D02*
X52050000Y-92900000D01*
X50800000Y-92100000D02*
X51200000Y-92100000D01*
X51200000Y-92100000D02*
X52300000Y-92100000D01*
D51*
X71700000Y-92650000D02*
X71850000Y-92500000D01*
X71700000Y-93100000D02*
X71700000Y-92650000D01*
D50*
X74000000Y-87850000D02*
X74350000Y-87850000D01*
X74350000Y-87850000D02*
X74700000Y-87500000D01*
X75650000Y-83450000D02*
X74650000Y-83450000D01*
X74650000Y-83450000D02*
X74600000Y-83500000D01*
D51*
X116450000Y-97900000D02*
X117200000Y-97900000D01*
D54*
X92600000Y-99905000D02*
X91105000Y-99905000D01*
X92600000Y-97365000D02*
X91135000Y-97365000D01*
X91135000Y-97365000D02*
X91100000Y-97400000D01*
X91100000Y-99900000D02*
X91105000Y-99905000D01*
X91100000Y-97400000D02*
X91100000Y-98600000D01*
X91100000Y-98600000D02*
X91100000Y-99900000D01*
D51*
X96550000Y-76050000D02*
X96300000Y-75800000D01*
X96550000Y-76800000D02*
X96550000Y-76050000D01*
D50*
X44300000Y-81600000D02*
X45000000Y-80900000D01*
X43950000Y-81600000D02*
X44300000Y-81600000D01*
X117000000Y-89000000D02*
X117200000Y-88800000D01*
X116150000Y-89000000D02*
X117000000Y-89000000D01*
D51*
X76450000Y-95500000D02*
X75700000Y-94750000D01*
X76500000Y-95500000D02*
X76450000Y-95500000D01*
D50*
X43100000Y-77850000D02*
X42550000Y-78400000D01*
X43100000Y-77600000D02*
X43100000Y-77850000D01*
X81400000Y-101550000D02*
X81750000Y-101550000D01*
X81750000Y-101550000D02*
X82100000Y-101900000D01*
X85800000Y-99150000D02*
X85350000Y-99150000D01*
X85350000Y-99150000D02*
X85100000Y-99400000D01*
X84000000Y-98300000D02*
X85100000Y-99400000D01*
X83700000Y-98300000D02*
X84000000Y-98300000D01*
X82950593Y-74190976D02*
X82950593Y-73550593D01*
X82950593Y-73550593D02*
X82900000Y-73500000D01*
D51*
X99350000Y-68050000D02*
X99200000Y-67900000D01*
X99350000Y-69300000D02*
X99350000Y-68050000D01*
D50*
X89750593Y-74890976D02*
X89750593Y-74150593D01*
X89750593Y-74150593D02*
X89600000Y-74000000D01*
X90950593Y-74390976D02*
X90890976Y-74390976D01*
X90890976Y-74390976D02*
X90200000Y-73700000D01*
X82975593Y-74165976D02*
X82950593Y-74190976D01*
X84245593Y-74165976D02*
X82975593Y-74165976D01*
X82350593Y-74190976D02*
X81750593Y-73590976D01*
X82950593Y-74190976D02*
X82350593Y-74190976D01*
D51*
X91000000Y-68950000D02*
X91350000Y-69300000D01*
X91000000Y-67900000D02*
X91000000Y-68950000D01*
D50*
X81750593Y-73590976D02*
X81750593Y-72849407D01*
X81750593Y-72849407D02*
X81800000Y-72800000D01*
X73300000Y-103250000D02*
X73300000Y-104300000D01*
X74000000Y-101000000D02*
X74100000Y-101100000D01*
X73450000Y-101000000D02*
X74000000Y-101000000D01*
X76100000Y-89300000D02*
X76500000Y-88900000D01*
X75750000Y-89300000D02*
X76100000Y-89300000D01*
D51*
X74450000Y-93900000D02*
X74100000Y-93900000D01*
X74900000Y-93450000D02*
X74450000Y-93900000D01*
X74088909Y-93911091D02*
X74100000Y-93900000D01*
X74088909Y-94688909D02*
X74088909Y-93911091D01*
D50*
X73050000Y-96050000D02*
X73300000Y-96300000D01*
X72500000Y-96050000D02*
X73050000Y-96050000D01*
D52*
X72100000Y-103100000D02*
X71700000Y-103500000D01*
X72100000Y-102200000D02*
X72100000Y-103100000D01*
X71950000Y-101900000D02*
X71950000Y-102050000D01*
X71950000Y-102050000D02*
X72100000Y-102200000D01*
D50*
X68188909Y-94388909D02*
X68500000Y-94700000D01*
X67888909Y-94388909D02*
X68188909Y-94388909D01*
X72500000Y-98950000D02*
X72350000Y-98800000D01*
X72500000Y-99500000D02*
X72500000Y-98950000D01*
X74350000Y-99250000D02*
X74100000Y-99500000D01*
X74350000Y-98700000D02*
X74350000Y-99250000D01*
X72250000Y-90450000D02*
X72500000Y-90700000D01*
X71700000Y-90450000D02*
X72250000Y-90450000D01*
X80500000Y-101900000D02*
X79850000Y-101900000D01*
X79850000Y-100500000D02*
X80300000Y-100500000D01*
X80300000Y-100500000D02*
X80500000Y-100300000D01*
X77200000Y-103400000D02*
X77300000Y-103500000D01*
X77200000Y-102850000D02*
X77200000Y-103400000D01*
X80050000Y-97200000D02*
X80050000Y-96650000D01*
X80050000Y-96650000D02*
X79700000Y-96300000D01*
X75700000Y-103500000D02*
X75700000Y-102850000D01*
X71700000Y-103500000D02*
X71700000Y-104150000D01*
X72650000Y-105100000D02*
X72500000Y-105250000D01*
X73300000Y-105100000D02*
X72650000Y-105100000D01*
X75750000Y-105000000D02*
X75750000Y-104350000D01*
X75750000Y-104350000D02*
X75700000Y-104300000D01*
X76500000Y-105900000D02*
X75750000Y-105900000D01*
X79950000Y-104550000D02*
X79700000Y-104300000D01*
X79950000Y-105100000D02*
X79950000Y-104550000D01*
X82250000Y-102700000D02*
X82150000Y-102800000D01*
X82900000Y-102700000D02*
X82250000Y-102700000D01*
X81950000Y-104950000D02*
X82100000Y-105100000D01*
X81950000Y-104300000D02*
X81950000Y-104950000D01*
X79050000Y-106850000D02*
X78900000Y-106700000D01*
X79050000Y-107500000D02*
X79050000Y-106850000D01*
X82250000Y-93900000D02*
X82100000Y-94050000D01*
X82900000Y-93900000D02*
X82250000Y-93900000D01*
X78450000Y-95150000D02*
X78100000Y-95500000D01*
X78800000Y-95150000D02*
X78450000Y-95150000D01*
X79600000Y-95400000D02*
X79700000Y-95500000D01*
X79600000Y-94850000D02*
X79600000Y-95400000D01*
X84250000Y-91500000D02*
X84400000Y-91650000D01*
X83700000Y-91500000D02*
X84250000Y-91500000D01*
X84088909Y-88111091D02*
X85500000Y-86700000D01*
X83850000Y-97100000D02*
X84500000Y-97100000D01*
X84650000Y-101500000D02*
X85300000Y-101500000D01*
X80450000Y-85800000D02*
X80450000Y-86150000D01*
X80450000Y-86150000D02*
X80200000Y-86400000D01*
X85400000Y-97750000D02*
X84750000Y-97750000D01*
X84750000Y-97750000D02*
X84700000Y-97800000D01*
X86800000Y-97750000D02*
X86150000Y-97750000D01*
X86150000Y-97750000D02*
X86100000Y-97800000D01*
X88200000Y-96250000D02*
X87550002Y-96250000D01*
X87550002Y-96250000D02*
X87500002Y-96300000D01*
X81400000Y-83900000D02*
X80400000Y-83900000D01*
X88750000Y-101200000D02*
X88750000Y-100425000D01*
X88750000Y-100425000D02*
X88775000Y-100400000D01*
X88775000Y-100400000D02*
X88800000Y-100400000D01*
X81550000Y-107700000D02*
X81700000Y-107550000D01*
X80900000Y-107700000D02*
X81550000Y-107700000D01*
X85250000Y-108300000D02*
X85250000Y-107550000D01*
X85250000Y-107550000D02*
X85200000Y-107500000D01*
X85250000Y-105950000D02*
X84800000Y-105500000D01*
X85250000Y-106400000D02*
X85250000Y-105950000D01*
X88650000Y-94600000D02*
X88650000Y-95350000D01*
X88650000Y-95350000D02*
X88600000Y-95400000D01*
X88650000Y-93000000D02*
X88900000Y-93000000D01*
X88900000Y-93000000D02*
X89400000Y-92500000D01*
X68300000Y-87350000D02*
X68950000Y-87350000D01*
X68950000Y-87350000D02*
X69100000Y-87500000D01*
X91100000Y-103850000D02*
X90450000Y-103200000D01*
X91100000Y-104000000D02*
X91100000Y-103850000D01*
X93200000Y-101800000D02*
X93200000Y-102800000D01*
X96600000Y-101800000D02*
X96600000Y-102800000D01*
X94200000Y-104400000D02*
X94200000Y-103400000D01*
X97600000Y-104400000D02*
X97600000Y-103400000D01*
X95100000Y-106800000D02*
X96000000Y-106800000D01*
D53*
X86370976Y-74670976D02*
X86350000Y-74650000D01*
X86770593Y-74670976D02*
X86370976Y-74670976D01*
D50*
X81450000Y-99350000D02*
X81300000Y-99500000D01*
X81450000Y-98500000D02*
X81450000Y-99350000D01*
X97500000Y-71200000D02*
X98300000Y-71200000D01*
X92900000Y-71200000D02*
X92100000Y-71200000D01*
D51*
G04 #@! TO.N,+1V0*
X99200000Y-89350000D02*
X99750000Y-89900000D01*
X103000000Y-90000000D02*
X103000000Y-88700000D01*
X106700000Y-93700000D02*
X103000000Y-90000000D01*
X103000000Y-88700000D02*
X102000000Y-87700000D01*
X102000000Y-87700000D02*
X100100000Y-87700000D01*
X100100000Y-87700000D02*
X99200000Y-88600000D01*
X99200000Y-88600000D02*
X99200000Y-89350000D01*
D50*
X73050000Y-101900000D02*
X73300000Y-102150000D01*
X72500000Y-101900000D02*
X73050000Y-101900000D01*
X72750000Y-94950000D02*
X73300000Y-95500000D01*
X72500000Y-94950000D02*
X72750000Y-94950000D01*
X78750000Y-101900000D02*
X78100000Y-101900000D01*
X78300000Y-100500000D02*
X78100000Y-100300000D01*
X78750000Y-100500000D02*
X78300000Y-100500000D01*
X77300000Y-101650000D02*
X77200000Y-101750000D01*
X77300000Y-101100000D02*
X77300000Y-101650000D01*
X78800000Y-97200000D02*
X78100000Y-97900000D01*
X78950000Y-97200000D02*
X78800000Y-97200000D01*
X82750000Y-97100000D02*
X82100000Y-97100000D01*
X83550000Y-101500000D02*
X83300000Y-101500000D01*
X83300000Y-101500000D02*
X82900000Y-101100000D01*
X84750000Y-96250000D02*
X84700000Y-96300000D01*
X85400000Y-96250000D02*
X84750000Y-96250000D01*
X86800000Y-96250000D02*
X86150000Y-96250000D01*
X86150000Y-96250000D02*
X86100000Y-96300000D01*
X88200000Y-97750000D02*
X87550002Y-97750000D01*
X87550002Y-97750000D02*
X87500002Y-97800000D01*
X87250000Y-101200000D02*
X86500000Y-101200000D01*
D53*
G04 #@! TO.N,+1V8*
X50500000Y-84850000D02*
X50500000Y-86100000D01*
D50*
X75700000Y-100450000D02*
X75700000Y-101100000D01*
D51*
X103650000Y-72600000D02*
X103650000Y-74000000D01*
X103650000Y-74000000D02*
X103650000Y-75400000D01*
X103650000Y-75400000D02*
X102500000Y-75400000D01*
D50*
X74650000Y-89350000D02*
X74100000Y-89900000D01*
X74650000Y-89300000D02*
X74650000Y-89350000D01*
D51*
X73350000Y-92250000D02*
X73300000Y-92300000D01*
X74100000Y-92250000D02*
X73350000Y-92250000D01*
D50*
X73300000Y-98950000D02*
X73450000Y-98800000D01*
X73300000Y-99500000D02*
X73300000Y-98950000D01*
X73450000Y-98550000D02*
X73450000Y-98800000D01*
X74100000Y-97900000D02*
X73450000Y-98550000D01*
X75550000Y-101750000D02*
X74900000Y-101100000D01*
X75700000Y-101750000D02*
X75550000Y-101750000D01*
X79350000Y-85800000D02*
X79350000Y-86150000D01*
X79350000Y-86150000D02*
X79600000Y-86400000D01*
X79400000Y-83900000D02*
X79400000Y-84700000D01*
X79400000Y-84700000D02*
X79600000Y-84900000D01*
G04 #@! TO.N,+3V3*
X73550000Y-86300000D02*
X74000000Y-86750000D01*
X73550000Y-85350000D02*
X73550000Y-86300000D01*
X74000000Y-86750000D02*
X73950000Y-86750000D01*
X73950000Y-86750000D02*
X73200000Y-87500000D01*
D53*
X72950000Y-85350000D02*
X73550000Y-85350000D01*
X72700000Y-85100000D02*
X72950000Y-85350000D01*
X72700000Y-83700000D02*
X72700000Y-85100000D01*
X73550000Y-83450000D02*
X72950000Y-83450000D01*
X72950000Y-83450000D02*
X72700000Y-83700000D01*
D50*
X42850000Y-80750000D02*
X42900000Y-80700000D01*
X42850000Y-81600000D02*
X42850000Y-80750000D01*
X107850000Y-97200000D02*
X107800000Y-97150000D01*
X108600000Y-97200000D02*
X107850000Y-97200000D01*
X40900000Y-77850000D02*
X41450000Y-78400000D01*
X40900000Y-77600000D02*
X40900000Y-77850000D01*
D51*
X88455593Y-74165976D02*
X88455593Y-73455593D01*
X88455593Y-73455593D02*
X88400000Y-73400000D01*
D50*
X69300000Y-106700000D02*
X69524999Y-106475001D01*
X69524999Y-106475001D02*
X70100000Y-105900000D01*
X70100000Y-105900000D02*
X70900000Y-105900000D01*
D53*
X74100000Y-103450000D02*
X74050000Y-103500000D01*
X74100000Y-102700000D02*
X74100000Y-103450000D01*
X78100000Y-104250000D02*
X78100000Y-105100000D01*
D50*
X71650000Y-91500000D02*
X71700000Y-91550000D01*
X70900011Y-91500000D02*
X71650000Y-91500000D01*
X71700000Y-105900000D02*
X71700000Y-105250000D01*
X72500000Y-103500000D02*
X72500000Y-104150000D01*
X74650000Y-104550000D02*
X74900000Y-104300000D01*
X74650000Y-105000000D02*
X74650000Y-104550000D01*
X74100000Y-106450000D02*
X74650000Y-105900000D01*
X74100000Y-106700000D02*
X74100000Y-106450000D01*
X78850000Y-105100000D02*
X78100000Y-105100000D01*
X81050000Y-103250000D02*
X81300000Y-103500000D01*
X81050000Y-102800000D02*
X81050000Y-103250000D01*
X83700000Y-104300000D02*
X83050000Y-104300000D01*
X77950000Y-107500000D02*
X77300000Y-107500000D01*
X82100000Y-92300000D02*
X82100000Y-92950000D01*
X79450000Y-93900000D02*
X79600000Y-93750000D01*
X78900000Y-93900000D02*
X79450000Y-93900000D01*
X84400000Y-93200000D02*
X84700000Y-93500000D01*
X84400000Y-92750000D02*
X84400000Y-93200000D01*
X83311091Y-88888909D02*
X82500000Y-89700000D01*
X80650000Y-106050000D02*
X80500000Y-105900000D01*
X81700000Y-106050000D02*
X80650000Y-106050000D01*
X83200000Y-106400000D02*
X82900000Y-106700000D01*
X83750000Y-106400000D02*
X83200000Y-106400000D01*
X83750000Y-107550000D02*
X83700000Y-107500000D01*
X83750000Y-108300000D02*
X83750000Y-107550000D01*
X87150000Y-93000000D02*
X87150000Y-93650000D01*
X87150000Y-93650000D02*
X87300000Y-93800000D01*
X87150000Y-94600000D02*
X86800000Y-94600000D01*
X86800000Y-94600000D02*
X86400000Y-95000000D01*
X68300000Y-88850000D02*
X68300000Y-89900000D01*
X68499989Y-90099989D02*
X68499989Y-90700000D01*
X68300000Y-89900000D02*
X68499989Y-90099989D01*
X89600000Y-103850000D02*
X88950000Y-103200000D01*
X89600000Y-104800000D02*
X89600000Y-103850000D01*
X91200000Y-101800000D02*
X91200000Y-102500000D01*
X91200000Y-102500000D02*
X91500000Y-102800000D01*
X94600000Y-101800000D02*
X94600000Y-102800000D01*
X92200000Y-104400000D02*
X92200000Y-103400000D01*
X95600000Y-104400000D02*
X95600000Y-103400000D01*
X93100000Y-106800000D02*
X92200000Y-106800000D01*
D51*
X102150000Y-92200000D02*
X101500000Y-92200000D01*
G04 #@! TO.N,XADC_1V8*
X111100000Y-97900000D02*
X112250000Y-97900000D01*
X110700000Y-97500000D02*
X111100000Y-97900000D01*
X78150000Y-97050000D02*
X78100000Y-97100000D01*
D50*
X84700000Y-100250000D02*
X84650000Y-100300000D01*
X85800000Y-100250000D02*
X84700000Y-100250000D01*
X85800000Y-100250000D02*
X86050000Y-100250000D01*
X86050000Y-100250000D02*
X86600000Y-99700000D01*
X86600000Y-99700000D02*
X86600000Y-98600000D01*
X78100000Y-96950000D02*
X78800000Y-96250000D01*
X78100000Y-97100000D02*
X78100000Y-96950000D01*
G04 #@! TO.N,XADC_1V25*
X82600000Y-100450000D02*
X82750000Y-100300000D01*
X81550000Y-100300000D02*
X81400000Y-100450000D01*
X82750000Y-100300000D02*
X81550000Y-100300000D01*
D51*
X75450000Y-98750000D02*
X75450000Y-98700000D01*
X74900000Y-99500000D02*
X74900000Y-99300000D01*
X74900000Y-99300000D02*
X75450000Y-98750000D01*
D50*
X81400000Y-100400000D02*
X81400000Y-100450000D01*
X80500000Y-99500000D02*
X81400000Y-100400000D01*
D51*
G04 #@! TO.N,/SD/VREF0V9*
X74200000Y-93150000D02*
X74100000Y-93150000D01*
X74800000Y-92550000D02*
X74200000Y-93150000D01*
X74900000Y-92550000D02*
X74800000Y-92550000D01*
X74100000Y-93150000D02*
X73250000Y-93150000D01*
X73311091Y-93911091D02*
X72900000Y-93500000D01*
X73250000Y-93150000D02*
X72900000Y-93500000D01*
X72900000Y-93500000D02*
X72500000Y-93900000D01*
D50*
G04 #@! TO.N,+5V*
X88580593Y-75990976D02*
X88455593Y-76115976D01*
X89750593Y-75990976D02*
X88580593Y-75990976D01*
X88980593Y-75990976D02*
X88455593Y-75465976D01*
X89750593Y-75990976D02*
X88980593Y-75990976D01*
X89850593Y-75890976D02*
X89750593Y-75990976D01*
X90950593Y-75890976D02*
X89850593Y-75890976D01*
X103400000Y-78800000D02*
X103400000Y-79600000D01*
X91725593Y-75890976D02*
X90950593Y-75890976D01*
X94234617Y-78400000D02*
X91725593Y-75890976D01*
X98600000Y-78400000D02*
X94234617Y-78400000D01*
X99800000Y-79600000D02*
X98600000Y-78400000D01*
X103400000Y-79600000D02*
X99800000Y-79600000D01*
D54*
G04 #@! TO.N,Net-(C93-Pad2)*
X98000000Y-99905000D02*
X98000000Y-98635000D01*
X95600000Y-98700000D02*
X96200000Y-98700000D01*
X97935000Y-98700000D02*
X98000000Y-98635000D01*
X96800000Y-98700000D02*
X97935000Y-98700000D01*
X96800000Y-98700000D02*
X96200000Y-98700000D01*
X98000000Y-99900000D02*
X96800000Y-98700000D01*
X98000000Y-99905000D02*
X98000000Y-99900000D01*
D51*
G04 #@! TO.N,/PowerSupply/SW_EN*
X110000000Y-84500000D02*
X109100000Y-84500000D01*
X112900000Y-71400000D02*
X114700000Y-73200000D01*
X112900000Y-67900000D02*
X112900000Y-71400000D01*
X114700000Y-73200000D02*
X114700000Y-82600000D01*
X114700000Y-82600000D02*
X113800000Y-83500000D01*
X113800000Y-83500000D02*
X111000000Y-83500000D01*
X111000000Y-83500000D02*
X110000000Y-84500000D01*
D54*
G04 #@! TO.N,Net-(C100-Pad1)*
X98000000Y-97365000D02*
X98000000Y-96095000D01*
X95600000Y-97300000D02*
X96200000Y-97300000D01*
X97935000Y-97300000D02*
X98000000Y-97365000D01*
X96800000Y-97300000D02*
X97935000Y-97300000D01*
X96800000Y-97300000D02*
X96200000Y-97300000D01*
D50*
G04 #@! TO.N,Net-(C106-Pad2)*
X108950000Y-99950000D02*
X109000000Y-100000000D01*
X107900000Y-99950000D02*
X108950000Y-99950000D01*
G04 #@! TO.N,Net-(C106-Pad1)*
X108550000Y-101050000D02*
X108700000Y-101200000D01*
X107900000Y-101050000D02*
X108550000Y-101050000D01*
G04 #@! TO.N,Net-(C111-Pad1)*
X109750000Y-94900000D02*
X109800000Y-94850000D01*
X108600000Y-94900000D02*
X109750000Y-94900000D01*
G04 #@! TO.N,Net-(C111-Pad2)*
X109750000Y-96000000D02*
X109800000Y-95950000D01*
X109000000Y-96000000D02*
X109750000Y-96000000D01*
G04 #@! TO.N,HP_3V3*
X83125593Y-75465976D02*
X82950593Y-75290976D01*
X84245593Y-75465976D02*
X83125593Y-75465976D01*
X84245593Y-76115976D02*
X83775593Y-76115976D01*
X81950593Y-75290976D02*
X81750593Y-75090976D01*
X82950593Y-75290976D02*
X81950593Y-75290976D01*
X81750593Y-75090976D02*
X81750593Y-75899407D01*
X81750593Y-75899407D02*
X81750000Y-75900000D01*
X82950593Y-75290976D02*
X82950593Y-75849407D01*
X82950593Y-75849407D02*
X82850000Y-75950000D01*
X83775593Y-76115976D02*
X82950593Y-75290976D01*
X83041569Y-75200000D02*
X82950593Y-75290976D01*
X83200000Y-75200000D02*
X83041569Y-75200000D01*
X84245593Y-74815976D02*
X83584024Y-74815976D01*
X83584024Y-74815976D02*
X83200000Y-75200000D01*
D51*
G04 #@! TO.N,Net-(C118-Pad1)*
X109000000Y-98700000D02*
X109224999Y-98924999D01*
X109224999Y-98924999D02*
X110200000Y-99900000D01*
X110200000Y-99900000D02*
X116700000Y-99900000D01*
X116700000Y-99900000D02*
X117900000Y-98700000D01*
X117900000Y-98700000D02*
X117900000Y-93400000D01*
X117900000Y-93400000D02*
X114100000Y-89600000D01*
X107700000Y-102518198D02*
X107700000Y-102200000D01*
X107318198Y-102900000D02*
X107700000Y-102518198D01*
X101481802Y-102900000D02*
X107318198Y-102900000D01*
X101100000Y-102518198D02*
X101481802Y-102900000D01*
X101100000Y-102200000D02*
X101100000Y-102518198D01*
X107924999Y-101975001D02*
X108724999Y-101975001D01*
X107700000Y-102200000D02*
X107924999Y-101975001D01*
X110200000Y-100500000D02*
X110200000Y-99900000D01*
X108724999Y-101975001D02*
X110200000Y-100500000D01*
D50*
X114700000Y-89000000D02*
X114100000Y-89600000D01*
X115050000Y-89000000D02*
X114700000Y-89000000D01*
D54*
G04 #@! TO.N,Net-(C121-Pad1)*
X103450000Y-67800000D02*
X102700000Y-67800000D01*
X102700000Y-67800000D02*
X102100000Y-67800000D01*
X103450000Y-69300000D02*
X103500000Y-69350000D01*
X103450000Y-67800000D02*
X103450000Y-69300000D01*
D53*
G04 #@! TO.N,/USB/DP*
X94900000Y-69224999D02*
X95024999Y-69100000D01*
X94900000Y-69300000D02*
X94900000Y-69224999D01*
X95024999Y-73175001D02*
X94800000Y-73400000D01*
X95024999Y-71924999D02*
X95024999Y-73175001D01*
X95024999Y-70775001D02*
X94600000Y-71200000D01*
X94700000Y-66200000D02*
X95024999Y-66524999D01*
X95024999Y-66524999D02*
X95024999Y-70775001D01*
X95024999Y-71924999D02*
X95024999Y-71624999D01*
X94600000Y-71200000D02*
X94500000Y-71200000D01*
X95024999Y-71624999D02*
X94600000Y-71200000D01*
G04 #@! TO.N,/USB/DM*
X95400000Y-66300000D02*
X95500000Y-66200000D01*
X95500000Y-68900000D02*
X95400000Y-69000000D01*
X95500000Y-68800000D02*
X95500000Y-68900000D01*
X95400000Y-69000000D02*
X95400000Y-66300000D01*
X95400000Y-69000000D02*
X95400000Y-70800000D01*
X95400000Y-70800000D02*
X95800000Y-71200000D01*
X95400000Y-73400000D02*
X95400000Y-71900000D01*
X95400000Y-71900000D02*
X95400000Y-71700000D01*
X95400000Y-71700000D02*
X95400000Y-71600000D01*
X95800000Y-71200000D02*
X95900000Y-71200000D01*
X95400000Y-71600000D02*
X95800000Y-71200000D01*
D52*
G04 #@! TO.N,PS_SRST_B*
X73100000Y-90200000D02*
X72900000Y-90400000D01*
X72900000Y-90400000D02*
X72900000Y-91100000D01*
X72900000Y-91100000D02*
X73300000Y-91500000D01*
X73100000Y-89700000D02*
X73100000Y-90200000D01*
D53*
X73100000Y-89000000D02*
X73100000Y-89700000D01*
X72100000Y-88000000D02*
X73100000Y-89000000D01*
X72100000Y-85000000D02*
X72100000Y-88000000D01*
X70700000Y-83600000D02*
X72100000Y-85000000D01*
X54300000Y-79100000D02*
X58800000Y-83600000D01*
X58800000Y-83600000D02*
X70700000Y-83600000D01*
D52*
G04 #@! TO.N,/Config/TDI*
X76900000Y-92600000D02*
X76900000Y-94100000D01*
X76900000Y-94100000D02*
X77300000Y-94500000D01*
X77300000Y-94500000D02*
X77300000Y-95500000D01*
D53*
X76900000Y-92000000D02*
X76900000Y-92600000D01*
X77800000Y-91100000D02*
X76900000Y-92000000D01*
X77800000Y-89000000D02*
X77800000Y-91100000D01*
X78000000Y-88800000D02*
X77800000Y-89000000D01*
X78000000Y-81300000D02*
X78000000Y-88800000D01*
X74800000Y-78100000D02*
X78000000Y-81300000D01*
X59500000Y-80300000D02*
X60800000Y-80300000D01*
X58300000Y-79100000D02*
X59500000Y-80300000D01*
X60800000Y-80300000D02*
X61300000Y-79800000D01*
X61300000Y-79800000D02*
X61300000Y-78600000D01*
X61300000Y-78600000D02*
X61800000Y-78100000D01*
X61800000Y-78100000D02*
X74800000Y-78100000D01*
D52*
G04 #@! TO.N,/Config/TDO*
X77600000Y-92500000D02*
X77600000Y-92700000D01*
X77600000Y-92700000D02*
X77700000Y-92800000D01*
X77700000Y-94300000D02*
X78100000Y-94700000D01*
X77700000Y-92800000D02*
X77700000Y-94300000D01*
D53*
X59300000Y-78100000D02*
X60300000Y-79100000D01*
X59300000Y-76600000D02*
X59300000Y-78100000D01*
X59900000Y-76000000D02*
X59300000Y-76600000D01*
X73400000Y-76000000D02*
X59900000Y-76000000D01*
X77600000Y-92100000D02*
X78300000Y-91400000D01*
X77600000Y-92500000D02*
X77600000Y-92100000D01*
X78300000Y-91400000D02*
X78300000Y-89100000D01*
X78300000Y-89100000D02*
X78500000Y-88900000D01*
X78500000Y-88900000D02*
X78500000Y-81100000D01*
X78500000Y-81100000D02*
X73400000Y-76000000D01*
G04 #@! TO.N,/Config/TCK*
X74900000Y-94400000D02*
X74900000Y-94700000D01*
X75500000Y-93800000D02*
X74900000Y-94400000D01*
X75500000Y-90900000D02*
X75500000Y-93800000D01*
X77000000Y-89400000D02*
X75500000Y-90900000D01*
X77000000Y-82800000D02*
X77000000Y-89400000D01*
X75500001Y-81300001D02*
X77000000Y-82800000D01*
X72400000Y-81300000D02*
X75500001Y-81300001D01*
X70800000Y-82900000D02*
X72400000Y-81300000D01*
X59600000Y-82900000D02*
X70800000Y-82900000D01*
X62300000Y-79900000D02*
X61300000Y-80900000D01*
X62300000Y-79100000D02*
X62300000Y-79900000D01*
X61300000Y-80900000D02*
X59600000Y-80900000D01*
X59600000Y-80900000D02*
X59200000Y-81300000D01*
X59200000Y-81300000D02*
X59200000Y-82500000D01*
X59200000Y-82500000D02*
X59600000Y-82900000D01*
G04 #@! TO.N,/Config/TMS*
X76500000Y-93900000D02*
X76500000Y-94700000D01*
X76000000Y-93400000D02*
X76500000Y-93900000D01*
X76000000Y-91100000D02*
X76000000Y-93400000D01*
X61900000Y-81800000D02*
X62300000Y-82200000D01*
X61900000Y-81300000D02*
X61900000Y-81800000D01*
X62500000Y-80700000D02*
X61900000Y-81300000D01*
X64000000Y-80700000D02*
X62500000Y-80700000D01*
X64300000Y-79100000D02*
X64300000Y-80400000D01*
X64300000Y-80400000D02*
X64000000Y-80700000D01*
X62300000Y-82200000D02*
X67500000Y-82200000D01*
X67500000Y-82200000D02*
X68100000Y-81600000D01*
X68100000Y-81600000D02*
X68100000Y-79400000D01*
X68100000Y-79400000D02*
X68700000Y-78800000D01*
X68700000Y-78800000D02*
X74000000Y-78800000D01*
X74000000Y-78800000D02*
X77500000Y-82300000D01*
X77500000Y-82300000D02*
X77500000Y-88700000D01*
X77500000Y-88700000D02*
X77400000Y-88800000D01*
X77400000Y-88800000D02*
X77400000Y-89700000D01*
X77400000Y-89700000D02*
X76000000Y-91100000D01*
G04 #@! TO.N,/SD/SD_CD*
X50550000Y-83400000D02*
X50500000Y-83350000D01*
X51600000Y-83400000D02*
X50550000Y-83400000D01*
D54*
G04 #@! TO.N,Net-(J3-Pad1)*
X110600000Y-74800000D02*
X112700000Y-74800000D01*
X105500000Y-70300000D02*
X106100000Y-70300000D01*
X106100000Y-70300000D02*
X110600000Y-74800000D01*
D53*
G04 #@! TO.N,Net-(J4-PadA5)*
X97850000Y-69050000D02*
X97850000Y-69300000D01*
X96800000Y-68500000D02*
X97300000Y-68500000D01*
X97300000Y-68500000D02*
X97850000Y-69050000D01*
G04 #@! TO.N,Net-(J4-PadB5)*
X93900000Y-69300000D02*
X92850000Y-69300000D01*
X92850000Y-69100000D02*
X92850000Y-69300000D01*
X93600001Y-68349999D02*
X92850000Y-69100000D01*
X93600001Y-66699999D02*
X93600001Y-68349999D01*
X93900000Y-66200000D02*
X93900000Y-66400000D01*
X93900000Y-66400000D02*
X93600001Y-66699999D01*
D54*
G04 #@! TO.N,Net-(J5-Pad1)*
X73250000Y-67050000D02*
X77000000Y-63300000D01*
X73250000Y-69450000D02*
X73250000Y-67050000D01*
X74400000Y-73200000D02*
X74400000Y-70600000D01*
X74400000Y-70600000D02*
X73250000Y-69450000D01*
D50*
G04 #@! TO.N,Net-(J5-Pad2)*
X82000000Y-68750000D02*
X82000000Y-68300000D01*
X76550000Y-74200000D02*
X82000000Y-68750000D01*
X72100000Y-74200000D02*
X76550000Y-74200000D01*
X71700000Y-73400000D02*
X71700000Y-73800000D01*
X71700000Y-73800000D02*
X72100000Y-74200000D01*
G04 #@! TO.N,Net-(J5-Pad3)*
X72000000Y-68300000D02*
X72000000Y-70800000D01*
X72000000Y-70800000D02*
X73000000Y-71800000D01*
X73000000Y-71800000D02*
X73000000Y-72500000D01*
X73000000Y-72500000D02*
X72300000Y-73200000D01*
D53*
G04 #@! TO.N,Net-(O1-Pad3)*
X75600000Y-85400000D02*
X75650000Y-85350000D01*
X75600000Y-86750000D02*
X75600000Y-85400000D01*
D51*
G04 #@! TO.N,Net-(Q1-Pad4)*
X99700000Y-96100000D02*
X99700000Y-97300000D01*
X98900000Y-95300000D02*
X99700000Y-96100000D01*
X95200000Y-95300000D02*
X98900000Y-95300000D01*
X92600000Y-96095000D02*
X94405000Y-96095000D01*
X94405000Y-96095000D02*
X95200000Y-95300000D01*
G04 #@! TO.N,Net-(Q1-Pad2)*
X99700000Y-100800000D02*
X99700000Y-98200000D01*
X99100000Y-101400000D02*
X99700000Y-100800000D01*
X92600000Y-98635000D02*
X94335000Y-98635000D01*
X96100000Y-99600000D02*
X97900000Y-101400000D01*
X95300000Y-99600000D02*
X96100000Y-99600000D01*
X97900000Y-101400000D02*
X99100000Y-101400000D01*
X94335000Y-98635000D02*
X95300000Y-99600000D01*
G04 #@! TO.N,Net-(Q2-Pad1)*
X104950000Y-68050000D02*
X104950000Y-67800000D01*
X104500000Y-68500000D02*
X104950000Y-68050000D01*
X104500000Y-70300000D02*
X104500000Y-68500000D01*
X103500000Y-71250000D02*
X103550000Y-71250000D01*
X103550000Y-71250000D02*
X104500000Y-70300000D01*
X105600000Y-68600000D02*
X105600000Y-69000000D01*
X104950000Y-67800000D02*
X104950000Y-67950000D01*
X104950000Y-67950000D02*
X105600000Y-68600000D01*
D49*
G04 #@! TO.N,/DDR/DDR_CK_P*
X51401526Y-99334870D02*
X51018198Y-99718198D01*
X51401526Y-99101526D02*
X51401526Y-99334870D01*
G04 #@! TO.N,/DDR/DDR_CK_N*
X50765130Y-98698474D02*
X50381802Y-99081802D01*
X50998474Y-98698474D02*
X50765130Y-98698474D01*
D51*
G04 #@! TO.N,Net-(R3-Pad1)*
X48650000Y-100550000D02*
X49100000Y-101000000D01*
X48650000Y-99300000D02*
X48650000Y-100550000D01*
D52*
G04 #@! TO.N,Net-(R4-Pad1)*
X71300000Y-101650000D02*
X71050000Y-101900000D01*
X71700000Y-100300000D02*
X71300000Y-100700000D01*
X71300000Y-100700000D02*
X71300000Y-101650000D01*
D53*
G04 #@! TO.N,Net-(R5-Pad1)*
X70500000Y-108750000D02*
X69650000Y-109600000D01*
X70500000Y-108300000D02*
X70500000Y-108750000D01*
G04 #@! TO.N,Net-(R11-Pad2)*
X74900000Y-103450000D02*
X74950000Y-103500000D01*
X74900000Y-102700000D02*
X74900000Y-103450000D01*
G04 #@! TO.N,Net-(R12-Pad1)*
X78100000Y-102700000D02*
X78100000Y-103350000D01*
D52*
G04 #@! TO.N,/Config/PS_CLK*
X74750000Y-88250000D02*
X75600000Y-88250000D01*
X73700000Y-89300000D02*
X74750000Y-88250000D01*
X73700000Y-91800000D02*
X73700000Y-89300000D01*
X71700000Y-93700000D02*
X72900000Y-92500000D01*
X71700000Y-93900000D02*
X71700000Y-93700000D01*
X72900000Y-92500000D02*
X72900000Y-92100000D01*
X72900000Y-92100000D02*
X73100000Y-91900000D01*
X73100000Y-91900000D02*
X73600000Y-91900000D01*
X73600000Y-91900000D02*
X73700000Y-91800000D01*
G04 #@! TO.N,/Config/BOOT_MODE2*
X69300000Y-93100000D02*
X69300000Y-92900000D01*
X69300000Y-92900000D02*
X69700000Y-92500000D01*
X69700000Y-92500000D02*
X69700000Y-92100000D01*
X69700000Y-92100000D02*
X69900000Y-91900000D01*
X70300000Y-91892002D02*
X70500001Y-91692001D01*
X70300000Y-91900000D02*
X70300000Y-91892002D01*
X69900000Y-91900000D02*
X70300000Y-91900000D01*
X70500001Y-91692001D02*
X70500001Y-91300000D01*
X70500001Y-91300000D02*
X70500001Y-91200001D01*
D53*
X71100000Y-89800000D02*
X70500001Y-90399999D01*
X71100000Y-88400000D02*
X71100000Y-89800000D01*
X71600000Y-87900000D02*
X71100000Y-88400000D01*
X71600000Y-85400000D02*
X71600000Y-87900000D01*
X64900000Y-87700000D02*
X67000000Y-85600000D01*
X70500001Y-90399999D02*
X70500001Y-91300000D01*
X44400000Y-87700000D02*
X64900000Y-87700000D01*
X67000000Y-85600000D02*
X69000000Y-85600000D01*
X69000000Y-85600000D02*
X69600000Y-85000000D01*
X69600000Y-85000000D02*
X71200000Y-85000000D01*
X71200000Y-85000000D02*
X71600000Y-85400000D01*
G04 #@! TO.N,/SD/SD_CLK*
X78800000Y-92000000D02*
X78800000Y-92250000D01*
X78800000Y-90800000D02*
X78800000Y-92000000D01*
X79400000Y-90200000D02*
X78800000Y-90800000D01*
X79400000Y-89500000D02*
X79400000Y-90200000D01*
X79100000Y-89200000D02*
X79400000Y-89500000D01*
G04 #@! TO.N,Net-(R21-Pad2)*
X78850000Y-93100000D02*
X78900000Y-93050000D01*
X78750000Y-93100000D02*
X78800000Y-93150000D01*
X78100000Y-93100000D02*
X78750000Y-93100000D01*
D51*
G04 #@! TO.N,Net-(R44-Pad2)*
X100800000Y-92400000D02*
X102100000Y-93700000D01*
X100800000Y-88300000D02*
X100800000Y-92400000D01*
G04 #@! TO.N,Net-(R45-Pad2)*
X113750000Y-98100000D02*
X113750000Y-97900000D01*
X113050000Y-98800000D02*
X113750000Y-98100000D01*
X110900000Y-98800000D02*
X113050000Y-98800000D01*
X110175001Y-98075001D02*
X110900000Y-98800000D01*
X108824999Y-98075001D02*
X110175001Y-98075001D01*
X108600000Y-98300000D02*
X108824999Y-98075001D01*
X114950000Y-97900000D02*
X113750000Y-97900000D01*
G04 #@! TO.N,PG_ALL*
X103650000Y-93250000D02*
X103700000Y-93300000D01*
X103650000Y-92200000D02*
X103650000Y-93250000D01*
D53*
G04 #@! TO.N,VBUS_0.5A*
X105150000Y-71850000D02*
X105400000Y-71600000D01*
X105150000Y-72600000D02*
X105150000Y-71850000D01*
G04 #@! TO.N,VBUS_1.5A*
X106200000Y-74000000D02*
X105150000Y-74000000D01*
X107000000Y-73200000D02*
X106200000Y-74000000D01*
G04 #@! TO.N,VBUS_3.0A*
X105700000Y-75400000D02*
X105150000Y-75400000D01*
X107600000Y-73500000D02*
X105700000Y-75400000D01*
D51*
G04 #@! TO.N,Net-(R64-Pad2)*
X95050000Y-76250000D02*
X95500000Y-75800000D01*
X95050000Y-76800000D02*
X95050000Y-76250000D01*
D53*
G04 #@! TO.N,Net-(R65-Pad2)*
X102500000Y-78800000D02*
X103200000Y-78100000D01*
X100400000Y-78800000D02*
X102500000Y-78800000D01*
X103400000Y-78100000D02*
X103200000Y-78100000D01*
G04 #@! TO.N,USB_RSTN*
X95400000Y-87200000D02*
X96000000Y-86600000D01*
X90600000Y-87200000D02*
X95400000Y-87200000D01*
X82100000Y-95400000D02*
X82700000Y-96000000D01*
X82100000Y-94700000D02*
X82100000Y-95400000D01*
X82700000Y-96000000D02*
X84100000Y-96000000D01*
X84100000Y-96000000D02*
X86200000Y-93900000D01*
X86200000Y-93900000D02*
X86200000Y-91600000D01*
X86200000Y-91600000D02*
X90600000Y-87200000D01*
D52*
G04 #@! TO.N,HP_SCL*
X71700000Y-94700000D02*
X70900000Y-94700000D01*
X70900000Y-94700000D02*
X70500000Y-94300000D01*
X70500000Y-94300000D02*
X69100000Y-94300000D01*
X69100000Y-94300000D02*
X68900000Y-94100000D01*
X68900000Y-94100000D02*
X68900000Y-91900000D01*
X68900000Y-91900000D02*
X69700000Y-91100000D01*
X69700000Y-91100000D02*
X69900000Y-90900000D01*
D53*
X69900000Y-90600000D02*
X69900000Y-88400000D01*
D52*
X69900000Y-90900000D02*
X69900000Y-90600000D01*
X69900000Y-90600000D02*
X69900000Y-89900000D01*
D53*
X69900000Y-88400000D02*
X71000000Y-87300000D01*
X71000000Y-87300000D02*
X71000000Y-85600000D01*
G04 #@! TO.N,HP_SDA*
X70300000Y-87300000D02*
X70300000Y-85900000D01*
X69400000Y-88200000D02*
X70300000Y-87300000D01*
X69400000Y-89924999D02*
X69400000Y-88200000D01*
X69300000Y-90700000D02*
X69300000Y-90024999D01*
X69300000Y-90024999D02*
X69400000Y-89924999D01*
G04 #@! TO.N,IF1_RST*
X98700003Y-118400001D02*
X88624999Y-108324997D01*
X88624999Y-108324997D02*
X88400000Y-108099998D01*
X105400001Y-118400001D02*
X98700003Y-118400001D01*
X110600000Y-123600000D02*
X105400001Y-118400001D01*
G04 #@! TO.N,IF3_RST*
X79700000Y-109100000D02*
X79700000Y-105900000D01*
X74100000Y-121400000D02*
X74100000Y-114700000D01*
X74100000Y-114700000D02*
X79700000Y-109100000D01*
G04 #@! TO.N,IF4_RST*
X54300000Y-121400000D02*
X54300000Y-120300000D01*
X54300000Y-120300000D02*
X57500000Y-117100000D01*
X57500000Y-117100000D02*
X71000000Y-117100000D01*
X71000000Y-117100000D02*
X76900000Y-111200000D01*
X76900000Y-111200000D02*
X76900000Y-107800000D01*
D52*
X76900000Y-106300000D02*
X77300000Y-105900000D01*
X76900000Y-107800000D02*
X76900000Y-106300000D01*
D53*
G04 #@! TO.N,IF5_RST*
X72900000Y-110200000D02*
X72900000Y-107900000D01*
X51300000Y-115400000D02*
X55200000Y-111500000D01*
X43900000Y-115400000D02*
X51300000Y-115400000D01*
X55200000Y-111500000D02*
X67300000Y-111500000D01*
X67300000Y-111500000D02*
X68200000Y-112400000D01*
X68200000Y-112400000D02*
X70700000Y-112400000D01*
X70700000Y-112400000D02*
X72900000Y-110200000D01*
D52*
X72900000Y-107100000D02*
X73300000Y-106700000D01*
X72900000Y-107900000D02*
X72900000Y-107100000D01*
G04 #@! TO.N,/PL_IO/R*
X80900000Y-93400000D02*
X80500000Y-93800000D01*
X80900000Y-92900000D02*
X80900000Y-93400000D01*
X80100000Y-92100000D02*
X80900000Y-92900000D01*
X80100000Y-89000000D02*
X80100000Y-92100000D01*
X85600000Y-67100000D02*
X79500000Y-73200000D01*
X80500000Y-93800000D02*
X80500000Y-95500000D01*
X87800000Y-67100000D02*
X85600000Y-67100000D01*
X79500000Y-73200000D02*
X79500000Y-76800000D01*
X79500000Y-76800000D02*
X83700000Y-81000000D01*
X83700000Y-81000000D02*
X83700000Y-85400000D01*
X83700000Y-85400000D02*
X80100000Y-89000000D01*
G04 #@! TO.N,/PL_IO/G*
X80500000Y-96300000D02*
X81300000Y-96300000D01*
X83300000Y-85300000D02*
X79800000Y-88800000D01*
X83300000Y-81200000D02*
X83300000Y-85300000D01*
X79100000Y-77000000D02*
X83300000Y-81200000D01*
X79100000Y-73100000D02*
X79100000Y-77000000D01*
X84600000Y-67100000D02*
X84600000Y-67600000D01*
X84600000Y-67600000D02*
X79100000Y-73100000D01*
X79800000Y-88800000D02*
X79800000Y-90600000D01*
X79800000Y-90600000D02*
X79300000Y-91100000D01*
X79300000Y-91100000D02*
X79300000Y-91800000D01*
X79300000Y-91800000D02*
X80100000Y-92600000D01*
X80100000Y-92600000D02*
X80100000Y-93400000D01*
X80100000Y-93400000D02*
X80200000Y-93500000D01*
X80200000Y-93500000D02*
X80200000Y-95200000D01*
X80200000Y-95200000D02*
X80100000Y-95300000D01*
X80100000Y-95300000D02*
X80100000Y-95900000D01*
X80100000Y-95900000D02*
X80500000Y-96300000D01*
G04 #@! TO.N,/PL_IO/B*
X80800000Y-95000000D02*
X81300000Y-95500000D01*
X81200000Y-93500000D02*
X80800000Y-93900000D01*
X81200000Y-92800000D02*
X81200000Y-93500000D01*
X80400000Y-92000000D02*
X81200000Y-92800000D01*
X80800000Y-93900000D02*
X80800000Y-95000000D01*
X85600000Y-67600000D02*
X79900000Y-73300000D01*
X86200000Y-67600000D02*
X85600000Y-67600000D01*
X79900000Y-73300000D02*
X79900000Y-76600000D01*
X80400000Y-89200000D02*
X80400000Y-92000000D01*
X79900000Y-76600000D02*
X84100000Y-80800000D01*
X84100000Y-80800000D02*
X84100000Y-85500000D01*
X84100000Y-85500000D02*
X80400000Y-89200000D01*
D53*
G04 #@! TO.N,IF1_STXD*
X84800000Y-103100000D02*
X85024999Y-103324999D01*
X85024999Y-103324999D02*
X85824999Y-103324999D01*
X85824999Y-103324999D02*
X97800000Y-115300000D01*
X97800000Y-115300000D02*
X101400000Y-115300000D01*
G04 #@! TO.N,IF1_SSCK*
X96700000Y-112700000D02*
X101400000Y-112700000D01*
X86300000Y-102300000D02*
X96700000Y-112700000D01*
X84800000Y-102300000D02*
X86300000Y-102300000D01*
G04 #@! TO.N,IF1_SRXD*
X86000000Y-102700000D02*
X97900000Y-114600000D01*
X85300000Y-102700000D02*
X86000000Y-102700000D01*
X97900000Y-114600000D02*
X101400000Y-114600000D01*
D52*
X83700000Y-102700000D02*
X85300000Y-102700000D01*
D53*
G04 #@! TO.N,SPDIF_OUT*
X80424999Y-87575001D02*
X80200000Y-87800000D01*
X82800000Y-85200000D02*
X80424999Y-87575001D01*
X66660000Y-75000000D02*
X75000000Y-75000000D01*
X62360000Y-70700000D02*
X66660000Y-75000000D01*
X75000000Y-75000000D02*
X79800000Y-79800000D01*
X79800000Y-79800000D02*
X80600000Y-79800000D01*
X80600000Y-79800000D02*
X82800000Y-82000000D01*
X82800000Y-82000000D02*
X82800000Y-85200000D01*
G04 #@! TO.N,USB_CLK60*
X94200000Y-83800000D02*
X94200000Y-84700000D01*
X84000000Y-90700000D02*
X88700000Y-86000000D01*
X82900000Y-90700000D02*
X84000000Y-90700000D01*
X88700000Y-86000000D02*
X88700000Y-84900000D01*
X88700000Y-84900000D02*
X90700000Y-82900000D01*
X90700000Y-82900000D02*
X93300000Y-82900000D01*
X93300000Y-82900000D02*
X94200000Y-83800000D01*
G04 #@! TO.N,SPDIF_IN*
X79600000Y-87981802D02*
X79600000Y-88300000D01*
X79600000Y-87700000D02*
X79600000Y-87981802D01*
X82300000Y-85000000D02*
X79600000Y-87700000D01*
X61440000Y-75400000D02*
X74500000Y-75400000D01*
X56740000Y-70700000D02*
X61440000Y-75400000D01*
X74500000Y-75400000D02*
X79500000Y-80400000D01*
X79500000Y-80400000D02*
X80300000Y-80400000D01*
X80300000Y-80400000D02*
X82300000Y-82400000D01*
X82300000Y-82400000D02*
X82300000Y-85000000D01*
G04 #@! TO.N,USB_SIWU#*
X91900002Y-85300000D02*
X93700000Y-85300000D01*
X83200000Y-94400000D02*
X84500000Y-94400000D01*
X82900000Y-94700000D02*
X83200000Y-94400000D01*
X84500000Y-94400000D02*
X85200000Y-93700000D01*
X85200000Y-93700000D02*
X85200000Y-91000000D01*
X85200000Y-91000000D02*
X90900000Y-85300000D01*
X90900000Y-85300000D02*
X91900002Y-85300000D01*
G04 #@! TO.N,USB_DBUS5*
X86700000Y-80700000D02*
X88600000Y-78800000D01*
X86700000Y-84500000D02*
X86700000Y-80700000D01*
X82000000Y-89200000D02*
X86700000Y-84500000D01*
X82900000Y-92300000D02*
X82000000Y-91400000D01*
X82000000Y-91400000D02*
X82000000Y-89200000D01*
G04 #@! TO.N,HP_MCLK*
X80800000Y-91800000D02*
X80800000Y-89700000D01*
X80800000Y-89700000D02*
X82075001Y-88424999D01*
X81300000Y-92300000D02*
X80800000Y-91800000D01*
X82075001Y-88424999D02*
X82300000Y-88200000D01*
G04 #@! TO.N,USB_RXF#*
X83500000Y-92500000D02*
X82900000Y-93100000D01*
X83500000Y-92100000D02*
X83500000Y-92500000D01*
X82400000Y-91000000D02*
X83500000Y-92100000D01*
X82400000Y-90500000D02*
X82400000Y-91000000D01*
X88000000Y-80300000D02*
X87200000Y-81100000D01*
X88600000Y-80300000D02*
X88000000Y-80300000D01*
X87200000Y-81100000D02*
X87200000Y-86400000D01*
X87200000Y-86400000D02*
X83600000Y-90000000D01*
X83600000Y-90000000D02*
X82900000Y-90000000D01*
X82900000Y-90000000D02*
X82400000Y-90500000D01*
G04 #@! TO.N,USB_CBUS8*
X95475001Y-85224999D02*
X95700000Y-85000000D01*
X94300000Y-86400000D02*
X95475001Y-85224999D01*
X83500000Y-94900000D02*
X84600000Y-94900000D01*
X82900000Y-95500000D02*
X83500000Y-94900000D01*
X84600000Y-94900000D02*
X85700000Y-93800000D01*
X85700000Y-93800000D02*
X85700000Y-91300000D01*
X85700000Y-91300000D02*
X90600000Y-86400000D01*
X90600000Y-86400000D02*
X94300000Y-86400000D01*
G04 #@! TO.N,IF5_HSCK*
X55000000Y-115300000D02*
X65500000Y-115300000D01*
X65500000Y-115300000D02*
X67100000Y-113700000D01*
X67100000Y-113700000D02*
X72600000Y-113700000D01*
X72600000Y-113700000D02*
X75400000Y-110900000D01*
X75400000Y-107200000D02*
X74900000Y-106700000D01*
X75400000Y-110900000D02*
X75400000Y-107200000D01*
G04 #@! TO.N,IF5_HRXD*
X74100000Y-111200000D02*
X74100000Y-107500000D01*
X72000000Y-113300000D02*
X74100000Y-111200000D01*
X66900000Y-113300000D02*
X72000000Y-113300000D01*
X65300000Y-114900000D02*
X66900000Y-113300000D01*
X55000000Y-114600000D02*
X55300000Y-114900000D01*
X55300000Y-114900000D02*
X65300000Y-114900000D01*
G04 #@! TO.N,IF5_HTXD*
X55600000Y-114000000D02*
X56100000Y-114500000D01*
X56100000Y-114500000D02*
X65200000Y-114500000D01*
X65200000Y-114500000D02*
X66800000Y-112900000D01*
X66800000Y-112900000D02*
X71600000Y-112900000D01*
X71600000Y-112900000D02*
X73300000Y-111200000D01*
X73300000Y-111200000D02*
X73300000Y-107818198D01*
X73300000Y-107818198D02*
X73300000Y-107500000D01*
G04 #@! TO.N,IF6_SSCK*
X43200000Y-113500000D02*
X49800000Y-113500000D01*
X49800000Y-113500000D02*
X52200000Y-111100000D01*
X52200000Y-111100000D02*
X67500000Y-111100000D01*
X67500000Y-111100000D02*
X68400000Y-112000000D01*
X68400000Y-112000000D02*
X70500000Y-112000000D01*
X70500000Y-112000000D02*
X72100000Y-110400000D01*
X72100000Y-110400000D02*
X72100000Y-107900000D01*
D52*
X72100000Y-107100000D02*
X72500000Y-106700000D01*
X72100000Y-107900000D02*
X72100000Y-107100000D01*
D53*
G04 #@! TO.N,IF6_SRXD*
X71700000Y-109300000D02*
X71700000Y-107500000D01*
X49800000Y-112900000D02*
X52000000Y-110700000D01*
X43200000Y-112900000D02*
X49800000Y-112900000D01*
X52000000Y-110700000D02*
X70300000Y-110700000D01*
X70300000Y-110700000D02*
X71700000Y-109300000D01*
G04 #@! TO.N,IF6_STXD*
X71300000Y-109000000D02*
X71300000Y-107900000D01*
X70000000Y-110300000D02*
X71300000Y-109000000D01*
X43800000Y-112200000D02*
X45700000Y-110300000D01*
X45700000Y-110300000D02*
X70000000Y-110300000D01*
D52*
X71300000Y-107100000D02*
X71700000Y-106700000D01*
X71300000Y-107900000D02*
X71300000Y-107100000D01*
D49*
G04 #@! TO.N,/DDR/DDR_A6*
X67300000Y-107100000D02*
X66100000Y-107100000D01*
X70500000Y-103900000D02*
X67300000Y-107100000D01*
X70500000Y-102300000D02*
X70500000Y-103900000D01*
D52*
X70500000Y-100100000D02*
X70500000Y-102300000D01*
X70700000Y-99900000D02*
X70500000Y-100100000D01*
X72100000Y-96700000D02*
X72100000Y-98100000D01*
X71700000Y-96300000D02*
X72100000Y-96700000D01*
X72100000Y-98100000D02*
X71300000Y-98900000D01*
X71300000Y-98900000D02*
X71300000Y-99700000D01*
X71300000Y-99700000D02*
X71100000Y-99900000D01*
X71100000Y-99900000D02*
X70700000Y-99900000D01*
D49*
G04 #@! TO.N,/DDR/DDR_CS*
X49700000Y-105681802D02*
X49700000Y-106000000D01*
X49700000Y-103950000D02*
X49700000Y-105681802D01*
X49705642Y-103899932D02*
X49700000Y-103950000D01*
X49722283Y-103852376D02*
X49705642Y-103899932D01*
X49749088Y-103809714D02*
X49722283Y-103852376D01*
X49784715Y-103774087D02*
X49749088Y-103809714D01*
X49827377Y-103747282D02*
X49784715Y-103774087D01*
X49874933Y-103730641D02*
X49827377Y-103747282D01*
X49975068Y-103719358D02*
X49874933Y-103730641D01*
X50022624Y-103702717D02*
X49975068Y-103719358D01*
X50065286Y-103675912D02*
X50022624Y-103702717D01*
X50100913Y-103640285D02*
X50065286Y-103675912D01*
X50127718Y-103597623D02*
X50100913Y-103640285D01*
X50144359Y-103550067D02*
X50127718Y-103597623D01*
X50150000Y-103500000D02*
X50144359Y-103550067D01*
X49334714Y-102574087D02*
X49299087Y-102609714D01*
X49377376Y-102547282D02*
X49334714Y-102574087D01*
X49424932Y-102530641D02*
X49377376Y-102547282D01*
X49525067Y-102519358D02*
X49424932Y-102530641D01*
X49572623Y-102502717D02*
X49525067Y-102519358D01*
X49615285Y-102475912D02*
X49572623Y-102502717D01*
X49650912Y-102440285D02*
X49615285Y-102475912D01*
X49677717Y-102397623D02*
X49650912Y-102440285D01*
X49694358Y-102350067D02*
X49677717Y-102397623D01*
X49700000Y-102300000D02*
X49694358Y-102350067D01*
X48875001Y-96424999D02*
X48875001Y-97375001D01*
X49100000Y-96200000D02*
X48875001Y-96424999D01*
X48875001Y-97375001D02*
X49400000Y-97900000D01*
X49400000Y-97900000D02*
X49400000Y-100200000D01*
X49400000Y-100200000D02*
X49700000Y-100500000D01*
X49700000Y-100500000D02*
X49700000Y-102300000D01*
X49299087Y-102609714D02*
X49272282Y-102652376D01*
X49272282Y-102652376D02*
X49255641Y-102699932D01*
X49255641Y-102699932D02*
X49250000Y-102750000D01*
X49250000Y-102750000D02*
X49250000Y-102900000D01*
X49250000Y-102900000D02*
X49255641Y-102950067D01*
X49255641Y-102950067D02*
X49272282Y-102997623D01*
X49272282Y-102997623D02*
X49299087Y-103040285D01*
X49299087Y-103040285D02*
X49334714Y-103075912D01*
X49334714Y-103075912D02*
X49377376Y-103102717D01*
X49377376Y-103102717D02*
X49424932Y-103119358D01*
X49424932Y-103119358D02*
X49475000Y-103125000D01*
X49475000Y-103125000D02*
X49925000Y-103125000D01*
X49925000Y-103125000D02*
X49975068Y-103130641D01*
X49975068Y-103130641D02*
X50022624Y-103147282D01*
X50022624Y-103147282D02*
X50065286Y-103174087D01*
X50065286Y-103174087D02*
X50100913Y-103209714D01*
X50100913Y-103209714D02*
X50127718Y-103252376D01*
X50127718Y-103252376D02*
X50144359Y-103299932D01*
X50144359Y-103299932D02*
X50150000Y-103350000D01*
X50150000Y-103350000D02*
X50150000Y-103500000D01*
D52*
G04 #@! TO.N,/DDR/DDR_A4*
X71300000Y-98200000D02*
X71000000Y-98500000D01*
X70900000Y-97100000D02*
X71300000Y-97500000D01*
X71300000Y-97500000D02*
X71300000Y-98200000D01*
D49*
X70840926Y-98659074D02*
X71000000Y-98500000D01*
X70649989Y-98850011D02*
X70840926Y-98659074D01*
X64700000Y-102700000D02*
X64700000Y-99699138D01*
X65100000Y-103100000D02*
X64700000Y-102700000D01*
X64700000Y-99699138D02*
X65399138Y-99000000D01*
X65399138Y-99000000D02*
X68000000Y-99000000D01*
X68000000Y-99000000D02*
X68149989Y-98850011D01*
X68149989Y-98850011D02*
X70649989Y-98850011D01*
G04 #@! TO.N,/DDR/DDR_RAS*
X62400000Y-100600000D02*
X62400000Y-100100000D01*
X62100000Y-100900000D02*
X62400000Y-100600000D01*
X62100000Y-102200000D02*
X62100000Y-100900000D01*
X62400000Y-102500000D02*
X62100000Y-102200000D01*
X62400000Y-103200000D02*
X62400000Y-102500000D01*
X63700000Y-104500000D02*
X62400000Y-103200000D01*
X64000000Y-104500000D02*
X63700000Y-104500000D01*
X64300000Y-104800000D02*
X64000000Y-104500000D01*
X64300000Y-105400000D02*
X64300000Y-104800000D01*
X63100000Y-106600000D02*
X64300000Y-105400000D01*
X61700000Y-106600000D02*
X63100000Y-106600000D01*
X61200000Y-107100000D02*
X61700000Y-106600000D01*
X61200000Y-107300000D02*
X61200000Y-107100000D01*
X61400000Y-107500000D02*
X61200000Y-107300000D01*
X61700000Y-107500000D02*
X61400000Y-107500000D01*
X66000000Y-106400000D02*
X65500000Y-106900000D01*
X66500001Y-106399999D02*
X66000000Y-106400000D01*
X68000000Y-104900000D02*
X66500001Y-106399999D01*
X68700000Y-104900000D02*
X68000000Y-104900000D01*
X70100000Y-101900000D02*
X70100000Y-103500000D01*
X70100000Y-103500000D02*
X68700000Y-104900000D01*
X65500000Y-106900000D02*
X65500000Y-108300000D01*
X65500000Y-108300000D02*
X65000000Y-108800000D01*
X65000000Y-108800000D02*
X61400000Y-108800000D01*
X61400000Y-108800000D02*
X61200000Y-108600000D01*
X61200000Y-108600000D02*
X61200000Y-108300000D01*
X61200000Y-108300000D02*
X61400000Y-108100000D01*
X61400000Y-108100000D02*
X61700000Y-108100000D01*
X61700000Y-108100000D02*
X61900000Y-107900000D01*
X61900000Y-107900000D02*
X61900000Y-107700000D01*
X61900000Y-107700000D02*
X61700000Y-107500000D01*
G04 #@! TO.N,/DDR/DDR_ODT*
X49900000Y-94700000D02*
X50300000Y-94300000D01*
X49900000Y-97000000D02*
X49900000Y-94700000D01*
D52*
X49900000Y-97000000D02*
X49900000Y-98700000D01*
G04 #@! TO.N,/DDR/DDR_A1*
X69700000Y-99900000D02*
X68900000Y-99900000D01*
X70100000Y-99500000D02*
X69700000Y-99900000D01*
D49*
X65200000Y-101000000D02*
X65800000Y-101600000D01*
X68100000Y-100100000D02*
X67400000Y-99400000D01*
X65700000Y-99400000D02*
X65200000Y-99900000D01*
X67400000Y-99400000D02*
X65700000Y-99400000D01*
X68800000Y-100000000D02*
X68800000Y-100500000D01*
X65200000Y-99900000D02*
X65200000Y-101000000D01*
X68900000Y-99900000D02*
X68800000Y-100000000D01*
X68700000Y-100600000D02*
X68200000Y-100600000D01*
X68800000Y-100500000D02*
X68700000Y-100600000D01*
X68200000Y-100600000D02*
X68100000Y-100500000D01*
X68100000Y-100500000D02*
X68100000Y-100100000D01*
D52*
G04 #@! TO.N,/DDR/DDR_A5*
X69700000Y-97500000D02*
X70100000Y-97100000D01*
X68653568Y-97500000D02*
X69700000Y-97500000D01*
X68153568Y-98000000D02*
X68653568Y-97500000D01*
X64294989Y-98000000D02*
X68153568Y-98000000D01*
D49*
X64200000Y-98000000D02*
X64294989Y-98000000D01*
X64100000Y-98100000D02*
X64200000Y-98000000D01*
X64100000Y-98300000D02*
X64100000Y-98100000D01*
X64300000Y-98500000D02*
X64100000Y-98300000D01*
X62100000Y-98600000D02*
X62100000Y-98800000D01*
X62600000Y-99000000D02*
X63100000Y-98500000D01*
X63100000Y-98500000D02*
X63400000Y-98500000D01*
X63400000Y-98500000D02*
X63600000Y-98700000D01*
X63400000Y-97900000D02*
X62800000Y-97900000D01*
X63800000Y-97505011D02*
X63575001Y-97730010D01*
X63575001Y-97730010D02*
X63569990Y-97730010D01*
X64000000Y-99100000D02*
X64300000Y-98800000D01*
X62100000Y-98800000D02*
X62300000Y-99000000D01*
X62800000Y-97900000D02*
X62100000Y-98600000D01*
X62300000Y-99000000D02*
X62600000Y-99000000D01*
X63800000Y-99100000D02*
X64000000Y-99100000D01*
X63600000Y-98700000D02*
X63600000Y-98900000D01*
X63569990Y-97730010D02*
X63400000Y-97900000D01*
X63600000Y-98900000D02*
X63800000Y-99100000D01*
X64300000Y-98800000D02*
X64300000Y-98500000D01*
D52*
G04 #@! TO.N,/DDR/DDR_A8*
X70300000Y-98500000D02*
X67700000Y-98500000D01*
X70500000Y-98300000D02*
X70300000Y-98500000D01*
X70100000Y-96300000D02*
X70500000Y-96700000D01*
X70500000Y-96700000D02*
X70500000Y-98300000D01*
D49*
X64399998Y-103099998D02*
X64399998Y-103200000D01*
X64200000Y-102900000D02*
X64399998Y-103099998D01*
X64200000Y-99500000D02*
X64200000Y-102900000D01*
X67700000Y-98500000D02*
X65200000Y-98500000D01*
X65200000Y-98500000D02*
X64200000Y-99500000D01*
D52*
G04 #@! TO.N,/DDR/DDR_WE*
X69300000Y-102499998D02*
X69300000Y-101900000D01*
X69300000Y-103300000D02*
X69300000Y-102499998D01*
X68700000Y-103900000D02*
X69300000Y-103300000D01*
X68200000Y-103900000D02*
X68700000Y-103900000D01*
X67700000Y-104200000D02*
X67900000Y-104200000D01*
X67900000Y-104200000D02*
X68200000Y-103900000D01*
D49*
X67400000Y-104200000D02*
X67700000Y-104200000D01*
X65800000Y-105100000D02*
X66100000Y-104800000D01*
X65800000Y-105800000D02*
X65800000Y-105100000D01*
X64800000Y-106800000D02*
X65800000Y-105800000D01*
X64800000Y-107700000D02*
X64800000Y-106800000D01*
X64400000Y-108100000D02*
X64800000Y-107700000D01*
X62700000Y-108100000D02*
X64400000Y-108100000D01*
X62500000Y-107900000D02*
X62700000Y-108100000D01*
X62700000Y-107300000D02*
X62500000Y-107500000D01*
X63700000Y-107300000D02*
X62700000Y-107300000D01*
X64200000Y-106300000D02*
X64200000Y-106800000D01*
X64900000Y-104700000D02*
X64900000Y-105600000D01*
X66100000Y-104800000D02*
X66800000Y-104800000D01*
X63627717Y-102352376D02*
X63644358Y-102399932D01*
X63600912Y-102309714D02*
X63627717Y-102352376D01*
X63644358Y-102399932D02*
X63650000Y-102450000D01*
X63522623Y-102247282D02*
X63565285Y-102274087D01*
X62975000Y-102225000D02*
X63425000Y-102225000D01*
X63475067Y-102230641D02*
X63522623Y-102247282D01*
X62877377Y-102202717D02*
X62924933Y-102219358D01*
X62834715Y-102175912D02*
X62877377Y-102202717D01*
X62799088Y-102140285D02*
X62834715Y-102175912D01*
X63565285Y-100774087D02*
X63600912Y-100809714D01*
X62755642Y-102050067D02*
X62772283Y-102097623D01*
X63600912Y-100809714D02*
X63627717Y-100852376D01*
X63284714Y-100675912D02*
X63327376Y-100702717D01*
X63327376Y-100702717D02*
X63374932Y-100719358D01*
X63627717Y-101347623D02*
X63600912Y-101390285D01*
X63600912Y-101390285D02*
X63565285Y-101425912D01*
X63565285Y-101425912D02*
X63522623Y-101452717D01*
X63565285Y-102274087D02*
X63600912Y-102309714D01*
X63205641Y-100550067D02*
X63222282Y-100597623D01*
X64900000Y-105600000D02*
X64200000Y-106300000D01*
X63425000Y-102225000D02*
X63475067Y-102230641D01*
X63475067Y-100730641D02*
X63522623Y-100747282D01*
X63374932Y-100719358D02*
X63475067Y-100730641D01*
X63522623Y-100747282D02*
X63565285Y-100774087D01*
X62755642Y-101649932D02*
X62750000Y-101700000D01*
X62500000Y-107500000D02*
X62500000Y-107900000D01*
X61800000Y-99700000D02*
X62000000Y-99500000D01*
X62000000Y-99500000D02*
X63011015Y-99500000D01*
X63650000Y-103450000D02*
X64900000Y-104700000D01*
X61800000Y-100100000D02*
X61800000Y-99700000D01*
X63222282Y-100597623D02*
X63249087Y-100640285D01*
X63249087Y-100640285D02*
X63284714Y-100675912D01*
X62772283Y-102097623D02*
X62799088Y-102140285D01*
X63011015Y-99500000D02*
X63200000Y-99688985D01*
X62799088Y-101559714D02*
X62772283Y-101602376D01*
X66800000Y-104800000D02*
X67400000Y-104200000D01*
X63200000Y-99688985D02*
X63200000Y-100500000D01*
X63200000Y-100500000D02*
X63205641Y-100550067D01*
X63627717Y-100852376D02*
X63644358Y-100899932D01*
X63644358Y-100899932D02*
X63650000Y-100950000D01*
X63650000Y-100950000D02*
X63650000Y-101250000D01*
X63650000Y-101250000D02*
X63644358Y-101300067D01*
X63644358Y-101300067D02*
X63627717Y-101347623D01*
X62750000Y-102000000D02*
X62755642Y-102050067D01*
X63522623Y-101452717D02*
X63475067Y-101469358D01*
X62924933Y-102219358D02*
X62975000Y-102225000D01*
X63475067Y-101469358D02*
X63425000Y-101475000D01*
X63650000Y-102450000D02*
X63650000Y-103450000D01*
X63425000Y-101475000D02*
X62975000Y-101475000D01*
X62975000Y-101475000D02*
X62924933Y-101480641D01*
X62924933Y-101480641D02*
X62877377Y-101497282D01*
X62877377Y-101497282D02*
X62834715Y-101524087D01*
X62834715Y-101524087D02*
X62799088Y-101559714D01*
X62772283Y-101602376D02*
X62755642Y-101649932D01*
X64200000Y-106800000D02*
X63700000Y-107300000D01*
X62750000Y-101700000D02*
X62750000Y-102000000D01*
G04 #@! TO.N,/DDR/DDR_A0*
X45800000Y-97800000D02*
X46300000Y-98300000D01*
X45300000Y-96800000D02*
X45600000Y-96800000D01*
X44700000Y-94200000D02*
X44500000Y-94200000D01*
X44898237Y-94440253D02*
X44869091Y-94379728D01*
X44913187Y-94505748D02*
X44898237Y-94440253D01*
X44898238Y-94638421D02*
X44913186Y-94572926D01*
X44827206Y-94751469D02*
X44869090Y-94698946D01*
X44827206Y-94327205D02*
X44700000Y-94200000D01*
X44721139Y-94857535D02*
X44827206Y-94751469D01*
X44679254Y-94910059D02*
X44721139Y-94857535D01*
X44650106Y-94970584D02*
X44679254Y-94910059D01*
X44650107Y-95168752D02*
X44635157Y-95103257D01*
X46277098Y-94956620D02*
X46292047Y-94891126D01*
X46100000Y-95175735D02*
X46206066Y-95069668D01*
X46028967Y-95288784D02*
X46058114Y-95228258D01*
X44913186Y-94572926D02*
X44913187Y-94505748D01*
X46014018Y-95421457D02*
X46014018Y-95354278D01*
X44500000Y-94200000D02*
X44100000Y-94600000D01*
X46028967Y-95486951D02*
X46014018Y-95421457D01*
X44869091Y-94379728D02*
X44827206Y-94327205D01*
X46014018Y-95354278D02*
X46028967Y-95288784D01*
X44869090Y-94698946D02*
X44898238Y-94638421D01*
X46247951Y-95017146D02*
X46277098Y-94956620D01*
X47900000Y-96981802D02*
X47718198Y-96800000D01*
X44679253Y-95229277D02*
X44650107Y-95168752D01*
X47900000Y-97300000D02*
X47900000Y-96981802D01*
X44635158Y-95036079D02*
X44650106Y-94970584D01*
X47718198Y-96800000D02*
X47300000Y-96800000D01*
X46093017Y-94574371D02*
X46027523Y-94559422D01*
X44834189Y-95352834D02*
X44773663Y-95323686D01*
X46206066Y-95069668D02*
X46247951Y-95017146D01*
X46153543Y-94603518D02*
X46093017Y-94574371D01*
X46058114Y-95228258D02*
X46100000Y-95175735D01*
X44721140Y-95281801D02*
X44679253Y-95229277D01*
X44100000Y-94600000D02*
X44100000Y-95600000D01*
X47300000Y-96800000D02*
X46100000Y-95600000D01*
X46300000Y-98300000D02*
X47400002Y-98300000D01*
X45834324Y-94603518D02*
X45781801Y-94645404D01*
X46292047Y-94891126D02*
X46292047Y-94823947D01*
X46058114Y-95547477D02*
X46028967Y-95486951D01*
X44899683Y-95367782D02*
X44834189Y-95352834D01*
X46292047Y-94823947D02*
X46277098Y-94758453D01*
X44100000Y-95600000D02*
X45300000Y-96800000D01*
X46277098Y-94758453D02*
X46247951Y-94697927D01*
X46100000Y-95600000D02*
X46058114Y-95547477D01*
X46247951Y-94697927D02*
X46206066Y-94645404D01*
X46206066Y-94645404D02*
X46153543Y-94603518D01*
X45145404Y-95281801D02*
X45092881Y-95323685D01*
X46027523Y-94559422D02*
X45960344Y-94559422D01*
X45600000Y-96800000D02*
X45800000Y-97000000D01*
X45960344Y-94559422D02*
X45894850Y-94574371D01*
X44773663Y-95323686D02*
X44721140Y-95281801D01*
X45800000Y-97000000D02*
X45800000Y-97800000D01*
X45894850Y-94574371D02*
X45834324Y-94603518D01*
X45781801Y-94645404D02*
X45145404Y-95281801D01*
X45092881Y-95323685D02*
X45032355Y-95352833D01*
X47400002Y-98300000D02*
X48900000Y-98300000D01*
X45032355Y-95352833D02*
X44966861Y-95367781D01*
X44635157Y-95103257D02*
X44635158Y-95036079D01*
X44966861Y-95367781D02*
X44899683Y-95367782D01*
G04 #@! TO.N,/DDR/DDR_A3*
X48400000Y-93500000D02*
X48400000Y-93900000D01*
X47799999Y-93400001D02*
X48300001Y-93400001D01*
X47600000Y-93600000D02*
X47799999Y-93400001D01*
X48300000Y-95400000D02*
X48800000Y-94900000D01*
X49400000Y-94200000D02*
X49900000Y-93700000D01*
X49200000Y-94900000D02*
X49400000Y-94700000D01*
X49900000Y-93700000D02*
X50400000Y-93700000D01*
X47100000Y-92600000D02*
X46800000Y-92900000D01*
X49400000Y-94700000D02*
X49400000Y-94200000D01*
X50400000Y-93700000D02*
X50600000Y-93500000D01*
X48300001Y-93400001D02*
X48400000Y-93500000D01*
X50400000Y-92600000D02*
X47100000Y-92600000D01*
X50600000Y-93500000D02*
X50600000Y-92800000D01*
X50600000Y-92800000D02*
X50400000Y-92600000D01*
X46800000Y-95300000D02*
X47000000Y-95500000D01*
X46800000Y-92900000D02*
X46800000Y-95300000D01*
X47000000Y-95500000D02*
X47400000Y-95500000D01*
X48800000Y-94900000D02*
X49200000Y-94900000D01*
X47400000Y-95500000D02*
X47600000Y-95300000D01*
X47600000Y-95300000D02*
X47600000Y-93600000D01*
G04 #@! TO.N,/DDR/DDR_A12*
X64600000Y-95100000D02*
X65000000Y-94700000D01*
X65000000Y-94700000D02*
X66600000Y-94700000D01*
D52*
X68900000Y-95100000D02*
X69300000Y-95500000D01*
X67300000Y-95100000D02*
X68900000Y-95100000D01*
X66600000Y-94700000D02*
X66900000Y-94700000D01*
X66900000Y-94700000D02*
X67300000Y-95100000D01*
D49*
G04 #@! TO.N,/DDR/DDR_CAS*
X68724999Y-101324999D02*
X68500000Y-101100000D01*
X68824999Y-101324999D02*
X68724999Y-101324999D01*
X68900000Y-101400000D02*
X68824999Y-101324999D01*
X68900000Y-101600000D02*
X68900000Y-101400000D01*
X68700000Y-102900000D02*
X68800000Y-102800000D01*
X68300000Y-102900000D02*
X68700000Y-102900000D01*
X68200000Y-102800000D02*
X68300000Y-102900000D01*
X68200000Y-101700000D02*
X68200000Y-102800000D01*
X65600000Y-102200000D02*
X65400000Y-102400000D01*
X65000000Y-104200000D02*
X65800000Y-104200000D01*
X66300000Y-102900000D02*
X66500000Y-102700000D01*
X65700000Y-102900000D02*
X65700000Y-103300000D01*
X68800000Y-102800000D02*
X68800000Y-101700000D01*
X65800000Y-104200000D02*
X66300000Y-103700000D01*
X66900000Y-101099996D02*
X66500000Y-100699996D01*
X65400000Y-102600000D02*
X65700000Y-102900000D01*
X65800000Y-100800000D02*
X66400000Y-101400000D01*
X67500000Y-100600000D02*
X67500000Y-101300000D01*
X65800000Y-99999996D02*
X65800000Y-100800000D01*
X66500000Y-100699996D02*
X66500000Y-100500000D01*
X65000000Y-103600000D02*
X64800000Y-103800000D01*
X66400000Y-101400000D02*
X66400000Y-101800000D01*
X64800000Y-104000000D02*
X65000000Y-104200000D01*
X65700000Y-103300000D02*
X65400000Y-103600000D01*
X66900000Y-101800000D02*
X66900000Y-101099996D01*
X65400000Y-103600000D02*
X65000000Y-103600000D01*
X67000000Y-103500000D02*
X67100000Y-103600000D01*
X67100000Y-103600000D02*
X67600000Y-103600000D01*
X65400000Y-102400000D02*
X65400000Y-102600000D01*
X66400000Y-101800000D02*
X66000000Y-102200000D01*
X64800000Y-103800000D02*
X64800000Y-104000000D01*
X66800000Y-102700000D02*
X67000000Y-102900000D01*
X66000000Y-102200000D02*
X65600000Y-102200000D01*
X67700000Y-102600000D02*
X66900000Y-101800000D01*
X66500000Y-100500000D02*
X66669999Y-100330001D01*
X66300000Y-103700000D02*
X66300000Y-102900000D01*
X66500000Y-102700000D02*
X66800000Y-102700000D01*
X67000000Y-102900000D02*
X67000000Y-103500000D01*
X68800000Y-101700000D02*
X68900000Y-101600000D01*
X66669999Y-100330001D02*
X67230001Y-100330001D01*
X67600000Y-103600000D02*
X67700000Y-103500000D01*
X67700000Y-103500000D02*
X67700000Y-102600000D01*
X67230001Y-100330001D02*
X67500000Y-100600000D01*
X67500000Y-101300000D02*
X67600000Y-101400000D01*
X67600000Y-101400000D02*
X67900000Y-101400000D01*
X67900000Y-101400000D02*
X68200000Y-101700000D01*
G04 #@! TO.N,/DDR/DDR_A10*
X67100000Y-97500000D02*
X67200000Y-97600000D01*
X67000000Y-97100000D02*
X67100000Y-97200000D01*
X66500000Y-97100000D02*
X67000000Y-97100000D01*
X66300000Y-97600000D02*
X66400000Y-97500000D01*
X65900000Y-97600000D02*
X66300000Y-97600000D01*
X65800000Y-97500000D02*
X65900000Y-97600000D01*
X65700000Y-97100000D02*
X65800000Y-97200000D01*
X65200000Y-97200000D02*
X65300000Y-97100000D01*
X60500000Y-99000000D02*
X60900000Y-99000000D01*
X60105011Y-98605011D02*
X60500000Y-99000000D01*
X60900000Y-99000000D02*
X62500000Y-97400000D01*
X60105010Y-98294990D02*
X60105011Y-98605011D01*
X67100000Y-97200000D02*
X67100000Y-97500000D01*
X63075001Y-97400000D02*
X63400000Y-97075001D01*
X65800000Y-97200000D02*
X65800000Y-97500000D01*
X64600000Y-97500000D02*
X64700000Y-97600000D01*
X60700000Y-97704063D02*
X60475001Y-97929062D01*
X66400000Y-97200000D02*
X66500000Y-97100000D01*
X65200000Y-97500000D02*
X65200000Y-97200000D01*
X60475001Y-97929062D02*
X60470938Y-97929062D01*
X63400000Y-97075001D02*
X64475001Y-97075001D01*
X65300000Y-97100000D02*
X65700000Y-97100000D01*
X64475001Y-97075001D02*
X64600000Y-97200000D01*
X60470938Y-97929062D02*
X60105010Y-98294990D01*
X64600000Y-97200000D02*
X64600000Y-97500000D01*
X64700000Y-97600000D02*
X65100001Y-97599999D01*
X66400000Y-97500000D02*
X66400000Y-97200000D01*
X62500000Y-97400000D02*
X63075001Y-97400000D01*
X65100001Y-97599999D02*
X65200000Y-97500000D01*
D52*
X68900000Y-95900000D02*
X69600000Y-95900000D01*
X68100000Y-97600000D02*
X67200000Y-97600000D01*
X68500000Y-97200000D02*
X68100000Y-97600000D01*
X68500000Y-96900000D02*
X68500000Y-97200000D01*
X68700000Y-96700000D02*
X68500000Y-96900000D01*
X69600000Y-96700000D02*
X68700000Y-96700000D01*
X69700000Y-96600000D02*
X69600000Y-96700000D01*
X69700000Y-96000000D02*
X69700000Y-96600000D01*
X69600000Y-95900000D02*
X69700000Y-96000000D01*
X68500000Y-96300000D02*
X68900000Y-95900000D01*
D53*
G04 #@! TO.N,/DDR/DDR_DM1*
X65900002Y-91100000D02*
X66700000Y-91100000D01*
X64850000Y-91100000D02*
X65900002Y-91100000D01*
X64744302Y-91088091D02*
X64850000Y-91100000D01*
X64643905Y-91052961D02*
X64744302Y-91088091D01*
X64553842Y-90996370D02*
X64643905Y-91052961D01*
X64478630Y-90921158D02*
X64553842Y-90996370D01*
X64422039Y-90831095D02*
X64478630Y-90921158D01*
X64386909Y-90730698D02*
X64422039Y-90831095D01*
X64375000Y-90625000D02*
X64386909Y-90730698D01*
X64375000Y-90575000D02*
X64375000Y-90625000D01*
X64363090Y-90469303D02*
X64375000Y-90575000D01*
X64327960Y-90368906D02*
X64363090Y-90469303D01*
X64271369Y-90278843D02*
X64327960Y-90368906D01*
X64196157Y-90203631D02*
X64271369Y-90278843D01*
X62653842Y-91996369D02*
X62743905Y-92052960D01*
X62578630Y-91921157D02*
X62653842Y-91996369D01*
X62522039Y-91831094D02*
X62578630Y-91921157D01*
X62486909Y-91730697D02*
X62522039Y-91831094D01*
X62427960Y-91368905D02*
X62463090Y-91469302D01*
X62371369Y-91278842D02*
X62427960Y-91368905D01*
X62296157Y-91203630D02*
X62371369Y-91278842D01*
X55500000Y-94600000D02*
X59000000Y-91100000D01*
X62475000Y-91625000D02*
X62486909Y-91730697D01*
X55500000Y-96200000D02*
X55500000Y-94600000D01*
X64106094Y-90147040D02*
X64196157Y-90203631D01*
X62475000Y-91575000D02*
X62475000Y-91625000D01*
X59000000Y-91100000D02*
X62000000Y-91100000D01*
X64005697Y-90111910D02*
X64106094Y-90147040D01*
X62463090Y-91469302D02*
X62475000Y-91575000D01*
X62000000Y-91100000D02*
X62105697Y-91111909D01*
X63900000Y-90100000D02*
X64005697Y-90111910D01*
X62105697Y-91111909D02*
X62206094Y-91147039D01*
X62206094Y-91147039D02*
X62296157Y-91203630D01*
X62743905Y-92052960D02*
X62844302Y-92088090D01*
X62844302Y-92088090D02*
X62950000Y-92100000D01*
X62950000Y-92100000D02*
X63055697Y-92088090D01*
X63055697Y-92088090D02*
X63156094Y-92052960D01*
X63156094Y-92052960D02*
X63246157Y-91996369D01*
X63246157Y-91996369D02*
X63321369Y-91921157D01*
X63321369Y-91921157D02*
X63377960Y-91831094D01*
X63377960Y-91831094D02*
X63413090Y-91730697D01*
X63413090Y-91730697D02*
X63425000Y-91625000D01*
X63425000Y-91625000D02*
X63425000Y-90575000D01*
X63425000Y-90575000D02*
X63436909Y-90469303D01*
X63436909Y-90469303D02*
X63472039Y-90368906D01*
X63472039Y-90368906D02*
X63528630Y-90278843D01*
X63528630Y-90278843D02*
X63603842Y-90203631D01*
X63603842Y-90203631D02*
X63693905Y-90147040D01*
X63693905Y-90147040D02*
X63794302Y-90111910D01*
X63794302Y-90111910D02*
X63900000Y-90100000D01*
G04 #@! TO.N,/DDR/DDR_DQ4*
X52124999Y-97524999D02*
X51900000Y-97300000D01*
X52200000Y-97600000D02*
X52124999Y-97524999D01*
X52200000Y-102200000D02*
X52200000Y-97600000D01*
X53800000Y-103800000D02*
X52200000Y-102200000D01*
X58500004Y-104200000D02*
X58100004Y-103800000D01*
X58100004Y-103800000D02*
X53800000Y-103800000D01*
G04 #@! TO.N,/DDR/DDR_DQ3*
X61900000Y-104800000D02*
X62900000Y-105800000D01*
X61600000Y-104800000D02*
X61900000Y-104800000D01*
X59600000Y-102800000D02*
X61600000Y-104800000D01*
X54400000Y-102800000D02*
X59600000Y-102800000D01*
X53100000Y-101000000D02*
X53100000Y-101500000D01*
X53100000Y-101500000D02*
X54400000Y-102800000D01*
G04 #@! TO.N,/DDR/DDR_DQ1*
X54900000Y-100200000D02*
X53900000Y-100200000D01*
X63500000Y-105200000D02*
X61100000Y-102800000D01*
X63700000Y-105200000D02*
X63500000Y-105200000D01*
X61100000Y-102800000D02*
X61100000Y-101800000D01*
X61100000Y-101800000D02*
X59800000Y-100500000D01*
X59800000Y-100500000D02*
X55200000Y-100500000D01*
X55200000Y-100500000D02*
X54900000Y-100200000D01*
D52*
G04 #@! TO.N,/DDR/DDR_DQ11*
X68500000Y-92300000D02*
X68100000Y-91900000D01*
X68100000Y-91900000D02*
X68100000Y-91300000D01*
X68100000Y-91300000D02*
X67700000Y-90900000D01*
D53*
X66150000Y-90400000D02*
X66100000Y-90400000D01*
X67700000Y-90900000D02*
X67200000Y-90400000D01*
X67200000Y-90400000D02*
X66150000Y-90400000D01*
D55*
G04 #@! TO.N,/DDR/DDR_DQS_1_N*
X65222500Y-93950742D02*
X64850742Y-94322500D01*
X65222500Y-93349258D02*
X65222500Y-93950742D01*
X64922500Y-93049258D02*
X65222500Y-93349258D01*
X64922500Y-92550742D02*
X64922500Y-93049258D01*
X64552500Y-94322500D02*
X64400000Y-94475000D01*
X65050742Y-92422500D02*
X64922500Y-92550742D01*
X67422500Y-92022500D02*
X67250742Y-92022500D01*
X64850742Y-94322500D02*
X64552500Y-94322500D01*
X67250742Y-92022500D02*
X66850742Y-92422500D01*
X66850742Y-92422500D02*
X65050742Y-92422500D01*
X67700000Y-92300000D02*
X67422500Y-92022500D01*
G04 #@! TO.N,/DDR/DDR_DQS_1_P*
X64749258Y-94077500D02*
X64552500Y-94077500D01*
X64977500Y-93450742D02*
X64977500Y-93849258D01*
X64677500Y-93150742D02*
X64977500Y-93450742D01*
X67422500Y-91777500D02*
X67149258Y-91777500D01*
X67700000Y-91500000D02*
X67422500Y-91777500D01*
X67149258Y-91777500D02*
X66749258Y-92177500D01*
X66749258Y-92177500D02*
X64949258Y-92177500D01*
X64552500Y-94077500D02*
X64400000Y-93925000D01*
X64949258Y-92177500D02*
X64677500Y-92449258D01*
X64977500Y-93849258D02*
X64749258Y-94077500D01*
X64677500Y-92449258D02*
X64677500Y-93150742D01*
D52*
G04 #@! TO.N,/DDR/DDR_DQ8*
X68100000Y-92700000D02*
X68500000Y-93100000D01*
X67100000Y-92700000D02*
X68100000Y-92700000D01*
X66400000Y-93100000D02*
X66700000Y-93100000D01*
X66700000Y-93100000D02*
X67100000Y-92700000D01*
D53*
G04 #@! TO.N,/DDR/DDR_DQ6*
X59500002Y-104400000D02*
X60300000Y-104400000D01*
X59400000Y-104400000D02*
X59500002Y-104400000D01*
X59200000Y-104200000D02*
X59400000Y-104400000D01*
X59200000Y-104000000D02*
X59200000Y-104200000D01*
X59399999Y-103800001D02*
X59200000Y-104000000D01*
X52600000Y-96500000D02*
X52600000Y-101800000D01*
X52300000Y-96200000D02*
X52600000Y-96500000D01*
X52600000Y-101800000D02*
X54100000Y-103300000D01*
X54100000Y-103300000D02*
X59100000Y-103300000D01*
X59100000Y-103300000D02*
X59400000Y-103600000D01*
X59400000Y-103600000D02*
X59399999Y-103800001D01*
D55*
G04 #@! TO.N,/DDR/DDR_DQS_0_N*
X58632433Y-95869595D02*
X58525623Y-95784416D01*
X57030151Y-96343088D02*
X56522500Y-96850742D01*
X56522500Y-97650742D02*
X56050742Y-98122500D01*
X57201061Y-95683738D02*
X57231461Y-95816929D01*
X57371573Y-94644638D02*
X57290367Y-94605531D01*
X56522500Y-96850742D02*
X56522500Y-97650742D01*
X56943287Y-94644638D02*
X56872820Y-94700834D01*
X57056607Y-96316632D02*
X57030151Y-96343088D01*
X56872820Y-94700834D02*
X56816623Y-94771301D01*
X58499166Y-95757960D02*
X57442041Y-94700834D01*
X54649258Y-98122500D02*
X54426758Y-97900000D01*
X56050742Y-98122500D02*
X54649258Y-98122500D01*
X59526503Y-94975524D02*
X59585779Y-95098609D01*
X59388413Y-95784417D02*
X59281603Y-95869595D01*
X57112364Y-94585475D02*
X57024493Y-94605531D01*
X56816623Y-94771301D02*
X56777517Y-94852507D01*
X57442041Y-94700834D02*
X57371573Y-94644638D01*
X57231461Y-95816929D02*
X57231461Y-95953544D01*
X57201061Y-96086735D02*
X57141785Y-96209821D01*
X58525623Y-95784416D02*
X58499166Y-95757960D01*
X54426758Y-97900000D02*
X54200000Y-97900000D01*
X59025326Y-95959270D02*
X58888710Y-95959270D01*
X57141785Y-96209821D02*
X57056607Y-96316632D01*
X58886305Y-94313691D02*
X58886306Y-94313695D01*
X59441326Y-94868712D02*
X59526503Y-94975524D01*
X59585779Y-95098609D02*
X59616180Y-95231799D01*
X59616180Y-95231799D02*
X59616180Y-95368415D01*
X59616180Y-95368415D02*
X59585780Y-95501605D01*
X59526505Y-95624692D02*
X59441327Y-95731502D01*
X59441327Y-95731502D02*
X59388413Y-95784417D01*
X59281603Y-95869595D02*
X59158517Y-95928870D01*
X56777517Y-95118381D02*
X56816623Y-95199587D01*
X59158517Y-95928870D02*
X59025326Y-95959270D01*
X57231461Y-95953544D02*
X57201061Y-96086735D01*
X57056607Y-95453841D02*
X57141785Y-95560651D01*
X58888710Y-95959270D02*
X58755519Y-95928871D01*
X57141785Y-95560651D02*
X57201061Y-95683738D01*
X58755519Y-95928871D02*
X58632433Y-95869595D01*
X59585780Y-95501605D02*
X59526505Y-95624692D01*
X57202496Y-94585475D02*
X57112364Y-94585475D01*
X57024493Y-94605531D02*
X56943287Y-94644638D01*
X57290367Y-94605531D02*
X57202496Y-94585475D01*
X56777517Y-94852507D02*
X56757461Y-94940378D01*
X56757461Y-94940378D02*
X56757461Y-95030510D01*
X56757461Y-95030510D02*
X56777517Y-95118381D01*
X56816623Y-95199587D02*
X56872820Y-95270054D01*
X56872820Y-95270054D02*
X57056607Y-95453841D01*
X58886305Y-94313691D02*
X59441326Y-94868712D01*
X58357743Y-93785129D02*
X58886305Y-94313691D01*
X58301546Y-93714662D02*
X58357743Y-93785129D01*
X58262440Y-93633456D02*
X58301546Y-93714662D01*
X58242384Y-93545585D02*
X58262440Y-93633456D01*
X67700000Y-96300000D02*
X67422500Y-96022500D01*
X67422500Y-96022500D02*
X67249258Y-96022500D01*
X67249258Y-96022500D02*
X66849258Y-95622500D01*
X66849258Y-95622500D02*
X65650742Y-95622500D01*
X65650742Y-95622500D02*
X65250742Y-96022500D01*
X65250742Y-96022500D02*
X64049258Y-96022500D01*
X64049258Y-96022500D02*
X63077500Y-95050742D01*
X63077500Y-95050742D02*
X63077500Y-93750742D01*
X63077500Y-93750742D02*
X62449258Y-93122500D01*
X62449258Y-93122500D02*
X60250742Y-93122500D01*
X60250742Y-93122500D02*
X59973543Y-93399697D01*
X59973543Y-93399697D02*
X59866732Y-93484876D01*
X59866732Y-93484876D02*
X59743646Y-93544151D01*
X59743646Y-93544151D02*
X59610455Y-93574551D01*
X59610455Y-93574551D02*
X59473840Y-93574551D01*
X59473840Y-93574551D02*
X59340649Y-93544151D01*
X59340649Y-93544151D02*
X59217562Y-93484876D01*
X59217562Y-93484876D02*
X59110752Y-93399697D01*
X59110752Y-93399697D02*
X58926964Y-93215909D01*
X58926964Y-93215909D02*
X58856497Y-93159713D01*
X58856497Y-93159713D02*
X58775291Y-93120607D01*
X58775291Y-93120607D02*
X58687419Y-93100551D01*
X58687419Y-93100551D02*
X58597288Y-93100551D01*
X58597288Y-93100551D02*
X58509416Y-93120607D01*
X58509416Y-93120607D02*
X58428211Y-93159713D01*
X58428211Y-93159713D02*
X58357743Y-93215909D01*
X58357743Y-93215909D02*
X58301546Y-93286376D01*
X58301546Y-93286376D02*
X58262440Y-93367582D01*
X58262440Y-93367582D02*
X58242384Y-93455453D01*
X58242384Y-93455453D02*
X58242384Y-93545585D01*
G04 #@! TO.N,/DDR/DDR_DQS_0_P*
X58742875Y-95640915D02*
X58672408Y-95584718D01*
X58824081Y-95680021D02*
X58742875Y-95640915D01*
X58911953Y-95700076D02*
X58824081Y-95680021D01*
X59002085Y-95700076D02*
X58911953Y-95700076D01*
X59089955Y-95680021D02*
X59002085Y-95700076D01*
X59171161Y-95640915D02*
X59089955Y-95680021D01*
X59241628Y-95584718D02*
X59171161Y-95640915D01*
X59297825Y-95514250D02*
X59241628Y-95584718D01*
X59336931Y-95433045D02*
X59297825Y-95514250D01*
X59356988Y-95345173D02*
X59336931Y-95433045D01*
X59356988Y-95255041D02*
X59356988Y-95345173D01*
X59336931Y-95167171D02*
X59356988Y-95255041D01*
X59297825Y-95085964D02*
X59336931Y-95167171D01*
X59241627Y-95015496D02*
X59297825Y-95085964D01*
X58641299Y-94415186D02*
X59241627Y-95015496D01*
X58641299Y-94415168D02*
X58641299Y-94415186D01*
X58158045Y-93931915D02*
X58641299Y-94415168D01*
X58072867Y-93825104D02*
X58158045Y-93931915D01*
X58013591Y-93702018D02*
X58072867Y-93825104D01*
X57983192Y-93568827D02*
X58013591Y-93702018D01*
X57983192Y-93432211D02*
X57983192Y-93568827D01*
X58013591Y-93299021D02*
X57983192Y-93432211D01*
X58072867Y-93175934D02*
X58013591Y-93299021D01*
X58158045Y-93069124D02*
X58072867Y-93175934D01*
X58210958Y-93016212D02*
X58158045Y-93069124D01*
X58317769Y-92931034D02*
X58210958Y-93016212D01*
X58440855Y-92871758D02*
X58317769Y-92931034D01*
X58574046Y-92841358D02*
X58440855Y-92871758D01*
X58710661Y-92841358D02*
X58574046Y-92841358D01*
X58843852Y-92871758D02*
X58710661Y-92841358D01*
X58966939Y-92931034D02*
X58843852Y-92871758D01*
X59073749Y-93016212D02*
X58966939Y-92931034D01*
X59257537Y-93200000D02*
X59073749Y-93016212D01*
X59328005Y-93256196D02*
X59257537Y-93200000D01*
X59409210Y-93295302D02*
X59328005Y-93256196D01*
X59497082Y-93315359D02*
X59409210Y-93295302D01*
X59587213Y-93315359D02*
X59497082Y-93315359D01*
X59675085Y-93295302D02*
X59587213Y-93315359D01*
X59756290Y-93256196D02*
X59675085Y-93295302D01*
X59826758Y-93200000D02*
X59756290Y-93256196D01*
X60149258Y-92877500D02*
X59826758Y-93200000D01*
X62550742Y-92877500D02*
X60149258Y-92877500D01*
X63421570Y-94642330D02*
X63458558Y-94629387D01*
X63388389Y-94663179D02*
X63421570Y-94642330D01*
X63360679Y-94690889D02*
X63388389Y-94663179D01*
X63326887Y-94761058D02*
X63339830Y-94724070D01*
X63322500Y-94800000D02*
X63326887Y-94761058D01*
X63322500Y-94949258D02*
X63322500Y-94800000D01*
X64150742Y-95777500D02*
X63322500Y-94949258D01*
X63458558Y-94629387D02*
X63536441Y-94620612D01*
X63668112Y-94488941D02*
X63672500Y-94450000D01*
X63339830Y-94724070D02*
X63360679Y-94690889D01*
X63573429Y-94607669D02*
X63606610Y-94586820D01*
X63536441Y-94620612D02*
X63573429Y-94607669D01*
X67700000Y-95500000D02*
X67422500Y-95777500D01*
X55622063Y-97850228D02*
X55602271Y-97830436D01*
X63672500Y-94450000D02*
X63668112Y-94411058D01*
X63668112Y-94411058D02*
X63655169Y-94374070D01*
X63634320Y-94340889D02*
X63606610Y-94313179D01*
X65149258Y-95777500D02*
X64150742Y-95777500D01*
X63606610Y-94586820D02*
X63634320Y-94559110D01*
X63634320Y-94559110D02*
X63655169Y-94525929D01*
X63655169Y-94525929D02*
X63668112Y-94488941D01*
X63655169Y-94374070D02*
X63634320Y-94340889D01*
X67422500Y-95777500D02*
X67350742Y-95777500D01*
X55571865Y-97724684D02*
X55562621Y-97698264D01*
X63606610Y-94313179D02*
X63573429Y-94292330D01*
X67350742Y-95777500D02*
X66950742Y-95377500D01*
X55562621Y-97698264D02*
X55547728Y-97674563D01*
X63573429Y-94292330D02*
X63536441Y-94279387D01*
X66950742Y-95377500D02*
X65549258Y-95377500D01*
X55547728Y-97674563D02*
X55527936Y-97654771D01*
X63536441Y-94279387D02*
X63458558Y-94270612D01*
X63458558Y-94270612D02*
X63421570Y-94257669D01*
X65549258Y-95377500D02*
X65149258Y-95777500D01*
X55504235Y-97639878D02*
X55477815Y-97630634D01*
X63421570Y-94257669D02*
X63388389Y-94236820D01*
X63388389Y-94236820D02*
X63360679Y-94209110D01*
X63360679Y-94209110D02*
X63339830Y-94175929D01*
X63339830Y-94175929D02*
X63326887Y-94138941D01*
X63326887Y-94138941D02*
X63322500Y-94100000D01*
X63322500Y-94100000D02*
X63322500Y-93649258D01*
X63322500Y-93649258D02*
X62550742Y-92877500D01*
X58672408Y-95584718D02*
X57588826Y-94501136D01*
X57588826Y-94501136D02*
X57482015Y-94415958D01*
X57482015Y-94415958D02*
X57358929Y-94356683D01*
X57358929Y-94356683D02*
X57225738Y-94326283D01*
X57225738Y-94326283D02*
X57089122Y-94326283D01*
X57089122Y-94326283D02*
X56955932Y-94356683D01*
X56955932Y-94356683D02*
X56832845Y-94415958D01*
X56832845Y-94415958D02*
X56726035Y-94501136D01*
X56726035Y-94501136D02*
X56673121Y-94554049D01*
X56673121Y-94554049D02*
X56587943Y-94660859D01*
X56587943Y-94660859D02*
X56528667Y-94783946D01*
X56528667Y-94783946D02*
X56498268Y-94917136D01*
X56498268Y-94917136D02*
X56498268Y-95053752D01*
X56498268Y-95053752D02*
X56528667Y-95186943D01*
X56528667Y-95186943D02*
X56587943Y-95310029D01*
X56587943Y-95310029D02*
X56673121Y-95416840D01*
X56673121Y-95416840D02*
X56856909Y-95600627D01*
X56856909Y-95600627D02*
X56913105Y-95671094D01*
X56913105Y-95671094D02*
X56952211Y-95752300D01*
X56952211Y-95752300D02*
X56972267Y-95840172D01*
X56972267Y-95840172D02*
X56972267Y-95930303D01*
X56972267Y-95930303D02*
X56952211Y-96018175D01*
X56952211Y-96018175D02*
X56913105Y-96099380D01*
X56913105Y-96099380D02*
X56856909Y-96169848D01*
X56856909Y-96169848D02*
X56277500Y-96749258D01*
X56277500Y-96749258D02*
X56277500Y-97549258D01*
X56277500Y-97549258D02*
X55949258Y-97877500D01*
X55949258Y-97877500D02*
X55700000Y-97877500D01*
X55700000Y-97877500D02*
X55672184Y-97874365D01*
X55672184Y-97874365D02*
X55645764Y-97865121D01*
X55645764Y-97865121D02*
X55622063Y-97850228D01*
X55602271Y-97830436D02*
X55587378Y-97806735D01*
X55587378Y-97806735D02*
X55578134Y-97780315D01*
X55578134Y-97780315D02*
X55571865Y-97724684D01*
X55527936Y-97654771D02*
X55504235Y-97639878D01*
X55477815Y-97630634D02*
X55450000Y-97627500D01*
X55450000Y-97627500D02*
X55410000Y-97627500D01*
X55410000Y-97627500D02*
X55382184Y-97630634D01*
X55382184Y-97630634D02*
X55355764Y-97639878D01*
X55355764Y-97639878D02*
X55332063Y-97654771D01*
X55332063Y-97654771D02*
X55312271Y-97674563D01*
X55312271Y-97674563D02*
X55297378Y-97698264D01*
X55297378Y-97698264D02*
X55288134Y-97724684D01*
X55288134Y-97724684D02*
X55281865Y-97780315D01*
X55281865Y-97780315D02*
X55272621Y-97806735D01*
X55272621Y-97806735D02*
X55257728Y-97830436D01*
X55257728Y-97830436D02*
X55237936Y-97850228D01*
X55237936Y-97850228D02*
X55214235Y-97865121D01*
X55214235Y-97865121D02*
X55187815Y-97874365D01*
X55187815Y-97874365D02*
X55160000Y-97877500D01*
X55160000Y-97877500D02*
X54750742Y-97877500D01*
X54750742Y-97877500D02*
X54600000Y-97726758D01*
X54600000Y-97726758D02*
X54600000Y-97500000D01*
D53*
G04 #@! TO.N,/DDR/DDR_DQ2*
X54600000Y-102200000D02*
X53800000Y-101400000D01*
X57200000Y-101400000D02*
X56800000Y-101400000D01*
X53800000Y-101400000D02*
X53800000Y-100900000D01*
X56400000Y-102200000D02*
X54600000Y-102200000D01*
X56600000Y-102000000D02*
X56400000Y-102200000D01*
X56600000Y-101600000D02*
X56600000Y-102000000D01*
X57400000Y-101600000D02*
X57200000Y-101400000D01*
X53100000Y-100200000D02*
X53100000Y-96200000D01*
X56800000Y-101400000D02*
X56600000Y-101600000D01*
X57400000Y-102000000D02*
X57400000Y-101600000D01*
X61400000Y-103800000D02*
X60300000Y-102700000D01*
X60299999Y-101999999D02*
X59900000Y-101600000D01*
X58200000Y-102200000D02*
X57600000Y-102200000D01*
X59900000Y-101600000D02*
X58800000Y-101600000D01*
X60300000Y-102700000D02*
X60299999Y-101999999D01*
X58800000Y-101600000D02*
X58200000Y-102200000D01*
X57600000Y-102200000D02*
X57400000Y-102000000D01*
X53800000Y-100900000D02*
X53100000Y-100200000D01*
D52*
G04 #@! TO.N,/DDR/DDR_DQ13*
X68500000Y-91500000D02*
X68500000Y-91300000D01*
X68000000Y-90800000D02*
X68000000Y-90500000D01*
X68500000Y-91300000D02*
X68000000Y-90800000D01*
D53*
X67300001Y-89800001D02*
X68000000Y-90500000D01*
X66500000Y-89000000D02*
X67300001Y-89800001D01*
X66100000Y-89000000D02*
X66500000Y-89000000D01*
X65900000Y-89800000D02*
X65900000Y-89200000D01*
X65900000Y-89200000D02*
X66100000Y-89000000D01*
D52*
G04 #@! TO.N,/DDR/DDR_DQ7*
X51500000Y-100200000D02*
X51724999Y-100424999D01*
X51724999Y-100424999D02*
X51900000Y-100600000D01*
X51900000Y-100600000D02*
X51900000Y-101300000D01*
X51900000Y-101300000D02*
X51600000Y-101600000D01*
X51600000Y-101600000D02*
X51600000Y-101900000D01*
D53*
X51600000Y-102700000D02*
X51600000Y-101900000D01*
X52700000Y-103800000D02*
X51600000Y-102700000D01*
X53100000Y-103800000D02*
X52700000Y-103800000D01*
X54700000Y-105400000D02*
X53100000Y-103800000D01*
X61000000Y-105800000D02*
X60600000Y-105400000D01*
X60600000Y-105400000D02*
X54700000Y-105400000D01*
G04 #@! TO.N,/DDR/DDR_DQ5*
X61600000Y-106000000D02*
X61300000Y-106300000D01*
X61800000Y-106000000D02*
X61600000Y-106000000D01*
X51100000Y-101400000D02*
X51500000Y-101000000D01*
X61300000Y-106300000D02*
X53100000Y-106300000D01*
X51100000Y-103700000D02*
X51100000Y-101400000D01*
X53100000Y-106300000D02*
X51600000Y-104800000D01*
X51600000Y-104800000D02*
X51600000Y-104200000D01*
X51600000Y-104200000D02*
X51100000Y-103700000D01*
G04 #@! TO.N,/DDR/DDR_DQ0*
X61600000Y-102500000D02*
X61800000Y-102700000D01*
X61600000Y-101300000D02*
X61600000Y-102500000D01*
X59800000Y-99500000D02*
X61600000Y-101300000D01*
X59000000Y-99500000D02*
X59800000Y-99500000D01*
X58700001Y-99200001D02*
X59000000Y-99500000D01*
X58400000Y-99200000D02*
X58700001Y-99200001D01*
X57800000Y-99800000D02*
X58400000Y-99200000D01*
X57550000Y-99800000D02*
X57800000Y-99800000D01*
X57250000Y-99500000D02*
X57550000Y-99800000D01*
X56000000Y-99500000D02*
X57250000Y-99500000D01*
X53900000Y-97000000D02*
X53600000Y-97300000D01*
X53900000Y-96200000D02*
X53900000Y-97000000D01*
X53600000Y-97300000D02*
X53600000Y-99100000D01*
X53600000Y-99100000D02*
X54200000Y-99700000D01*
X54200000Y-99700000D02*
X55800000Y-99700000D01*
X55800000Y-99700000D02*
X56000000Y-99500000D01*
G04 #@! TO.N,/DDR/DDR_DM0*
X61050864Y-96568098D02*
X61050864Y-96495321D01*
X60957718Y-96761520D02*
X61003093Y-96704620D01*
X60691519Y-96854667D02*
X60764296Y-96854667D01*
X60691522Y-95289516D02*
X60764298Y-95289517D01*
X60038480Y-96301902D02*
X60498098Y-96761520D01*
X59981581Y-96256527D02*
X60038480Y-96301902D01*
X58716519Y-97175768D02*
X58782090Y-97144190D01*
X59916010Y-96224951D02*
X59981581Y-96256527D01*
X59701330Y-96224950D02*
X59772282Y-96208756D01*
X59635759Y-96256528D02*
X59701330Y-96224950D01*
X59578860Y-96301902D02*
X59635759Y-96256528D01*
X59533484Y-96358802D02*
X59578860Y-96301902D01*
X59578860Y-96761522D02*
X59533483Y-96704624D01*
X59772282Y-96208756D02*
X59845058Y-96208757D01*
X59533483Y-96704624D02*
X59501907Y-96639053D01*
X58659620Y-97680762D02*
X58614243Y-97623864D01*
X59845058Y-96208757D02*
X59916010Y-96224951D01*
X60083853Y-97278039D02*
X60038478Y-97221140D01*
X59119240Y-97221142D02*
X59578858Y-97680760D01*
X59501907Y-96639053D02*
X59485713Y-96568101D01*
X60115430Y-97343609D02*
X60083853Y-97278039D01*
X59501907Y-96424371D02*
X59533484Y-96358802D01*
X60131624Y-97414561D02*
X60115430Y-97343609D01*
X60115430Y-97558290D02*
X60131624Y-97487338D01*
X61700000Y-96600000D02*
X61900000Y-96800000D01*
X60083853Y-97623860D02*
X60115430Y-97558290D01*
X60554997Y-96806896D02*
X60620567Y-96838473D01*
X60038478Y-97680760D02*
X60083853Y-97623860D01*
X60038478Y-97221140D02*
X59578860Y-96761522D01*
X61360440Y-95428039D02*
X61417340Y-95382662D01*
X59981578Y-97726136D02*
X60038478Y-97680760D01*
X59772279Y-97773907D02*
X59845056Y-97773907D01*
X59701327Y-97757713D02*
X59772279Y-97773907D01*
X59635757Y-97726136D02*
X59701327Y-97757713D01*
X60900818Y-96806896D02*
X60957718Y-96761520D01*
X61700000Y-96300000D02*
X61700000Y-96600000D01*
X59196190Y-98477530D02*
X59212384Y-98406578D01*
X55400000Y-98600000D02*
X56900000Y-98600000D01*
X60421147Y-95719813D02*
X60404953Y-95648861D01*
X59119238Y-98600000D02*
X59164613Y-98543100D01*
X58853040Y-98693146D02*
X58925817Y-98693146D01*
X60620570Y-95305710D02*
X60691522Y-95289516D01*
X58582667Y-97558293D02*
X58566473Y-97487341D01*
X58782088Y-98676952D02*
X58853040Y-98693146D01*
X61050864Y-96495321D02*
X61034670Y-96424369D01*
X58716518Y-98645375D02*
X58782088Y-98676952D01*
X58996769Y-98676952D02*
X59062339Y-98645375D01*
X59164613Y-98543100D02*
X59196190Y-98477530D01*
X61034670Y-96424369D02*
X61003093Y-96358799D01*
X60835250Y-95305711D02*
X60900821Y-95337287D01*
X54800000Y-99200000D02*
X55400000Y-98600000D01*
X60620567Y-96838473D02*
X60691519Y-96854667D01*
X59212384Y-98333801D02*
X59196190Y-98262849D01*
X56900000Y-98600000D02*
X57400000Y-98100000D01*
X60498098Y-96761520D02*
X60554997Y-96806896D01*
X61034670Y-96639050D02*
X61050864Y-96568098D01*
X58148096Y-98100000D02*
X58602720Y-98554624D01*
X59485713Y-96568101D02*
X59485712Y-96495325D01*
X58782090Y-97144190D02*
X58853042Y-97127996D01*
X59212384Y-98406578D02*
X59212384Y-98333801D01*
X61003093Y-96704620D02*
X61034670Y-96639050D01*
X59062339Y-98645375D02*
X59119238Y-98600000D01*
X59119238Y-98140380D02*
X58659620Y-97680762D01*
X59578858Y-97680760D02*
X59635757Y-97726136D01*
X60131624Y-97487338D02*
X60131624Y-97414561D01*
X60404953Y-95648861D02*
X60404952Y-95576085D01*
X61294871Y-95459615D02*
X61360440Y-95428039D01*
X60835249Y-96838473D02*
X60900818Y-96806896D01*
X60498100Y-95842282D02*
X60452723Y-95785384D01*
X60764298Y-95289517D02*
X60835250Y-95305711D01*
X62500000Y-95200000D02*
X62500000Y-95500000D01*
X57400000Y-98100000D02*
X58148096Y-98100000D01*
X58659620Y-97221142D02*
X58716519Y-97175768D01*
X58602720Y-98554624D02*
X58716518Y-98645375D01*
X60764296Y-96854667D02*
X60835249Y-96838473D01*
X61900000Y-96800000D02*
X62300000Y-96800000D01*
X59164613Y-98197279D02*
X59119238Y-98140380D01*
X59845056Y-97773907D02*
X59916009Y-97757713D01*
X58582667Y-97343611D02*
X58614244Y-97278042D01*
X59196190Y-98262849D02*
X59164613Y-98197279D01*
X58566473Y-97487341D02*
X58566472Y-97414565D01*
X58925817Y-98693146D02*
X58996769Y-98676952D01*
X58566472Y-97414565D02*
X58582667Y-97343611D01*
X60421147Y-95505131D02*
X60452724Y-95439562D01*
X58614244Y-97278042D02*
X58659620Y-97221142D01*
X58614243Y-97623864D02*
X58582667Y-97558293D01*
X59916009Y-97757713D02*
X59981578Y-97726136D01*
X58853042Y-97127996D02*
X58925818Y-97127997D01*
X58925818Y-97127997D02*
X58996770Y-97144191D01*
X58996770Y-97144191D02*
X59062341Y-97175767D01*
X59485712Y-96495325D02*
X59501907Y-96424371D01*
X59062341Y-97175767D02*
X59119240Y-97221142D01*
X62300000Y-95000000D02*
X62500000Y-95200000D01*
X61003093Y-96358799D02*
X60957718Y-96301900D01*
X60957718Y-96301900D02*
X60498100Y-95842282D01*
X60452723Y-95785384D02*
X60421147Y-95719813D01*
X60404952Y-95576085D02*
X60421147Y-95505131D01*
X60452724Y-95439562D02*
X60498100Y-95382662D01*
X60498100Y-95382662D02*
X60554999Y-95337288D01*
X60554999Y-95337288D02*
X60620570Y-95305710D01*
X60900821Y-95337287D02*
X61014620Y-95428038D01*
X61014620Y-95428038D02*
X61080189Y-95459616D01*
X61080189Y-95459616D02*
X61151141Y-95475810D01*
X61151141Y-95475810D02*
X61223919Y-95475809D01*
X61223919Y-95475809D02*
X61294871Y-95459615D01*
X61417340Y-95382662D02*
X61800000Y-95000000D01*
X61800000Y-95000000D02*
X62300000Y-95000000D01*
X62500000Y-95500000D02*
X61700000Y-96300000D01*
X62300000Y-96800000D02*
X62900000Y-96200000D01*
X62900000Y-96200000D02*
X63200000Y-96200000D01*
X63200000Y-96200000D02*
X63700000Y-96700000D01*
X63700000Y-96700000D02*
X67000000Y-96700000D01*
D52*
X67000000Y-96700000D02*
X68000000Y-96700000D01*
X68000000Y-96700000D02*
X68100000Y-96600000D01*
X68100000Y-96600000D02*
X68100000Y-95900000D01*
X68100000Y-95900000D02*
X68500000Y-95500000D01*
D53*
G04 #@! TO.N,Net-(U10-Pad5)*
X107000000Y-76400000D02*
X107700000Y-77100000D01*
X103100000Y-76400000D02*
X107000000Y-76400000D01*
X101200000Y-77800000D02*
X101700000Y-77800000D01*
X101700000Y-77800000D02*
X103100000Y-76400000D01*
G04 #@! TO.N,Net-(U10-Pad4)*
X106600000Y-76900000D02*
X107700000Y-78000000D01*
X103200000Y-76900000D02*
X106600000Y-76900000D01*
X100700000Y-78300000D02*
X101800000Y-78300000D01*
X101800000Y-78300000D02*
X103200000Y-76900000D01*
G04 #@! TD*
D12*
G04 #@! TO.N,GND*
G36*
X102021430Y-94095000D02*
X102178570Y-94095000D01*
X102287211Y-94050000D01*
X106512789Y-94050000D01*
X106621430Y-94095000D01*
X106778570Y-94095000D01*
X106887211Y-94050000D01*
X108350000Y-94050000D01*
X108350000Y-94591385D01*
X108265135Y-94676250D01*
X108205000Y-94821430D01*
X108205000Y-94978570D01*
X108265135Y-95123750D01*
X108350000Y-95208615D01*
X108350000Y-96830000D01*
X108219352Y-96830000D01*
X108210136Y-96783669D01*
X108172563Y-96727437D01*
X108116331Y-96689864D01*
X108050000Y-96676670D01*
X107550000Y-96676670D01*
X107483669Y-96689864D01*
X107427437Y-96727437D01*
X107389864Y-96783669D01*
X107376670Y-96850000D01*
X107376670Y-97450000D01*
X107389864Y-97516331D01*
X107427437Y-97572563D01*
X107483669Y-97610136D01*
X107550000Y-97623330D01*
X108050000Y-97623330D01*
X108116331Y-97610136D01*
X108172563Y-97572563D01*
X108174276Y-97570000D01*
X108350000Y-97570000D01*
X108350000Y-97991385D01*
X108265135Y-98076250D01*
X108205000Y-98221430D01*
X108205000Y-98378570D01*
X108265135Y-98523750D01*
X108350000Y-98608615D01*
X108350000Y-99580000D01*
X108307684Y-99580000D01*
X108272563Y-99527437D01*
X108216331Y-99489864D01*
X108150000Y-99476670D01*
X107650000Y-99476670D01*
X107583669Y-99489864D01*
X107527437Y-99527437D01*
X107489864Y-99583669D01*
X107476670Y-99650000D01*
X107476670Y-100250000D01*
X107489864Y-100316331D01*
X107527437Y-100372563D01*
X107583669Y-100410136D01*
X107650000Y-100423330D01*
X108150000Y-100423330D01*
X108216331Y-100410136D01*
X108272563Y-100372563D01*
X108307684Y-100320000D01*
X108350000Y-100320000D01*
X108350000Y-100680000D01*
X108307684Y-100680000D01*
X108272563Y-100627437D01*
X108216331Y-100589864D01*
X108150000Y-100576670D01*
X107650000Y-100576670D01*
X107583669Y-100589864D01*
X107527437Y-100627437D01*
X107489864Y-100683669D01*
X107476670Y-100750000D01*
X107476670Y-101350000D01*
X107489864Y-101416331D01*
X107527437Y-101472563D01*
X107583669Y-101510136D01*
X107650000Y-101523330D01*
X108150000Y-101523330D01*
X108216331Y-101510136D01*
X108272563Y-101472563D01*
X108307684Y-101420000D01*
X108350000Y-101420000D01*
X108350000Y-101680001D01*
X107954053Y-101680001D01*
X107924999Y-101674222D01*
X107809895Y-101697117D01*
X107736947Y-101745860D01*
X107712316Y-101762318D01*
X107695858Y-101786949D01*
X107677807Y-101805000D01*
X107621430Y-101805000D01*
X107476250Y-101865135D01*
X107391385Y-101950000D01*
X101408615Y-101950000D01*
X101323750Y-101865135D01*
X101178570Y-101805000D01*
X101021430Y-101805000D01*
X100876250Y-101865135D01*
X100791385Y-101950000D01*
X100450000Y-101950000D01*
X100450000Y-94050000D01*
X101912789Y-94050000D01*
X102021430Y-94095000D01*
X102021430Y-94095000D01*
G37*
X102021430Y-94095000D02*
X102178570Y-94095000D01*
X102287211Y-94050000D01*
X106512789Y-94050000D01*
X106621430Y-94095000D01*
X106778570Y-94095000D01*
X106887211Y-94050000D01*
X108350000Y-94050000D01*
X108350000Y-94591385D01*
X108265135Y-94676250D01*
X108205000Y-94821430D01*
X108205000Y-94978570D01*
X108265135Y-95123750D01*
X108350000Y-95208615D01*
X108350000Y-96830000D01*
X108219352Y-96830000D01*
X108210136Y-96783669D01*
X108172563Y-96727437D01*
X108116331Y-96689864D01*
X108050000Y-96676670D01*
X107550000Y-96676670D01*
X107483669Y-96689864D01*
X107427437Y-96727437D01*
X107389864Y-96783669D01*
X107376670Y-96850000D01*
X107376670Y-97450000D01*
X107389864Y-97516331D01*
X107427437Y-97572563D01*
X107483669Y-97610136D01*
X107550000Y-97623330D01*
X108050000Y-97623330D01*
X108116331Y-97610136D01*
X108172563Y-97572563D01*
X108174276Y-97570000D01*
X108350000Y-97570000D01*
X108350000Y-97991385D01*
X108265135Y-98076250D01*
X108205000Y-98221430D01*
X108205000Y-98378570D01*
X108265135Y-98523750D01*
X108350000Y-98608615D01*
X108350000Y-99580000D01*
X108307684Y-99580000D01*
X108272563Y-99527437D01*
X108216331Y-99489864D01*
X108150000Y-99476670D01*
X107650000Y-99476670D01*
X107583669Y-99489864D01*
X107527437Y-99527437D01*
X107489864Y-99583669D01*
X107476670Y-99650000D01*
X107476670Y-100250000D01*
X107489864Y-100316331D01*
X107527437Y-100372563D01*
X107583669Y-100410136D01*
X107650000Y-100423330D01*
X108150000Y-100423330D01*
X108216331Y-100410136D01*
X108272563Y-100372563D01*
X108307684Y-100320000D01*
X108350000Y-100320000D01*
X108350000Y-100680000D01*
X108307684Y-100680000D01*
X108272563Y-100627437D01*
X108216331Y-100589864D01*
X108150000Y-100576670D01*
X107650000Y-100576670D01*
X107583669Y-100589864D01*
X107527437Y-100627437D01*
X107489864Y-100683669D01*
X107476670Y-100750000D01*
X107476670Y-101350000D01*
X107489864Y-101416331D01*
X107527437Y-101472563D01*
X107583669Y-101510136D01*
X107650000Y-101523330D01*
X108150000Y-101523330D01*
X108216331Y-101510136D01*
X108272563Y-101472563D01*
X108307684Y-101420000D01*
X108350000Y-101420000D01*
X108350000Y-101680001D01*
X107954053Y-101680001D01*
X107924999Y-101674222D01*
X107809895Y-101697117D01*
X107736947Y-101745860D01*
X107712316Y-101762318D01*
X107695858Y-101786949D01*
X107677807Y-101805000D01*
X107621430Y-101805000D01*
X107476250Y-101865135D01*
X107391385Y-101950000D01*
X101408615Y-101950000D01*
X101323750Y-101865135D01*
X101178570Y-101805000D01*
X101021430Y-101805000D01*
X100876250Y-101865135D01*
X100791385Y-101950000D01*
X100450000Y-101950000D01*
X100450000Y-94050000D01*
X101912789Y-94050000D01*
X102021430Y-94095000D01*
G04 #@! TO.N,Net-(C73-Pad1)*
G36*
X74505000Y-95421430D02*
X74505000Y-95578570D01*
X74565135Y-95723750D01*
X74676250Y-95834865D01*
X74821430Y-95895000D01*
X74978570Y-95895000D01*
X75123750Y-95834865D01*
X75234865Y-95723750D01*
X75250000Y-95687211D01*
X75250000Y-95700000D01*
X75253806Y-95719134D01*
X75264645Y-95735355D01*
X75280866Y-95746194D01*
X75300000Y-95750000D01*
X75977312Y-95750000D01*
X76217213Y-96024172D01*
X76165135Y-96076250D01*
X76105000Y-96221430D01*
X76105000Y-96378570D01*
X76165135Y-96523750D01*
X76276250Y-96634865D01*
X76421430Y-96695000D01*
X76578570Y-96695000D01*
X76723750Y-96634865D01*
X76738587Y-96620028D01*
X76964379Y-96878076D01*
X76905000Y-97021430D01*
X76905000Y-97178570D01*
X76965135Y-97323750D01*
X77076250Y-97434865D01*
X77221430Y-97495000D01*
X77378570Y-97495000D01*
X77470770Y-97456810D01*
X77732250Y-97755643D01*
X77705000Y-97821430D01*
X77705000Y-97978570D01*
X77765135Y-98123750D01*
X77876250Y-98234865D01*
X78021430Y-98295000D01*
X78178570Y-98295000D01*
X78323750Y-98234865D01*
X78408615Y-98150000D01*
X78591385Y-98150000D01*
X78676250Y-98234865D01*
X78821430Y-98295000D01*
X78978570Y-98295000D01*
X79123750Y-98234865D01*
X79208615Y-98150000D01*
X79850000Y-98150000D01*
X79850000Y-99950000D01*
X78287211Y-99950000D01*
X78178570Y-99905000D01*
X78021430Y-99905000D01*
X77912789Y-99950000D01*
X77487211Y-99950000D01*
X77378570Y-99905000D01*
X77221430Y-99905000D01*
X77112789Y-99950000D01*
X76687211Y-99950000D01*
X76578570Y-99905000D01*
X76421430Y-99905000D01*
X76312789Y-99950000D01*
X75250000Y-99950000D01*
X75250000Y-99687211D01*
X75295000Y-99578570D01*
X75295000Y-99421430D01*
X76105000Y-99421430D01*
X76105000Y-99578570D01*
X76165135Y-99723750D01*
X76276250Y-99834865D01*
X76421430Y-99895000D01*
X76578570Y-99895000D01*
X76723750Y-99834865D01*
X76834865Y-99723750D01*
X76895000Y-99578570D01*
X76895000Y-99421430D01*
X76905000Y-99421430D01*
X76905000Y-99578570D01*
X76965135Y-99723750D01*
X77076250Y-99834865D01*
X77221430Y-99895000D01*
X77378570Y-99895000D01*
X77523750Y-99834865D01*
X77634865Y-99723750D01*
X77695000Y-99578570D01*
X77695000Y-99421430D01*
X77705000Y-99421430D01*
X77705000Y-99578570D01*
X77765135Y-99723750D01*
X77876250Y-99834865D01*
X78021430Y-99895000D01*
X78178570Y-99895000D01*
X78323750Y-99834865D01*
X78434865Y-99723750D01*
X78495000Y-99578570D01*
X78495000Y-99421430D01*
X78434865Y-99276250D01*
X78323750Y-99165135D01*
X78178570Y-99105000D01*
X78021430Y-99105000D01*
X77876250Y-99165135D01*
X77765135Y-99276250D01*
X77705000Y-99421430D01*
X77695000Y-99421430D01*
X77634865Y-99276250D01*
X77523750Y-99165135D01*
X77378570Y-99105000D01*
X77221430Y-99105000D01*
X77076250Y-99165135D01*
X76965135Y-99276250D01*
X76905000Y-99421430D01*
X76895000Y-99421430D01*
X76834865Y-99276250D01*
X76723750Y-99165135D01*
X76578570Y-99105000D01*
X76421430Y-99105000D01*
X76276250Y-99165135D01*
X76165135Y-99276250D01*
X76105000Y-99421430D01*
X75295000Y-99421430D01*
X75265934Y-99351258D01*
X75493863Y-99123330D01*
X75750000Y-99123330D01*
X75816331Y-99110136D01*
X75872563Y-99072563D01*
X75910136Y-99016331D01*
X75923330Y-98950000D01*
X75923330Y-98450000D01*
X75910136Y-98383669D01*
X75872563Y-98327437D01*
X75816331Y-98289864D01*
X75750000Y-98276670D01*
X75250000Y-98276670D01*
X75250000Y-98087211D01*
X75295000Y-97978570D01*
X75295000Y-97821430D01*
X76105000Y-97821430D01*
X76105000Y-97978570D01*
X76165135Y-98123750D01*
X76276250Y-98234865D01*
X76421430Y-98295000D01*
X76578570Y-98295000D01*
X76723750Y-98234865D01*
X76834865Y-98123750D01*
X76895000Y-97978570D01*
X76895000Y-97821430D01*
X76905000Y-97821430D01*
X76905000Y-97978570D01*
X76965135Y-98123750D01*
X77076250Y-98234865D01*
X77221430Y-98295000D01*
X77378570Y-98295000D01*
X77523750Y-98234865D01*
X77634865Y-98123750D01*
X77695000Y-97978570D01*
X77695000Y-97821430D01*
X77634865Y-97676250D01*
X77523750Y-97565135D01*
X77378570Y-97505000D01*
X77221430Y-97505000D01*
X77076250Y-97565135D01*
X76965135Y-97676250D01*
X76905000Y-97821430D01*
X76895000Y-97821430D01*
X76834865Y-97676250D01*
X76723750Y-97565135D01*
X76578570Y-97505000D01*
X76421430Y-97505000D01*
X76276250Y-97565135D01*
X76165135Y-97676250D01*
X76105000Y-97821430D01*
X75295000Y-97821430D01*
X75250000Y-97712789D01*
X75250000Y-97700000D01*
X75246194Y-97680866D01*
X75235355Y-97664645D01*
X75219134Y-97653806D01*
X75210754Y-97652139D01*
X75123750Y-97565135D01*
X74978570Y-97505000D01*
X74821430Y-97505000D01*
X74676250Y-97565135D01*
X74591385Y-97650000D01*
X74408615Y-97650000D01*
X74323750Y-97565135D01*
X74178570Y-97505000D01*
X74021430Y-97505000D01*
X73876250Y-97565135D01*
X73791385Y-97650000D01*
X73650000Y-97650000D01*
X73650000Y-97287211D01*
X73695000Y-97178570D01*
X73695000Y-97021430D01*
X73705000Y-97021430D01*
X73705000Y-97178570D01*
X73765135Y-97323750D01*
X73876250Y-97434865D01*
X74021430Y-97495000D01*
X74178570Y-97495000D01*
X74323750Y-97434865D01*
X74434865Y-97323750D01*
X74495000Y-97178570D01*
X74495000Y-97021430D01*
X74505000Y-97021430D01*
X74505000Y-97178570D01*
X74565135Y-97323750D01*
X74676250Y-97434865D01*
X74821430Y-97495000D01*
X74978570Y-97495000D01*
X75123750Y-97434865D01*
X75234865Y-97323750D01*
X75295000Y-97178570D01*
X75295000Y-97021430D01*
X76105000Y-97021430D01*
X76105000Y-97178570D01*
X76165135Y-97323750D01*
X76276250Y-97434865D01*
X76421430Y-97495000D01*
X76578570Y-97495000D01*
X76723750Y-97434865D01*
X76834865Y-97323750D01*
X76895000Y-97178570D01*
X76895000Y-97021430D01*
X76834865Y-96876250D01*
X76723750Y-96765135D01*
X76578570Y-96705000D01*
X76421430Y-96705000D01*
X76276250Y-96765135D01*
X76165135Y-96876250D01*
X76105000Y-97021430D01*
X75295000Y-97021430D01*
X75234865Y-96876250D01*
X75123750Y-96765135D01*
X74978570Y-96705000D01*
X74821430Y-96705000D01*
X74676250Y-96765135D01*
X74565135Y-96876250D01*
X74505000Y-97021430D01*
X74495000Y-97021430D01*
X74434865Y-96876250D01*
X74323750Y-96765135D01*
X74178570Y-96705000D01*
X74021430Y-96705000D01*
X73876250Y-96765135D01*
X73765135Y-96876250D01*
X73705000Y-97021430D01*
X73695000Y-97021430D01*
X73650000Y-96912789D01*
X73650000Y-96487211D01*
X73695000Y-96378570D01*
X73695000Y-96221430D01*
X73705000Y-96221430D01*
X73705000Y-96378570D01*
X73765135Y-96523750D01*
X73876250Y-96634865D01*
X74021430Y-96695000D01*
X74178570Y-96695000D01*
X74323750Y-96634865D01*
X74434865Y-96523750D01*
X74495000Y-96378570D01*
X74495000Y-96221430D01*
X74505000Y-96221430D01*
X74505000Y-96378570D01*
X74565135Y-96523750D01*
X74676250Y-96634865D01*
X74821430Y-96695000D01*
X74978570Y-96695000D01*
X75123750Y-96634865D01*
X75234865Y-96523750D01*
X75295000Y-96378570D01*
X75295000Y-96221430D01*
X75234865Y-96076250D01*
X75123750Y-95965135D01*
X74978570Y-95905000D01*
X74821430Y-95905000D01*
X74676250Y-95965135D01*
X74565135Y-96076250D01*
X74505000Y-96221430D01*
X74495000Y-96221430D01*
X74434865Y-96076250D01*
X74323750Y-95965135D01*
X74178570Y-95905000D01*
X74021430Y-95905000D01*
X73876250Y-95965135D01*
X73765135Y-96076250D01*
X73705000Y-96221430D01*
X73695000Y-96221430D01*
X73650000Y-96112789D01*
X73650000Y-95687211D01*
X73695000Y-95578570D01*
X73695000Y-95421430D01*
X73665413Y-95350000D01*
X74534587Y-95350000D01*
X74505000Y-95421430D01*
X74505000Y-95421430D01*
G37*
X74505000Y-95421430D02*
X74505000Y-95578570D01*
X74565135Y-95723750D01*
X74676250Y-95834865D01*
X74821430Y-95895000D01*
X74978570Y-95895000D01*
X75123750Y-95834865D01*
X75234865Y-95723750D01*
X75250000Y-95687211D01*
X75250000Y-95700000D01*
X75253806Y-95719134D01*
X75264645Y-95735355D01*
X75280866Y-95746194D01*
X75300000Y-95750000D01*
X75977312Y-95750000D01*
X76217213Y-96024172D01*
X76165135Y-96076250D01*
X76105000Y-96221430D01*
X76105000Y-96378570D01*
X76165135Y-96523750D01*
X76276250Y-96634865D01*
X76421430Y-96695000D01*
X76578570Y-96695000D01*
X76723750Y-96634865D01*
X76738587Y-96620028D01*
X76964379Y-96878076D01*
X76905000Y-97021430D01*
X76905000Y-97178570D01*
X76965135Y-97323750D01*
X77076250Y-97434865D01*
X77221430Y-97495000D01*
X77378570Y-97495000D01*
X77470770Y-97456810D01*
X77732250Y-97755643D01*
X77705000Y-97821430D01*
X77705000Y-97978570D01*
X77765135Y-98123750D01*
X77876250Y-98234865D01*
X78021430Y-98295000D01*
X78178570Y-98295000D01*
X78323750Y-98234865D01*
X78408615Y-98150000D01*
X78591385Y-98150000D01*
X78676250Y-98234865D01*
X78821430Y-98295000D01*
X78978570Y-98295000D01*
X79123750Y-98234865D01*
X79208615Y-98150000D01*
X79850000Y-98150000D01*
X79850000Y-99950000D01*
X78287211Y-99950000D01*
X78178570Y-99905000D01*
X78021430Y-99905000D01*
X77912789Y-99950000D01*
X77487211Y-99950000D01*
X77378570Y-99905000D01*
X77221430Y-99905000D01*
X77112789Y-99950000D01*
X76687211Y-99950000D01*
X76578570Y-99905000D01*
X76421430Y-99905000D01*
X76312789Y-99950000D01*
X75250000Y-99950000D01*
X75250000Y-99687211D01*
X75295000Y-99578570D01*
X75295000Y-99421430D01*
X76105000Y-99421430D01*
X76105000Y-99578570D01*
X76165135Y-99723750D01*
X76276250Y-99834865D01*
X76421430Y-99895000D01*
X76578570Y-99895000D01*
X76723750Y-99834865D01*
X76834865Y-99723750D01*
X76895000Y-99578570D01*
X76895000Y-99421430D01*
X76905000Y-99421430D01*
X76905000Y-99578570D01*
X76965135Y-99723750D01*
X77076250Y-99834865D01*
X77221430Y-99895000D01*
X77378570Y-99895000D01*
X77523750Y-99834865D01*
X77634865Y-99723750D01*
X77695000Y-99578570D01*
X77695000Y-99421430D01*
X77705000Y-99421430D01*
X77705000Y-99578570D01*
X77765135Y-99723750D01*
X77876250Y-99834865D01*
X78021430Y-99895000D01*
X78178570Y-99895000D01*
X78323750Y-99834865D01*
X78434865Y-99723750D01*
X78495000Y-99578570D01*
X78495000Y-99421430D01*
X78434865Y-99276250D01*
X78323750Y-99165135D01*
X78178570Y-99105000D01*
X78021430Y-99105000D01*
X77876250Y-99165135D01*
X77765135Y-99276250D01*
X77705000Y-99421430D01*
X77695000Y-99421430D01*
X77634865Y-99276250D01*
X77523750Y-99165135D01*
X77378570Y-99105000D01*
X77221430Y-99105000D01*
X77076250Y-99165135D01*
X76965135Y-99276250D01*
X76905000Y-99421430D01*
X76895000Y-99421430D01*
X76834865Y-99276250D01*
X76723750Y-99165135D01*
X76578570Y-99105000D01*
X76421430Y-99105000D01*
X76276250Y-99165135D01*
X76165135Y-99276250D01*
X76105000Y-99421430D01*
X75295000Y-99421430D01*
X75265934Y-99351258D01*
X75493863Y-99123330D01*
X75750000Y-99123330D01*
X75816331Y-99110136D01*
X75872563Y-99072563D01*
X75910136Y-99016331D01*
X75923330Y-98950000D01*
X75923330Y-98450000D01*
X75910136Y-98383669D01*
X75872563Y-98327437D01*
X75816331Y-98289864D01*
X75750000Y-98276670D01*
X75250000Y-98276670D01*
X75250000Y-98087211D01*
X75295000Y-97978570D01*
X75295000Y-97821430D01*
X76105000Y-97821430D01*
X76105000Y-97978570D01*
X76165135Y-98123750D01*
X76276250Y-98234865D01*
X76421430Y-98295000D01*
X76578570Y-98295000D01*
X76723750Y-98234865D01*
X76834865Y-98123750D01*
X76895000Y-97978570D01*
X76895000Y-97821430D01*
X76905000Y-97821430D01*
X76905000Y-97978570D01*
X76965135Y-98123750D01*
X77076250Y-98234865D01*
X77221430Y-98295000D01*
X77378570Y-98295000D01*
X77523750Y-98234865D01*
X77634865Y-98123750D01*
X77695000Y-97978570D01*
X77695000Y-97821430D01*
X77634865Y-97676250D01*
X77523750Y-97565135D01*
X77378570Y-97505000D01*
X77221430Y-97505000D01*
X77076250Y-97565135D01*
X76965135Y-97676250D01*
X76905000Y-97821430D01*
X76895000Y-97821430D01*
X76834865Y-97676250D01*
X76723750Y-97565135D01*
X76578570Y-97505000D01*
X76421430Y-97505000D01*
X76276250Y-97565135D01*
X76165135Y-97676250D01*
X76105000Y-97821430D01*
X75295000Y-97821430D01*
X75250000Y-97712789D01*
X75250000Y-97700000D01*
X75246194Y-97680866D01*
X75235355Y-97664645D01*
X75219134Y-97653806D01*
X75210754Y-97652139D01*
X75123750Y-97565135D01*
X74978570Y-97505000D01*
X74821430Y-97505000D01*
X74676250Y-97565135D01*
X74591385Y-97650000D01*
X74408615Y-97650000D01*
X74323750Y-97565135D01*
X74178570Y-97505000D01*
X74021430Y-97505000D01*
X73876250Y-97565135D01*
X73791385Y-97650000D01*
X73650000Y-97650000D01*
X73650000Y-97287211D01*
X73695000Y-97178570D01*
X73695000Y-97021430D01*
X73705000Y-97021430D01*
X73705000Y-97178570D01*
X73765135Y-97323750D01*
X73876250Y-97434865D01*
X74021430Y-97495000D01*
X74178570Y-97495000D01*
X74323750Y-97434865D01*
X74434865Y-97323750D01*
X74495000Y-97178570D01*
X74495000Y-97021430D01*
X74505000Y-97021430D01*
X74505000Y-97178570D01*
X74565135Y-97323750D01*
X74676250Y-97434865D01*
X74821430Y-97495000D01*
X74978570Y-97495000D01*
X75123750Y-97434865D01*
X75234865Y-97323750D01*
X75295000Y-97178570D01*
X75295000Y-97021430D01*
X76105000Y-97021430D01*
X76105000Y-97178570D01*
X76165135Y-97323750D01*
X76276250Y-97434865D01*
X76421430Y-97495000D01*
X76578570Y-97495000D01*
X76723750Y-97434865D01*
X76834865Y-97323750D01*
X76895000Y-97178570D01*
X76895000Y-97021430D01*
X76834865Y-96876250D01*
X76723750Y-96765135D01*
X76578570Y-96705000D01*
X76421430Y-96705000D01*
X76276250Y-96765135D01*
X76165135Y-96876250D01*
X76105000Y-97021430D01*
X75295000Y-97021430D01*
X75234865Y-96876250D01*
X75123750Y-96765135D01*
X74978570Y-96705000D01*
X74821430Y-96705000D01*
X74676250Y-96765135D01*
X74565135Y-96876250D01*
X74505000Y-97021430D01*
X74495000Y-97021430D01*
X74434865Y-96876250D01*
X74323750Y-96765135D01*
X74178570Y-96705000D01*
X74021430Y-96705000D01*
X73876250Y-96765135D01*
X73765135Y-96876250D01*
X73705000Y-97021430D01*
X73695000Y-97021430D01*
X73650000Y-96912789D01*
X73650000Y-96487211D01*
X73695000Y-96378570D01*
X73695000Y-96221430D01*
X73705000Y-96221430D01*
X73705000Y-96378570D01*
X73765135Y-96523750D01*
X73876250Y-96634865D01*
X74021430Y-96695000D01*
X74178570Y-96695000D01*
X74323750Y-96634865D01*
X74434865Y-96523750D01*
X74495000Y-96378570D01*
X74495000Y-96221430D01*
X74505000Y-96221430D01*
X74505000Y-96378570D01*
X74565135Y-96523750D01*
X74676250Y-96634865D01*
X74821430Y-96695000D01*
X74978570Y-96695000D01*
X75123750Y-96634865D01*
X75234865Y-96523750D01*
X75295000Y-96378570D01*
X75295000Y-96221430D01*
X75234865Y-96076250D01*
X75123750Y-95965135D01*
X74978570Y-95905000D01*
X74821430Y-95905000D01*
X74676250Y-95965135D01*
X74565135Y-96076250D01*
X74505000Y-96221430D01*
X74495000Y-96221430D01*
X74434865Y-96076250D01*
X74323750Y-95965135D01*
X74178570Y-95905000D01*
X74021430Y-95905000D01*
X73876250Y-95965135D01*
X73765135Y-96076250D01*
X73705000Y-96221430D01*
X73695000Y-96221430D01*
X73650000Y-96112789D01*
X73650000Y-95687211D01*
X73695000Y-95578570D01*
X73695000Y-95421430D01*
X73665413Y-95350000D01*
X74534587Y-95350000D01*
X74505000Y-95421430D01*
G04 #@! TD*
M02*
