G04 #@! TF.GenerationSoftware,KiCad,Pcbnew,(5.0.0)*
G04 #@! TF.CreationDate,2018-09-09T11:50:12+09:00*
G04 #@! TF.ProjectId,ZynqBoard2,5A796E71426F617264322E6B69636164,rev?*
G04 #@! TF.SameCoordinates,Original*
G04 #@! TF.FileFunction,Legend,Top*
G04 #@! TF.FilePolarity,Positive*
%FSLAX46Y46*%
G04 Gerber Fmt 4.6, Leading zero omitted, Abs format (unit mm)*
G04 Created by KiCad (PCBNEW (5.0.0)) date 09/09/18 11:50:12*
%MOMM*%
%LPD*%
G01*
G04 APERTURE LIST*
%ADD10C,0.300000*%
%ADD11C,0.200000*%
%ADD12C,0.120000*%
%ADD13C,0.150000*%
%ADD14C,0.100000*%
G04 APERTURE END LIST*
D10*
X32250000Y-91978571D02*
X32250000Y-93050000D01*
X32178571Y-93264285D01*
X32035714Y-93407142D01*
X31821428Y-93478571D01*
X31678571Y-93478571D01*
X32750000Y-91978571D02*
X33607142Y-91978571D01*
X33178571Y-93478571D02*
X33178571Y-91978571D01*
X34035714Y-93050000D02*
X34750000Y-93050000D01*
X33892857Y-93478571D02*
X34392857Y-91978571D01*
X34892857Y-93478571D01*
X36178571Y-92050000D02*
X36035714Y-91978571D01*
X35821428Y-91978571D01*
X35607142Y-92050000D01*
X35464285Y-92192857D01*
X35392857Y-92335714D01*
X35321428Y-92621428D01*
X35321428Y-92835714D01*
X35392857Y-93121428D01*
X35464285Y-93264285D01*
X35607142Y-93407142D01*
X35821428Y-93478571D01*
X35964285Y-93478571D01*
X36178571Y-93407142D01*
X36250000Y-93335714D01*
X36250000Y-92835714D01*
X35964285Y-92835714D01*
X32121428Y-81507142D02*
X32335714Y-81578571D01*
X32692857Y-81578571D01*
X32835714Y-81507142D01*
X32907142Y-81435714D01*
X32978571Y-81292857D01*
X32978571Y-81150000D01*
X32907142Y-81007142D01*
X32835714Y-80935714D01*
X32692857Y-80864285D01*
X32407142Y-80792857D01*
X32264285Y-80721428D01*
X32192857Y-80650000D01*
X32121428Y-80507142D01*
X32121428Y-80364285D01*
X32192857Y-80221428D01*
X32264285Y-80150000D01*
X32407142Y-80078571D01*
X32764285Y-80078571D01*
X32978571Y-80150000D01*
X33621428Y-81578571D02*
X33621428Y-80078571D01*
X33978571Y-80078571D01*
X34192857Y-80150000D01*
X34335714Y-80292857D01*
X34407142Y-80435714D01*
X34478571Y-80721428D01*
X34478571Y-80935714D01*
X34407142Y-81221428D01*
X34335714Y-81364285D01*
X34192857Y-81507142D01*
X33978571Y-81578571D01*
X33621428Y-81578571D01*
D11*
X50372857Y-61252380D02*
X51039523Y-61252380D01*
X50372857Y-62252380D01*
X51039523Y-62252380D01*
X51610952Y-61776190D02*
X51610952Y-62252380D01*
X51277619Y-61252380D02*
X51610952Y-61776190D01*
X51944285Y-61252380D01*
X52277619Y-62252380D02*
X52277619Y-61252380D01*
X52849047Y-62252380D01*
X52849047Y-61252380D01*
X53991904Y-62347619D02*
X53896666Y-62300000D01*
X53801428Y-62204761D01*
X53658571Y-62061904D01*
X53563333Y-62014285D01*
X53468095Y-62014285D01*
X53515714Y-62252380D02*
X53420476Y-62204761D01*
X53325238Y-62109523D01*
X53277619Y-61919047D01*
X53277619Y-61585714D01*
X53325238Y-61395238D01*
X53420476Y-61300000D01*
X53515714Y-61252380D01*
X53706190Y-61252380D01*
X53801428Y-61300000D01*
X53896666Y-61395238D01*
X53944285Y-61585714D01*
X53944285Y-61919047D01*
X53896666Y-62109523D01*
X53801428Y-62204761D01*
X53706190Y-62252380D01*
X53515714Y-62252380D01*
X54372857Y-61871428D02*
X55134761Y-61871428D01*
X55515714Y-61252380D02*
X56182380Y-61252380D01*
X55753809Y-62252380D01*
X56753809Y-61252380D02*
X56849047Y-61252380D01*
X56944285Y-61300000D01*
X56991904Y-61347619D01*
X57039523Y-61442857D01*
X57087142Y-61633333D01*
X57087142Y-61871428D01*
X57039523Y-62061904D01*
X56991904Y-62157142D01*
X56944285Y-62204761D01*
X56849047Y-62252380D01*
X56753809Y-62252380D01*
X56658571Y-62204761D01*
X56610952Y-62157142D01*
X56563333Y-62061904D01*
X56515714Y-61871428D01*
X56515714Y-61633333D01*
X56563333Y-61442857D01*
X56610952Y-61347619D01*
X56658571Y-61300000D01*
X56753809Y-61252380D01*
X57468095Y-61347619D02*
X57515714Y-61300000D01*
X57610952Y-61252380D01*
X57849047Y-61252380D01*
X57944285Y-61300000D01*
X57991904Y-61347619D01*
X58039523Y-61442857D01*
X58039523Y-61538095D01*
X57991904Y-61680952D01*
X57420476Y-62252380D01*
X58039523Y-62252380D01*
X58658571Y-61252380D02*
X58753809Y-61252380D01*
X58849047Y-61300000D01*
X58896666Y-61347619D01*
X58944285Y-61442857D01*
X58991904Y-61633333D01*
X58991904Y-61871428D01*
X58944285Y-62061904D01*
X58896666Y-62157142D01*
X58849047Y-62204761D01*
X58753809Y-62252380D01*
X58658571Y-62252380D01*
X58563333Y-62204761D01*
X58515714Y-62157142D01*
X58468095Y-62061904D01*
X58420476Y-61871428D01*
X58420476Y-61633333D01*
X58468095Y-61442857D01*
X58515714Y-61347619D01*
X58563333Y-61300000D01*
X58658571Y-61252380D01*
X50420476Y-63666666D02*
X50896666Y-63666666D01*
X50325238Y-63952380D02*
X50658571Y-62952380D01*
X50991904Y-63952380D01*
X51753809Y-63285714D02*
X51753809Y-63952380D01*
X51325238Y-63285714D02*
X51325238Y-63809523D01*
X51372857Y-63904761D01*
X51468095Y-63952380D01*
X51610952Y-63952380D01*
X51706190Y-63904761D01*
X51753809Y-63857142D01*
X52658571Y-63952380D02*
X52658571Y-62952380D01*
X52658571Y-63904761D02*
X52563333Y-63952380D01*
X52372857Y-63952380D01*
X52277619Y-63904761D01*
X52230000Y-63857142D01*
X52182380Y-63761904D01*
X52182380Y-63476190D01*
X52230000Y-63380952D01*
X52277619Y-63333333D01*
X52372857Y-63285714D01*
X52563333Y-63285714D01*
X52658571Y-63333333D01*
X53134761Y-63952380D02*
X53134761Y-63285714D01*
X53134761Y-62952380D02*
X53087142Y-63000000D01*
X53134761Y-63047619D01*
X53182380Y-63000000D01*
X53134761Y-62952380D01*
X53134761Y-63047619D01*
X53753809Y-63952380D02*
X53658571Y-63904761D01*
X53610952Y-63857142D01*
X53563333Y-63761904D01*
X53563333Y-63476190D01*
X53610952Y-63380952D01*
X53658571Y-63333333D01*
X53753809Y-63285714D01*
X53896666Y-63285714D01*
X53991904Y-63333333D01*
X54039523Y-63380952D01*
X54087142Y-63476190D01*
X54087142Y-63761904D01*
X54039523Y-63857142D01*
X53991904Y-63904761D01*
X53896666Y-63952380D01*
X53753809Y-63952380D01*
X55277619Y-63952380D02*
X55277619Y-62952380D01*
X55658571Y-62952380D01*
X55753809Y-63000000D01*
X55801428Y-63047619D01*
X55849047Y-63142857D01*
X55849047Y-63285714D01*
X55801428Y-63380952D01*
X55753809Y-63428571D01*
X55658571Y-63476190D01*
X55277619Y-63476190D01*
X56277619Y-63952380D02*
X56277619Y-63285714D01*
X56277619Y-63476190D02*
X56325238Y-63380952D01*
X56372857Y-63333333D01*
X56468095Y-63285714D01*
X56563333Y-63285714D01*
X57039523Y-63952380D02*
X56944285Y-63904761D01*
X56896666Y-63857142D01*
X56849047Y-63761904D01*
X56849047Y-63476190D01*
X56896666Y-63380952D01*
X56944285Y-63333333D01*
X57039523Y-63285714D01*
X57182380Y-63285714D01*
X57277619Y-63333333D01*
X57325238Y-63380952D01*
X57372857Y-63476190D01*
X57372857Y-63761904D01*
X57325238Y-63857142D01*
X57277619Y-63904761D01*
X57182380Y-63952380D01*
X57039523Y-63952380D01*
X58230000Y-63904761D02*
X58134761Y-63952380D01*
X57944285Y-63952380D01*
X57849047Y-63904761D01*
X57801428Y-63857142D01*
X57753809Y-63761904D01*
X57753809Y-63476190D01*
X57801428Y-63380952D01*
X57849047Y-63333333D01*
X57944285Y-63285714D01*
X58134761Y-63285714D01*
X58230000Y-63333333D01*
X59039523Y-63904761D02*
X58944285Y-63952380D01*
X58753809Y-63952380D01*
X58658571Y-63904761D01*
X58610952Y-63809523D01*
X58610952Y-63428571D01*
X58658571Y-63333333D01*
X58753809Y-63285714D01*
X58944285Y-63285714D01*
X59039523Y-63333333D01*
X59087142Y-63428571D01*
X59087142Y-63523809D01*
X58610952Y-63619047D01*
X59468095Y-63904761D02*
X59563333Y-63952380D01*
X59753809Y-63952380D01*
X59849047Y-63904761D01*
X59896666Y-63809523D01*
X59896666Y-63761904D01*
X59849047Y-63666666D01*
X59753809Y-63619047D01*
X59610952Y-63619047D01*
X59515714Y-63571428D01*
X59468095Y-63476190D01*
X59468095Y-63428571D01*
X59515714Y-63333333D01*
X59610952Y-63285714D01*
X59753809Y-63285714D01*
X59849047Y-63333333D01*
X60277619Y-63904761D02*
X60372857Y-63952380D01*
X60563333Y-63952380D01*
X60658571Y-63904761D01*
X60706190Y-63809523D01*
X60706190Y-63761904D01*
X60658571Y-63666666D01*
X60563333Y-63619047D01*
X60420476Y-63619047D01*
X60325238Y-63571428D01*
X60277619Y-63476190D01*
X60277619Y-63428571D01*
X60325238Y-63333333D01*
X60420476Y-63285714D01*
X60563333Y-63285714D01*
X60658571Y-63333333D01*
X61134761Y-63952380D02*
X61134761Y-63285714D01*
X61134761Y-62952380D02*
X61087142Y-63000000D01*
X61134761Y-63047619D01*
X61182380Y-63000000D01*
X61134761Y-62952380D01*
X61134761Y-63047619D01*
X61610952Y-63285714D02*
X61610952Y-63952380D01*
X61610952Y-63380952D02*
X61658571Y-63333333D01*
X61753809Y-63285714D01*
X61896666Y-63285714D01*
X61991904Y-63333333D01*
X62039523Y-63428571D01*
X62039523Y-63952380D01*
X62944285Y-63285714D02*
X62944285Y-64095238D01*
X62896666Y-64190476D01*
X62849047Y-64238095D01*
X62753809Y-64285714D01*
X62610952Y-64285714D01*
X62515714Y-64238095D01*
X62944285Y-63904761D02*
X62849047Y-63952380D01*
X62658571Y-63952380D01*
X62563333Y-63904761D01*
X62515714Y-63857142D01*
X62468095Y-63761904D01*
X62468095Y-63476190D01*
X62515714Y-63380952D01*
X62563333Y-63333333D01*
X62658571Y-63285714D01*
X62849047Y-63285714D01*
X62944285Y-63333333D01*
X64515714Y-63428571D02*
X64658571Y-63476190D01*
X64706190Y-63523809D01*
X64753809Y-63619047D01*
X64753809Y-63761904D01*
X64706190Y-63857142D01*
X64658571Y-63904761D01*
X64563333Y-63952380D01*
X64182380Y-63952380D01*
X64182380Y-62952380D01*
X64515714Y-62952380D01*
X64610952Y-63000000D01*
X64658571Y-63047619D01*
X64706190Y-63142857D01*
X64706190Y-63238095D01*
X64658571Y-63333333D01*
X64610952Y-63380952D01*
X64515714Y-63428571D01*
X64182380Y-63428571D01*
X65325238Y-63952380D02*
X65230000Y-63904761D01*
X65182380Y-63857142D01*
X65134761Y-63761904D01*
X65134761Y-63476190D01*
X65182380Y-63380952D01*
X65230000Y-63333333D01*
X65325238Y-63285714D01*
X65468095Y-63285714D01*
X65563333Y-63333333D01*
X65610952Y-63380952D01*
X65658571Y-63476190D01*
X65658571Y-63761904D01*
X65610952Y-63857142D01*
X65563333Y-63904761D01*
X65468095Y-63952380D01*
X65325238Y-63952380D01*
X66515714Y-63952380D02*
X66515714Y-63428571D01*
X66468095Y-63333333D01*
X66372857Y-63285714D01*
X66182380Y-63285714D01*
X66087142Y-63333333D01*
X66515714Y-63904761D02*
X66420476Y-63952380D01*
X66182380Y-63952380D01*
X66087142Y-63904761D01*
X66039523Y-63809523D01*
X66039523Y-63714285D01*
X66087142Y-63619047D01*
X66182380Y-63571428D01*
X66420476Y-63571428D01*
X66515714Y-63523809D01*
X66991904Y-63952380D02*
X66991904Y-63285714D01*
X66991904Y-63476190D02*
X67039523Y-63380952D01*
X67087142Y-63333333D01*
X67182380Y-63285714D01*
X67277619Y-63285714D01*
X68039523Y-63952380D02*
X68039523Y-62952380D01*
X68039523Y-63904761D02*
X67944285Y-63952380D01*
X67753809Y-63952380D01*
X67658571Y-63904761D01*
X67610952Y-63857142D01*
X67563333Y-63761904D01*
X67563333Y-63476190D01*
X67610952Y-63380952D01*
X67658571Y-63333333D01*
X67753809Y-63285714D01*
X67944285Y-63285714D01*
X68039523Y-63333333D01*
X50468095Y-65652380D02*
X50468095Y-64652380D01*
X50706190Y-64652380D01*
X50849047Y-64700000D01*
X50944285Y-64795238D01*
X50991904Y-64890476D01*
X51039523Y-65080952D01*
X51039523Y-65223809D01*
X50991904Y-65414285D01*
X50944285Y-65509523D01*
X50849047Y-65604761D01*
X50706190Y-65652380D01*
X50468095Y-65652380D01*
X51849047Y-65604761D02*
X51753809Y-65652380D01*
X51563333Y-65652380D01*
X51468095Y-65604761D01*
X51420476Y-65509523D01*
X51420476Y-65128571D01*
X51468095Y-65033333D01*
X51563333Y-64985714D01*
X51753809Y-64985714D01*
X51849047Y-65033333D01*
X51896666Y-65128571D01*
X51896666Y-65223809D01*
X51420476Y-65319047D01*
X52277619Y-65604761D02*
X52372857Y-65652380D01*
X52563333Y-65652380D01*
X52658571Y-65604761D01*
X52706190Y-65509523D01*
X52706190Y-65461904D01*
X52658571Y-65366666D01*
X52563333Y-65319047D01*
X52420476Y-65319047D01*
X52325238Y-65271428D01*
X52277619Y-65176190D01*
X52277619Y-65128571D01*
X52325238Y-65033333D01*
X52420476Y-64985714D01*
X52563333Y-64985714D01*
X52658571Y-65033333D01*
X53134761Y-65652380D02*
X53134761Y-64985714D01*
X53134761Y-64652380D02*
X53087142Y-64700000D01*
X53134761Y-64747619D01*
X53182380Y-64700000D01*
X53134761Y-64652380D01*
X53134761Y-64747619D01*
X54039523Y-64985714D02*
X54039523Y-65795238D01*
X53991904Y-65890476D01*
X53944285Y-65938095D01*
X53849047Y-65985714D01*
X53706190Y-65985714D01*
X53610952Y-65938095D01*
X54039523Y-65604761D02*
X53944285Y-65652380D01*
X53753809Y-65652380D01*
X53658571Y-65604761D01*
X53610952Y-65557142D01*
X53563333Y-65461904D01*
X53563333Y-65176190D01*
X53610952Y-65080952D01*
X53658571Y-65033333D01*
X53753809Y-64985714D01*
X53944285Y-64985714D01*
X54039523Y-65033333D01*
X54515714Y-64985714D02*
X54515714Y-65652380D01*
X54515714Y-65080952D02*
X54563333Y-65033333D01*
X54658571Y-64985714D01*
X54801428Y-64985714D01*
X54896666Y-65033333D01*
X54944285Y-65128571D01*
X54944285Y-65652380D01*
X55801428Y-65604761D02*
X55706190Y-65652380D01*
X55515714Y-65652380D01*
X55420476Y-65604761D01*
X55372857Y-65509523D01*
X55372857Y-65128571D01*
X55420476Y-65033333D01*
X55515714Y-64985714D01*
X55706190Y-64985714D01*
X55801428Y-65033333D01*
X55849047Y-65128571D01*
X55849047Y-65223809D01*
X55372857Y-65319047D01*
X56706190Y-65652380D02*
X56706190Y-64652380D01*
X56706190Y-65604761D02*
X56610952Y-65652380D01*
X56420476Y-65652380D01*
X56325238Y-65604761D01*
X56277619Y-65557142D01*
X56230000Y-65461904D01*
X56230000Y-65176190D01*
X56277619Y-65080952D01*
X56325238Y-65033333D01*
X56420476Y-64985714D01*
X56610952Y-64985714D01*
X56706190Y-65033333D01*
X57944285Y-65652380D02*
X57944285Y-64652380D01*
X57944285Y-65033333D02*
X58039523Y-64985714D01*
X58230000Y-64985714D01*
X58325238Y-65033333D01*
X58372857Y-65080952D01*
X58420476Y-65176190D01*
X58420476Y-65461904D01*
X58372857Y-65557142D01*
X58325238Y-65604761D01*
X58230000Y-65652380D01*
X58039523Y-65652380D01*
X57944285Y-65604761D01*
X58753809Y-64985714D02*
X58991904Y-65652380D01*
X59230000Y-64985714D02*
X58991904Y-65652380D01*
X58896666Y-65890476D01*
X58849047Y-65938095D01*
X58753809Y-65985714D01*
X60230000Y-64652380D02*
X60801428Y-64652380D01*
X60515714Y-65652380D02*
X60515714Y-64652380D01*
X61563333Y-65652380D02*
X61563333Y-65128571D01*
X61515714Y-65033333D01*
X61420476Y-64985714D01*
X61230000Y-64985714D01*
X61134761Y-65033333D01*
X61563333Y-65604761D02*
X61468095Y-65652380D01*
X61230000Y-65652380D01*
X61134761Y-65604761D01*
X61087142Y-65509523D01*
X61087142Y-65414285D01*
X61134761Y-65319047D01*
X61230000Y-65271428D01*
X61468095Y-65271428D01*
X61563333Y-65223809D01*
X62039523Y-65652380D02*
X62039523Y-64985714D01*
X62039523Y-65080952D02*
X62087142Y-65033333D01*
X62182380Y-64985714D01*
X62325238Y-64985714D01*
X62420476Y-65033333D01*
X62468095Y-65128571D01*
X62468095Y-65652380D01*
X62468095Y-65128571D02*
X62515714Y-65033333D01*
X62610952Y-64985714D01*
X62753809Y-64985714D01*
X62849047Y-65033333D01*
X62896666Y-65128571D01*
X62896666Y-65652380D01*
X63801428Y-65652380D02*
X63801428Y-65128571D01*
X63753809Y-65033333D01*
X63658571Y-64985714D01*
X63468095Y-64985714D01*
X63372857Y-65033333D01*
X63801428Y-65604761D02*
X63706190Y-65652380D01*
X63468095Y-65652380D01*
X63372857Y-65604761D01*
X63325238Y-65509523D01*
X63325238Y-65414285D01*
X63372857Y-65319047D01*
X63468095Y-65271428D01*
X63706190Y-65271428D01*
X63801428Y-65223809D01*
X64277619Y-64985714D02*
X64277619Y-65985714D01*
X64277619Y-65033333D02*
X64372857Y-64985714D01*
X64563333Y-64985714D01*
X64658571Y-65033333D01*
X64706190Y-65080952D01*
X64753809Y-65176190D01*
X64753809Y-65461904D01*
X64706190Y-65557142D01*
X64658571Y-65604761D01*
X64563333Y-65652380D01*
X64372857Y-65652380D01*
X64277619Y-65604761D01*
X65325238Y-65652380D02*
X65230000Y-65604761D01*
X65182380Y-65557142D01*
X65134761Y-65461904D01*
X65134761Y-65176190D01*
X65182380Y-65080952D01*
X65230000Y-65033333D01*
X65325238Y-64985714D01*
X65468095Y-64985714D01*
X65563333Y-65033333D01*
X65610952Y-65080952D01*
X65658571Y-65176190D01*
X65658571Y-65461904D01*
X65610952Y-65557142D01*
X65563333Y-65604761D01*
X65468095Y-65652380D01*
X65325238Y-65652380D01*
X66515714Y-65604761D02*
X66420476Y-65652380D01*
X66230000Y-65652380D01*
X66134761Y-65604761D01*
X66087142Y-65557142D01*
X66039523Y-65461904D01*
X66039523Y-65176190D01*
X66087142Y-65080952D01*
X66134761Y-65033333D01*
X66230000Y-64985714D01*
X66420476Y-64985714D01*
X66515714Y-65033333D01*
X66944285Y-65652380D02*
X66944285Y-64652380D01*
X67372857Y-65652380D02*
X67372857Y-65128571D01*
X67325238Y-65033333D01*
X67230000Y-64985714D01*
X67087142Y-64985714D01*
X66991904Y-65033333D01*
X66944285Y-65080952D01*
X67849047Y-65652380D02*
X67849047Y-64985714D01*
X67849047Y-64652380D02*
X67801428Y-64700000D01*
X67849047Y-64747619D01*
X67896666Y-64700000D01*
X67849047Y-64652380D01*
X67849047Y-64747619D01*
X68849047Y-65652380D02*
X68277619Y-65652380D01*
X68563333Y-65652380D02*
X68563333Y-64652380D01*
X68468095Y-64795238D01*
X68372857Y-64890476D01*
X68277619Y-64938095D01*
X61300000Y-74700000D02*
X61300000Y-76000000D01*
X59300000Y-74700000D02*
X61300000Y-74700000D01*
X59300000Y-76000000D02*
X59300000Y-74700000D01*
D12*
G04 #@! TO.C,C48*
X88300000Y-99750000D02*
X89300000Y-99750000D01*
X89300000Y-98050000D02*
X88300000Y-98050000D01*
G04 #@! TO.C,C95*
X95850000Y-108000000D02*
X96550000Y-108000000D01*
X96550000Y-109200000D02*
X95850000Y-109200000D01*
G04 #@! TO.C,U4*
X107530000Y-94640000D02*
X107760000Y-94870000D01*
X101270000Y-101360000D02*
X101040000Y-101130000D01*
X101270000Y-94640000D02*
X101040000Y-94870000D01*
X107530000Y-101360000D02*
X107760000Y-101130000D01*
X108010000Y-101560000D02*
G75*
G03X108010000Y-101560000I-50000J0D01*
G01*
D13*
G04 #@! TO.C,U8*
X109425000Y-72425000D02*
X109425000Y-71925000D01*
X106175000Y-72425000D02*
X106175000Y-71925000D01*
X106175000Y-69175000D02*
X106175000Y-69675000D01*
X109425000Y-69175000D02*
X109425000Y-69675000D01*
X106175000Y-72425000D02*
X106675000Y-72425000D01*
X106175000Y-69175000D02*
X106675000Y-69175000D01*
X109425000Y-72425000D02*
X108925000Y-72425000D01*
D12*
G04 #@! TO.C,C22*
X56450000Y-104900000D02*
X57150000Y-104900000D01*
X57150000Y-106100000D02*
X56450000Y-106100000D01*
G04 #@! TO.C,C24*
X89300000Y-100050000D02*
X88300000Y-100050000D01*
X88300000Y-101750000D02*
X89300000Y-101750000D01*
G04 #@! TO.C,C35*
X90880000Y-96400000D02*
X90880000Y-94400000D01*
X87920000Y-94400000D02*
X87920000Y-96400000D01*
G04 #@! TO.C,C36*
X60800000Y-83050000D02*
X59800000Y-83050000D01*
X59800000Y-84750000D02*
X60800000Y-84750000D01*
G04 #@! TO.C,C37*
X67750000Y-82500000D02*
X68450000Y-82500000D01*
X68450000Y-83700000D02*
X67750000Y-83700000D01*
G04 #@! TO.C,C41*
X63750000Y-84500000D02*
X63050000Y-84500000D01*
X63050000Y-83300000D02*
X63750000Y-83300000D01*
G04 #@! TO.C,C49*
X89700000Y-82750000D02*
X88700000Y-82750000D01*
X88700000Y-84450000D02*
X89700000Y-84450000D01*
G04 #@! TO.C,C50*
X91400000Y-88750000D02*
X91400000Y-89450000D01*
X90200000Y-89450000D02*
X90200000Y-88750000D01*
G04 #@! TO.C,C60*
X72300000Y-109050000D02*
X71300000Y-109050000D01*
X71300000Y-110750000D02*
X72300000Y-110750000D01*
G04 #@! TO.C,C61*
X66000000Y-85450000D02*
X66000000Y-84750000D01*
X67200000Y-84750000D02*
X67200000Y-85450000D01*
G04 #@! TO.C,C89*
X98900000Y-101950000D02*
X98900000Y-101250000D01*
X100100000Y-101250000D02*
X100100000Y-101950000D01*
G04 #@! TO.C,C90*
X100100000Y-93450000D02*
X100100000Y-94150000D01*
X98900000Y-94150000D02*
X98900000Y-93450000D01*
G04 #@! TO.C,C91*
X110500000Y-99650000D02*
X110500000Y-100350000D01*
X109300000Y-100350000D02*
X109300000Y-99650000D01*
G04 #@! TO.C,C92*
X109300000Y-96350000D02*
X109300000Y-95650000D01*
X110500000Y-95650000D02*
X110500000Y-96350000D01*
G04 #@! TO.C,C94*
X95500000Y-107850000D02*
X96500000Y-107850000D01*
X96500000Y-106150000D02*
X95500000Y-106150000D01*
G04 #@! TO.C,C101*
X99750000Y-90400000D02*
X99750000Y-89400000D01*
X98050000Y-89400000D02*
X98050000Y-90400000D01*
G04 #@! TO.C,C102*
X95300000Y-88150000D02*
X94300000Y-88150000D01*
X94300000Y-89850000D02*
X95300000Y-89850000D01*
G04 #@! TO.C,C108*
X111050000Y-103900000D02*
X111050000Y-102900000D01*
X109350000Y-102900000D02*
X109350000Y-103900000D01*
G04 #@! TO.C,C112*
X111000000Y-91850000D02*
X111000000Y-92550000D01*
X109800000Y-92550000D02*
X109800000Y-91850000D01*
G04 #@! TO.C,C125*
X103200000Y-81250000D02*
X103200000Y-81950000D01*
X102000000Y-81950000D02*
X102000000Y-81250000D01*
G04 #@! TO.C,C129*
X103200000Y-77650000D02*
X103200000Y-78350000D01*
X102000000Y-78350000D02*
X102000000Y-77650000D01*
G04 #@! TO.C,C136*
X74550000Y-82500000D02*
X73850000Y-82500000D01*
X73850000Y-81300000D02*
X74550000Y-81300000D01*
G04 #@! TO.C,C138*
X74050000Y-71900000D02*
X73350000Y-71900000D01*
X73350000Y-70700000D02*
X74050000Y-70700000D01*
G04 #@! TO.C,C142*
X70950000Y-81300000D02*
X71650000Y-81300000D01*
X71650000Y-82500000D02*
X70950000Y-82500000D01*
G04 #@! TO.C,D1*
X89800000Y-104500000D02*
X89800000Y-102400000D01*
X90800000Y-104500000D02*
X90800000Y-102400000D01*
X89800000Y-104500000D02*
X90800000Y-104500000D01*
D14*
G04 #@! TO.C,D4*
X84500000Y-60700000D02*
X84500000Y-59900000D01*
X87900000Y-60700000D02*
X87900000Y-59900000D01*
X85000000Y-61200000D02*
X85300000Y-61200000D01*
X87100000Y-61200000D02*
X87400000Y-61200000D01*
D12*
G04 #@! TO.C,J1*
X67360000Y-76040000D02*
X67360000Y-77100000D01*
X66300000Y-76040000D02*
X67360000Y-76040000D01*
X67360000Y-78100000D02*
X67360000Y-80160000D01*
X65300000Y-78100000D02*
X67360000Y-78100000D01*
X65300000Y-76040000D02*
X65300000Y-78100000D01*
X67360000Y-80160000D02*
X53240000Y-80160000D01*
X65300000Y-76040000D02*
X53240000Y-76040000D01*
X53240000Y-76040000D02*
X53240000Y-80160000D01*
G04 #@! TO.C,J2*
X35300000Y-76560000D02*
X33380000Y-76560000D01*
X33380000Y-76560000D02*
X33380000Y-62550000D01*
X46900000Y-76560000D02*
X47350000Y-76560000D01*
X47350000Y-76560000D02*
X47350000Y-72950000D01*
X35060000Y-60290000D02*
X37370000Y-60290000D01*
X46320000Y-60290000D02*
X44460000Y-60290000D01*
X46320000Y-60290000D02*
X46520000Y-60490000D01*
X47350000Y-71250000D02*
X47350000Y-66550000D01*
X47350000Y-65250000D02*
X47350000Y-63450000D01*
X44250000Y-60640000D02*
X37880000Y-60640000D01*
X44250000Y-60640000D02*
X44250000Y-60490000D01*
X44460000Y-60290000D02*
X44250000Y-60490000D01*
X35060000Y-60290000D02*
X34860000Y-60490000D01*
X34860000Y-60490000D02*
X34600000Y-60490000D01*
X37370000Y-60290000D02*
X37880000Y-60640000D01*
G04 #@! TO.C,L2*
X97700000Y-99350000D02*
X97700000Y-105650000D01*
X91500000Y-99350000D02*
X91500000Y-105650000D01*
G04 #@! TO.C,L3*
X91500000Y-90350000D02*
X91500000Y-96650000D01*
X97700000Y-90350000D02*
X97700000Y-96650000D01*
G04 #@! TO.C,L4*
X111400000Y-105650000D02*
X111400000Y-99350000D01*
X117600000Y-105650000D02*
X117600000Y-99350000D01*
G04 #@! TO.C,L5*
X111400000Y-90350000D02*
X111400000Y-96650000D01*
X117600000Y-90350000D02*
X117600000Y-96650000D01*
D14*
G04 #@! TO.C,O2*
X102200000Y-71250000D02*
X102200000Y-73750000D01*
X102200000Y-73750000D02*
X99000000Y-73750000D01*
X99000000Y-73750000D02*
X99000000Y-71250000D01*
X99000000Y-71250000D02*
X102200000Y-71250000D01*
X103000000Y-71500000D02*
G75*
G03X103000000Y-71500000I-400000J0D01*
G01*
D12*
G04 #@! TO.C,Q3*
X117580000Y-123390000D02*
X117580000Y-124850000D01*
X114420000Y-123390000D02*
X114420000Y-125550000D01*
X114420000Y-123390000D02*
X115350000Y-123390000D01*
X117580000Y-123390000D02*
X116650000Y-123390000D01*
G04 #@! TO.C,Q4*
X93610000Y-125580000D02*
X93610000Y-124650000D01*
X93610000Y-122420000D02*
X93610000Y-123350000D01*
X93610000Y-122420000D02*
X91450000Y-122420000D01*
X93610000Y-125580000D02*
X92150000Y-125580000D01*
G04 #@! TO.C,Q5*
X73610000Y-125580000D02*
X72150000Y-125580000D01*
X73610000Y-122420000D02*
X71450000Y-122420000D01*
X73610000Y-122420000D02*
X73610000Y-123350000D01*
X73610000Y-125580000D02*
X73610000Y-124650000D01*
G04 #@! TO.C,Q6*
X53560000Y-125580000D02*
X53560000Y-124650000D01*
X53560000Y-122420000D02*
X53560000Y-123350000D01*
X53560000Y-122420000D02*
X51400000Y-122420000D01*
X53560000Y-125580000D02*
X52100000Y-125580000D01*
G04 #@! TO.C,Q7*
X37560000Y-120080000D02*
X36100000Y-120080000D01*
X37560000Y-116920000D02*
X35400000Y-116920000D01*
X37560000Y-116920000D02*
X37560000Y-117850000D01*
X37560000Y-120080000D02*
X37560000Y-119150000D01*
G04 #@! TO.C,Q8*
X35660000Y-102380000D02*
X35660000Y-101450000D01*
X35660000Y-99220000D02*
X35660000Y-100150000D01*
X35660000Y-99220000D02*
X33500000Y-99220000D01*
X35660000Y-102380000D02*
X34200000Y-102380000D01*
G04 #@! TO.C,R2*
X42780000Y-96600000D02*
X42780000Y-97600000D01*
X41420000Y-97600000D02*
X41420000Y-96600000D01*
G04 #@! TO.C,R8*
X88800000Y-104580000D02*
X87800000Y-104580000D01*
X87800000Y-103220000D02*
X88800000Y-103220000D01*
G04 #@! TO.C,R9*
X88800000Y-103180000D02*
X87800000Y-103180000D01*
X87800000Y-101820000D02*
X88800000Y-101820000D01*
G04 #@! TO.C,R10*
X54980000Y-83000000D02*
X54980000Y-84000000D01*
X53620000Y-84000000D02*
X53620000Y-83000000D01*
G04 #@! TO.C,R13*
X72520000Y-88000000D02*
X72520000Y-87000000D01*
X73880000Y-87000000D02*
X73880000Y-88000000D01*
G04 #@! TO.C,R14*
X71120000Y-88000000D02*
X71120000Y-87000000D01*
X72480000Y-87000000D02*
X72480000Y-88000000D01*
G04 #@! TO.C,R15*
X75280000Y-87000000D02*
X75280000Y-88000000D01*
X73920000Y-88000000D02*
X73920000Y-87000000D01*
G04 #@! TO.C,R16*
X68320000Y-88000000D02*
X68320000Y-87000000D01*
X69680000Y-87000000D02*
X69680000Y-88000000D01*
G04 #@! TO.C,R17*
X71080000Y-87000000D02*
X71080000Y-88000000D01*
X69720000Y-88000000D02*
X69720000Y-87000000D01*
G04 #@! TO.C,R18*
X42100000Y-85520000D02*
X43100000Y-85520000D01*
X43100000Y-86880000D02*
X42100000Y-86880000D01*
G04 #@! TO.C,R20*
X43100000Y-88380000D02*
X42100000Y-88380000D01*
X42100000Y-87020000D02*
X43100000Y-87020000D01*
G04 #@! TO.C,R22*
X41520000Y-84000000D02*
X41520000Y-83000000D01*
X42880000Y-83000000D02*
X42880000Y-84000000D01*
G04 #@! TO.C,R26*
X103300000Y-106680000D02*
X102300000Y-106680000D01*
X102300000Y-105320000D02*
X103300000Y-105320000D01*
G04 #@! TO.C,R27*
X100700000Y-106680000D02*
X99700000Y-106680000D01*
X99700000Y-105320000D02*
X100700000Y-105320000D01*
G04 #@! TO.C,R28*
X114480000Y-68100000D02*
X114480000Y-69100000D01*
X113120000Y-69100000D02*
X113120000Y-68100000D01*
G04 #@! TO.C,R29*
X103980000Y-103400000D02*
X103980000Y-104400000D01*
X102620000Y-104400000D02*
X102620000Y-103400000D01*
G04 #@! TO.C,R30*
X101850000Y-90580000D02*
X100850000Y-90580000D01*
X100850000Y-89220000D02*
X101850000Y-89220000D01*
G04 #@! TO.C,R31*
X103450000Y-89220000D02*
X104450000Y-89220000D01*
X104450000Y-90580000D02*
X103450000Y-90580000D01*
G04 #@! TO.C,R32*
X100720000Y-104400000D02*
X100720000Y-103400000D01*
X102080000Y-103400000D02*
X102080000Y-104400000D01*
G04 #@! TO.C,R33*
X110020000Y-81000000D02*
X110020000Y-80000000D01*
X111380000Y-80000000D02*
X111380000Y-81000000D01*
G04 #@! TO.C,R34*
X101520000Y-92600000D02*
X101520000Y-91600000D01*
X102880000Y-91600000D02*
X102880000Y-92600000D01*
G04 #@! TO.C,R35*
X107880000Y-103400000D02*
X107880000Y-104400000D01*
X106520000Y-104400000D02*
X106520000Y-103400000D01*
G04 #@! TO.C,R36*
X108100000Y-105320000D02*
X109100000Y-105320000D01*
X109100000Y-106680000D02*
X108100000Y-106680000D01*
G04 #@! TO.C,R37*
X104720000Y-81400000D02*
X104720000Y-80400000D01*
X106080000Y-80400000D02*
X106080000Y-81400000D01*
G04 #@! TO.C,R38*
X106500000Y-106680000D02*
X105500000Y-106680000D01*
X105500000Y-105320000D02*
X106500000Y-105320000D01*
G04 #@! TO.C,R39*
X111380000Y-77300000D02*
X111380000Y-78300000D01*
X110020000Y-78300000D02*
X110020000Y-77300000D01*
G04 #@! TO.C,R40*
X107520000Y-81400000D02*
X107520000Y-80400000D01*
X108880000Y-80400000D02*
X108880000Y-81400000D01*
G04 #@! TO.C,R41*
X107180000Y-91600000D02*
X107180000Y-92600000D01*
X105820000Y-92600000D02*
X105820000Y-91600000D01*
G04 #@! TO.C,R42*
X109100000Y-88820000D02*
X110100000Y-88820000D01*
X110100000Y-90180000D02*
X109100000Y-90180000D01*
G04 #@! TO.C,R43*
X106500000Y-89220000D02*
X107500000Y-89220000D01*
X107500000Y-90580000D02*
X106500000Y-90580000D01*
G04 #@! TO.C,R44*
X103700000Y-87980000D02*
X102700000Y-87980000D01*
X102700000Y-86620000D02*
X103700000Y-86620000D01*
G04 #@! TO.C,R47*
X101000000Y-87980000D02*
X100000000Y-87980000D01*
X100000000Y-86620000D02*
X101000000Y-86620000D01*
G04 #@! TO.C,R49*
X112000000Y-88120000D02*
X113000000Y-88120000D01*
X113000000Y-89480000D02*
X112000000Y-89480000D01*
G04 #@! TO.C,R50*
X116200000Y-89480000D02*
X115200000Y-89480000D01*
X115200000Y-88120000D02*
X116200000Y-88120000D01*
G04 #@! TO.C,R51*
X111800000Y-73480000D02*
X110800000Y-73480000D01*
X110800000Y-72120000D02*
X111800000Y-72120000D01*
G04 #@! TO.C,R56*
X108420000Y-74700000D02*
X108420000Y-73700000D01*
X109780000Y-73700000D02*
X109780000Y-74700000D01*
G04 #@! TO.C,R57*
X106100000Y-67120000D02*
X107100000Y-67120000D01*
X107100000Y-68480000D02*
X106100000Y-68480000D01*
G04 #@! TO.C,R58*
X108700000Y-67120000D02*
X109700000Y-67120000D01*
X109700000Y-68480000D02*
X108700000Y-68480000D01*
G04 #@! TO.C,R59*
X104300000Y-71480000D02*
X103300000Y-71480000D01*
X103300000Y-70120000D02*
X104300000Y-70120000D01*
G04 #@! TO.C,R60*
X103300000Y-68620000D02*
X104300000Y-68620000D01*
X104300000Y-69980000D02*
X103300000Y-69980000D01*
G04 #@! TO.C,R63*
X104080000Y-73400000D02*
X104080000Y-74400000D01*
X102720000Y-74400000D02*
X102720000Y-73400000D01*
G04 #@! TO.C,R65*
X106000000Y-75180000D02*
X105000000Y-75180000D01*
X105000000Y-73820000D02*
X106000000Y-73820000D01*
G04 #@! TO.C,R66*
X97300000Y-84820000D02*
X98300000Y-84820000D01*
X98300000Y-86180000D02*
X97300000Y-86180000D01*
G04 #@! TO.C,R67*
X78100000Y-79420000D02*
X79100000Y-79420000D01*
X79100000Y-80780000D02*
X78100000Y-80780000D01*
G04 #@! TO.C,R68*
X79100000Y-79280000D02*
X78100000Y-79280000D01*
X78100000Y-77920000D02*
X79100000Y-77920000D01*
G04 #@! TO.C,R69*
X75820000Y-82000000D02*
X75820000Y-81000000D01*
X77180000Y-81000000D02*
X77180000Y-82000000D01*
G04 #@! TO.C,R70*
X112520000Y-124900000D02*
X112520000Y-123900000D01*
X113880000Y-123900000D02*
X113880000Y-124900000D01*
G04 #@! TO.C,R71*
X90600000Y-120720000D02*
X91600000Y-120720000D01*
X91600000Y-122080000D02*
X90600000Y-122080000D01*
G04 #@! TO.C,R72*
X72150000Y-120720000D02*
X73150000Y-120720000D01*
X73150000Y-122080000D02*
X72150000Y-122080000D01*
G04 #@! TO.C,R73*
X53100000Y-122080000D02*
X52100000Y-122080000D01*
X52100000Y-120720000D02*
X53100000Y-120720000D01*
G04 #@! TO.C,R74*
X39500000Y-116820000D02*
X40500000Y-116820000D01*
X40500000Y-118180000D02*
X39500000Y-118180000D01*
G04 #@! TO.C,R75*
X38600000Y-100480000D02*
X37600000Y-100480000D01*
X37600000Y-99120000D02*
X38600000Y-99120000D01*
G04 #@! TO.C,R76*
X87120000Y-64900000D02*
X87120000Y-63900000D01*
X88480000Y-63900000D02*
X88480000Y-64900000D01*
G04 #@! TO.C,R77*
X85280000Y-63900000D02*
X85280000Y-64900000D01*
X83920000Y-64900000D02*
X83920000Y-63900000D01*
G04 #@! TO.C,R78*
X85520000Y-64900000D02*
X85520000Y-63900000D01*
X86880000Y-63900000D02*
X86880000Y-64900000D01*
D13*
G04 #@! TO.C,SW1*
X35700000Y-88500000D02*
X35700000Y-90800000D01*
X35700000Y-82200000D02*
X35700000Y-84400000D01*
X40300000Y-82200000D02*
X40300000Y-90800000D01*
G04 #@! TO.C,U3*
X43550000Y-78750000D02*
X43550000Y-79275000D01*
X47850000Y-78750000D02*
X47850000Y-79275000D01*
X47850000Y-83050000D02*
X47850000Y-82525000D01*
X43550000Y-83050000D02*
X43550000Y-82525000D01*
X47850000Y-78750000D02*
X47325000Y-78750000D01*
X47850000Y-83050000D02*
X47325000Y-83050000D01*
X43550000Y-78750000D02*
X44075000Y-78750000D01*
G04 #@! TO.C,U5*
X108237500Y-82837500D02*
X108237500Y-83362500D01*
X104987500Y-87087500D02*
X104987500Y-86562500D01*
X108237500Y-87087500D02*
X108237500Y-86562500D01*
X104987500Y-82837500D02*
X105512500Y-82837500D01*
X104987500Y-87087500D02*
X105512500Y-87087500D01*
X108237500Y-87087500D02*
X107712500Y-87087500D01*
X108237500Y-82837500D02*
X107712500Y-82837500D01*
G04 #@! TO.C,U9*
X98175000Y-75375000D02*
X98175000Y-74000000D01*
X98625000Y-82625000D02*
X98625000Y-82100000D01*
X91375000Y-82625000D02*
X91375000Y-82100000D01*
X91375000Y-75375000D02*
X91375000Y-75900000D01*
X98625000Y-75375000D02*
X98625000Y-75900000D01*
X91375000Y-75375000D02*
X91900000Y-75375000D01*
X91375000Y-82625000D02*
X91900000Y-82625000D01*
X98625000Y-82625000D02*
X98100000Y-82625000D01*
X98625000Y-75375000D02*
X98175000Y-75375000D01*
D12*
G04 #@! TO.C,U10*
X106400000Y-75490000D02*
X103950000Y-75490000D01*
X104600000Y-78710000D02*
X106400000Y-78710000D01*
D13*
G04 #@! TO.C,U11*
X70975000Y-73975000D02*
X70975000Y-74500000D01*
X76225000Y-73975000D02*
X76225000Y-74500000D01*
X76225000Y-79225000D02*
X76225000Y-78700000D01*
X70975000Y-79225000D02*
X70975000Y-78700000D01*
X76225000Y-73975000D02*
X75700000Y-73975000D01*
X76225000Y-79225000D02*
X75700000Y-79225000D01*
X70975000Y-73975000D02*
X71500000Y-73975000D01*
G04 #@! TO.C,U14*
X103575000Y-117100000D02*
X97600000Y-117100000D01*
X102000000Y-111575000D02*
X97600000Y-111575000D01*
G04 #@! TO.C,U15*
X93575000Y-117100000D02*
X87600000Y-117100000D01*
X92000000Y-111575000D02*
X87600000Y-111575000D01*
G04 #@! TO.C,U16*
X81900000Y-111575000D02*
X77500000Y-111575000D01*
X83475000Y-117100000D02*
X77500000Y-117100000D01*
G04 #@! TO.C,U17*
X71975000Y-117100000D02*
X66000000Y-117100000D01*
X70400000Y-111575000D02*
X66000000Y-111575000D01*
G04 #@! TO.C,U18*
X58900000Y-111575000D02*
X54500000Y-111575000D01*
X60475000Y-117100000D02*
X54500000Y-117100000D01*
G04 #@! TO.C,U19*
X42700000Y-114625000D02*
X47100000Y-114625000D01*
X41125000Y-109100000D02*
X47100000Y-109100000D01*
D12*
G04 #@! TO.C,L6*
X94330000Y-71550000D02*
X94330000Y-71050000D01*
X93270000Y-71050000D02*
X93270000Y-71550000D01*
G04 #@! TO.C,L7*
X96170000Y-71050000D02*
X96170000Y-71550000D01*
X97230000Y-71550000D02*
X97230000Y-71050000D01*
G04 #@! TO.C,L8*
X72350000Y-83170000D02*
X71850000Y-83170000D01*
X71850000Y-84230000D02*
X72350000Y-84230000D01*
G04 #@! TO.C,L9*
X76450000Y-70870000D02*
X75950000Y-70870000D01*
X75950000Y-71930000D02*
X76450000Y-71930000D01*
G04 #@! TO.C,L10*
X53250000Y-73270000D02*
X52750000Y-73270000D01*
X52750000Y-74330000D02*
X53250000Y-74330000D01*
G04 #@! TD*
G04 #@! TO.C,C95*
D13*
X92757142Y-108957142D02*
X92709523Y-109004761D01*
X92566666Y-109052380D01*
X92471428Y-109052380D01*
X92328571Y-109004761D01*
X92233333Y-108909523D01*
X92185714Y-108814285D01*
X92138095Y-108623809D01*
X92138095Y-108480952D01*
X92185714Y-108290476D01*
X92233333Y-108195238D01*
X92328571Y-108100000D01*
X92471428Y-108052380D01*
X92566666Y-108052380D01*
X92709523Y-108100000D01*
X92757142Y-108147619D01*
X93233333Y-109052380D02*
X93423809Y-109052380D01*
X93519047Y-109004761D01*
X93566666Y-108957142D01*
X93661904Y-108814285D01*
X93709523Y-108623809D01*
X93709523Y-108242857D01*
X93661904Y-108147619D01*
X93614285Y-108100000D01*
X93519047Y-108052380D01*
X93328571Y-108052380D01*
X93233333Y-108100000D01*
X93185714Y-108147619D01*
X93138095Y-108242857D01*
X93138095Y-108480952D01*
X93185714Y-108576190D01*
X93233333Y-108623809D01*
X93328571Y-108671428D01*
X93519047Y-108671428D01*
X93614285Y-108623809D01*
X93661904Y-108576190D01*
X93709523Y-108480952D01*
X94614285Y-108052380D02*
X94138095Y-108052380D01*
X94090476Y-108528571D01*
X94138095Y-108480952D01*
X94233333Y-108433333D01*
X94471428Y-108433333D01*
X94566666Y-108480952D01*
X94614285Y-108528571D01*
X94661904Y-108623809D01*
X94661904Y-108861904D01*
X94614285Y-108957142D01*
X94566666Y-109004761D01*
X94471428Y-109052380D01*
X94233333Y-109052380D01*
X94138095Y-109004761D01*
X94090476Y-108957142D01*
G04 #@! TO.C,C123*
X87957142Y-82019047D02*
X88004761Y-82066666D01*
X88052380Y-82209523D01*
X88052380Y-82304761D01*
X88004761Y-82447619D01*
X87909523Y-82542857D01*
X87814285Y-82590476D01*
X87623809Y-82638095D01*
X87480952Y-82638095D01*
X87290476Y-82590476D01*
X87195238Y-82542857D01*
X87100000Y-82447619D01*
X87052380Y-82304761D01*
X87052380Y-82209523D01*
X87100000Y-82066666D01*
X87147619Y-82019047D01*
X88052380Y-81066666D02*
X88052380Y-81638095D01*
X88052380Y-81352380D02*
X87052380Y-81352380D01*
X87195238Y-81447619D01*
X87290476Y-81542857D01*
X87338095Y-81638095D01*
X87147619Y-80685714D02*
X87100000Y-80638095D01*
X87052380Y-80542857D01*
X87052380Y-80304761D01*
X87100000Y-80209523D01*
X87147619Y-80161904D01*
X87242857Y-80114285D01*
X87338095Y-80114285D01*
X87480952Y-80161904D01*
X88052380Y-80733333D01*
X88052380Y-80114285D01*
X87052380Y-79780952D02*
X87052380Y-79161904D01*
X87433333Y-79495238D01*
X87433333Y-79352380D01*
X87480952Y-79257142D01*
X87528571Y-79209523D01*
X87623809Y-79161904D01*
X87861904Y-79161904D01*
X87957142Y-79209523D01*
X88004761Y-79257142D01*
X88052380Y-79352380D01*
X88052380Y-79638095D01*
X88004761Y-79733333D01*
X87957142Y-79780952D01*
G04 #@! TO.C,C4*
X44433333Y-105857142D02*
X44385714Y-105904761D01*
X44242857Y-105952380D01*
X44147619Y-105952380D01*
X44004761Y-105904761D01*
X43909523Y-105809523D01*
X43861904Y-105714285D01*
X43814285Y-105523809D01*
X43814285Y-105380952D01*
X43861904Y-105190476D01*
X43909523Y-105095238D01*
X44004761Y-105000000D01*
X44147619Y-104952380D01*
X44242857Y-104952380D01*
X44385714Y-105000000D01*
X44433333Y-105047619D01*
X45290476Y-105285714D02*
X45290476Y-105952380D01*
X45052380Y-104904761D02*
X44814285Y-105619047D01*
X45433333Y-105619047D01*
G04 #@! TO.C,C12*
X43027142Y-95242857D02*
X43074761Y-95290476D01*
X43122380Y-95433333D01*
X43122380Y-95528571D01*
X43074761Y-95671428D01*
X42979523Y-95766666D01*
X42884285Y-95814285D01*
X42693809Y-95861904D01*
X42550952Y-95861904D01*
X42360476Y-95814285D01*
X42265238Y-95766666D01*
X42170000Y-95671428D01*
X42122380Y-95528571D01*
X42122380Y-95433333D01*
X42170000Y-95290476D01*
X42217619Y-95242857D01*
X43122380Y-94290476D02*
X43122380Y-94861904D01*
X43122380Y-94576190D02*
X42122380Y-94576190D01*
X42265238Y-94671428D01*
X42360476Y-94766666D01*
X42408095Y-94861904D01*
X42217619Y-93909523D02*
X42170000Y-93861904D01*
X42122380Y-93766666D01*
X42122380Y-93528571D01*
X42170000Y-93433333D01*
X42217619Y-93385714D01*
X42312857Y-93338095D01*
X42408095Y-93338095D01*
X42550952Y-93385714D01*
X43122380Y-93957142D01*
X43122380Y-93338095D01*
G04 #@! TO.C,C20*
X54057142Y-90557142D02*
X54009523Y-90604761D01*
X53866666Y-90652380D01*
X53771428Y-90652380D01*
X53628571Y-90604761D01*
X53533333Y-90509523D01*
X53485714Y-90414285D01*
X53438095Y-90223809D01*
X53438095Y-90080952D01*
X53485714Y-89890476D01*
X53533333Y-89795238D01*
X53628571Y-89700000D01*
X53771428Y-89652380D01*
X53866666Y-89652380D01*
X54009523Y-89700000D01*
X54057142Y-89747619D01*
X54438095Y-89747619D02*
X54485714Y-89700000D01*
X54580952Y-89652380D01*
X54819047Y-89652380D01*
X54914285Y-89700000D01*
X54961904Y-89747619D01*
X55009523Y-89842857D01*
X55009523Y-89938095D01*
X54961904Y-90080952D01*
X54390476Y-90652380D01*
X55009523Y-90652380D01*
X55628571Y-89652380D02*
X55723809Y-89652380D01*
X55819047Y-89700000D01*
X55866666Y-89747619D01*
X55914285Y-89842857D01*
X55961904Y-90033333D01*
X55961904Y-90271428D01*
X55914285Y-90461904D01*
X55866666Y-90557142D01*
X55819047Y-90604761D01*
X55723809Y-90652380D01*
X55628571Y-90652380D01*
X55533333Y-90604761D01*
X55485714Y-90557142D01*
X55438095Y-90461904D01*
X55390476Y-90271428D01*
X55390476Y-90033333D01*
X55438095Y-89842857D01*
X55485714Y-89747619D01*
X55533333Y-89700000D01*
X55628571Y-89652380D01*
G04 #@! TO.C,C21*
X45657142Y-90557142D02*
X45609523Y-90604761D01*
X45466666Y-90652380D01*
X45371428Y-90652380D01*
X45228571Y-90604761D01*
X45133333Y-90509523D01*
X45085714Y-90414285D01*
X45038095Y-90223809D01*
X45038095Y-90080952D01*
X45085714Y-89890476D01*
X45133333Y-89795238D01*
X45228571Y-89700000D01*
X45371428Y-89652380D01*
X45466666Y-89652380D01*
X45609523Y-89700000D01*
X45657142Y-89747619D01*
X46038095Y-89747619D02*
X46085714Y-89700000D01*
X46180952Y-89652380D01*
X46419047Y-89652380D01*
X46514285Y-89700000D01*
X46561904Y-89747619D01*
X46609523Y-89842857D01*
X46609523Y-89938095D01*
X46561904Y-90080952D01*
X45990476Y-90652380D01*
X46609523Y-90652380D01*
X47561904Y-90652380D02*
X46990476Y-90652380D01*
X47276190Y-90652380D02*
X47276190Y-89652380D01*
X47180952Y-89795238D01*
X47085714Y-89890476D01*
X46990476Y-89938095D01*
G04 #@! TO.C,C63*
X68957142Y-85757142D02*
X68909523Y-85804761D01*
X68766666Y-85852380D01*
X68671428Y-85852380D01*
X68528571Y-85804761D01*
X68433333Y-85709523D01*
X68385714Y-85614285D01*
X68338095Y-85423809D01*
X68338095Y-85280952D01*
X68385714Y-85090476D01*
X68433333Y-84995238D01*
X68528571Y-84900000D01*
X68671428Y-84852380D01*
X68766666Y-84852380D01*
X68909523Y-84900000D01*
X68957142Y-84947619D01*
X69814285Y-84852380D02*
X69623809Y-84852380D01*
X69528571Y-84900000D01*
X69480952Y-84947619D01*
X69385714Y-85090476D01*
X69338095Y-85280952D01*
X69338095Y-85661904D01*
X69385714Y-85757142D01*
X69433333Y-85804761D01*
X69528571Y-85852380D01*
X69719047Y-85852380D01*
X69814285Y-85804761D01*
X69861904Y-85757142D01*
X69909523Y-85661904D01*
X69909523Y-85423809D01*
X69861904Y-85328571D01*
X69814285Y-85280952D01*
X69719047Y-85233333D01*
X69528571Y-85233333D01*
X69433333Y-85280952D01*
X69385714Y-85328571D01*
X69338095Y-85423809D01*
X70242857Y-84852380D02*
X70861904Y-84852380D01*
X70528571Y-85233333D01*
X70671428Y-85233333D01*
X70766666Y-85280952D01*
X70814285Y-85328571D01*
X70861904Y-85423809D01*
X70861904Y-85661904D01*
X70814285Y-85757142D01*
X70766666Y-85804761D01*
X70671428Y-85852380D01*
X70385714Y-85852380D01*
X70290476Y-85804761D01*
X70242857Y-85757142D01*
G04 #@! TO.C,C64*
X68057142Y-110957142D02*
X68009523Y-111004761D01*
X67866666Y-111052380D01*
X67771428Y-111052380D01*
X67628571Y-111004761D01*
X67533333Y-110909523D01*
X67485714Y-110814285D01*
X67438095Y-110623809D01*
X67438095Y-110480952D01*
X67485714Y-110290476D01*
X67533333Y-110195238D01*
X67628571Y-110100000D01*
X67771428Y-110052380D01*
X67866666Y-110052380D01*
X68009523Y-110100000D01*
X68057142Y-110147619D01*
X68914285Y-110052380D02*
X68723809Y-110052380D01*
X68628571Y-110100000D01*
X68580952Y-110147619D01*
X68485714Y-110290476D01*
X68438095Y-110480952D01*
X68438095Y-110861904D01*
X68485714Y-110957142D01*
X68533333Y-111004761D01*
X68628571Y-111052380D01*
X68819047Y-111052380D01*
X68914285Y-111004761D01*
X68961904Y-110957142D01*
X69009523Y-110861904D01*
X69009523Y-110623809D01*
X68961904Y-110528571D01*
X68914285Y-110480952D01*
X68819047Y-110433333D01*
X68628571Y-110433333D01*
X68533333Y-110480952D01*
X68485714Y-110528571D01*
X68438095Y-110623809D01*
X69866666Y-110385714D02*
X69866666Y-111052380D01*
X69628571Y-110004761D02*
X69390476Y-110719047D01*
X70009523Y-110719047D01*
G04 #@! TO.C,C85*
X47657142Y-85157142D02*
X47609523Y-85204761D01*
X47466666Y-85252380D01*
X47371428Y-85252380D01*
X47228571Y-85204761D01*
X47133333Y-85109523D01*
X47085714Y-85014285D01*
X47038095Y-84823809D01*
X47038095Y-84680952D01*
X47085714Y-84490476D01*
X47133333Y-84395238D01*
X47228571Y-84300000D01*
X47371428Y-84252380D01*
X47466666Y-84252380D01*
X47609523Y-84300000D01*
X47657142Y-84347619D01*
X48228571Y-84680952D02*
X48133333Y-84633333D01*
X48085714Y-84585714D01*
X48038095Y-84490476D01*
X48038095Y-84442857D01*
X48085714Y-84347619D01*
X48133333Y-84300000D01*
X48228571Y-84252380D01*
X48419047Y-84252380D01*
X48514285Y-84300000D01*
X48561904Y-84347619D01*
X48609523Y-84442857D01*
X48609523Y-84490476D01*
X48561904Y-84585714D01*
X48514285Y-84633333D01*
X48419047Y-84680952D01*
X48228571Y-84680952D01*
X48133333Y-84728571D01*
X48085714Y-84776190D01*
X48038095Y-84871428D01*
X48038095Y-85061904D01*
X48085714Y-85157142D01*
X48133333Y-85204761D01*
X48228571Y-85252380D01*
X48419047Y-85252380D01*
X48514285Y-85204761D01*
X48561904Y-85157142D01*
X48609523Y-85061904D01*
X48609523Y-84871428D01*
X48561904Y-84776190D01*
X48514285Y-84728571D01*
X48419047Y-84680952D01*
X49514285Y-84252380D02*
X49038095Y-84252380D01*
X48990476Y-84728571D01*
X49038095Y-84680952D01*
X49133333Y-84633333D01*
X49371428Y-84633333D01*
X49466666Y-84680952D01*
X49514285Y-84728571D01*
X49561904Y-84823809D01*
X49561904Y-85061904D01*
X49514285Y-85157142D01*
X49466666Y-85204761D01*
X49371428Y-85252380D01*
X49133333Y-85252380D01*
X49038095Y-85204761D01*
X48990476Y-85157142D01*
G04 #@! TO.C,C93*
X96357142Y-98957142D02*
X96309523Y-99004761D01*
X96166666Y-99052380D01*
X96071428Y-99052380D01*
X95928571Y-99004761D01*
X95833333Y-98909523D01*
X95785714Y-98814285D01*
X95738095Y-98623809D01*
X95738095Y-98480952D01*
X95785714Y-98290476D01*
X95833333Y-98195238D01*
X95928571Y-98100000D01*
X96071428Y-98052380D01*
X96166666Y-98052380D01*
X96309523Y-98100000D01*
X96357142Y-98147619D01*
X96833333Y-99052380D02*
X97023809Y-99052380D01*
X97119047Y-99004761D01*
X97166666Y-98957142D01*
X97261904Y-98814285D01*
X97309523Y-98623809D01*
X97309523Y-98242857D01*
X97261904Y-98147619D01*
X97214285Y-98100000D01*
X97119047Y-98052380D01*
X96928571Y-98052380D01*
X96833333Y-98100000D01*
X96785714Y-98147619D01*
X96738095Y-98242857D01*
X96738095Y-98480952D01*
X96785714Y-98576190D01*
X96833333Y-98623809D01*
X96928571Y-98671428D01*
X97119047Y-98671428D01*
X97214285Y-98623809D01*
X97261904Y-98576190D01*
X97309523Y-98480952D01*
X97642857Y-98052380D02*
X98261904Y-98052380D01*
X97928571Y-98433333D01*
X98071428Y-98433333D01*
X98166666Y-98480952D01*
X98214285Y-98528571D01*
X98261904Y-98623809D01*
X98261904Y-98861904D01*
X98214285Y-98957142D01*
X98166666Y-99004761D01*
X98071428Y-99052380D01*
X97785714Y-99052380D01*
X97690476Y-99004761D01*
X97642857Y-98957142D01*
G04 #@! TO.C,C97*
X117057142Y-69042857D02*
X117104761Y-69090476D01*
X117152380Y-69233333D01*
X117152380Y-69328571D01*
X117104761Y-69471428D01*
X117009523Y-69566666D01*
X116914285Y-69614285D01*
X116723809Y-69661904D01*
X116580952Y-69661904D01*
X116390476Y-69614285D01*
X116295238Y-69566666D01*
X116200000Y-69471428D01*
X116152380Y-69328571D01*
X116152380Y-69233333D01*
X116200000Y-69090476D01*
X116247619Y-69042857D01*
X117152380Y-68566666D02*
X117152380Y-68376190D01*
X117104761Y-68280952D01*
X117057142Y-68233333D01*
X116914285Y-68138095D01*
X116723809Y-68090476D01*
X116342857Y-68090476D01*
X116247619Y-68138095D01*
X116200000Y-68185714D01*
X116152380Y-68280952D01*
X116152380Y-68471428D01*
X116200000Y-68566666D01*
X116247619Y-68614285D01*
X116342857Y-68661904D01*
X116580952Y-68661904D01*
X116676190Y-68614285D01*
X116723809Y-68566666D01*
X116771428Y-68471428D01*
X116771428Y-68280952D01*
X116723809Y-68185714D01*
X116676190Y-68138095D01*
X116580952Y-68090476D01*
X116152380Y-67757142D02*
X116152380Y-67090476D01*
X117152380Y-67519047D01*
G04 #@! TO.C,C98*
X105957142Y-110242857D02*
X106004761Y-110290476D01*
X106052380Y-110433333D01*
X106052380Y-110528571D01*
X106004761Y-110671428D01*
X105909523Y-110766666D01*
X105814285Y-110814285D01*
X105623809Y-110861904D01*
X105480952Y-110861904D01*
X105290476Y-110814285D01*
X105195238Y-110766666D01*
X105100000Y-110671428D01*
X105052380Y-110528571D01*
X105052380Y-110433333D01*
X105100000Y-110290476D01*
X105147619Y-110242857D01*
X106052380Y-109766666D02*
X106052380Y-109576190D01*
X106004761Y-109480952D01*
X105957142Y-109433333D01*
X105814285Y-109338095D01*
X105623809Y-109290476D01*
X105242857Y-109290476D01*
X105147619Y-109338095D01*
X105100000Y-109385714D01*
X105052380Y-109480952D01*
X105052380Y-109671428D01*
X105100000Y-109766666D01*
X105147619Y-109814285D01*
X105242857Y-109861904D01*
X105480952Y-109861904D01*
X105576190Y-109814285D01*
X105623809Y-109766666D01*
X105671428Y-109671428D01*
X105671428Y-109480952D01*
X105623809Y-109385714D01*
X105576190Y-109338095D01*
X105480952Y-109290476D01*
X105480952Y-108719047D02*
X105433333Y-108814285D01*
X105385714Y-108861904D01*
X105290476Y-108909523D01*
X105242857Y-108909523D01*
X105147619Y-108861904D01*
X105100000Y-108814285D01*
X105052380Y-108719047D01*
X105052380Y-108528571D01*
X105100000Y-108433333D01*
X105147619Y-108385714D01*
X105242857Y-108338095D01*
X105290476Y-108338095D01*
X105385714Y-108385714D01*
X105433333Y-108433333D01*
X105480952Y-108528571D01*
X105480952Y-108719047D01*
X105528571Y-108814285D01*
X105576190Y-108861904D01*
X105671428Y-108909523D01*
X105861904Y-108909523D01*
X105957142Y-108861904D01*
X106004761Y-108814285D01*
X106052380Y-108719047D01*
X106052380Y-108528571D01*
X106004761Y-108433333D01*
X105957142Y-108385714D01*
X105861904Y-108338095D01*
X105671428Y-108338095D01*
X105576190Y-108385714D01*
X105528571Y-108433333D01*
X105480952Y-108528571D01*
G04 #@! TO.C,C99*
X104757142Y-110242857D02*
X104804761Y-110290476D01*
X104852380Y-110433333D01*
X104852380Y-110528571D01*
X104804761Y-110671428D01*
X104709523Y-110766666D01*
X104614285Y-110814285D01*
X104423809Y-110861904D01*
X104280952Y-110861904D01*
X104090476Y-110814285D01*
X103995238Y-110766666D01*
X103900000Y-110671428D01*
X103852380Y-110528571D01*
X103852380Y-110433333D01*
X103900000Y-110290476D01*
X103947619Y-110242857D01*
X104852380Y-109766666D02*
X104852380Y-109576190D01*
X104804761Y-109480952D01*
X104757142Y-109433333D01*
X104614285Y-109338095D01*
X104423809Y-109290476D01*
X104042857Y-109290476D01*
X103947619Y-109338095D01*
X103900000Y-109385714D01*
X103852380Y-109480952D01*
X103852380Y-109671428D01*
X103900000Y-109766666D01*
X103947619Y-109814285D01*
X104042857Y-109861904D01*
X104280952Y-109861904D01*
X104376190Y-109814285D01*
X104423809Y-109766666D01*
X104471428Y-109671428D01*
X104471428Y-109480952D01*
X104423809Y-109385714D01*
X104376190Y-109338095D01*
X104280952Y-109290476D01*
X104852380Y-108814285D02*
X104852380Y-108623809D01*
X104804761Y-108528571D01*
X104757142Y-108480952D01*
X104614285Y-108385714D01*
X104423809Y-108338095D01*
X104042857Y-108338095D01*
X103947619Y-108385714D01*
X103900000Y-108433333D01*
X103852380Y-108528571D01*
X103852380Y-108719047D01*
X103900000Y-108814285D01*
X103947619Y-108861904D01*
X104042857Y-108909523D01*
X104280952Y-108909523D01*
X104376190Y-108861904D01*
X104423809Y-108814285D01*
X104471428Y-108719047D01*
X104471428Y-108528571D01*
X104423809Y-108433333D01*
X104376190Y-108385714D01*
X104280952Y-108338095D01*
G04 #@! TO.C,C100*
X95580952Y-97757142D02*
X95533333Y-97804761D01*
X95390476Y-97852380D01*
X95295238Y-97852380D01*
X95152380Y-97804761D01*
X95057142Y-97709523D01*
X95009523Y-97614285D01*
X94961904Y-97423809D01*
X94961904Y-97280952D01*
X95009523Y-97090476D01*
X95057142Y-96995238D01*
X95152380Y-96900000D01*
X95295238Y-96852380D01*
X95390476Y-96852380D01*
X95533333Y-96900000D01*
X95580952Y-96947619D01*
X96533333Y-97852380D02*
X95961904Y-97852380D01*
X96247619Y-97852380D02*
X96247619Y-96852380D01*
X96152380Y-96995238D01*
X96057142Y-97090476D01*
X95961904Y-97138095D01*
X97152380Y-96852380D02*
X97247619Y-96852380D01*
X97342857Y-96900000D01*
X97390476Y-96947619D01*
X97438095Y-97042857D01*
X97485714Y-97233333D01*
X97485714Y-97471428D01*
X97438095Y-97661904D01*
X97390476Y-97757142D01*
X97342857Y-97804761D01*
X97247619Y-97852380D01*
X97152380Y-97852380D01*
X97057142Y-97804761D01*
X97009523Y-97757142D01*
X96961904Y-97661904D01*
X96914285Y-97471428D01*
X96914285Y-97233333D01*
X96961904Y-97042857D01*
X97009523Y-96947619D01*
X97057142Y-96900000D01*
X97152380Y-96852380D01*
X98104761Y-96852380D02*
X98200000Y-96852380D01*
X98295238Y-96900000D01*
X98342857Y-96947619D01*
X98390476Y-97042857D01*
X98438095Y-97233333D01*
X98438095Y-97471428D01*
X98390476Y-97661904D01*
X98342857Y-97757142D01*
X98295238Y-97804761D01*
X98200000Y-97852380D01*
X98104761Y-97852380D01*
X98009523Y-97804761D01*
X97961904Y-97757142D01*
X97914285Y-97661904D01*
X97866666Y-97471428D01*
X97866666Y-97233333D01*
X97914285Y-97042857D01*
X97961904Y-96947619D01*
X98009523Y-96900000D01*
X98104761Y-96852380D01*
G04 #@! TO.C,C103*
X100357142Y-110919047D02*
X100404761Y-110966666D01*
X100452380Y-111109523D01*
X100452380Y-111204761D01*
X100404761Y-111347619D01*
X100309523Y-111442857D01*
X100214285Y-111490476D01*
X100023809Y-111538095D01*
X99880952Y-111538095D01*
X99690476Y-111490476D01*
X99595238Y-111442857D01*
X99500000Y-111347619D01*
X99452380Y-111204761D01*
X99452380Y-111109523D01*
X99500000Y-110966666D01*
X99547619Y-110919047D01*
X100452380Y-109966666D02*
X100452380Y-110538095D01*
X100452380Y-110252380D02*
X99452380Y-110252380D01*
X99595238Y-110347619D01*
X99690476Y-110442857D01*
X99738095Y-110538095D01*
X99452380Y-109347619D02*
X99452380Y-109252380D01*
X99500000Y-109157142D01*
X99547619Y-109109523D01*
X99642857Y-109061904D01*
X99833333Y-109014285D01*
X100071428Y-109014285D01*
X100261904Y-109061904D01*
X100357142Y-109109523D01*
X100404761Y-109157142D01*
X100452380Y-109252380D01*
X100452380Y-109347619D01*
X100404761Y-109442857D01*
X100357142Y-109490476D01*
X100261904Y-109538095D01*
X100071428Y-109585714D01*
X99833333Y-109585714D01*
X99642857Y-109538095D01*
X99547619Y-109490476D01*
X99500000Y-109442857D01*
X99452380Y-109347619D01*
X99452380Y-108680952D02*
X99452380Y-108061904D01*
X99833333Y-108395238D01*
X99833333Y-108252380D01*
X99880952Y-108157142D01*
X99928571Y-108109523D01*
X100023809Y-108061904D01*
X100261904Y-108061904D01*
X100357142Y-108109523D01*
X100404761Y-108157142D01*
X100452380Y-108252380D01*
X100452380Y-108538095D01*
X100404761Y-108633333D01*
X100357142Y-108680952D01*
G04 #@! TO.C,C104*
X111457142Y-85619047D02*
X111504761Y-85666666D01*
X111552380Y-85809523D01*
X111552380Y-85904761D01*
X111504761Y-86047619D01*
X111409523Y-86142857D01*
X111314285Y-86190476D01*
X111123809Y-86238095D01*
X110980952Y-86238095D01*
X110790476Y-86190476D01*
X110695238Y-86142857D01*
X110600000Y-86047619D01*
X110552380Y-85904761D01*
X110552380Y-85809523D01*
X110600000Y-85666666D01*
X110647619Y-85619047D01*
X111552380Y-84666666D02*
X111552380Y-85238095D01*
X111552380Y-84952380D02*
X110552380Y-84952380D01*
X110695238Y-85047619D01*
X110790476Y-85142857D01*
X110838095Y-85238095D01*
X110552380Y-84047619D02*
X110552380Y-83952380D01*
X110600000Y-83857142D01*
X110647619Y-83809523D01*
X110742857Y-83761904D01*
X110933333Y-83714285D01*
X111171428Y-83714285D01*
X111361904Y-83761904D01*
X111457142Y-83809523D01*
X111504761Y-83857142D01*
X111552380Y-83952380D01*
X111552380Y-84047619D01*
X111504761Y-84142857D01*
X111457142Y-84190476D01*
X111361904Y-84238095D01*
X111171428Y-84285714D01*
X110933333Y-84285714D01*
X110742857Y-84238095D01*
X110647619Y-84190476D01*
X110600000Y-84142857D01*
X110552380Y-84047619D01*
X110885714Y-82857142D02*
X111552380Y-82857142D01*
X110504761Y-83095238D02*
X111219047Y-83333333D01*
X111219047Y-82714285D01*
G04 #@! TO.C,C107*
X108857142Y-111219047D02*
X108904761Y-111266666D01*
X108952380Y-111409523D01*
X108952380Y-111504761D01*
X108904761Y-111647619D01*
X108809523Y-111742857D01*
X108714285Y-111790476D01*
X108523809Y-111838095D01*
X108380952Y-111838095D01*
X108190476Y-111790476D01*
X108095238Y-111742857D01*
X108000000Y-111647619D01*
X107952380Y-111504761D01*
X107952380Y-111409523D01*
X108000000Y-111266666D01*
X108047619Y-111219047D01*
X108952380Y-110266666D02*
X108952380Y-110838095D01*
X108952380Y-110552380D02*
X107952380Y-110552380D01*
X108095238Y-110647619D01*
X108190476Y-110742857D01*
X108238095Y-110838095D01*
X107952380Y-109647619D02*
X107952380Y-109552380D01*
X108000000Y-109457142D01*
X108047619Y-109409523D01*
X108142857Y-109361904D01*
X108333333Y-109314285D01*
X108571428Y-109314285D01*
X108761904Y-109361904D01*
X108857142Y-109409523D01*
X108904761Y-109457142D01*
X108952380Y-109552380D01*
X108952380Y-109647619D01*
X108904761Y-109742857D01*
X108857142Y-109790476D01*
X108761904Y-109838095D01*
X108571428Y-109885714D01*
X108333333Y-109885714D01*
X108142857Y-109838095D01*
X108047619Y-109790476D01*
X108000000Y-109742857D01*
X107952380Y-109647619D01*
X107952380Y-108980952D02*
X107952380Y-108314285D01*
X108952380Y-108742857D01*
G04 #@! TO.C,C113*
X112680952Y-98457142D02*
X112633333Y-98504761D01*
X112490476Y-98552380D01*
X112395238Y-98552380D01*
X112252380Y-98504761D01*
X112157142Y-98409523D01*
X112109523Y-98314285D01*
X112061904Y-98123809D01*
X112061904Y-97980952D01*
X112109523Y-97790476D01*
X112157142Y-97695238D01*
X112252380Y-97600000D01*
X112395238Y-97552380D01*
X112490476Y-97552380D01*
X112633333Y-97600000D01*
X112680952Y-97647619D01*
X113633333Y-98552380D02*
X113061904Y-98552380D01*
X113347619Y-98552380D02*
X113347619Y-97552380D01*
X113252380Y-97695238D01*
X113157142Y-97790476D01*
X113061904Y-97838095D01*
X114585714Y-98552380D02*
X114014285Y-98552380D01*
X114300000Y-98552380D02*
X114300000Y-97552380D01*
X114204761Y-97695238D01*
X114109523Y-97790476D01*
X114014285Y-97838095D01*
X114919047Y-97552380D02*
X115538095Y-97552380D01*
X115204761Y-97933333D01*
X115347619Y-97933333D01*
X115442857Y-97980952D01*
X115490476Y-98028571D01*
X115538095Y-98123809D01*
X115538095Y-98361904D01*
X115490476Y-98457142D01*
X115442857Y-98504761D01*
X115347619Y-98552380D01*
X115061904Y-98552380D01*
X114966666Y-98504761D01*
X114919047Y-98457142D01*
G04 #@! TO.C,C121*
X112080952Y-71257142D02*
X112033333Y-71304761D01*
X111890476Y-71352380D01*
X111795238Y-71352380D01*
X111652380Y-71304761D01*
X111557142Y-71209523D01*
X111509523Y-71114285D01*
X111461904Y-70923809D01*
X111461904Y-70780952D01*
X111509523Y-70590476D01*
X111557142Y-70495238D01*
X111652380Y-70400000D01*
X111795238Y-70352380D01*
X111890476Y-70352380D01*
X112033333Y-70400000D01*
X112080952Y-70447619D01*
X113033333Y-71352380D02*
X112461904Y-71352380D01*
X112747619Y-71352380D02*
X112747619Y-70352380D01*
X112652380Y-70495238D01*
X112557142Y-70590476D01*
X112461904Y-70638095D01*
X113414285Y-70447619D02*
X113461904Y-70400000D01*
X113557142Y-70352380D01*
X113795238Y-70352380D01*
X113890476Y-70400000D01*
X113938095Y-70447619D01*
X113985714Y-70542857D01*
X113985714Y-70638095D01*
X113938095Y-70780952D01*
X113366666Y-71352380D01*
X113985714Y-71352380D01*
X114938095Y-71352380D02*
X114366666Y-71352380D01*
X114652380Y-71352380D02*
X114652380Y-70352380D01*
X114557142Y-70495238D01*
X114461904Y-70590476D01*
X114366666Y-70638095D01*
G04 #@! TO.C,C135*
X79257142Y-75719047D02*
X79304761Y-75766666D01*
X79352380Y-75909523D01*
X79352380Y-76004761D01*
X79304761Y-76147619D01*
X79209523Y-76242857D01*
X79114285Y-76290476D01*
X78923809Y-76338095D01*
X78780952Y-76338095D01*
X78590476Y-76290476D01*
X78495238Y-76242857D01*
X78400000Y-76147619D01*
X78352380Y-76004761D01*
X78352380Y-75909523D01*
X78400000Y-75766666D01*
X78447619Y-75719047D01*
X79352380Y-74766666D02*
X79352380Y-75338095D01*
X79352380Y-75052380D02*
X78352380Y-75052380D01*
X78495238Y-75147619D01*
X78590476Y-75242857D01*
X78638095Y-75338095D01*
X78352380Y-74433333D02*
X78352380Y-73814285D01*
X78733333Y-74147619D01*
X78733333Y-74004761D01*
X78780952Y-73909523D01*
X78828571Y-73861904D01*
X78923809Y-73814285D01*
X79161904Y-73814285D01*
X79257142Y-73861904D01*
X79304761Y-73909523D01*
X79352380Y-74004761D01*
X79352380Y-74290476D01*
X79304761Y-74385714D01*
X79257142Y-74433333D01*
X78352380Y-72909523D02*
X78352380Y-73385714D01*
X78828571Y-73433333D01*
X78780952Y-73385714D01*
X78733333Y-73290476D01*
X78733333Y-73052380D01*
X78780952Y-72957142D01*
X78828571Y-72909523D01*
X78923809Y-72861904D01*
X79161904Y-72861904D01*
X79257142Y-72909523D01*
X79304761Y-72957142D01*
X79352380Y-73052380D01*
X79352380Y-73290476D01*
X79304761Y-73385714D01*
X79257142Y-73433333D01*
G04 #@! TO.C,C139*
X68880952Y-72757142D02*
X68833333Y-72804761D01*
X68690476Y-72852380D01*
X68595238Y-72852380D01*
X68452380Y-72804761D01*
X68357142Y-72709523D01*
X68309523Y-72614285D01*
X68261904Y-72423809D01*
X68261904Y-72280952D01*
X68309523Y-72090476D01*
X68357142Y-71995238D01*
X68452380Y-71900000D01*
X68595238Y-71852380D01*
X68690476Y-71852380D01*
X68833333Y-71900000D01*
X68880952Y-71947619D01*
X69833333Y-72852380D02*
X69261904Y-72852380D01*
X69547619Y-72852380D02*
X69547619Y-71852380D01*
X69452380Y-71995238D01*
X69357142Y-72090476D01*
X69261904Y-72138095D01*
X70166666Y-71852380D02*
X70785714Y-71852380D01*
X70452380Y-72233333D01*
X70595238Y-72233333D01*
X70690476Y-72280952D01*
X70738095Y-72328571D01*
X70785714Y-72423809D01*
X70785714Y-72661904D01*
X70738095Y-72757142D01*
X70690476Y-72804761D01*
X70595238Y-72852380D01*
X70309523Y-72852380D01*
X70214285Y-72804761D01*
X70166666Y-72757142D01*
X71261904Y-72852380D02*
X71452380Y-72852380D01*
X71547619Y-72804761D01*
X71595238Y-72757142D01*
X71690476Y-72614285D01*
X71738095Y-72423809D01*
X71738095Y-72042857D01*
X71690476Y-71947619D01*
X71642857Y-71900000D01*
X71547619Y-71852380D01*
X71357142Y-71852380D01*
X71261904Y-71900000D01*
X71214285Y-71947619D01*
X71166666Y-72042857D01*
X71166666Y-72280952D01*
X71214285Y-72376190D01*
X71261904Y-72423809D01*
X71357142Y-72471428D01*
X71547619Y-72471428D01*
X71642857Y-72423809D01*
X71690476Y-72376190D01*
X71738095Y-72280952D01*
G04 #@! TO.C,C140*
X69057142Y-76319047D02*
X69104761Y-76366666D01*
X69152380Y-76509523D01*
X69152380Y-76604761D01*
X69104761Y-76747619D01*
X69009523Y-76842857D01*
X68914285Y-76890476D01*
X68723809Y-76938095D01*
X68580952Y-76938095D01*
X68390476Y-76890476D01*
X68295238Y-76842857D01*
X68200000Y-76747619D01*
X68152380Y-76604761D01*
X68152380Y-76509523D01*
X68200000Y-76366666D01*
X68247619Y-76319047D01*
X69152380Y-75366666D02*
X69152380Y-75938095D01*
X69152380Y-75652380D02*
X68152380Y-75652380D01*
X68295238Y-75747619D01*
X68390476Y-75842857D01*
X68438095Y-75938095D01*
X68485714Y-74509523D02*
X69152380Y-74509523D01*
X68104761Y-74747619D02*
X68819047Y-74985714D01*
X68819047Y-74366666D01*
X68152380Y-73795238D02*
X68152380Y-73700000D01*
X68200000Y-73604761D01*
X68247619Y-73557142D01*
X68342857Y-73509523D01*
X68533333Y-73461904D01*
X68771428Y-73461904D01*
X68961904Y-73509523D01*
X69057142Y-73557142D01*
X69104761Y-73604761D01*
X69152380Y-73700000D01*
X69152380Y-73795238D01*
X69104761Y-73890476D01*
X69057142Y-73938095D01*
X68961904Y-73985714D01*
X68771428Y-74033333D01*
X68533333Y-74033333D01*
X68342857Y-73985714D01*
X68247619Y-73938095D01*
X68200000Y-73890476D01*
X68152380Y-73795238D01*
G04 #@! TO.C,C143*
X61580952Y-72657142D02*
X61533333Y-72704761D01*
X61390476Y-72752380D01*
X61295238Y-72752380D01*
X61152380Y-72704761D01*
X61057142Y-72609523D01*
X61009523Y-72514285D01*
X60961904Y-72323809D01*
X60961904Y-72180952D01*
X61009523Y-71990476D01*
X61057142Y-71895238D01*
X61152380Y-71800000D01*
X61295238Y-71752380D01*
X61390476Y-71752380D01*
X61533333Y-71800000D01*
X61580952Y-71847619D01*
X62533333Y-72752380D02*
X61961904Y-72752380D01*
X62247619Y-72752380D02*
X62247619Y-71752380D01*
X62152380Y-71895238D01*
X62057142Y-71990476D01*
X61961904Y-72038095D01*
X63390476Y-72085714D02*
X63390476Y-72752380D01*
X63152380Y-71704761D02*
X62914285Y-72419047D01*
X63533333Y-72419047D01*
X63819047Y-71752380D02*
X64438095Y-71752380D01*
X64104761Y-72133333D01*
X64247619Y-72133333D01*
X64342857Y-72180952D01*
X64390476Y-72228571D01*
X64438095Y-72323809D01*
X64438095Y-72561904D01*
X64390476Y-72657142D01*
X64342857Y-72704761D01*
X64247619Y-72752380D01*
X63961904Y-72752380D01*
X63866666Y-72704761D01*
X63819047Y-72657142D01*
G04 #@! TO.C,C144*
X55280952Y-72657142D02*
X55233333Y-72704761D01*
X55090476Y-72752380D01*
X54995238Y-72752380D01*
X54852380Y-72704761D01*
X54757142Y-72609523D01*
X54709523Y-72514285D01*
X54661904Y-72323809D01*
X54661904Y-72180952D01*
X54709523Y-71990476D01*
X54757142Y-71895238D01*
X54852380Y-71800000D01*
X54995238Y-71752380D01*
X55090476Y-71752380D01*
X55233333Y-71800000D01*
X55280952Y-71847619D01*
X56233333Y-72752380D02*
X55661904Y-72752380D01*
X55947619Y-72752380D02*
X55947619Y-71752380D01*
X55852380Y-71895238D01*
X55757142Y-71990476D01*
X55661904Y-72038095D01*
X57090476Y-72085714D02*
X57090476Y-72752380D01*
X56852380Y-71704761D02*
X56614285Y-72419047D01*
X57233333Y-72419047D01*
X58042857Y-72085714D02*
X58042857Y-72752380D01*
X57804761Y-71704761D02*
X57566666Y-72419047D01*
X58185714Y-72419047D01*
G04 #@! TO.C,C145*
X96280952Y-119457142D02*
X96233333Y-119504761D01*
X96090476Y-119552380D01*
X95995238Y-119552380D01*
X95852380Y-119504761D01*
X95757142Y-119409523D01*
X95709523Y-119314285D01*
X95661904Y-119123809D01*
X95661904Y-118980952D01*
X95709523Y-118790476D01*
X95757142Y-118695238D01*
X95852380Y-118600000D01*
X95995238Y-118552380D01*
X96090476Y-118552380D01*
X96233333Y-118600000D01*
X96280952Y-118647619D01*
X97233333Y-119552380D02*
X96661904Y-119552380D01*
X96947619Y-119552380D02*
X96947619Y-118552380D01*
X96852380Y-118695238D01*
X96757142Y-118790476D01*
X96661904Y-118838095D01*
X98090476Y-118885714D02*
X98090476Y-119552380D01*
X97852380Y-118504761D02*
X97614285Y-119219047D01*
X98233333Y-119219047D01*
X99090476Y-118552380D02*
X98614285Y-118552380D01*
X98566666Y-119028571D01*
X98614285Y-118980952D01*
X98709523Y-118933333D01*
X98947619Y-118933333D01*
X99042857Y-118980952D01*
X99090476Y-119028571D01*
X99138095Y-119123809D01*
X99138095Y-119361904D01*
X99090476Y-119457142D01*
X99042857Y-119504761D01*
X98947619Y-119552380D01*
X98709523Y-119552380D01*
X98614285Y-119504761D01*
X98566666Y-119457142D01*
G04 #@! TO.C,C146*
X86280952Y-119757142D02*
X86233333Y-119804761D01*
X86090476Y-119852380D01*
X85995238Y-119852380D01*
X85852380Y-119804761D01*
X85757142Y-119709523D01*
X85709523Y-119614285D01*
X85661904Y-119423809D01*
X85661904Y-119280952D01*
X85709523Y-119090476D01*
X85757142Y-118995238D01*
X85852380Y-118900000D01*
X85995238Y-118852380D01*
X86090476Y-118852380D01*
X86233333Y-118900000D01*
X86280952Y-118947619D01*
X87233333Y-119852380D02*
X86661904Y-119852380D01*
X86947619Y-119852380D02*
X86947619Y-118852380D01*
X86852380Y-118995238D01*
X86757142Y-119090476D01*
X86661904Y-119138095D01*
X88090476Y-119185714D02*
X88090476Y-119852380D01*
X87852380Y-118804761D02*
X87614285Y-119519047D01*
X88233333Y-119519047D01*
X89042857Y-118852380D02*
X88852380Y-118852380D01*
X88757142Y-118900000D01*
X88709523Y-118947619D01*
X88614285Y-119090476D01*
X88566666Y-119280952D01*
X88566666Y-119661904D01*
X88614285Y-119757142D01*
X88661904Y-119804761D01*
X88757142Y-119852380D01*
X88947619Y-119852380D01*
X89042857Y-119804761D01*
X89090476Y-119757142D01*
X89138095Y-119661904D01*
X89138095Y-119423809D01*
X89090476Y-119328571D01*
X89042857Y-119280952D01*
X88947619Y-119233333D01*
X88757142Y-119233333D01*
X88661904Y-119280952D01*
X88614285Y-119328571D01*
X88566666Y-119423809D01*
G04 #@! TO.C,C147*
X76180952Y-119757142D02*
X76133333Y-119804761D01*
X75990476Y-119852380D01*
X75895238Y-119852380D01*
X75752380Y-119804761D01*
X75657142Y-119709523D01*
X75609523Y-119614285D01*
X75561904Y-119423809D01*
X75561904Y-119280952D01*
X75609523Y-119090476D01*
X75657142Y-118995238D01*
X75752380Y-118900000D01*
X75895238Y-118852380D01*
X75990476Y-118852380D01*
X76133333Y-118900000D01*
X76180952Y-118947619D01*
X77133333Y-119852380D02*
X76561904Y-119852380D01*
X76847619Y-119852380D02*
X76847619Y-118852380D01*
X76752380Y-118995238D01*
X76657142Y-119090476D01*
X76561904Y-119138095D01*
X77990476Y-119185714D02*
X77990476Y-119852380D01*
X77752380Y-118804761D02*
X77514285Y-119519047D01*
X78133333Y-119519047D01*
X78419047Y-118852380D02*
X79085714Y-118852380D01*
X78657142Y-119852380D01*
G04 #@! TO.C,C148*
X64680952Y-119757142D02*
X64633333Y-119804761D01*
X64490476Y-119852380D01*
X64395238Y-119852380D01*
X64252380Y-119804761D01*
X64157142Y-119709523D01*
X64109523Y-119614285D01*
X64061904Y-119423809D01*
X64061904Y-119280952D01*
X64109523Y-119090476D01*
X64157142Y-118995238D01*
X64252380Y-118900000D01*
X64395238Y-118852380D01*
X64490476Y-118852380D01*
X64633333Y-118900000D01*
X64680952Y-118947619D01*
X65633333Y-119852380D02*
X65061904Y-119852380D01*
X65347619Y-119852380D02*
X65347619Y-118852380D01*
X65252380Y-118995238D01*
X65157142Y-119090476D01*
X65061904Y-119138095D01*
X66490476Y-119185714D02*
X66490476Y-119852380D01*
X66252380Y-118804761D02*
X66014285Y-119519047D01*
X66633333Y-119519047D01*
X67157142Y-119280952D02*
X67061904Y-119233333D01*
X67014285Y-119185714D01*
X66966666Y-119090476D01*
X66966666Y-119042857D01*
X67014285Y-118947619D01*
X67061904Y-118900000D01*
X67157142Y-118852380D01*
X67347619Y-118852380D01*
X67442857Y-118900000D01*
X67490476Y-118947619D01*
X67538095Y-119042857D01*
X67538095Y-119090476D01*
X67490476Y-119185714D01*
X67442857Y-119233333D01*
X67347619Y-119280952D01*
X67157142Y-119280952D01*
X67061904Y-119328571D01*
X67014285Y-119376190D01*
X66966666Y-119471428D01*
X66966666Y-119661904D01*
X67014285Y-119757142D01*
X67061904Y-119804761D01*
X67157142Y-119852380D01*
X67347619Y-119852380D01*
X67442857Y-119804761D01*
X67490476Y-119757142D01*
X67538095Y-119661904D01*
X67538095Y-119471428D01*
X67490476Y-119376190D01*
X67442857Y-119328571D01*
X67347619Y-119280952D01*
G04 #@! TO.C,C149*
X53180952Y-119757142D02*
X53133333Y-119804761D01*
X52990476Y-119852380D01*
X52895238Y-119852380D01*
X52752380Y-119804761D01*
X52657142Y-119709523D01*
X52609523Y-119614285D01*
X52561904Y-119423809D01*
X52561904Y-119280952D01*
X52609523Y-119090476D01*
X52657142Y-118995238D01*
X52752380Y-118900000D01*
X52895238Y-118852380D01*
X52990476Y-118852380D01*
X53133333Y-118900000D01*
X53180952Y-118947619D01*
X54133333Y-119852380D02*
X53561904Y-119852380D01*
X53847619Y-119852380D02*
X53847619Y-118852380D01*
X53752380Y-118995238D01*
X53657142Y-119090476D01*
X53561904Y-119138095D01*
X54990476Y-119185714D02*
X54990476Y-119852380D01*
X54752380Y-118804761D02*
X54514285Y-119519047D01*
X55133333Y-119519047D01*
X55561904Y-119852380D02*
X55752380Y-119852380D01*
X55847619Y-119804761D01*
X55895238Y-119757142D01*
X55990476Y-119614285D01*
X56038095Y-119423809D01*
X56038095Y-119042857D01*
X55990476Y-118947619D01*
X55942857Y-118900000D01*
X55847619Y-118852380D01*
X55657142Y-118852380D01*
X55561904Y-118900000D01*
X55514285Y-118947619D01*
X55466666Y-119042857D01*
X55466666Y-119280952D01*
X55514285Y-119376190D01*
X55561904Y-119423809D01*
X55657142Y-119471428D01*
X55847619Y-119471428D01*
X55942857Y-119423809D01*
X55990476Y-119376190D01*
X56038095Y-119280952D01*
G04 #@! TO.C,C150*
X49080952Y-108757142D02*
X49033333Y-108804761D01*
X48890476Y-108852380D01*
X48795238Y-108852380D01*
X48652380Y-108804761D01*
X48557142Y-108709523D01*
X48509523Y-108614285D01*
X48461904Y-108423809D01*
X48461904Y-108280952D01*
X48509523Y-108090476D01*
X48557142Y-107995238D01*
X48652380Y-107900000D01*
X48795238Y-107852380D01*
X48890476Y-107852380D01*
X49033333Y-107900000D01*
X49080952Y-107947619D01*
X50033333Y-108852380D02*
X49461904Y-108852380D01*
X49747619Y-108852380D02*
X49747619Y-107852380D01*
X49652380Y-107995238D01*
X49557142Y-108090476D01*
X49461904Y-108138095D01*
X50938095Y-107852380D02*
X50461904Y-107852380D01*
X50414285Y-108328571D01*
X50461904Y-108280952D01*
X50557142Y-108233333D01*
X50795238Y-108233333D01*
X50890476Y-108280952D01*
X50938095Y-108328571D01*
X50985714Y-108423809D01*
X50985714Y-108661904D01*
X50938095Y-108757142D01*
X50890476Y-108804761D01*
X50795238Y-108852380D01*
X50557142Y-108852380D01*
X50461904Y-108804761D01*
X50414285Y-108757142D01*
X51604761Y-107852380D02*
X51700000Y-107852380D01*
X51795238Y-107900000D01*
X51842857Y-107947619D01*
X51890476Y-108042857D01*
X51938095Y-108233333D01*
X51938095Y-108471428D01*
X51890476Y-108661904D01*
X51842857Y-108757142D01*
X51795238Y-108804761D01*
X51700000Y-108852380D01*
X51604761Y-108852380D01*
X51509523Y-108804761D01*
X51461904Y-108757142D01*
X51414285Y-108661904D01*
X51366666Y-108471428D01*
X51366666Y-108233333D01*
X51414285Y-108042857D01*
X51461904Y-107947619D01*
X51509523Y-107900000D01*
X51604761Y-107852380D01*
G04 #@! TO.C,U2*
X57938095Y-90952380D02*
X57938095Y-91761904D01*
X57985714Y-91857142D01*
X58033333Y-91904761D01*
X58128571Y-91952380D01*
X58319047Y-91952380D01*
X58414285Y-91904761D01*
X58461904Y-91857142D01*
X58509523Y-91761904D01*
X58509523Y-90952380D01*
X58938095Y-91047619D02*
X58985714Y-91000000D01*
X59080952Y-90952380D01*
X59319047Y-90952380D01*
X59414285Y-91000000D01*
X59461904Y-91047619D01*
X59509523Y-91142857D01*
X59509523Y-91238095D01*
X59461904Y-91380952D01*
X58890476Y-91952380D01*
X59509523Y-91952380D01*
G04 #@! TO.C,U1*
X63638095Y-87252380D02*
X63638095Y-88061904D01*
X63685714Y-88157142D01*
X63733333Y-88204761D01*
X63828571Y-88252380D01*
X64019047Y-88252380D01*
X64114285Y-88204761D01*
X64161904Y-88157142D01*
X64209523Y-88061904D01*
X64209523Y-87252380D01*
X65209523Y-88252380D02*
X64638095Y-88252380D01*
X64923809Y-88252380D02*
X64923809Y-87252380D01*
X64828571Y-87395238D01*
X64733333Y-87490476D01*
X64638095Y-87538095D01*
G04 #@! TO.C,U8*
X109838095Y-68652380D02*
X109838095Y-69461904D01*
X109885714Y-69557142D01*
X109933333Y-69604761D01*
X110028571Y-69652380D01*
X110219047Y-69652380D01*
X110314285Y-69604761D01*
X110361904Y-69557142D01*
X110409523Y-69461904D01*
X110409523Y-68652380D01*
X111028571Y-69080952D02*
X110933333Y-69033333D01*
X110885714Y-68985714D01*
X110838095Y-68890476D01*
X110838095Y-68842857D01*
X110885714Y-68747619D01*
X110933333Y-68700000D01*
X111028571Y-68652380D01*
X111219047Y-68652380D01*
X111314285Y-68700000D01*
X111361904Y-68747619D01*
X111409523Y-68842857D01*
X111409523Y-68890476D01*
X111361904Y-68985714D01*
X111314285Y-69033333D01*
X111219047Y-69080952D01*
X111028571Y-69080952D01*
X110933333Y-69128571D01*
X110885714Y-69176190D01*
X110838095Y-69271428D01*
X110838095Y-69461904D01*
X110885714Y-69557142D01*
X110933333Y-69604761D01*
X111028571Y-69652380D01*
X111219047Y-69652380D01*
X111314285Y-69604761D01*
X111361904Y-69557142D01*
X111409523Y-69461904D01*
X111409523Y-69271428D01*
X111361904Y-69176190D01*
X111314285Y-69128571D01*
X111219047Y-69080952D01*
G04 #@! TO.C,C22*
X56157142Y-107257142D02*
X56109523Y-107304761D01*
X55966666Y-107352380D01*
X55871428Y-107352380D01*
X55728571Y-107304761D01*
X55633333Y-107209523D01*
X55585714Y-107114285D01*
X55538095Y-106923809D01*
X55538095Y-106780952D01*
X55585714Y-106590476D01*
X55633333Y-106495238D01*
X55728571Y-106400000D01*
X55871428Y-106352380D01*
X55966666Y-106352380D01*
X56109523Y-106400000D01*
X56157142Y-106447619D01*
X56538095Y-106447619D02*
X56585714Y-106400000D01*
X56680952Y-106352380D01*
X56919047Y-106352380D01*
X57014285Y-106400000D01*
X57061904Y-106447619D01*
X57109523Y-106542857D01*
X57109523Y-106638095D01*
X57061904Y-106780952D01*
X56490476Y-107352380D01*
X57109523Y-107352380D01*
X57490476Y-106447619D02*
X57538095Y-106400000D01*
X57633333Y-106352380D01*
X57871428Y-106352380D01*
X57966666Y-106400000D01*
X58014285Y-106447619D01*
X58061904Y-106542857D01*
X58061904Y-106638095D01*
X58014285Y-106780952D01*
X57442857Y-107352380D01*
X58061904Y-107352380D01*
G04 #@! TO.C,C35*
X87507142Y-96042857D02*
X87554761Y-96090476D01*
X87602380Y-96233333D01*
X87602380Y-96328571D01*
X87554761Y-96471428D01*
X87459523Y-96566666D01*
X87364285Y-96614285D01*
X87173809Y-96661904D01*
X87030952Y-96661904D01*
X86840476Y-96614285D01*
X86745238Y-96566666D01*
X86650000Y-96471428D01*
X86602380Y-96328571D01*
X86602380Y-96233333D01*
X86650000Y-96090476D01*
X86697619Y-96042857D01*
X86602380Y-95709523D02*
X86602380Y-95090476D01*
X86983333Y-95423809D01*
X86983333Y-95280952D01*
X87030952Y-95185714D01*
X87078571Y-95138095D01*
X87173809Y-95090476D01*
X87411904Y-95090476D01*
X87507142Y-95138095D01*
X87554761Y-95185714D01*
X87602380Y-95280952D01*
X87602380Y-95566666D01*
X87554761Y-95661904D01*
X87507142Y-95709523D01*
X86602380Y-94185714D02*
X86602380Y-94661904D01*
X87078571Y-94709523D01*
X87030952Y-94661904D01*
X86983333Y-94566666D01*
X86983333Y-94328571D01*
X87030952Y-94233333D01*
X87078571Y-94185714D01*
X87173809Y-94138095D01*
X87411904Y-94138095D01*
X87507142Y-94185714D01*
X87554761Y-94233333D01*
X87602380Y-94328571D01*
X87602380Y-94566666D01*
X87554761Y-94661904D01*
X87507142Y-94709523D01*
G04 #@! TO.C,C36*
X59657142Y-82757142D02*
X59609523Y-82804761D01*
X59466666Y-82852380D01*
X59371428Y-82852380D01*
X59228571Y-82804761D01*
X59133333Y-82709523D01*
X59085714Y-82614285D01*
X59038095Y-82423809D01*
X59038095Y-82280952D01*
X59085714Y-82090476D01*
X59133333Y-81995238D01*
X59228571Y-81900000D01*
X59371428Y-81852380D01*
X59466666Y-81852380D01*
X59609523Y-81900000D01*
X59657142Y-81947619D01*
X59990476Y-81852380D02*
X60609523Y-81852380D01*
X60276190Y-82233333D01*
X60419047Y-82233333D01*
X60514285Y-82280952D01*
X60561904Y-82328571D01*
X60609523Y-82423809D01*
X60609523Y-82661904D01*
X60561904Y-82757142D01*
X60514285Y-82804761D01*
X60419047Y-82852380D01*
X60133333Y-82852380D01*
X60038095Y-82804761D01*
X59990476Y-82757142D01*
X61466666Y-81852380D02*
X61276190Y-81852380D01*
X61180952Y-81900000D01*
X61133333Y-81947619D01*
X61038095Y-82090476D01*
X60990476Y-82280952D01*
X60990476Y-82661904D01*
X61038095Y-82757142D01*
X61085714Y-82804761D01*
X61180952Y-82852380D01*
X61371428Y-82852380D01*
X61466666Y-82804761D01*
X61514285Y-82757142D01*
X61561904Y-82661904D01*
X61561904Y-82423809D01*
X61514285Y-82328571D01*
X61466666Y-82280952D01*
X61371428Y-82233333D01*
X61180952Y-82233333D01*
X61085714Y-82280952D01*
X61038095Y-82328571D01*
X60990476Y-82423809D01*
G04 #@! TO.C,C37*
X67457142Y-82157142D02*
X67409523Y-82204761D01*
X67266666Y-82252380D01*
X67171428Y-82252380D01*
X67028571Y-82204761D01*
X66933333Y-82109523D01*
X66885714Y-82014285D01*
X66838095Y-81823809D01*
X66838095Y-81680952D01*
X66885714Y-81490476D01*
X66933333Y-81395238D01*
X67028571Y-81300000D01*
X67171428Y-81252380D01*
X67266666Y-81252380D01*
X67409523Y-81300000D01*
X67457142Y-81347619D01*
X67790476Y-81252380D02*
X68409523Y-81252380D01*
X68076190Y-81633333D01*
X68219047Y-81633333D01*
X68314285Y-81680952D01*
X68361904Y-81728571D01*
X68409523Y-81823809D01*
X68409523Y-82061904D01*
X68361904Y-82157142D01*
X68314285Y-82204761D01*
X68219047Y-82252380D01*
X67933333Y-82252380D01*
X67838095Y-82204761D01*
X67790476Y-82157142D01*
X68742857Y-81252380D02*
X69409523Y-81252380D01*
X68980952Y-82252380D01*
G04 #@! TO.C,C41*
X62757142Y-82757142D02*
X62709523Y-82804761D01*
X62566666Y-82852380D01*
X62471428Y-82852380D01*
X62328571Y-82804761D01*
X62233333Y-82709523D01*
X62185714Y-82614285D01*
X62138095Y-82423809D01*
X62138095Y-82280952D01*
X62185714Y-82090476D01*
X62233333Y-81995238D01*
X62328571Y-81900000D01*
X62471428Y-81852380D01*
X62566666Y-81852380D01*
X62709523Y-81900000D01*
X62757142Y-81947619D01*
X63614285Y-82185714D02*
X63614285Y-82852380D01*
X63376190Y-81804761D02*
X63138095Y-82519047D01*
X63757142Y-82519047D01*
X64661904Y-82852380D02*
X64090476Y-82852380D01*
X64376190Y-82852380D02*
X64376190Y-81852380D01*
X64280952Y-81995238D01*
X64185714Y-82090476D01*
X64090476Y-82138095D01*
G04 #@! TO.C,C49*
X88557142Y-85757142D02*
X88509523Y-85804761D01*
X88366666Y-85852380D01*
X88271428Y-85852380D01*
X88128571Y-85804761D01*
X88033333Y-85709523D01*
X87985714Y-85614285D01*
X87938095Y-85423809D01*
X87938095Y-85280952D01*
X87985714Y-85090476D01*
X88033333Y-84995238D01*
X88128571Y-84900000D01*
X88271428Y-84852380D01*
X88366666Y-84852380D01*
X88509523Y-84900000D01*
X88557142Y-84947619D01*
X89414285Y-85185714D02*
X89414285Y-85852380D01*
X89176190Y-84804761D02*
X88938095Y-85519047D01*
X89557142Y-85519047D01*
X89985714Y-85852380D02*
X90176190Y-85852380D01*
X90271428Y-85804761D01*
X90319047Y-85757142D01*
X90414285Y-85614285D01*
X90461904Y-85423809D01*
X90461904Y-85042857D01*
X90414285Y-84947619D01*
X90366666Y-84900000D01*
X90271428Y-84852380D01*
X90080952Y-84852380D01*
X89985714Y-84900000D01*
X89938095Y-84947619D01*
X89890476Y-85042857D01*
X89890476Y-85280952D01*
X89938095Y-85376190D01*
X89985714Y-85423809D01*
X90080952Y-85471428D01*
X90271428Y-85471428D01*
X90366666Y-85423809D01*
X90414285Y-85376190D01*
X90461904Y-85280952D01*
G04 #@! TO.C,C50*
X89857142Y-89742857D02*
X89904761Y-89790476D01*
X89952380Y-89933333D01*
X89952380Y-90028571D01*
X89904761Y-90171428D01*
X89809523Y-90266666D01*
X89714285Y-90314285D01*
X89523809Y-90361904D01*
X89380952Y-90361904D01*
X89190476Y-90314285D01*
X89095238Y-90266666D01*
X89000000Y-90171428D01*
X88952380Y-90028571D01*
X88952380Y-89933333D01*
X89000000Y-89790476D01*
X89047619Y-89742857D01*
X88952380Y-88838095D02*
X88952380Y-89314285D01*
X89428571Y-89361904D01*
X89380952Y-89314285D01*
X89333333Y-89219047D01*
X89333333Y-88980952D01*
X89380952Y-88885714D01*
X89428571Y-88838095D01*
X89523809Y-88790476D01*
X89761904Y-88790476D01*
X89857142Y-88838095D01*
X89904761Y-88885714D01*
X89952380Y-88980952D01*
X89952380Y-89219047D01*
X89904761Y-89314285D01*
X89857142Y-89361904D01*
X88952380Y-88171428D02*
X88952380Y-88076190D01*
X89000000Y-87980952D01*
X89047619Y-87933333D01*
X89142857Y-87885714D01*
X89333333Y-87838095D01*
X89571428Y-87838095D01*
X89761904Y-87885714D01*
X89857142Y-87933333D01*
X89904761Y-87980952D01*
X89952380Y-88076190D01*
X89952380Y-88171428D01*
X89904761Y-88266666D01*
X89857142Y-88314285D01*
X89761904Y-88361904D01*
X89571428Y-88409523D01*
X89333333Y-88409523D01*
X89142857Y-88361904D01*
X89047619Y-88314285D01*
X89000000Y-88266666D01*
X88952380Y-88171428D01*
G04 #@! TO.C,C60*
X74257142Y-110257142D02*
X74209523Y-110304761D01*
X74066666Y-110352380D01*
X73971428Y-110352380D01*
X73828571Y-110304761D01*
X73733333Y-110209523D01*
X73685714Y-110114285D01*
X73638095Y-109923809D01*
X73638095Y-109780952D01*
X73685714Y-109590476D01*
X73733333Y-109495238D01*
X73828571Y-109400000D01*
X73971428Y-109352380D01*
X74066666Y-109352380D01*
X74209523Y-109400000D01*
X74257142Y-109447619D01*
X75114285Y-109352380D02*
X74923809Y-109352380D01*
X74828571Y-109400000D01*
X74780952Y-109447619D01*
X74685714Y-109590476D01*
X74638095Y-109780952D01*
X74638095Y-110161904D01*
X74685714Y-110257142D01*
X74733333Y-110304761D01*
X74828571Y-110352380D01*
X75019047Y-110352380D01*
X75114285Y-110304761D01*
X75161904Y-110257142D01*
X75209523Y-110161904D01*
X75209523Y-109923809D01*
X75161904Y-109828571D01*
X75114285Y-109780952D01*
X75019047Y-109733333D01*
X74828571Y-109733333D01*
X74733333Y-109780952D01*
X74685714Y-109828571D01*
X74638095Y-109923809D01*
X75828571Y-109352380D02*
X75923809Y-109352380D01*
X76019047Y-109400000D01*
X76066666Y-109447619D01*
X76114285Y-109542857D01*
X76161904Y-109733333D01*
X76161904Y-109971428D01*
X76114285Y-110161904D01*
X76066666Y-110257142D01*
X76019047Y-110304761D01*
X75923809Y-110352380D01*
X75828571Y-110352380D01*
X75733333Y-110304761D01*
X75685714Y-110257142D01*
X75638095Y-110161904D01*
X75590476Y-109971428D01*
X75590476Y-109733333D01*
X75638095Y-109542857D01*
X75685714Y-109447619D01*
X75733333Y-109400000D01*
X75828571Y-109352380D01*
G04 #@! TO.C,C61*
X65757142Y-85742857D02*
X65804761Y-85790476D01*
X65852380Y-85933333D01*
X65852380Y-86028571D01*
X65804761Y-86171428D01*
X65709523Y-86266666D01*
X65614285Y-86314285D01*
X65423809Y-86361904D01*
X65280952Y-86361904D01*
X65090476Y-86314285D01*
X64995238Y-86266666D01*
X64900000Y-86171428D01*
X64852380Y-86028571D01*
X64852380Y-85933333D01*
X64900000Y-85790476D01*
X64947619Y-85742857D01*
X64852380Y-84885714D02*
X64852380Y-85076190D01*
X64900000Y-85171428D01*
X64947619Y-85219047D01*
X65090476Y-85314285D01*
X65280952Y-85361904D01*
X65661904Y-85361904D01*
X65757142Y-85314285D01*
X65804761Y-85266666D01*
X65852380Y-85171428D01*
X65852380Y-84980952D01*
X65804761Y-84885714D01*
X65757142Y-84838095D01*
X65661904Y-84790476D01*
X65423809Y-84790476D01*
X65328571Y-84838095D01*
X65280952Y-84885714D01*
X65233333Y-84980952D01*
X65233333Y-85171428D01*
X65280952Y-85266666D01*
X65328571Y-85314285D01*
X65423809Y-85361904D01*
X65852380Y-83838095D02*
X65852380Y-84409523D01*
X65852380Y-84123809D02*
X64852380Y-84123809D01*
X64995238Y-84219047D01*
X65090476Y-84314285D01*
X65138095Y-84409523D01*
G04 #@! TO.C,C89*
X98757142Y-101942857D02*
X98804761Y-101990476D01*
X98852380Y-102133333D01*
X98852380Y-102228571D01*
X98804761Y-102371428D01*
X98709523Y-102466666D01*
X98614285Y-102514285D01*
X98423809Y-102561904D01*
X98280952Y-102561904D01*
X98090476Y-102514285D01*
X97995238Y-102466666D01*
X97900000Y-102371428D01*
X97852380Y-102228571D01*
X97852380Y-102133333D01*
X97900000Y-101990476D01*
X97947619Y-101942857D01*
X98280952Y-101371428D02*
X98233333Y-101466666D01*
X98185714Y-101514285D01*
X98090476Y-101561904D01*
X98042857Y-101561904D01*
X97947619Y-101514285D01*
X97900000Y-101466666D01*
X97852380Y-101371428D01*
X97852380Y-101180952D01*
X97900000Y-101085714D01*
X97947619Y-101038095D01*
X98042857Y-100990476D01*
X98090476Y-100990476D01*
X98185714Y-101038095D01*
X98233333Y-101085714D01*
X98280952Y-101180952D01*
X98280952Y-101371428D01*
X98328571Y-101466666D01*
X98376190Y-101514285D01*
X98471428Y-101561904D01*
X98661904Y-101561904D01*
X98757142Y-101514285D01*
X98804761Y-101466666D01*
X98852380Y-101371428D01*
X98852380Y-101180952D01*
X98804761Y-101085714D01*
X98757142Y-101038095D01*
X98661904Y-100990476D01*
X98471428Y-100990476D01*
X98376190Y-101038095D01*
X98328571Y-101085714D01*
X98280952Y-101180952D01*
X98852380Y-100514285D02*
X98852380Y-100323809D01*
X98804761Y-100228571D01*
X98757142Y-100180952D01*
X98614285Y-100085714D01*
X98423809Y-100038095D01*
X98042857Y-100038095D01*
X97947619Y-100085714D01*
X97900000Y-100133333D01*
X97852380Y-100228571D01*
X97852380Y-100419047D01*
X97900000Y-100514285D01*
X97947619Y-100561904D01*
X98042857Y-100609523D01*
X98280952Y-100609523D01*
X98376190Y-100561904D01*
X98423809Y-100514285D01*
X98471428Y-100419047D01*
X98471428Y-100228571D01*
X98423809Y-100133333D01*
X98376190Y-100085714D01*
X98280952Y-100038095D01*
G04 #@! TO.C,C90*
X98757142Y-94442857D02*
X98804761Y-94490476D01*
X98852380Y-94633333D01*
X98852380Y-94728571D01*
X98804761Y-94871428D01*
X98709523Y-94966666D01*
X98614285Y-95014285D01*
X98423809Y-95061904D01*
X98280952Y-95061904D01*
X98090476Y-95014285D01*
X97995238Y-94966666D01*
X97900000Y-94871428D01*
X97852380Y-94728571D01*
X97852380Y-94633333D01*
X97900000Y-94490476D01*
X97947619Y-94442857D01*
X98852380Y-93966666D02*
X98852380Y-93776190D01*
X98804761Y-93680952D01*
X98757142Y-93633333D01*
X98614285Y-93538095D01*
X98423809Y-93490476D01*
X98042857Y-93490476D01*
X97947619Y-93538095D01*
X97900000Y-93585714D01*
X97852380Y-93680952D01*
X97852380Y-93871428D01*
X97900000Y-93966666D01*
X97947619Y-94014285D01*
X98042857Y-94061904D01*
X98280952Y-94061904D01*
X98376190Y-94014285D01*
X98423809Y-93966666D01*
X98471428Y-93871428D01*
X98471428Y-93680952D01*
X98423809Y-93585714D01*
X98376190Y-93538095D01*
X98280952Y-93490476D01*
X97852380Y-92871428D02*
X97852380Y-92776190D01*
X97900000Y-92680952D01*
X97947619Y-92633333D01*
X98042857Y-92585714D01*
X98233333Y-92538095D01*
X98471428Y-92538095D01*
X98661904Y-92585714D01*
X98757142Y-92633333D01*
X98804761Y-92680952D01*
X98852380Y-92776190D01*
X98852380Y-92871428D01*
X98804761Y-92966666D01*
X98757142Y-93014285D01*
X98661904Y-93061904D01*
X98471428Y-93109523D01*
X98233333Y-93109523D01*
X98042857Y-93061904D01*
X97947619Y-93014285D01*
X97900000Y-92966666D01*
X97852380Y-92871428D01*
G04 #@! TO.C,C94*
X91957142Y-107357142D02*
X91909523Y-107404761D01*
X91766666Y-107452380D01*
X91671428Y-107452380D01*
X91528571Y-107404761D01*
X91433333Y-107309523D01*
X91385714Y-107214285D01*
X91338095Y-107023809D01*
X91338095Y-106880952D01*
X91385714Y-106690476D01*
X91433333Y-106595238D01*
X91528571Y-106500000D01*
X91671428Y-106452380D01*
X91766666Y-106452380D01*
X91909523Y-106500000D01*
X91957142Y-106547619D01*
X92433333Y-107452380D02*
X92623809Y-107452380D01*
X92719047Y-107404761D01*
X92766666Y-107357142D01*
X92861904Y-107214285D01*
X92909523Y-107023809D01*
X92909523Y-106642857D01*
X92861904Y-106547619D01*
X92814285Y-106500000D01*
X92719047Y-106452380D01*
X92528571Y-106452380D01*
X92433333Y-106500000D01*
X92385714Y-106547619D01*
X92338095Y-106642857D01*
X92338095Y-106880952D01*
X92385714Y-106976190D01*
X92433333Y-107023809D01*
X92528571Y-107071428D01*
X92719047Y-107071428D01*
X92814285Y-107023809D01*
X92861904Y-106976190D01*
X92909523Y-106880952D01*
X93766666Y-106785714D02*
X93766666Y-107452380D01*
X93528571Y-106404761D02*
X93290476Y-107119047D01*
X93909523Y-107119047D01*
G04 #@! TO.C,C101*
X97757142Y-89219047D02*
X97804761Y-89266666D01*
X97852380Y-89409523D01*
X97852380Y-89504761D01*
X97804761Y-89647619D01*
X97709523Y-89742857D01*
X97614285Y-89790476D01*
X97423809Y-89838095D01*
X97280952Y-89838095D01*
X97090476Y-89790476D01*
X96995238Y-89742857D01*
X96900000Y-89647619D01*
X96852380Y-89504761D01*
X96852380Y-89409523D01*
X96900000Y-89266666D01*
X96947619Y-89219047D01*
X97852380Y-88266666D02*
X97852380Y-88838095D01*
X97852380Y-88552380D02*
X96852380Y-88552380D01*
X96995238Y-88647619D01*
X97090476Y-88742857D01*
X97138095Y-88838095D01*
X96852380Y-87647619D02*
X96852380Y-87552380D01*
X96900000Y-87457142D01*
X96947619Y-87409523D01*
X97042857Y-87361904D01*
X97233333Y-87314285D01*
X97471428Y-87314285D01*
X97661904Y-87361904D01*
X97757142Y-87409523D01*
X97804761Y-87457142D01*
X97852380Y-87552380D01*
X97852380Y-87647619D01*
X97804761Y-87742857D01*
X97757142Y-87790476D01*
X97661904Y-87838095D01*
X97471428Y-87885714D01*
X97233333Y-87885714D01*
X97042857Y-87838095D01*
X96947619Y-87790476D01*
X96900000Y-87742857D01*
X96852380Y-87647619D01*
X97852380Y-86361904D02*
X97852380Y-86933333D01*
X97852380Y-86647619D02*
X96852380Y-86647619D01*
X96995238Y-86742857D01*
X97090476Y-86838095D01*
X97138095Y-86933333D01*
G04 #@! TO.C,C102*
X92780952Y-87857142D02*
X92733333Y-87904761D01*
X92590476Y-87952380D01*
X92495238Y-87952380D01*
X92352380Y-87904761D01*
X92257142Y-87809523D01*
X92209523Y-87714285D01*
X92161904Y-87523809D01*
X92161904Y-87380952D01*
X92209523Y-87190476D01*
X92257142Y-87095238D01*
X92352380Y-87000000D01*
X92495238Y-86952380D01*
X92590476Y-86952380D01*
X92733333Y-87000000D01*
X92780952Y-87047619D01*
X93733333Y-87952380D02*
X93161904Y-87952380D01*
X93447619Y-87952380D02*
X93447619Y-86952380D01*
X93352380Y-87095238D01*
X93257142Y-87190476D01*
X93161904Y-87238095D01*
X94352380Y-86952380D02*
X94447619Y-86952380D01*
X94542857Y-87000000D01*
X94590476Y-87047619D01*
X94638095Y-87142857D01*
X94685714Y-87333333D01*
X94685714Y-87571428D01*
X94638095Y-87761904D01*
X94590476Y-87857142D01*
X94542857Y-87904761D01*
X94447619Y-87952380D01*
X94352380Y-87952380D01*
X94257142Y-87904761D01*
X94209523Y-87857142D01*
X94161904Y-87761904D01*
X94114285Y-87571428D01*
X94114285Y-87333333D01*
X94161904Y-87142857D01*
X94209523Y-87047619D01*
X94257142Y-87000000D01*
X94352380Y-86952380D01*
X95066666Y-87047619D02*
X95114285Y-87000000D01*
X95209523Y-86952380D01*
X95447619Y-86952380D01*
X95542857Y-87000000D01*
X95590476Y-87047619D01*
X95638095Y-87142857D01*
X95638095Y-87238095D01*
X95590476Y-87380952D01*
X95019047Y-87952380D01*
X95638095Y-87952380D01*
G04 #@! TO.C,C108*
X111257142Y-108219047D02*
X111304761Y-108266666D01*
X111352380Y-108409523D01*
X111352380Y-108504761D01*
X111304761Y-108647619D01*
X111209523Y-108742857D01*
X111114285Y-108790476D01*
X110923809Y-108838095D01*
X110780952Y-108838095D01*
X110590476Y-108790476D01*
X110495238Y-108742857D01*
X110400000Y-108647619D01*
X110352380Y-108504761D01*
X110352380Y-108409523D01*
X110400000Y-108266666D01*
X110447619Y-108219047D01*
X111352380Y-107266666D02*
X111352380Y-107838095D01*
X111352380Y-107552380D02*
X110352380Y-107552380D01*
X110495238Y-107647619D01*
X110590476Y-107742857D01*
X110638095Y-107838095D01*
X110352380Y-106647619D02*
X110352380Y-106552380D01*
X110400000Y-106457142D01*
X110447619Y-106409523D01*
X110542857Y-106361904D01*
X110733333Y-106314285D01*
X110971428Y-106314285D01*
X111161904Y-106361904D01*
X111257142Y-106409523D01*
X111304761Y-106457142D01*
X111352380Y-106552380D01*
X111352380Y-106647619D01*
X111304761Y-106742857D01*
X111257142Y-106790476D01*
X111161904Y-106838095D01*
X110971428Y-106885714D01*
X110733333Y-106885714D01*
X110542857Y-106838095D01*
X110447619Y-106790476D01*
X110400000Y-106742857D01*
X110352380Y-106647619D01*
X110780952Y-105742857D02*
X110733333Y-105838095D01*
X110685714Y-105885714D01*
X110590476Y-105933333D01*
X110542857Y-105933333D01*
X110447619Y-105885714D01*
X110400000Y-105838095D01*
X110352380Y-105742857D01*
X110352380Y-105552380D01*
X110400000Y-105457142D01*
X110447619Y-105409523D01*
X110542857Y-105361904D01*
X110590476Y-105361904D01*
X110685714Y-105409523D01*
X110733333Y-105457142D01*
X110780952Y-105552380D01*
X110780952Y-105742857D01*
X110828571Y-105838095D01*
X110876190Y-105885714D01*
X110971428Y-105933333D01*
X111161904Y-105933333D01*
X111257142Y-105885714D01*
X111304761Y-105838095D01*
X111352380Y-105742857D01*
X111352380Y-105552380D01*
X111304761Y-105457142D01*
X111257142Y-105409523D01*
X111161904Y-105361904D01*
X110971428Y-105361904D01*
X110876190Y-105409523D01*
X110828571Y-105457142D01*
X110780952Y-105552380D01*
G04 #@! TO.C,C112*
X109557142Y-93519047D02*
X109604761Y-93566666D01*
X109652380Y-93709523D01*
X109652380Y-93804761D01*
X109604761Y-93947619D01*
X109509523Y-94042857D01*
X109414285Y-94090476D01*
X109223809Y-94138095D01*
X109080952Y-94138095D01*
X108890476Y-94090476D01*
X108795238Y-94042857D01*
X108700000Y-93947619D01*
X108652380Y-93804761D01*
X108652380Y-93709523D01*
X108700000Y-93566666D01*
X108747619Y-93519047D01*
X109652380Y-92566666D02*
X109652380Y-93138095D01*
X109652380Y-92852380D02*
X108652380Y-92852380D01*
X108795238Y-92947619D01*
X108890476Y-93042857D01*
X108938095Y-93138095D01*
X109652380Y-91614285D02*
X109652380Y-92185714D01*
X109652380Y-91900000D02*
X108652380Y-91900000D01*
X108795238Y-91995238D01*
X108890476Y-92090476D01*
X108938095Y-92185714D01*
X108747619Y-91233333D02*
X108700000Y-91185714D01*
X108652380Y-91090476D01*
X108652380Y-90852380D01*
X108700000Y-90757142D01*
X108747619Y-90709523D01*
X108842857Y-90661904D01*
X108938095Y-90661904D01*
X109080952Y-90709523D01*
X109652380Y-91280952D01*
X109652380Y-90661904D01*
G04 #@! TO.C,C138*
X72580952Y-70457142D02*
X72533333Y-70504761D01*
X72390476Y-70552380D01*
X72295238Y-70552380D01*
X72152380Y-70504761D01*
X72057142Y-70409523D01*
X72009523Y-70314285D01*
X71961904Y-70123809D01*
X71961904Y-69980952D01*
X72009523Y-69790476D01*
X72057142Y-69695238D01*
X72152380Y-69600000D01*
X72295238Y-69552380D01*
X72390476Y-69552380D01*
X72533333Y-69600000D01*
X72580952Y-69647619D01*
X73533333Y-70552380D02*
X72961904Y-70552380D01*
X73247619Y-70552380D02*
X73247619Y-69552380D01*
X73152380Y-69695238D01*
X73057142Y-69790476D01*
X72961904Y-69838095D01*
X73866666Y-69552380D02*
X74485714Y-69552380D01*
X74152380Y-69933333D01*
X74295238Y-69933333D01*
X74390476Y-69980952D01*
X74438095Y-70028571D01*
X74485714Y-70123809D01*
X74485714Y-70361904D01*
X74438095Y-70457142D01*
X74390476Y-70504761D01*
X74295238Y-70552380D01*
X74009523Y-70552380D01*
X73914285Y-70504761D01*
X73866666Y-70457142D01*
X75057142Y-69980952D02*
X74961904Y-69933333D01*
X74914285Y-69885714D01*
X74866666Y-69790476D01*
X74866666Y-69742857D01*
X74914285Y-69647619D01*
X74961904Y-69600000D01*
X75057142Y-69552380D01*
X75247619Y-69552380D01*
X75342857Y-69600000D01*
X75390476Y-69647619D01*
X75438095Y-69742857D01*
X75438095Y-69790476D01*
X75390476Y-69885714D01*
X75342857Y-69933333D01*
X75247619Y-69980952D01*
X75057142Y-69980952D01*
X74961904Y-70028571D01*
X74914285Y-70076190D01*
X74866666Y-70171428D01*
X74866666Y-70361904D01*
X74914285Y-70457142D01*
X74961904Y-70504761D01*
X75057142Y-70552380D01*
X75247619Y-70552380D01*
X75342857Y-70504761D01*
X75390476Y-70457142D01*
X75438095Y-70361904D01*
X75438095Y-70171428D01*
X75390476Y-70076190D01*
X75342857Y-70028571D01*
X75247619Y-69980952D01*
G04 #@! TO.C,D1*
X90752380Y-106238095D02*
X89752380Y-106238095D01*
X89752380Y-106000000D01*
X89800000Y-105857142D01*
X89895238Y-105761904D01*
X89990476Y-105714285D01*
X90180952Y-105666666D01*
X90323809Y-105666666D01*
X90514285Y-105714285D01*
X90609523Y-105761904D01*
X90704761Y-105857142D01*
X90752380Y-106000000D01*
X90752380Y-106238095D01*
X90752380Y-104714285D02*
X90752380Y-105285714D01*
X90752380Y-105000000D02*
X89752380Y-105000000D01*
X89895238Y-105095238D01*
X89990476Y-105190476D01*
X90038095Y-105285714D01*
G04 #@! TO.C,D4*
X85461904Y-62852380D02*
X85461904Y-61852380D01*
X85700000Y-61852380D01*
X85842857Y-61900000D01*
X85938095Y-61995238D01*
X85985714Y-62090476D01*
X86033333Y-62280952D01*
X86033333Y-62423809D01*
X85985714Y-62614285D01*
X85938095Y-62709523D01*
X85842857Y-62804761D01*
X85700000Y-62852380D01*
X85461904Y-62852380D01*
X86890476Y-62185714D02*
X86890476Y-62852380D01*
X86652380Y-61804761D02*
X86414285Y-62519047D01*
X87033333Y-62519047D01*
G04 #@! TO.C,J1*
X62066666Y-73652380D02*
X62066666Y-74366666D01*
X62019047Y-74509523D01*
X61923809Y-74604761D01*
X61780952Y-74652380D01*
X61685714Y-74652380D01*
X63066666Y-74652380D02*
X62495238Y-74652380D01*
X62780952Y-74652380D02*
X62780952Y-73652380D01*
X62685714Y-73795238D01*
X62590476Y-73890476D01*
X62495238Y-73938095D01*
G04 #@! TO.C,J2*
X33866666Y-77752380D02*
X33866666Y-78466666D01*
X33819047Y-78609523D01*
X33723809Y-78704761D01*
X33580952Y-78752380D01*
X33485714Y-78752380D01*
X34295238Y-77847619D02*
X34342857Y-77800000D01*
X34438095Y-77752380D01*
X34676190Y-77752380D01*
X34771428Y-77800000D01*
X34819047Y-77847619D01*
X34866666Y-77942857D01*
X34866666Y-78038095D01*
X34819047Y-78180952D01*
X34247619Y-78752380D01*
X34866666Y-78752380D01*
G04 #@! TO.C,J4*
X91566666Y-68252380D02*
X91566666Y-68966666D01*
X91519047Y-69109523D01*
X91423809Y-69204761D01*
X91280952Y-69252380D01*
X91185714Y-69252380D01*
X92471428Y-68585714D02*
X92471428Y-69252380D01*
X92233333Y-68204761D02*
X91995238Y-68919047D01*
X92614285Y-68919047D01*
G04 #@! TO.C,L2*
X92133333Y-98952380D02*
X91657142Y-98952380D01*
X91657142Y-97952380D01*
X92419047Y-98047619D02*
X92466666Y-98000000D01*
X92561904Y-97952380D01*
X92800000Y-97952380D01*
X92895238Y-98000000D01*
X92942857Y-98047619D01*
X92990476Y-98142857D01*
X92990476Y-98238095D01*
X92942857Y-98380952D01*
X92371428Y-98952380D01*
X92990476Y-98952380D01*
G04 #@! TO.C,L3*
X92133333Y-90052380D02*
X91657142Y-90052380D01*
X91657142Y-89052380D01*
X92371428Y-89052380D02*
X92990476Y-89052380D01*
X92657142Y-89433333D01*
X92800000Y-89433333D01*
X92895238Y-89480952D01*
X92942857Y-89528571D01*
X92990476Y-89623809D01*
X92990476Y-89861904D01*
X92942857Y-89957142D01*
X92895238Y-90004761D01*
X92800000Y-90052380D01*
X92514285Y-90052380D01*
X92419047Y-90004761D01*
X92371428Y-89957142D01*
G04 #@! TO.C,L4*
X116633333Y-107052380D02*
X116157142Y-107052380D01*
X116157142Y-106052380D01*
X117395238Y-106385714D02*
X117395238Y-107052380D01*
X117157142Y-106004761D02*
X116919047Y-106719047D01*
X117538095Y-106719047D01*
G04 #@! TO.C,L5*
X116633333Y-98152380D02*
X116157142Y-98152380D01*
X116157142Y-97152380D01*
X117442857Y-97152380D02*
X116966666Y-97152380D01*
X116919047Y-97628571D01*
X116966666Y-97580952D01*
X117061904Y-97533333D01*
X117300000Y-97533333D01*
X117395238Y-97580952D01*
X117442857Y-97628571D01*
X117490476Y-97723809D01*
X117490476Y-97961904D01*
X117442857Y-98057142D01*
X117395238Y-98104761D01*
X117300000Y-98152380D01*
X117061904Y-98152380D01*
X116966666Y-98104761D01*
X116919047Y-98057142D01*
G04 #@! TO.C,O2*
X99928571Y-69752380D02*
X100119047Y-69752380D01*
X100214285Y-69800000D01*
X100309523Y-69895238D01*
X100357142Y-70085714D01*
X100357142Y-70419047D01*
X100309523Y-70609523D01*
X100214285Y-70704761D01*
X100119047Y-70752380D01*
X99928571Y-70752380D01*
X99833333Y-70704761D01*
X99738095Y-70609523D01*
X99690476Y-70419047D01*
X99690476Y-70085714D01*
X99738095Y-69895238D01*
X99833333Y-69800000D01*
X99928571Y-69752380D01*
X100738095Y-69847619D02*
X100785714Y-69800000D01*
X100880952Y-69752380D01*
X101119047Y-69752380D01*
X101214285Y-69800000D01*
X101261904Y-69847619D01*
X101309523Y-69942857D01*
X101309523Y-70038095D01*
X101261904Y-70180952D01*
X100690476Y-70752380D01*
X101309523Y-70752380D01*
G04 #@! TO.C,Q3*
X115904761Y-127047619D02*
X115809523Y-127000000D01*
X115714285Y-126904761D01*
X115571428Y-126761904D01*
X115476190Y-126714285D01*
X115380952Y-126714285D01*
X115428571Y-126952380D02*
X115333333Y-126904761D01*
X115238095Y-126809523D01*
X115190476Y-126619047D01*
X115190476Y-126285714D01*
X115238095Y-126095238D01*
X115333333Y-126000000D01*
X115428571Y-125952380D01*
X115619047Y-125952380D01*
X115714285Y-126000000D01*
X115809523Y-126095238D01*
X115857142Y-126285714D01*
X115857142Y-126619047D01*
X115809523Y-126809523D01*
X115714285Y-126904761D01*
X115619047Y-126952380D01*
X115428571Y-126952380D01*
X116190476Y-125952380D02*
X116809523Y-125952380D01*
X116476190Y-126333333D01*
X116619047Y-126333333D01*
X116714285Y-126380952D01*
X116761904Y-126428571D01*
X116809523Y-126523809D01*
X116809523Y-126761904D01*
X116761904Y-126857142D01*
X116714285Y-126904761D01*
X116619047Y-126952380D01*
X116333333Y-126952380D01*
X116238095Y-126904761D01*
X116190476Y-126857142D01*
G04 #@! TO.C,Q4*
X90004761Y-124547619D02*
X89909523Y-124500000D01*
X89814285Y-124404761D01*
X89671428Y-124261904D01*
X89576190Y-124214285D01*
X89480952Y-124214285D01*
X89528571Y-124452380D02*
X89433333Y-124404761D01*
X89338095Y-124309523D01*
X89290476Y-124119047D01*
X89290476Y-123785714D01*
X89338095Y-123595238D01*
X89433333Y-123500000D01*
X89528571Y-123452380D01*
X89719047Y-123452380D01*
X89814285Y-123500000D01*
X89909523Y-123595238D01*
X89957142Y-123785714D01*
X89957142Y-124119047D01*
X89909523Y-124309523D01*
X89814285Y-124404761D01*
X89719047Y-124452380D01*
X89528571Y-124452380D01*
X90814285Y-123785714D02*
X90814285Y-124452380D01*
X90576190Y-123404761D02*
X90338095Y-124119047D01*
X90957142Y-124119047D01*
G04 #@! TO.C,Q5*
X70004761Y-124547619D02*
X69909523Y-124500000D01*
X69814285Y-124404761D01*
X69671428Y-124261904D01*
X69576190Y-124214285D01*
X69480952Y-124214285D01*
X69528571Y-124452380D02*
X69433333Y-124404761D01*
X69338095Y-124309523D01*
X69290476Y-124119047D01*
X69290476Y-123785714D01*
X69338095Y-123595238D01*
X69433333Y-123500000D01*
X69528571Y-123452380D01*
X69719047Y-123452380D01*
X69814285Y-123500000D01*
X69909523Y-123595238D01*
X69957142Y-123785714D01*
X69957142Y-124119047D01*
X69909523Y-124309523D01*
X69814285Y-124404761D01*
X69719047Y-124452380D01*
X69528571Y-124452380D01*
X70861904Y-123452380D02*
X70385714Y-123452380D01*
X70338095Y-123928571D01*
X70385714Y-123880952D01*
X70480952Y-123833333D01*
X70719047Y-123833333D01*
X70814285Y-123880952D01*
X70861904Y-123928571D01*
X70909523Y-124023809D01*
X70909523Y-124261904D01*
X70861904Y-124357142D01*
X70814285Y-124404761D01*
X70719047Y-124452380D01*
X70480952Y-124452380D01*
X70385714Y-124404761D01*
X70338095Y-124357142D01*
G04 #@! TO.C,Q6*
X50004761Y-124547619D02*
X49909523Y-124500000D01*
X49814285Y-124404761D01*
X49671428Y-124261904D01*
X49576190Y-124214285D01*
X49480952Y-124214285D01*
X49528571Y-124452380D02*
X49433333Y-124404761D01*
X49338095Y-124309523D01*
X49290476Y-124119047D01*
X49290476Y-123785714D01*
X49338095Y-123595238D01*
X49433333Y-123500000D01*
X49528571Y-123452380D01*
X49719047Y-123452380D01*
X49814285Y-123500000D01*
X49909523Y-123595238D01*
X49957142Y-123785714D01*
X49957142Y-124119047D01*
X49909523Y-124309523D01*
X49814285Y-124404761D01*
X49719047Y-124452380D01*
X49528571Y-124452380D01*
X50814285Y-123452380D02*
X50623809Y-123452380D01*
X50528571Y-123500000D01*
X50480952Y-123547619D01*
X50385714Y-123690476D01*
X50338095Y-123880952D01*
X50338095Y-124261904D01*
X50385714Y-124357142D01*
X50433333Y-124404761D01*
X50528571Y-124452380D01*
X50719047Y-124452380D01*
X50814285Y-124404761D01*
X50861904Y-124357142D01*
X50909523Y-124261904D01*
X50909523Y-124023809D01*
X50861904Y-123928571D01*
X50814285Y-123880952D01*
X50719047Y-123833333D01*
X50528571Y-123833333D01*
X50433333Y-123880952D01*
X50385714Y-123928571D01*
X50338095Y-124023809D01*
G04 #@! TO.C,Q7*
X36704761Y-116547619D02*
X36609523Y-116500000D01*
X36514285Y-116404761D01*
X36371428Y-116261904D01*
X36276190Y-116214285D01*
X36180952Y-116214285D01*
X36228571Y-116452380D02*
X36133333Y-116404761D01*
X36038095Y-116309523D01*
X35990476Y-116119047D01*
X35990476Y-115785714D01*
X36038095Y-115595238D01*
X36133333Y-115500000D01*
X36228571Y-115452380D01*
X36419047Y-115452380D01*
X36514285Y-115500000D01*
X36609523Y-115595238D01*
X36657142Y-115785714D01*
X36657142Y-116119047D01*
X36609523Y-116309523D01*
X36514285Y-116404761D01*
X36419047Y-116452380D01*
X36228571Y-116452380D01*
X36990476Y-115452380D02*
X37657142Y-115452380D01*
X37228571Y-116452380D01*
G04 #@! TO.C,Q8*
X34204761Y-98847619D02*
X34109523Y-98800000D01*
X34014285Y-98704761D01*
X33871428Y-98561904D01*
X33776190Y-98514285D01*
X33680952Y-98514285D01*
X33728571Y-98752380D02*
X33633333Y-98704761D01*
X33538095Y-98609523D01*
X33490476Y-98419047D01*
X33490476Y-98085714D01*
X33538095Y-97895238D01*
X33633333Y-97800000D01*
X33728571Y-97752380D01*
X33919047Y-97752380D01*
X34014285Y-97800000D01*
X34109523Y-97895238D01*
X34157142Y-98085714D01*
X34157142Y-98419047D01*
X34109523Y-98609523D01*
X34014285Y-98704761D01*
X33919047Y-98752380D01*
X33728571Y-98752380D01*
X34728571Y-98180952D02*
X34633333Y-98133333D01*
X34585714Y-98085714D01*
X34538095Y-97990476D01*
X34538095Y-97942857D01*
X34585714Y-97847619D01*
X34633333Y-97800000D01*
X34728571Y-97752380D01*
X34919047Y-97752380D01*
X35014285Y-97800000D01*
X35061904Y-97847619D01*
X35109523Y-97942857D01*
X35109523Y-97990476D01*
X35061904Y-98085714D01*
X35014285Y-98133333D01*
X34919047Y-98180952D01*
X34728571Y-98180952D01*
X34633333Y-98228571D01*
X34585714Y-98276190D01*
X34538095Y-98371428D01*
X34538095Y-98561904D01*
X34585714Y-98657142D01*
X34633333Y-98704761D01*
X34728571Y-98752380D01*
X34919047Y-98752380D01*
X35014285Y-98704761D01*
X35061904Y-98657142D01*
X35109523Y-98561904D01*
X35109523Y-98371428D01*
X35061904Y-98276190D01*
X35014285Y-98228571D01*
X34919047Y-98180952D01*
G04 #@! TO.C,R2*
X44002380Y-97266666D02*
X43526190Y-97600000D01*
X44002380Y-97838095D02*
X43002380Y-97838095D01*
X43002380Y-97457142D01*
X43050000Y-97361904D01*
X43097619Y-97314285D01*
X43192857Y-97266666D01*
X43335714Y-97266666D01*
X43430952Y-97314285D01*
X43478571Y-97361904D01*
X43526190Y-97457142D01*
X43526190Y-97838095D01*
X43097619Y-96885714D02*
X43050000Y-96838095D01*
X43002380Y-96742857D01*
X43002380Y-96504761D01*
X43050000Y-96409523D01*
X43097619Y-96361904D01*
X43192857Y-96314285D01*
X43288095Y-96314285D01*
X43430952Y-96361904D01*
X44002380Y-96933333D01*
X44002380Y-96314285D01*
G04 #@! TO.C,R8*
X86033333Y-104352380D02*
X85700000Y-103876190D01*
X85461904Y-104352380D02*
X85461904Y-103352380D01*
X85842857Y-103352380D01*
X85938095Y-103400000D01*
X85985714Y-103447619D01*
X86033333Y-103542857D01*
X86033333Y-103685714D01*
X85985714Y-103780952D01*
X85938095Y-103828571D01*
X85842857Y-103876190D01*
X85461904Y-103876190D01*
X86604761Y-103780952D02*
X86509523Y-103733333D01*
X86461904Y-103685714D01*
X86414285Y-103590476D01*
X86414285Y-103542857D01*
X86461904Y-103447619D01*
X86509523Y-103400000D01*
X86604761Y-103352380D01*
X86795238Y-103352380D01*
X86890476Y-103400000D01*
X86938095Y-103447619D01*
X86985714Y-103542857D01*
X86985714Y-103590476D01*
X86938095Y-103685714D01*
X86890476Y-103733333D01*
X86795238Y-103780952D01*
X86604761Y-103780952D01*
X86509523Y-103828571D01*
X86461904Y-103876190D01*
X86414285Y-103971428D01*
X86414285Y-104161904D01*
X86461904Y-104257142D01*
X86509523Y-104304761D01*
X86604761Y-104352380D01*
X86795238Y-104352380D01*
X86890476Y-104304761D01*
X86938095Y-104257142D01*
X86985714Y-104161904D01*
X86985714Y-103971428D01*
X86938095Y-103876190D01*
X86890476Y-103828571D01*
X86795238Y-103780952D01*
G04 #@! TO.C,R9*
X86033333Y-102952380D02*
X85700000Y-102476190D01*
X85461904Y-102952380D02*
X85461904Y-101952380D01*
X85842857Y-101952380D01*
X85938095Y-102000000D01*
X85985714Y-102047619D01*
X86033333Y-102142857D01*
X86033333Y-102285714D01*
X85985714Y-102380952D01*
X85938095Y-102428571D01*
X85842857Y-102476190D01*
X85461904Y-102476190D01*
X86509523Y-102952380D02*
X86700000Y-102952380D01*
X86795238Y-102904761D01*
X86842857Y-102857142D01*
X86938095Y-102714285D01*
X86985714Y-102523809D01*
X86985714Y-102142857D01*
X86938095Y-102047619D01*
X86890476Y-102000000D01*
X86795238Y-101952380D01*
X86604761Y-101952380D01*
X86509523Y-102000000D01*
X86461904Y-102047619D01*
X86414285Y-102142857D01*
X86414285Y-102380952D01*
X86461904Y-102476190D01*
X86509523Y-102523809D01*
X86604761Y-102571428D01*
X86795238Y-102571428D01*
X86890476Y-102523809D01*
X86938095Y-102476190D01*
X86985714Y-102380952D01*
G04 #@! TO.C,R10*
X53302380Y-84142857D02*
X52826190Y-84476190D01*
X53302380Y-84714285D02*
X52302380Y-84714285D01*
X52302380Y-84333333D01*
X52350000Y-84238095D01*
X52397619Y-84190476D01*
X52492857Y-84142857D01*
X52635714Y-84142857D01*
X52730952Y-84190476D01*
X52778571Y-84238095D01*
X52826190Y-84333333D01*
X52826190Y-84714285D01*
X53302380Y-83190476D02*
X53302380Y-83761904D01*
X53302380Y-83476190D02*
X52302380Y-83476190D01*
X52445238Y-83571428D01*
X52540476Y-83666666D01*
X52588095Y-83761904D01*
X52302380Y-82571428D02*
X52302380Y-82476190D01*
X52350000Y-82380952D01*
X52397619Y-82333333D01*
X52492857Y-82285714D01*
X52683333Y-82238095D01*
X52921428Y-82238095D01*
X53111904Y-82285714D01*
X53207142Y-82333333D01*
X53254761Y-82380952D01*
X53302380Y-82476190D01*
X53302380Y-82571428D01*
X53254761Y-82666666D01*
X53207142Y-82714285D01*
X53111904Y-82761904D01*
X52921428Y-82809523D01*
X52683333Y-82809523D01*
X52492857Y-82761904D01*
X52397619Y-82714285D01*
X52350000Y-82666666D01*
X52302380Y-82571428D01*
G04 #@! TO.C,R18*
X44657142Y-86652380D02*
X44323809Y-86176190D01*
X44085714Y-86652380D02*
X44085714Y-85652380D01*
X44466666Y-85652380D01*
X44561904Y-85700000D01*
X44609523Y-85747619D01*
X44657142Y-85842857D01*
X44657142Y-85985714D01*
X44609523Y-86080952D01*
X44561904Y-86128571D01*
X44466666Y-86176190D01*
X44085714Y-86176190D01*
X45609523Y-86652380D02*
X45038095Y-86652380D01*
X45323809Y-86652380D02*
X45323809Y-85652380D01*
X45228571Y-85795238D01*
X45133333Y-85890476D01*
X45038095Y-85938095D01*
X46180952Y-86080952D02*
X46085714Y-86033333D01*
X46038095Y-85985714D01*
X45990476Y-85890476D01*
X45990476Y-85842857D01*
X46038095Y-85747619D01*
X46085714Y-85700000D01*
X46180952Y-85652380D01*
X46371428Y-85652380D01*
X46466666Y-85700000D01*
X46514285Y-85747619D01*
X46561904Y-85842857D01*
X46561904Y-85890476D01*
X46514285Y-85985714D01*
X46466666Y-86033333D01*
X46371428Y-86080952D01*
X46180952Y-86080952D01*
X46085714Y-86128571D01*
X46038095Y-86176190D01*
X45990476Y-86271428D01*
X45990476Y-86461904D01*
X46038095Y-86557142D01*
X46085714Y-86604761D01*
X46180952Y-86652380D01*
X46371428Y-86652380D01*
X46466666Y-86604761D01*
X46514285Y-86557142D01*
X46561904Y-86461904D01*
X46561904Y-86271428D01*
X46514285Y-86176190D01*
X46466666Y-86128571D01*
X46371428Y-86080952D01*
G04 #@! TO.C,R20*
X44657142Y-88152380D02*
X44323809Y-87676190D01*
X44085714Y-88152380D02*
X44085714Y-87152380D01*
X44466666Y-87152380D01*
X44561904Y-87200000D01*
X44609523Y-87247619D01*
X44657142Y-87342857D01*
X44657142Y-87485714D01*
X44609523Y-87580952D01*
X44561904Y-87628571D01*
X44466666Y-87676190D01*
X44085714Y-87676190D01*
X45038095Y-87247619D02*
X45085714Y-87200000D01*
X45180952Y-87152380D01*
X45419047Y-87152380D01*
X45514285Y-87200000D01*
X45561904Y-87247619D01*
X45609523Y-87342857D01*
X45609523Y-87438095D01*
X45561904Y-87580952D01*
X44990476Y-88152380D01*
X45609523Y-88152380D01*
X46228571Y-87152380D02*
X46323809Y-87152380D01*
X46419047Y-87200000D01*
X46466666Y-87247619D01*
X46514285Y-87342857D01*
X46561904Y-87533333D01*
X46561904Y-87771428D01*
X46514285Y-87961904D01*
X46466666Y-88057142D01*
X46419047Y-88104761D01*
X46323809Y-88152380D01*
X46228571Y-88152380D01*
X46133333Y-88104761D01*
X46085714Y-88057142D01*
X46038095Y-87961904D01*
X45990476Y-87771428D01*
X45990476Y-87533333D01*
X46038095Y-87342857D01*
X46085714Y-87247619D01*
X46133333Y-87200000D01*
X46228571Y-87152380D01*
G04 #@! TO.C,R22*
X42252380Y-81442857D02*
X41776190Y-81776190D01*
X42252380Y-82014285D02*
X41252380Y-82014285D01*
X41252380Y-81633333D01*
X41300000Y-81538095D01*
X41347619Y-81490476D01*
X41442857Y-81442857D01*
X41585714Y-81442857D01*
X41680952Y-81490476D01*
X41728571Y-81538095D01*
X41776190Y-81633333D01*
X41776190Y-82014285D01*
X41347619Y-81061904D02*
X41300000Y-81014285D01*
X41252380Y-80919047D01*
X41252380Y-80680952D01*
X41300000Y-80585714D01*
X41347619Y-80538095D01*
X41442857Y-80490476D01*
X41538095Y-80490476D01*
X41680952Y-80538095D01*
X42252380Y-81109523D01*
X42252380Y-80490476D01*
X41347619Y-80109523D02*
X41300000Y-80061904D01*
X41252380Y-79966666D01*
X41252380Y-79728571D01*
X41300000Y-79633333D01*
X41347619Y-79585714D01*
X41442857Y-79538095D01*
X41538095Y-79538095D01*
X41680952Y-79585714D01*
X42252380Y-80157142D01*
X42252380Y-79538095D01*
G04 #@! TO.C,R26*
X102357142Y-107852380D02*
X102023809Y-107376190D01*
X101785714Y-107852380D02*
X101785714Y-106852380D01*
X102166666Y-106852380D01*
X102261904Y-106900000D01*
X102309523Y-106947619D01*
X102357142Y-107042857D01*
X102357142Y-107185714D01*
X102309523Y-107280952D01*
X102261904Y-107328571D01*
X102166666Y-107376190D01*
X101785714Y-107376190D01*
X102738095Y-106947619D02*
X102785714Y-106900000D01*
X102880952Y-106852380D01*
X103119047Y-106852380D01*
X103214285Y-106900000D01*
X103261904Y-106947619D01*
X103309523Y-107042857D01*
X103309523Y-107138095D01*
X103261904Y-107280952D01*
X102690476Y-107852380D01*
X103309523Y-107852380D01*
X104166666Y-106852380D02*
X103976190Y-106852380D01*
X103880952Y-106900000D01*
X103833333Y-106947619D01*
X103738095Y-107090476D01*
X103690476Y-107280952D01*
X103690476Y-107661904D01*
X103738095Y-107757142D01*
X103785714Y-107804761D01*
X103880952Y-107852380D01*
X104071428Y-107852380D01*
X104166666Y-107804761D01*
X104214285Y-107757142D01*
X104261904Y-107661904D01*
X104261904Y-107423809D01*
X104214285Y-107328571D01*
X104166666Y-107280952D01*
X104071428Y-107233333D01*
X103880952Y-107233333D01*
X103785714Y-107280952D01*
X103738095Y-107328571D01*
X103690476Y-107423809D01*
G04 #@! TO.C,R27*
X99357142Y-107902380D02*
X99023809Y-107426190D01*
X98785714Y-107902380D02*
X98785714Y-106902380D01*
X99166666Y-106902380D01*
X99261904Y-106950000D01*
X99309523Y-106997619D01*
X99357142Y-107092857D01*
X99357142Y-107235714D01*
X99309523Y-107330952D01*
X99261904Y-107378571D01*
X99166666Y-107426190D01*
X98785714Y-107426190D01*
X99738095Y-106997619D02*
X99785714Y-106950000D01*
X99880952Y-106902380D01*
X100119047Y-106902380D01*
X100214285Y-106950000D01*
X100261904Y-106997619D01*
X100309523Y-107092857D01*
X100309523Y-107188095D01*
X100261904Y-107330952D01*
X99690476Y-107902380D01*
X100309523Y-107902380D01*
X100642857Y-106902380D02*
X101309523Y-106902380D01*
X100880952Y-107902380D01*
G04 #@! TO.C,R28*
X112952380Y-69242857D02*
X112476190Y-69576190D01*
X112952380Y-69814285D02*
X111952380Y-69814285D01*
X111952380Y-69433333D01*
X112000000Y-69338095D01*
X112047619Y-69290476D01*
X112142857Y-69242857D01*
X112285714Y-69242857D01*
X112380952Y-69290476D01*
X112428571Y-69338095D01*
X112476190Y-69433333D01*
X112476190Y-69814285D01*
X112047619Y-68861904D02*
X112000000Y-68814285D01*
X111952380Y-68719047D01*
X111952380Y-68480952D01*
X112000000Y-68385714D01*
X112047619Y-68338095D01*
X112142857Y-68290476D01*
X112238095Y-68290476D01*
X112380952Y-68338095D01*
X112952380Y-68909523D01*
X112952380Y-68290476D01*
X112380952Y-67719047D02*
X112333333Y-67814285D01*
X112285714Y-67861904D01*
X112190476Y-67909523D01*
X112142857Y-67909523D01*
X112047619Y-67861904D01*
X112000000Y-67814285D01*
X111952380Y-67719047D01*
X111952380Y-67528571D01*
X112000000Y-67433333D01*
X112047619Y-67385714D01*
X112142857Y-67338095D01*
X112190476Y-67338095D01*
X112285714Y-67385714D01*
X112333333Y-67433333D01*
X112380952Y-67528571D01*
X112380952Y-67719047D01*
X112428571Y-67814285D01*
X112476190Y-67861904D01*
X112571428Y-67909523D01*
X112761904Y-67909523D01*
X112857142Y-67861904D01*
X112904761Y-67814285D01*
X112952380Y-67719047D01*
X112952380Y-67528571D01*
X112904761Y-67433333D01*
X112857142Y-67385714D01*
X112761904Y-67338095D01*
X112571428Y-67338095D01*
X112476190Y-67385714D01*
X112428571Y-67433333D01*
X112380952Y-67528571D01*
G04 #@! TO.C,R29*
X103652380Y-110242857D02*
X103176190Y-110576190D01*
X103652380Y-110814285D02*
X102652380Y-110814285D01*
X102652380Y-110433333D01*
X102700000Y-110338095D01*
X102747619Y-110290476D01*
X102842857Y-110242857D01*
X102985714Y-110242857D01*
X103080952Y-110290476D01*
X103128571Y-110338095D01*
X103176190Y-110433333D01*
X103176190Y-110814285D01*
X102747619Y-109861904D02*
X102700000Y-109814285D01*
X102652380Y-109719047D01*
X102652380Y-109480952D01*
X102700000Y-109385714D01*
X102747619Y-109338095D01*
X102842857Y-109290476D01*
X102938095Y-109290476D01*
X103080952Y-109338095D01*
X103652380Y-109909523D01*
X103652380Y-109290476D01*
X103652380Y-108814285D02*
X103652380Y-108623809D01*
X103604761Y-108528571D01*
X103557142Y-108480952D01*
X103414285Y-108385714D01*
X103223809Y-108338095D01*
X102842857Y-108338095D01*
X102747619Y-108385714D01*
X102700000Y-108433333D01*
X102652380Y-108528571D01*
X102652380Y-108719047D01*
X102700000Y-108814285D01*
X102747619Y-108861904D01*
X102842857Y-108909523D01*
X103080952Y-108909523D01*
X103176190Y-108861904D01*
X103223809Y-108814285D01*
X103271428Y-108719047D01*
X103271428Y-108528571D01*
X103223809Y-108433333D01*
X103176190Y-108385714D01*
X103080952Y-108338095D01*
G04 #@! TO.C,R30*
X100707142Y-88961904D02*
X100373809Y-88580952D01*
X100135714Y-88961904D02*
X100135714Y-88161904D01*
X100516666Y-88161904D01*
X100611904Y-88200000D01*
X100659523Y-88238095D01*
X100707142Y-88314285D01*
X100707142Y-88428571D01*
X100659523Y-88504761D01*
X100611904Y-88542857D01*
X100516666Y-88580952D01*
X100135714Y-88580952D01*
X101040476Y-88161904D02*
X101659523Y-88161904D01*
X101326190Y-88466666D01*
X101469047Y-88466666D01*
X101564285Y-88504761D01*
X101611904Y-88542857D01*
X101659523Y-88619047D01*
X101659523Y-88809523D01*
X101611904Y-88885714D01*
X101564285Y-88923809D01*
X101469047Y-88961904D01*
X101183333Y-88961904D01*
X101088095Y-88923809D01*
X101040476Y-88885714D01*
X102278571Y-88161904D02*
X102373809Y-88161904D01*
X102469047Y-88200000D01*
X102516666Y-88238095D01*
X102564285Y-88314285D01*
X102611904Y-88466666D01*
X102611904Y-88657142D01*
X102564285Y-88809523D01*
X102516666Y-88885714D01*
X102469047Y-88923809D01*
X102373809Y-88961904D01*
X102278571Y-88961904D01*
X102183333Y-88923809D01*
X102135714Y-88885714D01*
X102088095Y-88809523D01*
X102040476Y-88657142D01*
X102040476Y-88466666D01*
X102088095Y-88314285D01*
X102135714Y-88238095D01*
X102183333Y-88200000D01*
X102278571Y-88161904D01*
G04 #@! TO.C,R31*
X103457142Y-88961904D02*
X103123809Y-88580952D01*
X102885714Y-88961904D02*
X102885714Y-88161904D01*
X103266666Y-88161904D01*
X103361904Y-88200000D01*
X103409523Y-88238095D01*
X103457142Y-88314285D01*
X103457142Y-88428571D01*
X103409523Y-88504761D01*
X103361904Y-88542857D01*
X103266666Y-88580952D01*
X102885714Y-88580952D01*
X103790476Y-88161904D02*
X104409523Y-88161904D01*
X104076190Y-88466666D01*
X104219047Y-88466666D01*
X104314285Y-88504761D01*
X104361904Y-88542857D01*
X104409523Y-88619047D01*
X104409523Y-88809523D01*
X104361904Y-88885714D01*
X104314285Y-88923809D01*
X104219047Y-88961904D01*
X103933333Y-88961904D01*
X103838095Y-88923809D01*
X103790476Y-88885714D01*
X105361904Y-88961904D02*
X104790476Y-88961904D01*
X105076190Y-88961904D02*
X105076190Y-88161904D01*
X104980952Y-88276190D01*
X104885714Y-88352380D01*
X104790476Y-88390476D01*
G04 #@! TO.C,R32*
X101852380Y-110242857D02*
X101376190Y-110576190D01*
X101852380Y-110814285D02*
X100852380Y-110814285D01*
X100852380Y-110433333D01*
X100900000Y-110338095D01*
X100947619Y-110290476D01*
X101042857Y-110242857D01*
X101185714Y-110242857D01*
X101280952Y-110290476D01*
X101328571Y-110338095D01*
X101376190Y-110433333D01*
X101376190Y-110814285D01*
X100852380Y-109909523D02*
X100852380Y-109290476D01*
X101233333Y-109623809D01*
X101233333Y-109480952D01*
X101280952Y-109385714D01*
X101328571Y-109338095D01*
X101423809Y-109290476D01*
X101661904Y-109290476D01*
X101757142Y-109338095D01*
X101804761Y-109385714D01*
X101852380Y-109480952D01*
X101852380Y-109766666D01*
X101804761Y-109861904D01*
X101757142Y-109909523D01*
X100947619Y-108909523D02*
X100900000Y-108861904D01*
X100852380Y-108766666D01*
X100852380Y-108528571D01*
X100900000Y-108433333D01*
X100947619Y-108385714D01*
X101042857Y-108338095D01*
X101138095Y-108338095D01*
X101280952Y-108385714D01*
X101852380Y-108957142D01*
X101852380Y-108338095D01*
G04 #@! TO.C,R33*
X115052380Y-81342857D02*
X114576190Y-81676190D01*
X115052380Y-81914285D02*
X114052380Y-81914285D01*
X114052380Y-81533333D01*
X114100000Y-81438095D01*
X114147619Y-81390476D01*
X114242857Y-81342857D01*
X114385714Y-81342857D01*
X114480952Y-81390476D01*
X114528571Y-81438095D01*
X114576190Y-81533333D01*
X114576190Y-81914285D01*
X114052380Y-81009523D02*
X114052380Y-80390476D01*
X114433333Y-80723809D01*
X114433333Y-80580952D01*
X114480952Y-80485714D01*
X114528571Y-80438095D01*
X114623809Y-80390476D01*
X114861904Y-80390476D01*
X114957142Y-80438095D01*
X115004761Y-80485714D01*
X115052380Y-80580952D01*
X115052380Y-80866666D01*
X115004761Y-80961904D01*
X114957142Y-81009523D01*
X114052380Y-80057142D02*
X114052380Y-79438095D01*
X114433333Y-79771428D01*
X114433333Y-79628571D01*
X114480952Y-79533333D01*
X114528571Y-79485714D01*
X114623809Y-79438095D01*
X114861904Y-79438095D01*
X114957142Y-79485714D01*
X115004761Y-79533333D01*
X115052380Y-79628571D01*
X115052380Y-79914285D01*
X115004761Y-80009523D01*
X114957142Y-80057142D01*
G04 #@! TO.C,R34*
X104102380Y-92742857D02*
X103626190Y-93076190D01*
X104102380Y-93314285D02*
X103102380Y-93314285D01*
X103102380Y-92933333D01*
X103150000Y-92838095D01*
X103197619Y-92790476D01*
X103292857Y-92742857D01*
X103435714Y-92742857D01*
X103530952Y-92790476D01*
X103578571Y-92838095D01*
X103626190Y-92933333D01*
X103626190Y-93314285D01*
X103102380Y-92409523D02*
X103102380Y-91790476D01*
X103483333Y-92123809D01*
X103483333Y-91980952D01*
X103530952Y-91885714D01*
X103578571Y-91838095D01*
X103673809Y-91790476D01*
X103911904Y-91790476D01*
X104007142Y-91838095D01*
X104054761Y-91885714D01*
X104102380Y-91980952D01*
X104102380Y-92266666D01*
X104054761Y-92361904D01*
X104007142Y-92409523D01*
X103435714Y-90933333D02*
X104102380Y-90933333D01*
X103054761Y-91171428D02*
X103769047Y-91409523D01*
X103769047Y-90790476D01*
G04 #@! TO.C,R35*
X107652380Y-110142857D02*
X107176190Y-110476190D01*
X107652380Y-110714285D02*
X106652380Y-110714285D01*
X106652380Y-110333333D01*
X106700000Y-110238095D01*
X106747619Y-110190476D01*
X106842857Y-110142857D01*
X106985714Y-110142857D01*
X107080952Y-110190476D01*
X107128571Y-110238095D01*
X107176190Y-110333333D01*
X107176190Y-110714285D01*
X106652380Y-109809523D02*
X106652380Y-109190476D01*
X107033333Y-109523809D01*
X107033333Y-109380952D01*
X107080952Y-109285714D01*
X107128571Y-109238095D01*
X107223809Y-109190476D01*
X107461904Y-109190476D01*
X107557142Y-109238095D01*
X107604761Y-109285714D01*
X107652380Y-109380952D01*
X107652380Y-109666666D01*
X107604761Y-109761904D01*
X107557142Y-109809523D01*
X106652380Y-108285714D02*
X106652380Y-108761904D01*
X107128571Y-108809523D01*
X107080952Y-108761904D01*
X107033333Y-108666666D01*
X107033333Y-108428571D01*
X107080952Y-108333333D01*
X107128571Y-108285714D01*
X107223809Y-108238095D01*
X107461904Y-108238095D01*
X107557142Y-108285714D01*
X107604761Y-108333333D01*
X107652380Y-108428571D01*
X107652380Y-108666666D01*
X107604761Y-108761904D01*
X107557142Y-108809523D01*
G04 #@! TO.C,R36*
X108457142Y-107902380D02*
X108123809Y-107426190D01*
X107885714Y-107902380D02*
X107885714Y-106902380D01*
X108266666Y-106902380D01*
X108361904Y-106950000D01*
X108409523Y-106997619D01*
X108457142Y-107092857D01*
X108457142Y-107235714D01*
X108409523Y-107330952D01*
X108361904Y-107378571D01*
X108266666Y-107426190D01*
X107885714Y-107426190D01*
X108790476Y-106902380D02*
X109409523Y-106902380D01*
X109076190Y-107283333D01*
X109219047Y-107283333D01*
X109314285Y-107330952D01*
X109361904Y-107378571D01*
X109409523Y-107473809D01*
X109409523Y-107711904D01*
X109361904Y-107807142D01*
X109314285Y-107854761D01*
X109219047Y-107902380D01*
X108933333Y-107902380D01*
X108838095Y-107854761D01*
X108790476Y-107807142D01*
X110266666Y-106902380D02*
X110076190Y-106902380D01*
X109980952Y-106950000D01*
X109933333Y-106997619D01*
X109838095Y-107140476D01*
X109790476Y-107330952D01*
X109790476Y-107711904D01*
X109838095Y-107807142D01*
X109885714Y-107854761D01*
X109980952Y-107902380D01*
X110171428Y-107902380D01*
X110266666Y-107854761D01*
X110314285Y-107807142D01*
X110361904Y-107711904D01*
X110361904Y-107473809D01*
X110314285Y-107378571D01*
X110266666Y-107330952D01*
X110171428Y-107283333D01*
X109980952Y-107283333D01*
X109885714Y-107330952D01*
X109838095Y-107378571D01*
X109790476Y-107473809D01*
G04 #@! TO.C,R37*
X104652380Y-81542857D02*
X104176190Y-81876190D01*
X104652380Y-82114285D02*
X103652380Y-82114285D01*
X103652380Y-81733333D01*
X103700000Y-81638095D01*
X103747619Y-81590476D01*
X103842857Y-81542857D01*
X103985714Y-81542857D01*
X104080952Y-81590476D01*
X104128571Y-81638095D01*
X104176190Y-81733333D01*
X104176190Y-82114285D01*
X103652380Y-81209523D02*
X103652380Y-80590476D01*
X104033333Y-80923809D01*
X104033333Y-80780952D01*
X104080952Y-80685714D01*
X104128571Y-80638095D01*
X104223809Y-80590476D01*
X104461904Y-80590476D01*
X104557142Y-80638095D01*
X104604761Y-80685714D01*
X104652380Y-80780952D01*
X104652380Y-81066666D01*
X104604761Y-81161904D01*
X104557142Y-81209523D01*
X103652380Y-80257142D02*
X103652380Y-79590476D01*
X104652380Y-80019047D01*
G04 #@! TO.C,R38*
X105357142Y-107902380D02*
X105023809Y-107426190D01*
X104785714Y-107902380D02*
X104785714Y-106902380D01*
X105166666Y-106902380D01*
X105261904Y-106950000D01*
X105309523Y-106997619D01*
X105357142Y-107092857D01*
X105357142Y-107235714D01*
X105309523Y-107330952D01*
X105261904Y-107378571D01*
X105166666Y-107426190D01*
X104785714Y-107426190D01*
X105690476Y-106902380D02*
X106309523Y-106902380D01*
X105976190Y-107283333D01*
X106119047Y-107283333D01*
X106214285Y-107330952D01*
X106261904Y-107378571D01*
X106309523Y-107473809D01*
X106309523Y-107711904D01*
X106261904Y-107807142D01*
X106214285Y-107854761D01*
X106119047Y-107902380D01*
X105833333Y-107902380D01*
X105738095Y-107854761D01*
X105690476Y-107807142D01*
X106880952Y-107330952D02*
X106785714Y-107283333D01*
X106738095Y-107235714D01*
X106690476Y-107140476D01*
X106690476Y-107092857D01*
X106738095Y-106997619D01*
X106785714Y-106950000D01*
X106880952Y-106902380D01*
X107071428Y-106902380D01*
X107166666Y-106950000D01*
X107214285Y-106997619D01*
X107261904Y-107092857D01*
X107261904Y-107140476D01*
X107214285Y-107235714D01*
X107166666Y-107283333D01*
X107071428Y-107330952D01*
X106880952Y-107330952D01*
X106785714Y-107378571D01*
X106738095Y-107426190D01*
X106690476Y-107521428D01*
X106690476Y-107711904D01*
X106738095Y-107807142D01*
X106785714Y-107854761D01*
X106880952Y-107902380D01*
X107071428Y-107902380D01*
X107166666Y-107854761D01*
X107214285Y-107807142D01*
X107261904Y-107711904D01*
X107261904Y-107521428D01*
X107214285Y-107426190D01*
X107166666Y-107378571D01*
X107071428Y-107330952D01*
G04 #@! TO.C,R39*
X115052380Y-78242857D02*
X114576190Y-78576190D01*
X115052380Y-78814285D02*
X114052380Y-78814285D01*
X114052380Y-78433333D01*
X114100000Y-78338095D01*
X114147619Y-78290476D01*
X114242857Y-78242857D01*
X114385714Y-78242857D01*
X114480952Y-78290476D01*
X114528571Y-78338095D01*
X114576190Y-78433333D01*
X114576190Y-78814285D01*
X114052380Y-77909523D02*
X114052380Y-77290476D01*
X114433333Y-77623809D01*
X114433333Y-77480952D01*
X114480952Y-77385714D01*
X114528571Y-77338095D01*
X114623809Y-77290476D01*
X114861904Y-77290476D01*
X114957142Y-77338095D01*
X115004761Y-77385714D01*
X115052380Y-77480952D01*
X115052380Y-77766666D01*
X115004761Y-77861904D01*
X114957142Y-77909523D01*
X115052380Y-76814285D02*
X115052380Y-76623809D01*
X115004761Y-76528571D01*
X114957142Y-76480952D01*
X114814285Y-76385714D01*
X114623809Y-76338095D01*
X114242857Y-76338095D01*
X114147619Y-76385714D01*
X114100000Y-76433333D01*
X114052380Y-76528571D01*
X114052380Y-76719047D01*
X114100000Y-76814285D01*
X114147619Y-76861904D01*
X114242857Y-76909523D01*
X114480952Y-76909523D01*
X114576190Y-76861904D01*
X114623809Y-76814285D01*
X114671428Y-76719047D01*
X114671428Y-76528571D01*
X114623809Y-76433333D01*
X114576190Y-76385714D01*
X114480952Y-76338095D01*
G04 #@! TO.C,R41*
X105652380Y-92742857D02*
X105176190Y-93076190D01*
X105652380Y-93314285D02*
X104652380Y-93314285D01*
X104652380Y-92933333D01*
X104700000Y-92838095D01*
X104747619Y-92790476D01*
X104842857Y-92742857D01*
X104985714Y-92742857D01*
X105080952Y-92790476D01*
X105128571Y-92838095D01*
X105176190Y-92933333D01*
X105176190Y-93314285D01*
X104985714Y-91885714D02*
X105652380Y-91885714D01*
X104604761Y-92123809D02*
X105319047Y-92361904D01*
X105319047Y-91742857D01*
X105652380Y-90838095D02*
X105652380Y-91409523D01*
X105652380Y-91123809D02*
X104652380Y-91123809D01*
X104795238Y-91219047D01*
X104890476Y-91314285D01*
X104938095Y-91409523D01*
G04 #@! TO.C,R42*
X108957142Y-88552380D02*
X108623809Y-88076190D01*
X108385714Y-88552380D02*
X108385714Y-87552380D01*
X108766666Y-87552380D01*
X108861904Y-87600000D01*
X108909523Y-87647619D01*
X108957142Y-87742857D01*
X108957142Y-87885714D01*
X108909523Y-87980952D01*
X108861904Y-88028571D01*
X108766666Y-88076190D01*
X108385714Y-88076190D01*
X109814285Y-87885714D02*
X109814285Y-88552380D01*
X109576190Y-87504761D02*
X109338095Y-88219047D01*
X109957142Y-88219047D01*
X110290476Y-87647619D02*
X110338095Y-87600000D01*
X110433333Y-87552380D01*
X110671428Y-87552380D01*
X110766666Y-87600000D01*
X110814285Y-87647619D01*
X110861904Y-87742857D01*
X110861904Y-87838095D01*
X110814285Y-87980952D01*
X110242857Y-88552380D01*
X110861904Y-88552380D01*
G04 #@! TO.C,R43*
X106257142Y-88952380D02*
X105923809Y-88476190D01*
X105685714Y-88952380D02*
X105685714Y-87952380D01*
X106066666Y-87952380D01*
X106161904Y-88000000D01*
X106209523Y-88047619D01*
X106257142Y-88142857D01*
X106257142Y-88285714D01*
X106209523Y-88380952D01*
X106161904Y-88428571D01*
X106066666Y-88476190D01*
X105685714Y-88476190D01*
X107114285Y-88285714D02*
X107114285Y-88952380D01*
X106876190Y-87904761D02*
X106638095Y-88619047D01*
X107257142Y-88619047D01*
X107542857Y-87952380D02*
X108161904Y-87952380D01*
X107828571Y-88333333D01*
X107971428Y-88333333D01*
X108066666Y-88380952D01*
X108114285Y-88428571D01*
X108161904Y-88523809D01*
X108161904Y-88761904D01*
X108114285Y-88857142D01*
X108066666Y-88904761D01*
X107971428Y-88952380D01*
X107685714Y-88952380D01*
X107590476Y-88904761D01*
X107542857Y-88857142D01*
G04 #@! TO.C,R44*
X102657142Y-86452380D02*
X102323809Y-85976190D01*
X102085714Y-86452380D02*
X102085714Y-85452380D01*
X102466666Y-85452380D01*
X102561904Y-85500000D01*
X102609523Y-85547619D01*
X102657142Y-85642857D01*
X102657142Y-85785714D01*
X102609523Y-85880952D01*
X102561904Y-85928571D01*
X102466666Y-85976190D01*
X102085714Y-85976190D01*
X103514285Y-85785714D02*
X103514285Y-86452380D01*
X103276190Y-85404761D02*
X103038095Y-86119047D01*
X103657142Y-86119047D01*
X104466666Y-85785714D02*
X104466666Y-86452380D01*
X104228571Y-85404761D02*
X103990476Y-86119047D01*
X104609523Y-86119047D01*
G04 #@! TO.C,R47*
X99857142Y-86452380D02*
X99523809Y-85976190D01*
X99285714Y-86452380D02*
X99285714Y-85452380D01*
X99666666Y-85452380D01*
X99761904Y-85500000D01*
X99809523Y-85547619D01*
X99857142Y-85642857D01*
X99857142Y-85785714D01*
X99809523Y-85880952D01*
X99761904Y-85928571D01*
X99666666Y-85976190D01*
X99285714Y-85976190D01*
X100714285Y-85785714D02*
X100714285Y-86452380D01*
X100476190Y-85404761D02*
X100238095Y-86119047D01*
X100857142Y-86119047D01*
X101142857Y-85452380D02*
X101809523Y-85452380D01*
X101380952Y-86452380D01*
G04 #@! TO.C,R49*
X111857142Y-87802380D02*
X111523809Y-87326190D01*
X111285714Y-87802380D02*
X111285714Y-86802380D01*
X111666666Y-86802380D01*
X111761904Y-86850000D01*
X111809523Y-86897619D01*
X111857142Y-86992857D01*
X111857142Y-87135714D01*
X111809523Y-87230952D01*
X111761904Y-87278571D01*
X111666666Y-87326190D01*
X111285714Y-87326190D01*
X112714285Y-87135714D02*
X112714285Y-87802380D01*
X112476190Y-86754761D02*
X112238095Y-87469047D01*
X112857142Y-87469047D01*
X113285714Y-87802380D02*
X113476190Y-87802380D01*
X113571428Y-87754761D01*
X113619047Y-87707142D01*
X113714285Y-87564285D01*
X113761904Y-87373809D01*
X113761904Y-86992857D01*
X113714285Y-86897619D01*
X113666666Y-86850000D01*
X113571428Y-86802380D01*
X113380952Y-86802380D01*
X113285714Y-86850000D01*
X113238095Y-86897619D01*
X113190476Y-86992857D01*
X113190476Y-87230952D01*
X113238095Y-87326190D01*
X113285714Y-87373809D01*
X113380952Y-87421428D01*
X113571428Y-87421428D01*
X113666666Y-87373809D01*
X113714285Y-87326190D01*
X113761904Y-87230952D01*
G04 #@! TO.C,R50*
X115057142Y-87802380D02*
X114723809Y-87326190D01*
X114485714Y-87802380D02*
X114485714Y-86802380D01*
X114866666Y-86802380D01*
X114961904Y-86850000D01*
X115009523Y-86897619D01*
X115057142Y-86992857D01*
X115057142Y-87135714D01*
X115009523Y-87230952D01*
X114961904Y-87278571D01*
X114866666Y-87326190D01*
X114485714Y-87326190D01*
X115961904Y-86802380D02*
X115485714Y-86802380D01*
X115438095Y-87278571D01*
X115485714Y-87230952D01*
X115580952Y-87183333D01*
X115819047Y-87183333D01*
X115914285Y-87230952D01*
X115961904Y-87278571D01*
X116009523Y-87373809D01*
X116009523Y-87611904D01*
X115961904Y-87707142D01*
X115914285Y-87754761D01*
X115819047Y-87802380D01*
X115580952Y-87802380D01*
X115485714Y-87754761D01*
X115438095Y-87707142D01*
X116628571Y-86802380D02*
X116723809Y-86802380D01*
X116819047Y-86850000D01*
X116866666Y-86897619D01*
X116914285Y-86992857D01*
X116961904Y-87183333D01*
X116961904Y-87421428D01*
X116914285Y-87611904D01*
X116866666Y-87707142D01*
X116819047Y-87754761D01*
X116723809Y-87802380D01*
X116628571Y-87802380D01*
X116533333Y-87754761D01*
X116485714Y-87707142D01*
X116438095Y-87611904D01*
X116390476Y-87421428D01*
X116390476Y-87183333D01*
X116438095Y-86992857D01*
X116485714Y-86897619D01*
X116533333Y-86850000D01*
X116628571Y-86802380D01*
G04 #@! TO.C,R51*
X113257142Y-73252380D02*
X112923809Y-72776190D01*
X112685714Y-73252380D02*
X112685714Y-72252380D01*
X113066666Y-72252380D01*
X113161904Y-72300000D01*
X113209523Y-72347619D01*
X113257142Y-72442857D01*
X113257142Y-72585714D01*
X113209523Y-72680952D01*
X113161904Y-72728571D01*
X113066666Y-72776190D01*
X112685714Y-72776190D01*
X114161904Y-72252380D02*
X113685714Y-72252380D01*
X113638095Y-72728571D01*
X113685714Y-72680952D01*
X113780952Y-72633333D01*
X114019047Y-72633333D01*
X114114285Y-72680952D01*
X114161904Y-72728571D01*
X114209523Y-72823809D01*
X114209523Y-73061904D01*
X114161904Y-73157142D01*
X114114285Y-73204761D01*
X114019047Y-73252380D01*
X113780952Y-73252380D01*
X113685714Y-73204761D01*
X113638095Y-73157142D01*
X115161904Y-73252380D02*
X114590476Y-73252380D01*
X114876190Y-73252380D02*
X114876190Y-72252380D01*
X114780952Y-72395238D01*
X114685714Y-72490476D01*
X114590476Y-72538095D01*
G04 #@! TO.C,R56*
X110952380Y-75542857D02*
X110476190Y-75876190D01*
X110952380Y-76114285D02*
X109952380Y-76114285D01*
X109952380Y-75733333D01*
X110000000Y-75638095D01*
X110047619Y-75590476D01*
X110142857Y-75542857D01*
X110285714Y-75542857D01*
X110380952Y-75590476D01*
X110428571Y-75638095D01*
X110476190Y-75733333D01*
X110476190Y-76114285D01*
X109952380Y-74638095D02*
X109952380Y-75114285D01*
X110428571Y-75161904D01*
X110380952Y-75114285D01*
X110333333Y-75019047D01*
X110333333Y-74780952D01*
X110380952Y-74685714D01*
X110428571Y-74638095D01*
X110523809Y-74590476D01*
X110761904Y-74590476D01*
X110857142Y-74638095D01*
X110904761Y-74685714D01*
X110952380Y-74780952D01*
X110952380Y-75019047D01*
X110904761Y-75114285D01*
X110857142Y-75161904D01*
X109952380Y-73733333D02*
X109952380Y-73923809D01*
X110000000Y-74019047D01*
X110047619Y-74066666D01*
X110190476Y-74161904D01*
X110380952Y-74209523D01*
X110761904Y-74209523D01*
X110857142Y-74161904D01*
X110904761Y-74114285D01*
X110952380Y-74019047D01*
X110952380Y-73828571D01*
X110904761Y-73733333D01*
X110857142Y-73685714D01*
X110761904Y-73638095D01*
X110523809Y-73638095D01*
X110428571Y-73685714D01*
X110380952Y-73733333D01*
X110333333Y-73828571D01*
X110333333Y-74019047D01*
X110380952Y-74114285D01*
X110428571Y-74161904D01*
X110523809Y-74209523D01*
G04 #@! TO.C,R57*
X106057142Y-67061904D02*
X105723809Y-66680952D01*
X105485714Y-67061904D02*
X105485714Y-66261904D01*
X105866666Y-66261904D01*
X105961904Y-66300000D01*
X106009523Y-66338095D01*
X106057142Y-66414285D01*
X106057142Y-66528571D01*
X106009523Y-66604761D01*
X105961904Y-66642857D01*
X105866666Y-66680952D01*
X105485714Y-66680952D01*
X106961904Y-66261904D02*
X106485714Y-66261904D01*
X106438095Y-66642857D01*
X106485714Y-66604761D01*
X106580952Y-66566666D01*
X106819047Y-66566666D01*
X106914285Y-66604761D01*
X106961904Y-66642857D01*
X107009523Y-66719047D01*
X107009523Y-66909523D01*
X106961904Y-66985714D01*
X106914285Y-67023809D01*
X106819047Y-67061904D01*
X106580952Y-67061904D01*
X106485714Y-67023809D01*
X106438095Y-66985714D01*
X107342857Y-66261904D02*
X108009523Y-66261904D01*
X107580952Y-67061904D01*
G04 #@! TO.C,R58*
X108957142Y-66952380D02*
X108623809Y-66476190D01*
X108385714Y-66952380D02*
X108385714Y-65952380D01*
X108766666Y-65952380D01*
X108861904Y-66000000D01*
X108909523Y-66047619D01*
X108957142Y-66142857D01*
X108957142Y-66285714D01*
X108909523Y-66380952D01*
X108861904Y-66428571D01*
X108766666Y-66476190D01*
X108385714Y-66476190D01*
X109861904Y-65952380D02*
X109385714Y-65952380D01*
X109338095Y-66428571D01*
X109385714Y-66380952D01*
X109480952Y-66333333D01*
X109719047Y-66333333D01*
X109814285Y-66380952D01*
X109861904Y-66428571D01*
X109909523Y-66523809D01*
X109909523Y-66761904D01*
X109861904Y-66857142D01*
X109814285Y-66904761D01*
X109719047Y-66952380D01*
X109480952Y-66952380D01*
X109385714Y-66904761D01*
X109338095Y-66857142D01*
X110480952Y-66380952D02*
X110385714Y-66333333D01*
X110338095Y-66285714D01*
X110290476Y-66190476D01*
X110290476Y-66142857D01*
X110338095Y-66047619D01*
X110385714Y-66000000D01*
X110480952Y-65952380D01*
X110671428Y-65952380D01*
X110766666Y-66000000D01*
X110814285Y-66047619D01*
X110861904Y-66142857D01*
X110861904Y-66190476D01*
X110814285Y-66285714D01*
X110766666Y-66333333D01*
X110671428Y-66380952D01*
X110480952Y-66380952D01*
X110385714Y-66428571D01*
X110338095Y-66476190D01*
X110290476Y-66571428D01*
X110290476Y-66761904D01*
X110338095Y-66857142D01*
X110385714Y-66904761D01*
X110480952Y-66952380D01*
X110671428Y-66952380D01*
X110766666Y-66904761D01*
X110814285Y-66857142D01*
X110861904Y-66761904D01*
X110861904Y-66571428D01*
X110814285Y-66476190D01*
X110766666Y-66428571D01*
X110671428Y-66380952D01*
G04 #@! TO.C,R59*
X103157142Y-68052380D02*
X102823809Y-67576190D01*
X102585714Y-68052380D02*
X102585714Y-67052380D01*
X102966666Y-67052380D01*
X103061904Y-67100000D01*
X103109523Y-67147619D01*
X103157142Y-67242857D01*
X103157142Y-67385714D01*
X103109523Y-67480952D01*
X103061904Y-67528571D01*
X102966666Y-67576190D01*
X102585714Y-67576190D01*
X104061904Y-67052380D02*
X103585714Y-67052380D01*
X103538095Y-67528571D01*
X103585714Y-67480952D01*
X103680952Y-67433333D01*
X103919047Y-67433333D01*
X104014285Y-67480952D01*
X104061904Y-67528571D01*
X104109523Y-67623809D01*
X104109523Y-67861904D01*
X104061904Y-67957142D01*
X104014285Y-68004761D01*
X103919047Y-68052380D01*
X103680952Y-68052380D01*
X103585714Y-68004761D01*
X103538095Y-67957142D01*
X104585714Y-68052380D02*
X104776190Y-68052380D01*
X104871428Y-68004761D01*
X104919047Y-67957142D01*
X105014285Y-67814285D01*
X105061904Y-67623809D01*
X105061904Y-67242857D01*
X105014285Y-67147619D01*
X104966666Y-67100000D01*
X104871428Y-67052380D01*
X104680952Y-67052380D01*
X104585714Y-67100000D01*
X104538095Y-67147619D01*
X104490476Y-67242857D01*
X104490476Y-67480952D01*
X104538095Y-67576190D01*
X104585714Y-67623809D01*
X104680952Y-67671428D01*
X104871428Y-67671428D01*
X104966666Y-67623809D01*
X105014285Y-67576190D01*
X105061904Y-67480952D01*
G04 #@! TO.C,R60*
X103157142Y-66852380D02*
X102823809Y-66376190D01*
X102585714Y-66852380D02*
X102585714Y-65852380D01*
X102966666Y-65852380D01*
X103061904Y-65900000D01*
X103109523Y-65947619D01*
X103157142Y-66042857D01*
X103157142Y-66185714D01*
X103109523Y-66280952D01*
X103061904Y-66328571D01*
X102966666Y-66376190D01*
X102585714Y-66376190D01*
X104014285Y-65852380D02*
X103823809Y-65852380D01*
X103728571Y-65900000D01*
X103680952Y-65947619D01*
X103585714Y-66090476D01*
X103538095Y-66280952D01*
X103538095Y-66661904D01*
X103585714Y-66757142D01*
X103633333Y-66804761D01*
X103728571Y-66852380D01*
X103919047Y-66852380D01*
X104014285Y-66804761D01*
X104061904Y-66757142D01*
X104109523Y-66661904D01*
X104109523Y-66423809D01*
X104061904Y-66328571D01*
X104014285Y-66280952D01*
X103919047Y-66233333D01*
X103728571Y-66233333D01*
X103633333Y-66280952D01*
X103585714Y-66328571D01*
X103538095Y-66423809D01*
X104728571Y-65852380D02*
X104823809Y-65852380D01*
X104919047Y-65900000D01*
X104966666Y-65947619D01*
X105014285Y-66042857D01*
X105061904Y-66233333D01*
X105061904Y-66471428D01*
X105014285Y-66661904D01*
X104966666Y-66757142D01*
X104919047Y-66804761D01*
X104823809Y-66852380D01*
X104728571Y-66852380D01*
X104633333Y-66804761D01*
X104585714Y-66757142D01*
X104538095Y-66661904D01*
X104490476Y-66471428D01*
X104490476Y-66233333D01*
X104538095Y-66042857D01*
X104585714Y-65947619D01*
X104633333Y-65900000D01*
X104728571Y-65852380D01*
G04 #@! TO.C,R65*
X104857142Y-73752380D02*
X104523809Y-73276190D01*
X104285714Y-73752380D02*
X104285714Y-72752380D01*
X104666666Y-72752380D01*
X104761904Y-72800000D01*
X104809523Y-72847619D01*
X104857142Y-72942857D01*
X104857142Y-73085714D01*
X104809523Y-73180952D01*
X104761904Y-73228571D01*
X104666666Y-73276190D01*
X104285714Y-73276190D01*
X105714285Y-72752380D02*
X105523809Y-72752380D01*
X105428571Y-72800000D01*
X105380952Y-72847619D01*
X105285714Y-72990476D01*
X105238095Y-73180952D01*
X105238095Y-73561904D01*
X105285714Y-73657142D01*
X105333333Y-73704761D01*
X105428571Y-73752380D01*
X105619047Y-73752380D01*
X105714285Y-73704761D01*
X105761904Y-73657142D01*
X105809523Y-73561904D01*
X105809523Y-73323809D01*
X105761904Y-73228571D01*
X105714285Y-73180952D01*
X105619047Y-73133333D01*
X105428571Y-73133333D01*
X105333333Y-73180952D01*
X105285714Y-73228571D01*
X105238095Y-73323809D01*
X106714285Y-72752380D02*
X106238095Y-72752380D01*
X106190476Y-73228571D01*
X106238095Y-73180952D01*
X106333333Y-73133333D01*
X106571428Y-73133333D01*
X106666666Y-73180952D01*
X106714285Y-73228571D01*
X106761904Y-73323809D01*
X106761904Y-73561904D01*
X106714285Y-73657142D01*
X106666666Y-73704761D01*
X106571428Y-73752380D01*
X106333333Y-73752380D01*
X106238095Y-73704761D01*
X106190476Y-73657142D01*
G04 #@! TO.C,R66*
X94557142Y-85952380D02*
X94223809Y-85476190D01*
X93985714Y-85952380D02*
X93985714Y-84952380D01*
X94366666Y-84952380D01*
X94461904Y-85000000D01*
X94509523Y-85047619D01*
X94557142Y-85142857D01*
X94557142Y-85285714D01*
X94509523Y-85380952D01*
X94461904Y-85428571D01*
X94366666Y-85476190D01*
X93985714Y-85476190D01*
X95414285Y-84952380D02*
X95223809Y-84952380D01*
X95128571Y-85000000D01*
X95080952Y-85047619D01*
X94985714Y-85190476D01*
X94938095Y-85380952D01*
X94938095Y-85761904D01*
X94985714Y-85857142D01*
X95033333Y-85904761D01*
X95128571Y-85952380D01*
X95319047Y-85952380D01*
X95414285Y-85904761D01*
X95461904Y-85857142D01*
X95509523Y-85761904D01*
X95509523Y-85523809D01*
X95461904Y-85428571D01*
X95414285Y-85380952D01*
X95319047Y-85333333D01*
X95128571Y-85333333D01*
X95033333Y-85380952D01*
X94985714Y-85428571D01*
X94938095Y-85523809D01*
X96366666Y-84952380D02*
X96176190Y-84952380D01*
X96080952Y-85000000D01*
X96033333Y-85047619D01*
X95938095Y-85190476D01*
X95890476Y-85380952D01*
X95890476Y-85761904D01*
X95938095Y-85857142D01*
X95985714Y-85904761D01*
X96080952Y-85952380D01*
X96271428Y-85952380D01*
X96366666Y-85904761D01*
X96414285Y-85857142D01*
X96461904Y-85761904D01*
X96461904Y-85523809D01*
X96414285Y-85428571D01*
X96366666Y-85380952D01*
X96271428Y-85333333D01*
X96080952Y-85333333D01*
X95985714Y-85380952D01*
X95938095Y-85428571D01*
X95890476Y-85523809D01*
G04 #@! TO.C,R67*
X80657142Y-80552380D02*
X80323809Y-80076190D01*
X80085714Y-80552380D02*
X80085714Y-79552380D01*
X80466666Y-79552380D01*
X80561904Y-79600000D01*
X80609523Y-79647619D01*
X80657142Y-79742857D01*
X80657142Y-79885714D01*
X80609523Y-79980952D01*
X80561904Y-80028571D01*
X80466666Y-80076190D01*
X80085714Y-80076190D01*
X81514285Y-79552380D02*
X81323809Y-79552380D01*
X81228571Y-79600000D01*
X81180952Y-79647619D01*
X81085714Y-79790476D01*
X81038095Y-79980952D01*
X81038095Y-80361904D01*
X81085714Y-80457142D01*
X81133333Y-80504761D01*
X81228571Y-80552380D01*
X81419047Y-80552380D01*
X81514285Y-80504761D01*
X81561904Y-80457142D01*
X81609523Y-80361904D01*
X81609523Y-80123809D01*
X81561904Y-80028571D01*
X81514285Y-79980952D01*
X81419047Y-79933333D01*
X81228571Y-79933333D01*
X81133333Y-79980952D01*
X81085714Y-80028571D01*
X81038095Y-80123809D01*
X81942857Y-79552380D02*
X82609523Y-79552380D01*
X82180952Y-80552380D01*
G04 #@! TO.C,R68*
X80657142Y-79052380D02*
X80323809Y-78576190D01*
X80085714Y-79052380D02*
X80085714Y-78052380D01*
X80466666Y-78052380D01*
X80561904Y-78100000D01*
X80609523Y-78147619D01*
X80657142Y-78242857D01*
X80657142Y-78385714D01*
X80609523Y-78480952D01*
X80561904Y-78528571D01*
X80466666Y-78576190D01*
X80085714Y-78576190D01*
X81514285Y-78052380D02*
X81323809Y-78052380D01*
X81228571Y-78100000D01*
X81180952Y-78147619D01*
X81085714Y-78290476D01*
X81038095Y-78480952D01*
X81038095Y-78861904D01*
X81085714Y-78957142D01*
X81133333Y-79004761D01*
X81228571Y-79052380D01*
X81419047Y-79052380D01*
X81514285Y-79004761D01*
X81561904Y-78957142D01*
X81609523Y-78861904D01*
X81609523Y-78623809D01*
X81561904Y-78528571D01*
X81514285Y-78480952D01*
X81419047Y-78433333D01*
X81228571Y-78433333D01*
X81133333Y-78480952D01*
X81085714Y-78528571D01*
X81038095Y-78623809D01*
X82180952Y-78480952D02*
X82085714Y-78433333D01*
X82038095Y-78385714D01*
X81990476Y-78290476D01*
X81990476Y-78242857D01*
X82038095Y-78147619D01*
X82085714Y-78100000D01*
X82180952Y-78052380D01*
X82371428Y-78052380D01*
X82466666Y-78100000D01*
X82514285Y-78147619D01*
X82561904Y-78242857D01*
X82561904Y-78290476D01*
X82514285Y-78385714D01*
X82466666Y-78433333D01*
X82371428Y-78480952D01*
X82180952Y-78480952D01*
X82085714Y-78528571D01*
X82038095Y-78576190D01*
X81990476Y-78671428D01*
X81990476Y-78861904D01*
X82038095Y-78957142D01*
X82085714Y-79004761D01*
X82180952Y-79052380D01*
X82371428Y-79052380D01*
X82466666Y-79004761D01*
X82514285Y-78957142D01*
X82561904Y-78861904D01*
X82561904Y-78671428D01*
X82514285Y-78576190D01*
X82466666Y-78528571D01*
X82371428Y-78480952D01*
G04 #@! TO.C,R69*
X76952380Y-85242857D02*
X76476190Y-85576190D01*
X76952380Y-85814285D02*
X75952380Y-85814285D01*
X75952380Y-85433333D01*
X76000000Y-85338095D01*
X76047619Y-85290476D01*
X76142857Y-85242857D01*
X76285714Y-85242857D01*
X76380952Y-85290476D01*
X76428571Y-85338095D01*
X76476190Y-85433333D01*
X76476190Y-85814285D01*
X75952380Y-84385714D02*
X75952380Y-84576190D01*
X76000000Y-84671428D01*
X76047619Y-84719047D01*
X76190476Y-84814285D01*
X76380952Y-84861904D01*
X76761904Y-84861904D01*
X76857142Y-84814285D01*
X76904761Y-84766666D01*
X76952380Y-84671428D01*
X76952380Y-84480952D01*
X76904761Y-84385714D01*
X76857142Y-84338095D01*
X76761904Y-84290476D01*
X76523809Y-84290476D01*
X76428571Y-84338095D01*
X76380952Y-84385714D01*
X76333333Y-84480952D01*
X76333333Y-84671428D01*
X76380952Y-84766666D01*
X76428571Y-84814285D01*
X76523809Y-84861904D01*
X76952380Y-83814285D02*
X76952380Y-83623809D01*
X76904761Y-83528571D01*
X76857142Y-83480952D01*
X76714285Y-83385714D01*
X76523809Y-83338095D01*
X76142857Y-83338095D01*
X76047619Y-83385714D01*
X76000000Y-83433333D01*
X75952380Y-83528571D01*
X75952380Y-83719047D01*
X76000000Y-83814285D01*
X76047619Y-83861904D01*
X76142857Y-83909523D01*
X76380952Y-83909523D01*
X76476190Y-83861904D01*
X76523809Y-83814285D01*
X76571428Y-83719047D01*
X76571428Y-83528571D01*
X76523809Y-83433333D01*
X76476190Y-83385714D01*
X76380952Y-83338095D01*
G04 #@! TO.C,R70*
X112252380Y-125042857D02*
X111776190Y-125376190D01*
X112252380Y-125614285D02*
X111252380Y-125614285D01*
X111252380Y-125233333D01*
X111300000Y-125138095D01*
X111347619Y-125090476D01*
X111442857Y-125042857D01*
X111585714Y-125042857D01*
X111680952Y-125090476D01*
X111728571Y-125138095D01*
X111776190Y-125233333D01*
X111776190Y-125614285D01*
X111252380Y-124709523D02*
X111252380Y-124042857D01*
X112252380Y-124471428D01*
X111252380Y-123471428D02*
X111252380Y-123376190D01*
X111300000Y-123280952D01*
X111347619Y-123233333D01*
X111442857Y-123185714D01*
X111633333Y-123138095D01*
X111871428Y-123138095D01*
X112061904Y-123185714D01*
X112157142Y-123233333D01*
X112204761Y-123280952D01*
X112252380Y-123376190D01*
X112252380Y-123471428D01*
X112204761Y-123566666D01*
X112157142Y-123614285D01*
X112061904Y-123661904D01*
X111871428Y-123709523D01*
X111633333Y-123709523D01*
X111442857Y-123661904D01*
X111347619Y-123614285D01*
X111300000Y-123566666D01*
X111252380Y-123471428D01*
G04 #@! TO.C,R71*
X87857142Y-121852380D02*
X87523809Y-121376190D01*
X87285714Y-121852380D02*
X87285714Y-120852380D01*
X87666666Y-120852380D01*
X87761904Y-120900000D01*
X87809523Y-120947619D01*
X87857142Y-121042857D01*
X87857142Y-121185714D01*
X87809523Y-121280952D01*
X87761904Y-121328571D01*
X87666666Y-121376190D01*
X87285714Y-121376190D01*
X88190476Y-120852380D02*
X88857142Y-120852380D01*
X88428571Y-121852380D01*
X89761904Y-121852380D02*
X89190476Y-121852380D01*
X89476190Y-121852380D02*
X89476190Y-120852380D01*
X89380952Y-120995238D01*
X89285714Y-121090476D01*
X89190476Y-121138095D01*
G04 #@! TO.C,R72*
X68957142Y-121852380D02*
X68623809Y-121376190D01*
X68385714Y-121852380D02*
X68385714Y-120852380D01*
X68766666Y-120852380D01*
X68861904Y-120900000D01*
X68909523Y-120947619D01*
X68957142Y-121042857D01*
X68957142Y-121185714D01*
X68909523Y-121280952D01*
X68861904Y-121328571D01*
X68766666Y-121376190D01*
X68385714Y-121376190D01*
X69290476Y-120852380D02*
X69957142Y-120852380D01*
X69528571Y-121852380D01*
X70290476Y-120947619D02*
X70338095Y-120900000D01*
X70433333Y-120852380D01*
X70671428Y-120852380D01*
X70766666Y-120900000D01*
X70814285Y-120947619D01*
X70861904Y-121042857D01*
X70861904Y-121138095D01*
X70814285Y-121280952D01*
X70242857Y-121852380D01*
X70861904Y-121852380D01*
G04 #@! TO.C,R73*
X48957142Y-121852380D02*
X48623809Y-121376190D01*
X48385714Y-121852380D02*
X48385714Y-120852380D01*
X48766666Y-120852380D01*
X48861904Y-120900000D01*
X48909523Y-120947619D01*
X48957142Y-121042857D01*
X48957142Y-121185714D01*
X48909523Y-121280952D01*
X48861904Y-121328571D01*
X48766666Y-121376190D01*
X48385714Y-121376190D01*
X49290476Y-120852380D02*
X49957142Y-120852380D01*
X49528571Y-121852380D01*
X50242857Y-120852380D02*
X50861904Y-120852380D01*
X50528571Y-121233333D01*
X50671428Y-121233333D01*
X50766666Y-121280952D01*
X50814285Y-121328571D01*
X50861904Y-121423809D01*
X50861904Y-121661904D01*
X50814285Y-121757142D01*
X50766666Y-121804761D01*
X50671428Y-121852380D01*
X50385714Y-121852380D01*
X50290476Y-121804761D01*
X50242857Y-121757142D01*
G04 #@! TO.C,R74*
X39357142Y-119402380D02*
X39023809Y-118926190D01*
X38785714Y-119402380D02*
X38785714Y-118402380D01*
X39166666Y-118402380D01*
X39261904Y-118450000D01*
X39309523Y-118497619D01*
X39357142Y-118592857D01*
X39357142Y-118735714D01*
X39309523Y-118830952D01*
X39261904Y-118878571D01*
X39166666Y-118926190D01*
X38785714Y-118926190D01*
X39690476Y-118402380D02*
X40357142Y-118402380D01*
X39928571Y-119402380D01*
X41166666Y-118735714D02*
X41166666Y-119402380D01*
X40928571Y-118354761D02*
X40690476Y-119069047D01*
X41309523Y-119069047D01*
G04 #@! TO.C,R75*
X37457142Y-101702380D02*
X37123809Y-101226190D01*
X36885714Y-101702380D02*
X36885714Y-100702380D01*
X37266666Y-100702380D01*
X37361904Y-100750000D01*
X37409523Y-100797619D01*
X37457142Y-100892857D01*
X37457142Y-101035714D01*
X37409523Y-101130952D01*
X37361904Y-101178571D01*
X37266666Y-101226190D01*
X36885714Y-101226190D01*
X37790476Y-100702380D02*
X38457142Y-100702380D01*
X38028571Y-101702380D01*
X39314285Y-100702380D02*
X38838095Y-100702380D01*
X38790476Y-101178571D01*
X38838095Y-101130952D01*
X38933333Y-101083333D01*
X39171428Y-101083333D01*
X39266666Y-101130952D01*
X39314285Y-101178571D01*
X39361904Y-101273809D01*
X39361904Y-101511904D01*
X39314285Y-101607142D01*
X39266666Y-101654761D01*
X39171428Y-101702380D01*
X38933333Y-101702380D01*
X38838095Y-101654761D01*
X38790476Y-101607142D01*
G04 #@! TO.C,R76*
X88252380Y-67642857D02*
X87776190Y-67976190D01*
X88252380Y-68214285D02*
X87252380Y-68214285D01*
X87252380Y-67833333D01*
X87300000Y-67738095D01*
X87347619Y-67690476D01*
X87442857Y-67642857D01*
X87585714Y-67642857D01*
X87680952Y-67690476D01*
X87728571Y-67738095D01*
X87776190Y-67833333D01*
X87776190Y-68214285D01*
X87252380Y-67309523D02*
X87252380Y-66642857D01*
X88252380Y-67071428D01*
X87252380Y-65833333D02*
X87252380Y-66023809D01*
X87300000Y-66119047D01*
X87347619Y-66166666D01*
X87490476Y-66261904D01*
X87680952Y-66309523D01*
X88061904Y-66309523D01*
X88157142Y-66261904D01*
X88204761Y-66214285D01*
X88252380Y-66119047D01*
X88252380Y-65928571D01*
X88204761Y-65833333D01*
X88157142Y-65785714D01*
X88061904Y-65738095D01*
X87823809Y-65738095D01*
X87728571Y-65785714D01*
X87680952Y-65833333D01*
X87633333Y-65928571D01*
X87633333Y-66119047D01*
X87680952Y-66214285D01*
X87728571Y-66261904D01*
X87823809Y-66309523D01*
G04 #@! TO.C,R77*
X85052380Y-67742857D02*
X84576190Y-68076190D01*
X85052380Y-68314285D02*
X84052380Y-68314285D01*
X84052380Y-67933333D01*
X84100000Y-67838095D01*
X84147619Y-67790476D01*
X84242857Y-67742857D01*
X84385714Y-67742857D01*
X84480952Y-67790476D01*
X84528571Y-67838095D01*
X84576190Y-67933333D01*
X84576190Y-68314285D01*
X84052380Y-67409523D02*
X84052380Y-66742857D01*
X85052380Y-67171428D01*
X84052380Y-66457142D02*
X84052380Y-65790476D01*
X85052380Y-66219047D01*
G04 #@! TO.C,R78*
X86652380Y-67642857D02*
X86176190Y-67976190D01*
X86652380Y-68214285D02*
X85652380Y-68214285D01*
X85652380Y-67833333D01*
X85700000Y-67738095D01*
X85747619Y-67690476D01*
X85842857Y-67642857D01*
X85985714Y-67642857D01*
X86080952Y-67690476D01*
X86128571Y-67738095D01*
X86176190Y-67833333D01*
X86176190Y-68214285D01*
X85652380Y-67309523D02*
X85652380Y-66642857D01*
X86652380Y-67071428D01*
X86080952Y-66119047D02*
X86033333Y-66214285D01*
X85985714Y-66261904D01*
X85890476Y-66309523D01*
X85842857Y-66309523D01*
X85747619Y-66261904D01*
X85700000Y-66214285D01*
X85652380Y-66119047D01*
X85652380Y-65928571D01*
X85700000Y-65833333D01*
X85747619Y-65785714D01*
X85842857Y-65738095D01*
X85890476Y-65738095D01*
X85985714Y-65785714D01*
X86033333Y-65833333D01*
X86080952Y-65928571D01*
X86080952Y-66119047D01*
X86128571Y-66214285D01*
X86176190Y-66261904D01*
X86271428Y-66309523D01*
X86461904Y-66309523D01*
X86557142Y-66261904D01*
X86604761Y-66214285D01*
X86652380Y-66119047D01*
X86652380Y-65928571D01*
X86604761Y-65833333D01*
X86557142Y-65785714D01*
X86461904Y-65738095D01*
X86271428Y-65738095D01*
X86176190Y-65785714D01*
X86128571Y-65833333D01*
X86080952Y-65928571D01*
G04 #@! TO.C,SW1*
X41604761Y-92733333D02*
X41652380Y-92590476D01*
X41652380Y-92352380D01*
X41604761Y-92257142D01*
X41557142Y-92209523D01*
X41461904Y-92161904D01*
X41366666Y-92161904D01*
X41271428Y-92209523D01*
X41223809Y-92257142D01*
X41176190Y-92352380D01*
X41128571Y-92542857D01*
X41080952Y-92638095D01*
X41033333Y-92685714D01*
X40938095Y-92733333D01*
X40842857Y-92733333D01*
X40747619Y-92685714D01*
X40700000Y-92638095D01*
X40652380Y-92542857D01*
X40652380Y-92304761D01*
X40700000Y-92161904D01*
X40652380Y-91828571D02*
X41652380Y-91590476D01*
X40938095Y-91400000D01*
X41652380Y-91209523D01*
X40652380Y-90971428D01*
X41652380Y-90066666D02*
X41652380Y-90638095D01*
X41652380Y-90352380D02*
X40652380Y-90352380D01*
X40795238Y-90447619D01*
X40890476Y-90542857D01*
X40938095Y-90638095D01*
G04 #@! TO.C,U3*
X48652380Y-78961904D02*
X49461904Y-78961904D01*
X49557142Y-78914285D01*
X49604761Y-78866666D01*
X49652380Y-78771428D01*
X49652380Y-78580952D01*
X49604761Y-78485714D01*
X49557142Y-78438095D01*
X49461904Y-78390476D01*
X48652380Y-78390476D01*
X48652380Y-78009523D02*
X48652380Y-77390476D01*
X49033333Y-77723809D01*
X49033333Y-77580952D01*
X49080952Y-77485714D01*
X49128571Y-77438095D01*
X49223809Y-77390476D01*
X49461904Y-77390476D01*
X49557142Y-77438095D01*
X49604761Y-77485714D01*
X49652380Y-77580952D01*
X49652380Y-77866666D01*
X49604761Y-77961904D01*
X49557142Y-78009523D01*
G04 #@! TO.C,U5*
X102838095Y-83652380D02*
X102838095Y-84461904D01*
X102885714Y-84557142D01*
X102933333Y-84604761D01*
X103028571Y-84652380D01*
X103219047Y-84652380D01*
X103314285Y-84604761D01*
X103361904Y-84557142D01*
X103409523Y-84461904D01*
X103409523Y-83652380D01*
X104361904Y-83652380D02*
X103885714Y-83652380D01*
X103838095Y-84128571D01*
X103885714Y-84080952D01*
X103980952Y-84033333D01*
X104219047Y-84033333D01*
X104314285Y-84080952D01*
X104361904Y-84128571D01*
X104409523Y-84223809D01*
X104409523Y-84461904D01*
X104361904Y-84557142D01*
X104314285Y-84604761D01*
X104219047Y-84652380D01*
X103980952Y-84652380D01*
X103885714Y-84604761D01*
X103838095Y-84557142D01*
G04 #@! TO.C,U9*
X89438095Y-74652380D02*
X89438095Y-75461904D01*
X89485714Y-75557142D01*
X89533333Y-75604761D01*
X89628571Y-75652380D01*
X89819047Y-75652380D01*
X89914285Y-75604761D01*
X89961904Y-75557142D01*
X90009523Y-75461904D01*
X90009523Y-74652380D01*
X90533333Y-75652380D02*
X90723809Y-75652380D01*
X90819047Y-75604761D01*
X90866666Y-75557142D01*
X90961904Y-75414285D01*
X91009523Y-75223809D01*
X91009523Y-74842857D01*
X90961904Y-74747619D01*
X90914285Y-74700000D01*
X90819047Y-74652380D01*
X90628571Y-74652380D01*
X90533333Y-74700000D01*
X90485714Y-74747619D01*
X90438095Y-74842857D01*
X90438095Y-75080952D01*
X90485714Y-75176190D01*
X90533333Y-75223809D01*
X90628571Y-75271428D01*
X90819047Y-75271428D01*
X90914285Y-75223809D01*
X90961904Y-75176190D01*
X91009523Y-75080952D01*
G04 #@! TO.C,U10*
X107361904Y-77852380D02*
X107361904Y-78661904D01*
X107409523Y-78757142D01*
X107457142Y-78804761D01*
X107552380Y-78852380D01*
X107742857Y-78852380D01*
X107838095Y-78804761D01*
X107885714Y-78757142D01*
X107933333Y-78661904D01*
X107933333Y-77852380D01*
X108933333Y-78852380D02*
X108361904Y-78852380D01*
X108647619Y-78852380D02*
X108647619Y-77852380D01*
X108552380Y-77995238D01*
X108457142Y-78090476D01*
X108361904Y-78138095D01*
X109552380Y-77852380D02*
X109647619Y-77852380D01*
X109742857Y-77900000D01*
X109790476Y-77947619D01*
X109838095Y-78042857D01*
X109885714Y-78233333D01*
X109885714Y-78471428D01*
X109838095Y-78661904D01*
X109790476Y-78757142D01*
X109742857Y-78804761D01*
X109647619Y-78852380D01*
X109552380Y-78852380D01*
X109457142Y-78804761D01*
X109409523Y-78757142D01*
X109361904Y-78661904D01*
X109314285Y-78471428D01*
X109314285Y-78233333D01*
X109361904Y-78042857D01*
X109409523Y-77947619D01*
X109457142Y-77900000D01*
X109552380Y-77852380D01*
G04 #@! TO.C,U11*
X69352380Y-79338095D02*
X70161904Y-79338095D01*
X70257142Y-79290476D01*
X70304761Y-79242857D01*
X70352380Y-79147619D01*
X70352380Y-78957142D01*
X70304761Y-78861904D01*
X70257142Y-78814285D01*
X70161904Y-78766666D01*
X69352380Y-78766666D01*
X70352380Y-77766666D02*
X70352380Y-78338095D01*
X70352380Y-78052380D02*
X69352380Y-78052380D01*
X69495238Y-78147619D01*
X69590476Y-78242857D01*
X69638095Y-78338095D01*
X70352380Y-76814285D02*
X70352380Y-77385714D01*
X70352380Y-77100000D02*
X69352380Y-77100000D01*
X69495238Y-77195238D01*
X69590476Y-77290476D01*
X69638095Y-77385714D01*
G04 #@! TO.C,U14*
X98561904Y-117302380D02*
X98561904Y-118111904D01*
X98609523Y-118207142D01*
X98657142Y-118254761D01*
X98752380Y-118302380D01*
X98942857Y-118302380D01*
X99038095Y-118254761D01*
X99085714Y-118207142D01*
X99133333Y-118111904D01*
X99133333Y-117302380D01*
X100133333Y-118302380D02*
X99561904Y-118302380D01*
X99847619Y-118302380D02*
X99847619Y-117302380D01*
X99752380Y-117445238D01*
X99657142Y-117540476D01*
X99561904Y-117588095D01*
X100990476Y-117635714D02*
X100990476Y-118302380D01*
X100752380Y-117254761D02*
X100514285Y-117969047D01*
X101133333Y-117969047D01*
G04 #@! TO.C,U15*
X88561904Y-117302380D02*
X88561904Y-118111904D01*
X88609523Y-118207142D01*
X88657142Y-118254761D01*
X88752380Y-118302380D01*
X88942857Y-118302380D01*
X89038095Y-118254761D01*
X89085714Y-118207142D01*
X89133333Y-118111904D01*
X89133333Y-117302380D01*
X90133333Y-118302380D02*
X89561904Y-118302380D01*
X89847619Y-118302380D02*
X89847619Y-117302380D01*
X89752380Y-117445238D01*
X89657142Y-117540476D01*
X89561904Y-117588095D01*
X91038095Y-117302380D02*
X90561904Y-117302380D01*
X90514285Y-117778571D01*
X90561904Y-117730952D01*
X90657142Y-117683333D01*
X90895238Y-117683333D01*
X90990476Y-117730952D01*
X91038095Y-117778571D01*
X91085714Y-117873809D01*
X91085714Y-118111904D01*
X91038095Y-118207142D01*
X90990476Y-118254761D01*
X90895238Y-118302380D01*
X90657142Y-118302380D01*
X90561904Y-118254761D01*
X90514285Y-118207142D01*
G04 #@! TO.C,U16*
X78461904Y-117302380D02*
X78461904Y-118111904D01*
X78509523Y-118207142D01*
X78557142Y-118254761D01*
X78652380Y-118302380D01*
X78842857Y-118302380D01*
X78938095Y-118254761D01*
X78985714Y-118207142D01*
X79033333Y-118111904D01*
X79033333Y-117302380D01*
X80033333Y-118302380D02*
X79461904Y-118302380D01*
X79747619Y-118302380D02*
X79747619Y-117302380D01*
X79652380Y-117445238D01*
X79557142Y-117540476D01*
X79461904Y-117588095D01*
X80890476Y-117302380D02*
X80700000Y-117302380D01*
X80604761Y-117350000D01*
X80557142Y-117397619D01*
X80461904Y-117540476D01*
X80414285Y-117730952D01*
X80414285Y-118111904D01*
X80461904Y-118207142D01*
X80509523Y-118254761D01*
X80604761Y-118302380D01*
X80795238Y-118302380D01*
X80890476Y-118254761D01*
X80938095Y-118207142D01*
X80985714Y-118111904D01*
X80985714Y-117873809D01*
X80938095Y-117778571D01*
X80890476Y-117730952D01*
X80795238Y-117683333D01*
X80604761Y-117683333D01*
X80509523Y-117730952D01*
X80461904Y-117778571D01*
X80414285Y-117873809D01*
G04 #@! TO.C,U17*
X66961904Y-117302380D02*
X66961904Y-118111904D01*
X67009523Y-118207142D01*
X67057142Y-118254761D01*
X67152380Y-118302380D01*
X67342857Y-118302380D01*
X67438095Y-118254761D01*
X67485714Y-118207142D01*
X67533333Y-118111904D01*
X67533333Y-117302380D01*
X68533333Y-118302380D02*
X67961904Y-118302380D01*
X68247619Y-118302380D02*
X68247619Y-117302380D01*
X68152380Y-117445238D01*
X68057142Y-117540476D01*
X67961904Y-117588095D01*
X68866666Y-117302380D02*
X69533333Y-117302380D01*
X69104761Y-118302380D01*
G04 #@! TO.C,U18*
X55461904Y-117302380D02*
X55461904Y-118111904D01*
X55509523Y-118207142D01*
X55557142Y-118254761D01*
X55652380Y-118302380D01*
X55842857Y-118302380D01*
X55938095Y-118254761D01*
X55985714Y-118207142D01*
X56033333Y-118111904D01*
X56033333Y-117302380D01*
X57033333Y-118302380D02*
X56461904Y-118302380D01*
X56747619Y-118302380D02*
X56747619Y-117302380D01*
X56652380Y-117445238D01*
X56557142Y-117540476D01*
X56461904Y-117588095D01*
X57604761Y-117730952D02*
X57509523Y-117683333D01*
X57461904Y-117635714D01*
X57414285Y-117540476D01*
X57414285Y-117492857D01*
X57461904Y-117397619D01*
X57509523Y-117350000D01*
X57604761Y-117302380D01*
X57795238Y-117302380D01*
X57890476Y-117350000D01*
X57938095Y-117397619D01*
X57985714Y-117492857D01*
X57985714Y-117540476D01*
X57938095Y-117635714D01*
X57890476Y-117683333D01*
X57795238Y-117730952D01*
X57604761Y-117730952D01*
X57509523Y-117778571D01*
X57461904Y-117826190D01*
X57414285Y-117921428D01*
X57414285Y-118111904D01*
X57461904Y-118207142D01*
X57509523Y-118254761D01*
X57604761Y-118302380D01*
X57795238Y-118302380D01*
X57890476Y-118254761D01*
X57938095Y-118207142D01*
X57985714Y-118111904D01*
X57985714Y-117921428D01*
X57938095Y-117826190D01*
X57890476Y-117778571D01*
X57795238Y-117730952D01*
G04 #@! TO.C,U19*
X43661904Y-107802380D02*
X43661904Y-108611904D01*
X43709523Y-108707142D01*
X43757142Y-108754761D01*
X43852380Y-108802380D01*
X44042857Y-108802380D01*
X44138095Y-108754761D01*
X44185714Y-108707142D01*
X44233333Y-108611904D01*
X44233333Y-107802380D01*
X45233333Y-108802380D02*
X44661904Y-108802380D01*
X44947619Y-108802380D02*
X44947619Y-107802380D01*
X44852380Y-107945238D01*
X44757142Y-108040476D01*
X44661904Y-108088095D01*
X45709523Y-108802380D02*
X45900000Y-108802380D01*
X45995238Y-108754761D01*
X46042857Y-108707142D01*
X46138095Y-108564285D01*
X46185714Y-108373809D01*
X46185714Y-107992857D01*
X46138095Y-107897619D01*
X46090476Y-107850000D01*
X45995238Y-107802380D01*
X45804761Y-107802380D01*
X45709523Y-107850000D01*
X45661904Y-107897619D01*
X45614285Y-107992857D01*
X45614285Y-108230952D01*
X45661904Y-108326190D01*
X45709523Y-108373809D01*
X45804761Y-108421428D01*
X45995238Y-108421428D01*
X46090476Y-108373809D01*
X46138095Y-108326190D01*
X46185714Y-108230952D01*
G04 #@! TO.C,L6*
X92952380Y-71066666D02*
X92952380Y-71542857D01*
X91952380Y-71542857D01*
X91952380Y-70304761D02*
X91952380Y-70495238D01*
X92000000Y-70590476D01*
X92047619Y-70638095D01*
X92190476Y-70733333D01*
X92380952Y-70780952D01*
X92761904Y-70780952D01*
X92857142Y-70733333D01*
X92904761Y-70685714D01*
X92952380Y-70590476D01*
X92952380Y-70400000D01*
X92904761Y-70304761D01*
X92857142Y-70257142D01*
X92761904Y-70209523D01*
X92523809Y-70209523D01*
X92428571Y-70257142D01*
X92380952Y-70304761D01*
X92333333Y-70400000D01*
X92333333Y-70590476D01*
X92380952Y-70685714D01*
X92428571Y-70733333D01*
X92523809Y-70780952D01*
G04 #@! TO.C,L7*
X95852380Y-71066666D02*
X95852380Y-71542857D01*
X94852380Y-71542857D01*
X94852380Y-70828571D02*
X94852380Y-70161904D01*
X95852380Y-70590476D01*
G04 #@! TO.C,L8*
X70233333Y-84152380D02*
X69757142Y-84152380D01*
X69757142Y-83152380D01*
X70709523Y-83580952D02*
X70614285Y-83533333D01*
X70566666Y-83485714D01*
X70519047Y-83390476D01*
X70519047Y-83342857D01*
X70566666Y-83247619D01*
X70614285Y-83200000D01*
X70709523Y-83152380D01*
X70900000Y-83152380D01*
X70995238Y-83200000D01*
X71042857Y-83247619D01*
X71090476Y-83342857D01*
X71090476Y-83390476D01*
X71042857Y-83485714D01*
X70995238Y-83533333D01*
X70900000Y-83580952D01*
X70709523Y-83580952D01*
X70614285Y-83628571D01*
X70566666Y-83676190D01*
X70519047Y-83771428D01*
X70519047Y-83961904D01*
X70566666Y-84057142D01*
X70614285Y-84104761D01*
X70709523Y-84152380D01*
X70900000Y-84152380D01*
X70995238Y-84104761D01*
X71042857Y-84057142D01*
X71090476Y-83961904D01*
X71090476Y-83771428D01*
X71042857Y-83676190D01*
X70995238Y-83628571D01*
X70900000Y-83580952D01*
G04 #@! TO.C,L9*
X76833333Y-70652380D02*
X76357142Y-70652380D01*
X76357142Y-69652380D01*
X77214285Y-70652380D02*
X77404761Y-70652380D01*
X77500000Y-70604761D01*
X77547619Y-70557142D01*
X77642857Y-70414285D01*
X77690476Y-70223809D01*
X77690476Y-69842857D01*
X77642857Y-69747619D01*
X77595238Y-69700000D01*
X77500000Y-69652380D01*
X77309523Y-69652380D01*
X77214285Y-69700000D01*
X77166666Y-69747619D01*
X77119047Y-69842857D01*
X77119047Y-70080952D01*
X77166666Y-70176190D01*
X77214285Y-70223809D01*
X77309523Y-70271428D01*
X77500000Y-70271428D01*
X77595238Y-70223809D01*
X77642857Y-70176190D01*
X77690476Y-70080952D01*
G04 #@! TO.C,L10*
X54757142Y-74252380D02*
X54280952Y-74252380D01*
X54280952Y-73252380D01*
X55614285Y-74252380D02*
X55042857Y-74252380D01*
X55328571Y-74252380D02*
X55328571Y-73252380D01*
X55233333Y-73395238D01*
X55138095Y-73490476D01*
X55042857Y-73538095D01*
X56233333Y-73252380D02*
X56328571Y-73252380D01*
X56423809Y-73300000D01*
X56471428Y-73347619D01*
X56519047Y-73442857D01*
X56566666Y-73633333D01*
X56566666Y-73871428D01*
X56519047Y-74061904D01*
X56471428Y-74157142D01*
X56423809Y-74204761D01*
X56328571Y-74252380D01*
X56233333Y-74252380D01*
X56138095Y-74204761D01*
X56090476Y-74157142D01*
X56042857Y-74061904D01*
X55995238Y-73871428D01*
X55995238Y-73633333D01*
X56042857Y-73442857D01*
X56090476Y-73347619D01*
X56138095Y-73300000D01*
X56233333Y-73252380D01*
G04 #@! TO.C,TP1*
X86938095Y-109852380D02*
X87509523Y-109852380D01*
X87223809Y-110852380D02*
X87223809Y-109852380D01*
X87842857Y-110852380D02*
X87842857Y-109852380D01*
X88223809Y-109852380D01*
X88319047Y-109900000D01*
X88366666Y-109947619D01*
X88414285Y-110042857D01*
X88414285Y-110185714D01*
X88366666Y-110280952D01*
X88319047Y-110328571D01*
X88223809Y-110376190D01*
X87842857Y-110376190D01*
X89366666Y-110852380D02*
X88795238Y-110852380D01*
X89080952Y-110852380D02*
X89080952Y-109852380D01*
X88985714Y-109995238D01*
X88890476Y-110090476D01*
X88795238Y-110138095D01*
G04 #@! TO.C,TP2*
X78038095Y-108652380D02*
X78609523Y-108652380D01*
X78323809Y-109652380D02*
X78323809Y-108652380D01*
X78942857Y-109652380D02*
X78942857Y-108652380D01*
X79323809Y-108652380D01*
X79419047Y-108700000D01*
X79466666Y-108747619D01*
X79514285Y-108842857D01*
X79514285Y-108985714D01*
X79466666Y-109080952D01*
X79419047Y-109128571D01*
X79323809Y-109176190D01*
X78942857Y-109176190D01*
X79895238Y-108747619D02*
X79942857Y-108700000D01*
X80038095Y-108652380D01*
X80276190Y-108652380D01*
X80371428Y-108700000D01*
X80419047Y-108747619D01*
X80466666Y-108842857D01*
X80466666Y-108938095D01*
X80419047Y-109080952D01*
X79847619Y-109652380D01*
X80466666Y-109652380D01*
G04 #@! TO.C,TP3*
X90938095Y-109852380D02*
X91509523Y-109852380D01*
X91223809Y-110852380D02*
X91223809Y-109852380D01*
X91842857Y-110852380D02*
X91842857Y-109852380D01*
X92223809Y-109852380D01*
X92319047Y-109900000D01*
X92366666Y-109947619D01*
X92414285Y-110042857D01*
X92414285Y-110185714D01*
X92366666Y-110280952D01*
X92319047Y-110328571D01*
X92223809Y-110376190D01*
X91842857Y-110376190D01*
X92747619Y-109852380D02*
X93366666Y-109852380D01*
X93033333Y-110233333D01*
X93176190Y-110233333D01*
X93271428Y-110280952D01*
X93319047Y-110328571D01*
X93366666Y-110423809D01*
X93366666Y-110661904D01*
X93319047Y-110757142D01*
X93271428Y-110804761D01*
X93176190Y-110852380D01*
X92890476Y-110852380D01*
X92795238Y-110804761D01*
X92747619Y-110757142D01*
G04 #@! TO.C,TP4*
X81838095Y-108652380D02*
X82409523Y-108652380D01*
X82123809Y-109652380D02*
X82123809Y-108652380D01*
X82742857Y-109652380D02*
X82742857Y-108652380D01*
X83123809Y-108652380D01*
X83219047Y-108700000D01*
X83266666Y-108747619D01*
X83314285Y-108842857D01*
X83314285Y-108985714D01*
X83266666Y-109080952D01*
X83219047Y-109128571D01*
X83123809Y-109176190D01*
X82742857Y-109176190D01*
X84171428Y-108985714D02*
X84171428Y-109652380D01*
X83933333Y-108604761D02*
X83695238Y-109319047D01*
X84314285Y-109319047D01*
G04 #@! TD*
M02*
