G04 #@! TF.GenerationSoftware,KiCad,Pcbnew,(5.0.0)*
G04 #@! TF.CreationDate,2018-09-09T11:50:12+09:00*
G04 #@! TF.ProjectId,ZynqBoard2,5A796E71426F617264322E6B69636164,rev?*
G04 #@! TF.SameCoordinates,Original*
G04 #@! TF.FileFunction,Soldermask,Top*
G04 #@! TF.FilePolarity,Negative*
%FSLAX46Y46*%
G04 Gerber Fmt 4.6, Leading zero omitted, Abs format (unit mm)*
G04 Created by KiCad (PCBNEW (5.0.0)) date 09/09/18 11:50:12*
%MOMM*%
%LPD*%
G01*
G04 APERTURE LIST*
%ADD10R,1.250000X1.500000*%
%ADD11R,1.050000X1.000000*%
%ADD12R,0.550000X1.060000*%
%ADD13R,1.060000X0.550000*%
%ADD14R,2.000000X2.000000*%
%ADD15R,0.750000X0.850000*%
%ADD16R,0.850000X0.750000*%
%ADD17C,0.580000*%
%ADD18R,1.180000X1.180000*%
%ADD19C,0.887106*%
%ADD20C,0.100000*%
%ADD21R,0.850000X0.850000*%
%ADD22O,1.000000X0.550000*%
%ADD23O,0.550000X1.000000*%
%ADD24R,2.750000X1.250000*%
%ADD25R,1.000000X1.050000*%
%ADD26R,1.500000X1.250000*%
%ADD27R,1.050000X1.050000*%
%ADD28R,0.850000X1.100000*%
%ADD29R,0.900000X1.100000*%
%ADD30O,1.600000X1.600000*%
%ADD31R,1.600000X1.600000*%
%ADD32R,1.550000X2.150000*%
%ADD33R,1.250000X3.050000*%
%ADD34R,1.250000X1.050000*%
%ADD35R,1.250000X1.450000*%
%ADD36R,0.950000X1.450000*%
%ADD37C,2.000000*%
%ADD38R,0.480000X1.100000*%
%ADD39R,0.710000X1.100000*%
%ADD40C,0.850000*%
%ADD41O,1.450000X2.550000*%
%ADD42C,1.750000*%
%ADD43O,2.250000X1.350000*%
%ADD44O,1.350000X2.250000*%
%ADD45R,6.150000X1.850000*%
%ADD46R,1.150000X1.250000*%
%ADD47O,1.950000X1.950000*%
%ADD48R,1.950000X1.950000*%
%ADD49R,1.050000X1.150000*%
%ADD50R,1.150000X1.050000*%
%ADD51R,1.150000X0.750000*%
%ADD52R,0.750000X1.150000*%
%ADD53O,3.750000X2.450000*%
%ADD54O,2.750000X1.750000*%
%ADD55R,2.750000X1.750000*%
%ADD56R,1.750000X2.750000*%
%ADD57O,1.750000X2.750000*%
%ADD58O,2.450000X3.750000*%
%ADD59R,1.550000X1.550000*%
%ADD60R,1.100000X0.550000*%
%ADD61R,0.550000X1.100000*%
%ADD62R,0.950000X0.500000*%
%ADD63R,0.500000X0.950000*%
%ADD64R,1.075000X1.575000*%
%ADD65R,1.550000X0.500000*%
%ADD66R,0.500000X1.550000*%
%ADD67R,1.310000X0.900000*%
%ADD68R,1.975000X1.975000*%
%ADD69C,1.550000*%
%ADD70R,1.750000X0.700000*%
%ADD71R,0.850000X0.650000*%
%ADD72R,0.650000X0.850000*%
%ADD73C,4.650000*%
%ADD74C,1.250000*%
G04 APERTURE END LIST*
D10*
G04 #@! TO.C,C48*
X89800000Y-98900000D03*
X87800000Y-98900000D03*
G04 #@! TD*
D11*
G04 #@! TO.C,C95*
X95450000Y-108600000D03*
X96950000Y-108600000D03*
G04 #@! TD*
D12*
G04 #@! TO.C,U4*
X107150000Y-101400000D03*
X106650000Y-101400000D03*
X106150000Y-101400000D03*
X105650000Y-101400000D03*
X105150000Y-101400000D03*
X104650000Y-101400000D03*
X104150000Y-101400000D03*
X103650000Y-101400000D03*
X103150000Y-101400000D03*
X102650000Y-101400000D03*
X102150000Y-101400000D03*
X101650000Y-94600000D03*
X102150000Y-94600000D03*
X102650000Y-94600000D03*
X103150000Y-94600000D03*
X103650000Y-94600000D03*
X104150000Y-94600000D03*
X104650000Y-94600000D03*
X105150000Y-94600000D03*
X105650000Y-94600000D03*
X106150000Y-94600000D03*
X106650000Y-94600000D03*
D13*
X101000000Y-100750000D03*
X101000000Y-100250000D03*
X101000000Y-99750000D03*
X101000000Y-99250000D03*
X101000000Y-98750000D03*
X101000000Y-98250000D03*
X101000000Y-97750000D03*
X101000000Y-97250000D03*
X101000000Y-96750000D03*
X101000000Y-96250000D03*
X101000000Y-95750000D03*
X107800000Y-95250000D03*
X107800000Y-95750000D03*
X107800000Y-96250000D03*
X107800000Y-96750000D03*
X107800000Y-97250000D03*
X107800000Y-97750000D03*
X107800000Y-98250000D03*
X107800000Y-98750000D03*
X107800000Y-99250000D03*
X107800000Y-99750000D03*
X107800000Y-100250000D03*
X101000000Y-95250000D03*
D12*
X107150000Y-94600000D03*
D13*
X107800000Y-100750000D03*
D12*
X101650000Y-101400000D03*
D14*
X106150000Y-99750000D03*
X106150000Y-96250000D03*
X106150000Y-98000000D03*
X104400000Y-98000000D03*
X104400000Y-96250000D03*
X104400000Y-99750000D03*
X102650000Y-98000000D03*
X102650000Y-96250000D03*
X102650000Y-99750000D03*
G04 #@! TD*
D15*
G04 #@! TO.C,C123*
X89100000Y-82150000D03*
X89100000Y-81050000D03*
G04 #@! TD*
D16*
G04 #@! TO.C,C4*
X47150000Y-105500000D03*
X46050000Y-105500000D03*
G04 #@! TD*
G04 #@! TO.C,C5*
X57350000Y-92800000D03*
X56250000Y-92800000D03*
G04 #@! TD*
G04 #@! TO.C,C6*
X55250000Y-92800000D03*
X54150000Y-92800000D03*
G04 #@! TD*
G04 #@! TO.C,C7*
X53150000Y-92800000D03*
X52050000Y-92800000D03*
G04 #@! TD*
G04 #@! TO.C,C8*
X51050000Y-92800000D03*
X49950000Y-92800000D03*
G04 #@! TD*
G04 #@! TO.C,C9*
X48950000Y-92800000D03*
X47850000Y-92800000D03*
G04 #@! TD*
G04 #@! TO.C,C10*
X46850000Y-92800000D03*
X45750000Y-92800000D03*
G04 #@! TD*
D15*
G04 #@! TO.C,C11*
X44100000Y-94250000D03*
X44100000Y-95350000D03*
G04 #@! TD*
G04 #@! TO.C,C12*
X41400000Y-94050000D03*
X41400000Y-95150000D03*
G04 #@! TD*
D16*
G04 #@! TO.C,C13*
X46850000Y-103600000D03*
X45750000Y-103600000D03*
G04 #@! TD*
G04 #@! TO.C,C14*
X48950000Y-103600000D03*
X47850000Y-103600000D03*
G04 #@! TD*
G04 #@! TO.C,C15*
X51050000Y-103600000D03*
X49950000Y-103600000D03*
G04 #@! TD*
G04 #@! TO.C,C16*
X52050000Y-103600000D03*
X53150000Y-103600000D03*
G04 #@! TD*
G04 #@! TO.C,C17*
X55250000Y-103600000D03*
X54150000Y-103600000D03*
G04 #@! TD*
G04 #@! TO.C,C18*
X56250000Y-103600000D03*
X57350000Y-103600000D03*
G04 #@! TD*
D15*
G04 #@! TO.C,C19*
X58700000Y-100850000D03*
X58700000Y-101950000D03*
G04 #@! TD*
D16*
G04 #@! TO.C,C20*
X55250000Y-91200000D03*
X54150000Y-91200000D03*
G04 #@! TD*
G04 #@! TO.C,C21*
X46850000Y-91200000D03*
X45750000Y-91200000D03*
G04 #@! TD*
D15*
G04 #@! TO.C,C63*
X67800000Y-85950000D03*
X67800000Y-84850000D03*
G04 #@! TD*
D16*
G04 #@! TO.C,C64*
X68250000Y-109400000D03*
X69350000Y-109400000D03*
G04 #@! TD*
G04 #@! TO.C,C85*
X46250000Y-84800000D03*
X45150000Y-84800000D03*
G04 #@! TD*
D15*
G04 #@! TO.C,C93*
X98900000Y-98350000D03*
X98900000Y-99450000D03*
G04 #@! TD*
G04 #@! TO.C,C97*
X115600000Y-67850000D03*
X115600000Y-68950000D03*
G04 #@! TD*
G04 #@! TO.C,C98*
X105600000Y-103250000D03*
X105600000Y-104350000D03*
G04 #@! TD*
G04 #@! TO.C,C99*
X104600000Y-103250000D03*
X104600000Y-104350000D03*
G04 #@! TD*
G04 #@! TO.C,C100*
X98900000Y-96150000D03*
X98900000Y-97250000D03*
G04 #@! TD*
G04 #@! TO.C,C103*
X100100000Y-103550000D03*
X100100000Y-104650000D03*
G04 #@! TD*
G04 #@! TO.C,C104*
X110000000Y-84150000D03*
X110000000Y-85250000D03*
G04 #@! TD*
G04 #@! TO.C,C105*
X100800000Y-92450000D03*
X100800000Y-91350000D03*
G04 #@! TD*
G04 #@! TO.C,C107*
X108500000Y-103350000D03*
X108500000Y-104450000D03*
G04 #@! TD*
G04 #@! TO.C,C109*
X106800000Y-80550000D03*
X106800000Y-81650000D03*
G04 #@! TD*
G04 #@! TO.C,C110*
X107900000Y-92450000D03*
X107900000Y-91350000D03*
G04 #@! TD*
D16*
G04 #@! TO.C,C113*
X110250000Y-98100000D03*
X111350000Y-98100000D03*
G04 #@! TD*
D15*
G04 #@! TO.C,C121*
X110500000Y-70250000D03*
X110500000Y-71350000D03*
G04 #@! TD*
D16*
G04 #@! TO.C,C122*
X90650000Y-72800000D03*
X91750000Y-72800000D03*
G04 #@! TD*
D15*
G04 #@! TO.C,C124*
X101000000Y-77050000D03*
X101000000Y-75950000D03*
G04 #@! TD*
G04 #@! TO.C,C126*
X101400000Y-80750000D03*
X101400000Y-81850000D03*
G04 #@! TD*
G04 #@! TO.C,C127*
X100500000Y-82750000D03*
X100500000Y-83850000D03*
G04 #@! TD*
G04 #@! TO.C,C128*
X99400000Y-82750000D03*
X99400000Y-83850000D03*
G04 #@! TD*
G04 #@! TO.C,C130*
X101400000Y-79650000D03*
X101400000Y-78550000D03*
G04 #@! TD*
D16*
G04 #@! TO.C,C131*
X108050000Y-76000000D03*
X109150000Y-76000000D03*
G04 #@! TD*
G04 #@! TO.C,C132*
X93850000Y-72800000D03*
X92750000Y-72800000D03*
G04 #@! TD*
G04 #@! TO.C,C133*
X101650000Y-74700000D03*
X100550000Y-74700000D03*
G04 #@! TD*
G04 #@! TO.C,C134*
X96750000Y-72800000D03*
X97850000Y-72800000D03*
G04 #@! TD*
D15*
G04 #@! TO.C,C135*
X77300000Y-75150000D03*
X77300000Y-74050000D03*
G04 #@! TD*
D16*
G04 #@! TO.C,C137*
X73350000Y-80700000D03*
X74450000Y-80700000D03*
G04 #@! TD*
G04 #@! TO.C,C139*
X73950000Y-72500000D03*
X72850000Y-72500000D03*
G04 #@! TD*
D15*
G04 #@! TO.C,C140*
X70000000Y-74850000D03*
X70000000Y-73750000D03*
G04 #@! TD*
D16*
G04 #@! TO.C,C141*
X71150000Y-80700000D03*
X72250000Y-80700000D03*
G04 #@! TD*
G04 #@! TO.C,C143*
X65650000Y-72300000D03*
X66750000Y-72300000D03*
G04 #@! TD*
G04 #@! TO.C,C144*
X52250000Y-72300000D03*
X53350000Y-72300000D03*
G04 #@! TD*
G04 #@! TO.C,C145*
X96850000Y-117600000D03*
X97950000Y-117600000D03*
G04 #@! TD*
G04 #@! TO.C,C146*
X86850000Y-117800000D03*
X87950000Y-117800000D03*
G04 #@! TD*
G04 #@! TO.C,C147*
X76750000Y-117800000D03*
X77850000Y-117800000D03*
G04 #@! TD*
G04 #@! TO.C,C148*
X65250000Y-117800000D03*
X66350000Y-117800000D03*
G04 #@! TD*
G04 #@! TO.C,C149*
X53750000Y-117800000D03*
X54850000Y-117800000D03*
G04 #@! TD*
G04 #@! TO.C,C150*
X47850000Y-108400000D03*
X46750000Y-108400000D03*
G04 #@! TD*
D17*
G04 #@! TO.C,U2*
X45500000Y-101400000D03*
X45500000Y-100600000D03*
X45500000Y-99800000D03*
X45500000Y-96600000D03*
X45500000Y-95800000D03*
X45500000Y-95000000D03*
X46300000Y-101400000D03*
X46300000Y-100600000D03*
X46300000Y-99800000D03*
X46300000Y-96600000D03*
X46300000Y-95800000D03*
X46300000Y-95000000D03*
X47100000Y-101400000D03*
X47100000Y-100600000D03*
X47100000Y-99800000D03*
X47100000Y-96600000D03*
X47100000Y-95800000D03*
X47100000Y-95000000D03*
X47900000Y-101400000D03*
X47900000Y-100600000D03*
X47900000Y-99800000D03*
X47900000Y-96600000D03*
X47900000Y-95800000D03*
X47900000Y-95000000D03*
X48700000Y-101400000D03*
X48700000Y-100600000D03*
X48700000Y-99800000D03*
X48700000Y-96600000D03*
X48700000Y-95800000D03*
X48700000Y-95000000D03*
X49500000Y-101400000D03*
X49500000Y-100600000D03*
X49500000Y-99800000D03*
X49500000Y-96600000D03*
X49500000Y-95800000D03*
X49500000Y-95000000D03*
X50300000Y-101400000D03*
X50300000Y-100600000D03*
X50300000Y-99800000D03*
X50300000Y-96600000D03*
X50300000Y-95800000D03*
X50300000Y-95000000D03*
X51100000Y-101400000D03*
X51100000Y-100600000D03*
X51100000Y-99800000D03*
X51100000Y-96600000D03*
X51100000Y-95800000D03*
X51100000Y-95000000D03*
X51900000Y-101400000D03*
X51900000Y-100600000D03*
X51900000Y-99800000D03*
X51900000Y-96600000D03*
X51900000Y-95800000D03*
X51900000Y-95000000D03*
X52700000Y-101400000D03*
X52700000Y-100600000D03*
X52700000Y-99800000D03*
X52700000Y-96600000D03*
X52700000Y-95800000D03*
X52700000Y-95000000D03*
X53500000Y-101400000D03*
X53500000Y-100600000D03*
X53500000Y-99800000D03*
X53500000Y-96600000D03*
X53500000Y-95800000D03*
X53500000Y-95000000D03*
X54300000Y-101400000D03*
X54300000Y-100600000D03*
X54300000Y-99800000D03*
X54300000Y-96600000D03*
X54300000Y-95800000D03*
X54300000Y-95000000D03*
X55100000Y-101400000D03*
X55100000Y-100600000D03*
X55100000Y-99800000D03*
X55100000Y-96600000D03*
X55100000Y-95800000D03*
X55100000Y-95000000D03*
X55900000Y-101400000D03*
X55900000Y-100600000D03*
X55900000Y-99800000D03*
X55900000Y-96600000D03*
X55900000Y-95800000D03*
X55900000Y-95000000D03*
X56700000Y-101400000D03*
X56700000Y-100600000D03*
X56700000Y-99800000D03*
X56700000Y-96600000D03*
X56700000Y-95800000D03*
X56700000Y-95000000D03*
X57500000Y-101400000D03*
X57500000Y-100600000D03*
X57500000Y-99800000D03*
X57500000Y-96600000D03*
X57500000Y-95800000D03*
X57500000Y-95000000D03*
D18*
X58500000Y-103200000D03*
X44500000Y-93200000D03*
X44500000Y-103200000D03*
D19*
X58353553Y-93346447D03*
D20*
G36*
X59631492Y-93790000D02*
X57962721Y-93790001D01*
X57909999Y-93737279D01*
X57910000Y-92068508D01*
X59631492Y-93790000D01*
X59631492Y-93790000D01*
G37*
G04 #@! TD*
D18*
G04 #@! TO.C,U1*
X65700000Y-108700000D03*
X85700000Y-108700000D03*
X85700000Y-88700000D03*
D19*
X65846447Y-88846447D03*
D20*
G36*
X66290000Y-87568508D02*
X66290001Y-89237279D01*
X66237279Y-89290001D01*
X64568508Y-89290000D01*
X66290000Y-87568508D01*
X66290000Y-87568508D01*
G37*
D17*
X84100000Y-107100000D03*
X84100000Y-106300000D03*
X84100000Y-105500000D03*
X84100000Y-104700000D03*
X84100000Y-103900000D03*
X84100000Y-103100000D03*
X84100000Y-102300000D03*
X84100000Y-101500000D03*
X84100000Y-100700000D03*
X84100000Y-99900000D03*
X84100000Y-99100000D03*
X84100000Y-98300000D03*
X84100000Y-97500000D03*
X84100000Y-96700000D03*
X84100000Y-95900000D03*
X84100000Y-95100000D03*
X84100000Y-94300000D03*
X84100000Y-93500000D03*
X84100000Y-92700000D03*
X84100000Y-91900000D03*
X84100000Y-91100000D03*
X84100000Y-90300000D03*
X83300000Y-107100000D03*
X83300000Y-106300000D03*
X83300000Y-105500000D03*
X83300000Y-104700000D03*
X83300000Y-103900000D03*
X83300000Y-103100000D03*
X83300000Y-102300000D03*
X83300000Y-101500000D03*
X83300000Y-100700000D03*
X83300000Y-99900000D03*
X83300000Y-99100000D03*
X83300000Y-98300000D03*
X83300000Y-97500000D03*
X83300000Y-96700000D03*
X83300000Y-95900000D03*
X83300000Y-95100000D03*
X83300000Y-94300000D03*
X83300000Y-93500000D03*
X83300000Y-92700000D03*
X83300000Y-91900000D03*
X83300000Y-91100000D03*
X83300000Y-90300000D03*
X82500000Y-107100000D03*
X82500000Y-106300000D03*
X82500000Y-105500000D03*
X82500000Y-104700000D03*
X82500000Y-103900000D03*
X82500000Y-103100000D03*
X82500000Y-102300000D03*
X82500000Y-101500000D03*
X82500000Y-100700000D03*
X82500000Y-99900000D03*
X82500000Y-99100000D03*
X82500000Y-98300000D03*
X82500000Y-97500000D03*
X82500000Y-96700000D03*
X82500000Y-95900000D03*
X82500000Y-95100000D03*
X82500000Y-94300000D03*
X82500000Y-93500000D03*
X82500000Y-92700000D03*
X82500000Y-91900000D03*
X82500000Y-91100000D03*
X82500000Y-90300000D03*
X81700000Y-107100000D03*
X81700000Y-106300000D03*
X81700000Y-105500000D03*
X81700000Y-104700000D03*
X81700000Y-103900000D03*
X81700000Y-103100000D03*
X81700000Y-102300000D03*
X81700000Y-101500000D03*
X81700000Y-100700000D03*
X81700000Y-99900000D03*
X81700000Y-99100000D03*
X81700000Y-98300000D03*
X81700000Y-97500000D03*
X81700000Y-96700000D03*
X81700000Y-95900000D03*
X81700000Y-95100000D03*
X81700000Y-94300000D03*
X81700000Y-93500000D03*
X81700000Y-92700000D03*
X81700000Y-91900000D03*
X81700000Y-91100000D03*
X81700000Y-90300000D03*
X80900000Y-107100000D03*
X80900000Y-106300000D03*
X80900000Y-105500000D03*
X80900000Y-104700000D03*
X80900000Y-103900000D03*
X80900000Y-103100000D03*
X80900000Y-102300000D03*
X80900000Y-101500000D03*
X80900000Y-100700000D03*
X80900000Y-99900000D03*
X80900000Y-99100000D03*
X80900000Y-98300000D03*
X80900000Y-97500000D03*
X80900000Y-96700000D03*
X80900000Y-95900000D03*
X80900000Y-95100000D03*
X80900000Y-94300000D03*
X80900000Y-93500000D03*
X80900000Y-92700000D03*
X80900000Y-91900000D03*
X80900000Y-91100000D03*
X80900000Y-90300000D03*
X80100000Y-107100000D03*
X80100000Y-106300000D03*
X80100000Y-105500000D03*
X80100000Y-104700000D03*
X80100000Y-103900000D03*
X80100000Y-103100000D03*
X80100000Y-102300000D03*
X80100000Y-101500000D03*
X80100000Y-100700000D03*
X80100000Y-99900000D03*
X80100000Y-99100000D03*
X80100000Y-98300000D03*
X80100000Y-97500000D03*
X80100000Y-96700000D03*
X80100000Y-95900000D03*
X80100000Y-95100000D03*
X80100000Y-94300000D03*
X80100000Y-93500000D03*
X80100000Y-92700000D03*
X80100000Y-91900000D03*
X80100000Y-91100000D03*
X80100000Y-90300000D03*
X79300000Y-107100000D03*
X79300000Y-106300000D03*
X79300000Y-105500000D03*
X79300000Y-104700000D03*
X79300000Y-103900000D03*
X79300000Y-103100000D03*
X79300000Y-102300000D03*
X79300000Y-101500000D03*
X79300000Y-100700000D03*
X79300000Y-99900000D03*
X79300000Y-99100000D03*
X79300000Y-98300000D03*
X79300000Y-97500000D03*
X79300000Y-96700000D03*
X79300000Y-95900000D03*
X79300000Y-95100000D03*
X79300000Y-94300000D03*
X79300000Y-93500000D03*
X79300000Y-92700000D03*
X79300000Y-91900000D03*
X79300000Y-91100000D03*
X79300000Y-90300000D03*
X78500000Y-107100000D03*
X78500000Y-106300000D03*
X78500000Y-105500000D03*
X78500000Y-104700000D03*
X78500000Y-103900000D03*
X78500000Y-103100000D03*
X78500000Y-102300000D03*
X78500000Y-101500000D03*
X78500000Y-100700000D03*
X78500000Y-99900000D03*
X78500000Y-99100000D03*
X78500000Y-98300000D03*
X78500000Y-97500000D03*
X78500000Y-96700000D03*
X78500000Y-95900000D03*
X78500000Y-95100000D03*
X78500000Y-94300000D03*
X78500000Y-93500000D03*
X78500000Y-92700000D03*
X78500000Y-91900000D03*
X78500000Y-91100000D03*
X78500000Y-90300000D03*
X77700000Y-107100000D03*
X77700000Y-106300000D03*
X77700000Y-105500000D03*
X77700000Y-104700000D03*
X77700000Y-103900000D03*
X77700000Y-103100000D03*
X77700000Y-102300000D03*
X77700000Y-101500000D03*
X77700000Y-100700000D03*
X77700000Y-99900000D03*
X77700000Y-99100000D03*
X77700000Y-98300000D03*
X77700000Y-97500000D03*
X77700000Y-96700000D03*
X77700000Y-95900000D03*
X77700000Y-95100000D03*
X77700000Y-94300000D03*
X77700000Y-93500000D03*
X77700000Y-92700000D03*
X77700000Y-91900000D03*
X77700000Y-91100000D03*
X77700000Y-90300000D03*
X76900000Y-107100000D03*
X76900000Y-106300000D03*
X76900000Y-105500000D03*
X76900000Y-104700000D03*
X76900000Y-103900000D03*
X76900000Y-103100000D03*
X76900000Y-102300000D03*
X76900000Y-101500000D03*
X76900000Y-100700000D03*
X76900000Y-99900000D03*
X76900000Y-99100000D03*
X76900000Y-98300000D03*
X76900000Y-97500000D03*
X76900000Y-96700000D03*
X76900000Y-95900000D03*
X76900000Y-95100000D03*
X76900000Y-94300000D03*
X76900000Y-93500000D03*
X76900000Y-92700000D03*
X76900000Y-91900000D03*
X76900000Y-91100000D03*
X76900000Y-90300000D03*
X76100000Y-107100000D03*
X76100000Y-106300000D03*
X76100000Y-105500000D03*
X76100000Y-104700000D03*
X76100000Y-103900000D03*
X76100000Y-103100000D03*
X76100000Y-102300000D03*
X76100000Y-101500000D03*
X76100000Y-100700000D03*
X76100000Y-99900000D03*
X76100000Y-99100000D03*
X76100000Y-98300000D03*
X76100000Y-97500000D03*
X76100000Y-96700000D03*
X76100000Y-95900000D03*
X76100000Y-95100000D03*
X76100000Y-94300000D03*
X76100000Y-93500000D03*
X76100000Y-92700000D03*
X76100000Y-91900000D03*
X76100000Y-91100000D03*
X76100000Y-90300000D03*
X75300000Y-107100000D03*
X75300000Y-106300000D03*
X75300000Y-105500000D03*
X75300000Y-104700000D03*
X75300000Y-103900000D03*
X75300000Y-103100000D03*
X75300000Y-102300000D03*
X75300000Y-101500000D03*
X75300000Y-100700000D03*
X75300000Y-99900000D03*
X75300000Y-99100000D03*
X75300000Y-98300000D03*
X75300000Y-97500000D03*
X75300000Y-96700000D03*
X75300000Y-95900000D03*
X75300000Y-95100000D03*
X75300000Y-94300000D03*
X75300000Y-93500000D03*
X75300000Y-92700000D03*
X75300000Y-91900000D03*
X75300000Y-91100000D03*
X75300000Y-90300000D03*
X74500000Y-107100000D03*
X74500000Y-106300000D03*
X74500000Y-105500000D03*
X74500000Y-104700000D03*
X74500000Y-103900000D03*
X74500000Y-103100000D03*
X74500000Y-102300000D03*
X74500000Y-101500000D03*
X74500000Y-100700000D03*
X74500000Y-99900000D03*
X74500000Y-99100000D03*
X74500000Y-98300000D03*
X74500000Y-97500000D03*
X74500000Y-96700000D03*
X74500000Y-95900000D03*
X74500000Y-95100000D03*
X74500000Y-94300000D03*
X74500000Y-93500000D03*
X74500000Y-92700000D03*
X74500000Y-91900000D03*
X74500000Y-91100000D03*
X74500000Y-90300000D03*
X73700000Y-107100000D03*
X73700000Y-106300000D03*
X73700000Y-105500000D03*
X73700000Y-104700000D03*
X73700000Y-103900000D03*
X73700000Y-103100000D03*
X73700000Y-102300000D03*
X73700000Y-101500000D03*
X73700000Y-100700000D03*
X73700000Y-99900000D03*
X73700000Y-99100000D03*
X73700000Y-98300000D03*
X73700000Y-97500000D03*
X73700000Y-96700000D03*
X73700000Y-95900000D03*
X73700000Y-95100000D03*
X73700000Y-94300000D03*
X73700000Y-93500000D03*
X73700000Y-92700000D03*
X73700000Y-91900000D03*
X73700000Y-91100000D03*
X73700000Y-90300000D03*
X72900000Y-107100000D03*
X72900000Y-106300000D03*
X72900000Y-105500000D03*
X72900000Y-104700000D03*
X72900000Y-103900000D03*
X72900000Y-103100000D03*
X72900000Y-102300000D03*
X72900000Y-101500000D03*
X72900000Y-100700000D03*
X72900000Y-99900000D03*
X72900000Y-99100000D03*
X72900000Y-98300000D03*
X72900000Y-97500000D03*
X72900000Y-96700000D03*
X72900000Y-95900000D03*
X72900000Y-95100000D03*
X72900000Y-94300000D03*
X72900000Y-93500000D03*
X72900000Y-92700000D03*
X72900000Y-91900000D03*
X72900000Y-91100000D03*
X72900000Y-90300000D03*
X72100000Y-107100000D03*
X72100000Y-106300000D03*
X72100000Y-105500000D03*
X72100000Y-104700000D03*
X72100000Y-103900000D03*
X72100000Y-103100000D03*
X72100000Y-102300000D03*
X72100000Y-101500000D03*
X72100000Y-100700000D03*
X72100000Y-99900000D03*
X72100000Y-99100000D03*
X72100000Y-98300000D03*
X72100000Y-97500000D03*
X72100000Y-96700000D03*
X72100000Y-95900000D03*
X72100000Y-95100000D03*
X72100000Y-94300000D03*
X72100000Y-93500000D03*
X72100000Y-92700000D03*
X72100000Y-91900000D03*
X72100000Y-91100000D03*
X72100000Y-90300000D03*
X71300000Y-107100000D03*
X71300000Y-106300000D03*
X71300000Y-105500000D03*
X71300000Y-104700000D03*
X71300000Y-103900000D03*
X71300000Y-103100000D03*
X71300000Y-102300000D03*
X71300000Y-101500000D03*
X71300000Y-100700000D03*
X71300000Y-99900000D03*
X71300000Y-99100000D03*
X71300000Y-98300000D03*
X71300000Y-97500000D03*
X71300000Y-96700000D03*
X71300000Y-95900000D03*
X71300000Y-95100000D03*
X71300000Y-94300000D03*
X71300000Y-93500000D03*
X71300000Y-92700000D03*
X71300000Y-91900000D03*
X71300000Y-91100000D03*
X71300000Y-90300000D03*
X70500000Y-107100000D03*
X70500000Y-106300000D03*
X70500000Y-105500000D03*
X70500000Y-104700000D03*
X70500000Y-103900000D03*
X70500000Y-103100000D03*
X70500000Y-102300000D03*
X70500000Y-101500000D03*
X70500000Y-100700000D03*
X70500000Y-99900000D03*
X70500000Y-99100000D03*
X70500000Y-98300000D03*
X70500000Y-97500000D03*
X70500000Y-96700000D03*
X70500000Y-95900000D03*
X70500000Y-95100000D03*
X70500000Y-94300000D03*
X70500000Y-93500000D03*
X70500000Y-92700000D03*
X70500000Y-91900000D03*
X70500000Y-91100000D03*
X70500000Y-90300000D03*
X69700000Y-107100000D03*
X69700000Y-106300000D03*
X69700000Y-105500000D03*
X69700000Y-104700000D03*
X69700000Y-103900000D03*
X69700000Y-103100000D03*
X69700000Y-102300000D03*
X69700000Y-101500000D03*
X69700000Y-100700000D03*
X69700000Y-99900000D03*
X69700000Y-99100000D03*
X69700000Y-98300000D03*
X69700000Y-97500000D03*
X69700000Y-96700000D03*
X69700000Y-95900000D03*
X69700000Y-95100000D03*
X69700000Y-94300000D03*
X69700000Y-93500000D03*
X69700000Y-92700000D03*
X69700000Y-91900000D03*
X69700000Y-91100000D03*
X69700000Y-90300000D03*
X68900000Y-107100000D03*
X68900000Y-106300000D03*
X68900000Y-105500000D03*
X68900000Y-104700000D03*
X68900000Y-103900000D03*
X68900000Y-103100000D03*
X68900000Y-102300000D03*
X68900000Y-101500000D03*
X68900000Y-100700000D03*
X68900000Y-99900000D03*
X68900000Y-99100000D03*
X68900000Y-98300000D03*
X68900000Y-97500000D03*
X68900000Y-96700000D03*
X68900000Y-95900000D03*
X68900000Y-95100000D03*
X68900000Y-94300000D03*
X68900000Y-93500000D03*
X68900000Y-92700000D03*
X68900000Y-91900000D03*
X68900000Y-91100000D03*
X68900000Y-90300000D03*
X68100000Y-107100000D03*
X68100000Y-106300000D03*
X68100000Y-105500000D03*
X68100000Y-104700000D03*
X68100000Y-103900000D03*
X68100000Y-103100000D03*
X68100000Y-102300000D03*
X68100000Y-101500000D03*
X68100000Y-100700000D03*
X68100000Y-99900000D03*
X68100000Y-99100000D03*
X68100000Y-98300000D03*
X68100000Y-97500000D03*
X68100000Y-96700000D03*
X68100000Y-95900000D03*
X68100000Y-95100000D03*
X68100000Y-94300000D03*
X68100000Y-93500000D03*
X68100000Y-92700000D03*
X68100000Y-91900000D03*
X68100000Y-91100000D03*
X68100000Y-90300000D03*
X67300000Y-107100000D03*
X67300000Y-106300000D03*
X67300000Y-105500000D03*
X67300000Y-104700000D03*
X67300000Y-103900000D03*
X67300000Y-103100000D03*
X67300000Y-102300000D03*
X67300000Y-101500000D03*
X67300000Y-100700000D03*
X67300000Y-99900000D03*
X67300000Y-99100000D03*
X67300000Y-98300000D03*
X67300000Y-97500000D03*
X67300000Y-96700000D03*
X67300000Y-95900000D03*
X67300000Y-95100000D03*
X67300000Y-94300000D03*
X67300000Y-93500000D03*
X67300000Y-92700000D03*
X67300000Y-91900000D03*
X67300000Y-91100000D03*
X67300000Y-90300000D03*
G04 #@! TD*
D21*
G04 #@! TO.C,U8*
X108100000Y-70500000D03*
X107500000Y-70500000D03*
X108100000Y-71100000D03*
X107500000Y-71100000D03*
D22*
X109275000Y-70050000D03*
X109275000Y-70550000D03*
X109275000Y-71050000D03*
X109275000Y-71550000D03*
D23*
X108550000Y-72275000D03*
X108050000Y-72275000D03*
X107550000Y-72275000D03*
X107050000Y-72275000D03*
D22*
X106325000Y-71550000D03*
X106325000Y-71050000D03*
X106325000Y-70550000D03*
X106325000Y-70050000D03*
D23*
X107050000Y-69325000D03*
X107550000Y-69325000D03*
X108050000Y-69325000D03*
X108550000Y-69325000D03*
G04 #@! TD*
D11*
G04 #@! TO.C,C22*
X56050000Y-105500000D03*
X57550000Y-105500000D03*
G04 #@! TD*
D10*
G04 #@! TO.C,C24*
X87800000Y-100900000D03*
X89800000Y-100900000D03*
G04 #@! TD*
D24*
G04 #@! TO.C,C35*
X89400000Y-93900000D03*
X89400000Y-96900000D03*
G04 #@! TD*
D10*
G04 #@! TO.C,C36*
X59300000Y-83900000D03*
X61300000Y-83900000D03*
G04 #@! TD*
D11*
G04 #@! TO.C,C37*
X67350000Y-83100000D03*
X68850000Y-83100000D03*
G04 #@! TD*
G04 #@! TO.C,C41*
X64150000Y-83900000D03*
X62650000Y-83900000D03*
G04 #@! TD*
D10*
G04 #@! TO.C,C49*
X88200000Y-83600000D03*
X90200000Y-83600000D03*
G04 #@! TD*
D25*
G04 #@! TO.C,C50*
X90800000Y-88350000D03*
X90800000Y-89850000D03*
G04 #@! TD*
D10*
G04 #@! TO.C,C60*
X70800000Y-109900000D03*
X72800000Y-109900000D03*
G04 #@! TD*
D25*
G04 #@! TO.C,C61*
X66600000Y-85850000D03*
X66600000Y-84350000D03*
G04 #@! TD*
G04 #@! TO.C,C89*
X99500000Y-102350000D03*
X99500000Y-100850000D03*
G04 #@! TD*
G04 #@! TO.C,C90*
X99500000Y-93050000D03*
X99500000Y-94550000D03*
G04 #@! TD*
G04 #@! TO.C,C91*
X109900000Y-99250000D03*
X109900000Y-100750000D03*
G04 #@! TD*
G04 #@! TO.C,C92*
X109900000Y-96750000D03*
X109900000Y-95250000D03*
G04 #@! TD*
D10*
G04 #@! TO.C,C94*
X97000000Y-107000000D03*
X95000000Y-107000000D03*
G04 #@! TD*
D26*
G04 #@! TO.C,C101*
X98900000Y-88900000D03*
X98900000Y-90900000D03*
G04 #@! TD*
D10*
G04 #@! TO.C,C102*
X93800000Y-89000000D03*
X95800000Y-89000000D03*
G04 #@! TD*
D26*
G04 #@! TO.C,C108*
X110200000Y-102400000D03*
X110200000Y-104400000D03*
G04 #@! TD*
D25*
G04 #@! TO.C,C112*
X110400000Y-91450000D03*
X110400000Y-92950000D03*
G04 #@! TD*
G04 #@! TO.C,C125*
X102600000Y-80850000D03*
X102600000Y-82350000D03*
G04 #@! TD*
G04 #@! TO.C,C129*
X102600000Y-77250000D03*
X102600000Y-78750000D03*
G04 #@! TD*
D11*
G04 #@! TO.C,C136*
X74950000Y-81900000D03*
X73450000Y-81900000D03*
G04 #@! TD*
G04 #@! TO.C,C138*
X74450000Y-71300000D03*
X72950000Y-71300000D03*
G04 #@! TD*
G04 #@! TO.C,C142*
X70550000Y-81900000D03*
X72050000Y-81900000D03*
G04 #@! TD*
D27*
G04 #@! TO.C,D1*
X90300000Y-104000000D03*
X90300000Y-102400000D03*
G04 #@! TD*
D28*
G04 #@! TO.C,D4*
X84625000Y-61175000D03*
D29*
X85750000Y-61175000D03*
X86650000Y-61175000D03*
D28*
X87775000Y-61175000D03*
G04 #@! TD*
D30*
G04 #@! TO.C,J1*
X54300000Y-79100000D03*
X54300000Y-77100000D03*
X56300000Y-79100000D03*
X56300000Y-77100000D03*
X58300000Y-79100000D03*
X58300000Y-77100000D03*
X60300000Y-79100000D03*
X60300000Y-77100000D03*
X62300000Y-79100000D03*
X62300000Y-77100000D03*
X64300000Y-79100000D03*
X64300000Y-77100000D03*
X66300000Y-79100000D03*
D31*
X66300000Y-77100000D03*
G04 #@! TD*
D32*
G04 #@! TO.C,J2*
X33700000Y-61300000D03*
D33*
X47200000Y-61750000D03*
D34*
X47200000Y-65900000D03*
D35*
X47200000Y-72100000D03*
X36050000Y-76400000D03*
D36*
X44200000Y-76400000D03*
X43100000Y-76400000D03*
X42000000Y-76400000D03*
X40900000Y-76400000D03*
X39800000Y-76400000D03*
X38700000Y-76400000D03*
X37600000Y-76400000D03*
X45300000Y-76400000D03*
X46250000Y-76400000D03*
G04 #@! TD*
D37*
G04 #@! TO.C,J3*
X112700000Y-84800000D03*
X112700000Y-82300000D03*
X112700000Y-79800000D03*
X112700000Y-77300000D03*
D14*
X112700000Y-74800000D03*
G04 #@! TD*
D38*
G04 #@! TO.C,J4*
X95300000Y-67075000D03*
X95700000Y-67075000D03*
X96100000Y-67075000D03*
X96500000Y-67075000D03*
X96900000Y-67075000D03*
X97300000Y-67075000D03*
X97700000Y-67075000D03*
X98100000Y-67075000D03*
X98500000Y-67075000D03*
X92100000Y-67075000D03*
X92500000Y-67075000D03*
X92900000Y-67075000D03*
X93300000Y-67075000D03*
X93700000Y-67075000D03*
X94100000Y-67075000D03*
X94500000Y-67075000D03*
X94900000Y-67075000D03*
X91700000Y-67075000D03*
D39*
X91185000Y-67075000D03*
X99015000Y-67075000D03*
D40*
X94700000Y-66200000D03*
X93900000Y-66200000D03*
X93100000Y-66200000D03*
X95500000Y-66200000D03*
X96300000Y-66200000D03*
X97100000Y-66200000D03*
D41*
X89550000Y-61600000D03*
X89550000Y-66650000D03*
X100650000Y-66650000D03*
X100650000Y-61600000D03*
G04 #@! TD*
D42*
G04 #@! TO.C,J5*
X72000000Y-60800000D03*
X82000000Y-60800000D03*
X72000000Y-63300000D03*
X82000000Y-63300000D03*
D43*
X77000000Y-63300000D03*
D44*
X82000000Y-68300000D03*
X79500000Y-68300000D03*
X74500000Y-68300000D03*
X72000000Y-68300000D03*
D42*
X77000000Y-68300000D03*
G04 #@! TD*
D45*
G04 #@! TO.C,L2*
X94600000Y-100150000D03*
X94600000Y-104850000D03*
G04 #@! TD*
G04 #@! TO.C,L3*
X94600000Y-95850000D03*
X94600000Y-91150000D03*
G04 #@! TD*
G04 #@! TO.C,L4*
X114500000Y-104850000D03*
X114500000Y-100150000D03*
G04 #@! TD*
G04 #@! TO.C,L5*
X114500000Y-95850000D03*
X114500000Y-91150000D03*
G04 #@! TD*
D46*
G04 #@! TO.C,O2*
X101650000Y-73450000D03*
X99550000Y-73450000D03*
X101650000Y-71550000D03*
X99550000Y-71550000D03*
G04 #@! TD*
D47*
G04 #@! TO.C,P1*
X113460000Y-121160000D03*
X116000000Y-121160000D03*
X113460000Y-118620000D03*
X116000000Y-118620000D03*
X113460000Y-116080000D03*
X116000000Y-116080000D03*
X113460000Y-113540000D03*
X116000000Y-113540000D03*
X113460000Y-111000000D03*
D48*
X116000000Y-111000000D03*
G04 #@! TD*
G04 #@! TO.C,P2*
X106000000Y-124000000D03*
D47*
X106000000Y-121460000D03*
X103460000Y-124000000D03*
X103460000Y-121460000D03*
X100920000Y-124000000D03*
X100920000Y-121460000D03*
X98380000Y-124000000D03*
X98380000Y-121460000D03*
X95840000Y-124000000D03*
X95840000Y-121460000D03*
G04 #@! TD*
G04 #@! TO.C,P3*
X75840000Y-121460000D03*
X75840000Y-124000000D03*
X78380000Y-121460000D03*
X78380000Y-124000000D03*
X80920000Y-121460000D03*
X80920000Y-124000000D03*
X83460000Y-121460000D03*
X83460000Y-124000000D03*
X86000000Y-121460000D03*
D48*
X86000000Y-124000000D03*
G04 #@! TD*
G04 #@! TO.C,P4*
X66000000Y-124000000D03*
D47*
X66000000Y-121460000D03*
X63460000Y-124000000D03*
X63460000Y-121460000D03*
X60920000Y-124000000D03*
X60920000Y-121460000D03*
X58380000Y-124000000D03*
X58380000Y-121460000D03*
X55840000Y-124000000D03*
X55840000Y-121460000D03*
G04 #@! TD*
D48*
G04 #@! TO.C,P5*
X46000000Y-124000000D03*
D47*
X46000000Y-121460000D03*
X43460000Y-124000000D03*
X43460000Y-121460000D03*
X40920000Y-124000000D03*
X40920000Y-121460000D03*
X38380000Y-124000000D03*
X38380000Y-121460000D03*
X35840000Y-124000000D03*
X35840000Y-121460000D03*
G04 #@! TD*
G04 #@! TO.C,P6*
X37540000Y-103840000D03*
X35000000Y-103840000D03*
X37540000Y-106380000D03*
X35000000Y-106380000D03*
X37540000Y-108920000D03*
X35000000Y-108920000D03*
X37540000Y-111460000D03*
X35000000Y-111460000D03*
X37540000Y-114000000D03*
D48*
X35000000Y-114000000D03*
G04 #@! TD*
D49*
G04 #@! TO.C,Q3*
X116000000Y-123150000D03*
X116950000Y-125150000D03*
X115050000Y-125150000D03*
G04 #@! TD*
D50*
G04 #@! TO.C,Q4*
X91850000Y-123050000D03*
X91850000Y-124950000D03*
X93850000Y-124000000D03*
G04 #@! TD*
G04 #@! TO.C,Q5*
X73850000Y-124000000D03*
X71850000Y-124950000D03*
X71850000Y-123050000D03*
G04 #@! TD*
G04 #@! TO.C,Q6*
X51800000Y-123050000D03*
X51800000Y-124950000D03*
X53800000Y-124000000D03*
G04 #@! TD*
G04 #@! TO.C,Q7*
X37800000Y-118500000D03*
X35800000Y-119450000D03*
X35800000Y-117550000D03*
G04 #@! TD*
G04 #@! TO.C,Q8*
X33900000Y-99850000D03*
X33900000Y-101750000D03*
X35900000Y-100800000D03*
G04 #@! TD*
D51*
G04 #@! TO.C,R2*
X42100000Y-97850000D03*
X42100000Y-96350000D03*
G04 #@! TD*
D52*
G04 #@! TO.C,R8*
X87550000Y-103900000D03*
X89050000Y-103900000D03*
G04 #@! TD*
G04 #@! TO.C,R9*
X87550000Y-102500000D03*
X89050000Y-102500000D03*
G04 #@! TD*
D51*
G04 #@! TO.C,R10*
X54300000Y-84250000D03*
X54300000Y-82750000D03*
G04 #@! TD*
G04 #@! TO.C,R13*
X73200000Y-86750000D03*
X73200000Y-88250000D03*
G04 #@! TD*
G04 #@! TO.C,R14*
X71800000Y-86750000D03*
X71800000Y-88250000D03*
G04 #@! TD*
G04 #@! TO.C,R15*
X74600000Y-88250000D03*
X74600000Y-86750000D03*
G04 #@! TD*
G04 #@! TO.C,R16*
X69000000Y-86750000D03*
X69000000Y-88250000D03*
G04 #@! TD*
G04 #@! TO.C,R17*
X70400000Y-88250000D03*
X70400000Y-86750000D03*
G04 #@! TD*
D52*
G04 #@! TO.C,R18*
X43350000Y-86200000D03*
X41850000Y-86200000D03*
G04 #@! TD*
G04 #@! TO.C,R20*
X41850000Y-87700000D03*
X43350000Y-87700000D03*
G04 #@! TD*
D51*
G04 #@! TO.C,R22*
X42200000Y-82750000D03*
X42200000Y-84250000D03*
G04 #@! TD*
D52*
G04 #@! TO.C,R26*
X102050000Y-106000000D03*
X103550000Y-106000000D03*
G04 #@! TD*
G04 #@! TO.C,R27*
X99450000Y-106000000D03*
X100950000Y-106000000D03*
G04 #@! TD*
D51*
G04 #@! TO.C,R28*
X113800000Y-69350000D03*
X113800000Y-67850000D03*
G04 #@! TD*
G04 #@! TO.C,R29*
X103300000Y-104650000D03*
X103300000Y-103150000D03*
G04 #@! TD*
D52*
G04 #@! TO.C,R30*
X100600000Y-89900000D03*
X102100000Y-89900000D03*
G04 #@! TD*
G04 #@! TO.C,R31*
X104700000Y-89900000D03*
X103200000Y-89900000D03*
G04 #@! TD*
D51*
G04 #@! TO.C,R32*
X101400000Y-103150000D03*
X101400000Y-104650000D03*
G04 #@! TD*
G04 #@! TO.C,R33*
X110700000Y-79750000D03*
X110700000Y-81250000D03*
G04 #@! TD*
G04 #@! TO.C,R34*
X102200000Y-91350000D03*
X102200000Y-92850000D03*
G04 #@! TD*
G04 #@! TO.C,R35*
X107200000Y-104650000D03*
X107200000Y-103150000D03*
G04 #@! TD*
D52*
G04 #@! TO.C,R36*
X109350000Y-106000000D03*
X107850000Y-106000000D03*
G04 #@! TD*
D51*
G04 #@! TO.C,R37*
X105400000Y-80150000D03*
X105400000Y-81650000D03*
G04 #@! TD*
D52*
G04 #@! TO.C,R38*
X105250000Y-106000000D03*
X106750000Y-106000000D03*
G04 #@! TD*
D51*
G04 #@! TO.C,R39*
X110700000Y-78550000D03*
X110700000Y-77050000D03*
G04 #@! TD*
G04 #@! TO.C,R40*
X108200000Y-80150000D03*
X108200000Y-81650000D03*
G04 #@! TD*
G04 #@! TO.C,R41*
X106500000Y-92850000D03*
X106500000Y-91350000D03*
G04 #@! TD*
D52*
G04 #@! TO.C,R42*
X110350000Y-89500000D03*
X108850000Y-89500000D03*
G04 #@! TD*
G04 #@! TO.C,R43*
X107750000Y-89900000D03*
X106250000Y-89900000D03*
G04 #@! TD*
G04 #@! TO.C,R44*
X102450000Y-87300000D03*
X103950000Y-87300000D03*
G04 #@! TD*
G04 #@! TO.C,R47*
X99750000Y-87300000D03*
X101250000Y-87300000D03*
G04 #@! TD*
G04 #@! TO.C,R49*
X113250000Y-88800000D03*
X111750000Y-88800000D03*
G04 #@! TD*
G04 #@! TO.C,R50*
X114950000Y-88800000D03*
X116450000Y-88800000D03*
G04 #@! TD*
G04 #@! TO.C,R51*
X110550000Y-72800000D03*
X112050000Y-72800000D03*
G04 #@! TD*
D51*
G04 #@! TO.C,R56*
X109100000Y-73450000D03*
X109100000Y-74950000D03*
G04 #@! TD*
D52*
G04 #@! TO.C,R57*
X107350000Y-67800000D03*
X105850000Y-67800000D03*
G04 #@! TD*
G04 #@! TO.C,R58*
X109950000Y-67800000D03*
X108450000Y-67800000D03*
G04 #@! TD*
G04 #@! TO.C,R59*
X103050000Y-70800000D03*
X104550000Y-70800000D03*
G04 #@! TD*
G04 #@! TO.C,R60*
X104550000Y-69300000D03*
X103050000Y-69300000D03*
G04 #@! TD*
D51*
G04 #@! TO.C,R63*
X103400000Y-74650000D03*
X103400000Y-73150000D03*
G04 #@! TD*
D52*
G04 #@! TO.C,R65*
X104750000Y-74500000D03*
X106250000Y-74500000D03*
G04 #@! TD*
G04 #@! TO.C,R66*
X98550000Y-85500000D03*
X97050000Y-85500000D03*
G04 #@! TD*
G04 #@! TO.C,R67*
X79350000Y-80100000D03*
X77850000Y-80100000D03*
G04 #@! TD*
G04 #@! TO.C,R68*
X77850000Y-78600000D03*
X79350000Y-78600000D03*
G04 #@! TD*
D51*
G04 #@! TO.C,R69*
X76500000Y-80750000D03*
X76500000Y-82250000D03*
G04 #@! TD*
G04 #@! TO.C,R70*
X113200000Y-123650000D03*
X113200000Y-125150000D03*
G04 #@! TD*
D52*
G04 #@! TO.C,R71*
X91850000Y-121400000D03*
X90350000Y-121400000D03*
G04 #@! TD*
G04 #@! TO.C,R72*
X73400000Y-121400000D03*
X71900000Y-121400000D03*
G04 #@! TD*
G04 #@! TO.C,R73*
X51850000Y-121400000D03*
X53350000Y-121400000D03*
G04 #@! TD*
G04 #@! TO.C,R74*
X40750000Y-117500000D03*
X39250000Y-117500000D03*
G04 #@! TD*
G04 #@! TO.C,R75*
X37350000Y-99800000D03*
X38850000Y-99800000D03*
G04 #@! TD*
D51*
G04 #@! TO.C,R76*
X87800000Y-63650000D03*
X87800000Y-65150000D03*
G04 #@! TD*
G04 #@! TO.C,R77*
X84600000Y-65150000D03*
X84600000Y-63650000D03*
G04 #@! TD*
G04 #@! TO.C,R78*
X86200000Y-63650000D03*
X86200000Y-65150000D03*
G04 #@! TD*
D53*
G04 #@! TO.C,SW1*
X38000000Y-90600000D03*
X38000000Y-82400000D03*
D54*
X38000000Y-88500000D03*
X38000000Y-86500000D03*
D55*
X38000000Y-84500000D03*
G04 #@! TD*
D56*
G04 #@! TO.C,SW2*
X109100000Y-64200000D03*
D57*
X111100000Y-64200000D03*
X113100000Y-64200000D03*
D58*
X107000000Y-64200000D03*
X115200000Y-64200000D03*
G04 #@! TD*
D59*
G04 #@! TO.C,U3*
X45050000Y-81550000D03*
X46350000Y-81550000D03*
X45050000Y-80250000D03*
X46350000Y-80250000D03*
D60*
X43750000Y-82150000D03*
X43750000Y-81650000D03*
X43750000Y-81150000D03*
X43750000Y-80650000D03*
X43750000Y-80150000D03*
X43750000Y-79650000D03*
D61*
X44450000Y-78950000D03*
X44950000Y-78950000D03*
X45450000Y-78950000D03*
X45950000Y-78950000D03*
X46450000Y-78950000D03*
X46950000Y-78950000D03*
D60*
X47650000Y-79650000D03*
X47650000Y-80150000D03*
X47650000Y-80650000D03*
X47650000Y-81150000D03*
X47650000Y-81650000D03*
X47650000Y-82150000D03*
D61*
X46950000Y-82850000D03*
X46450000Y-82850000D03*
X45950000Y-82850000D03*
X45450000Y-82850000D03*
X44950000Y-82850000D03*
X44450000Y-82850000D03*
G04 #@! TD*
D62*
G04 #@! TO.C,U5*
X105212500Y-83712500D03*
X105212500Y-84212500D03*
X105212500Y-84712500D03*
X105212500Y-85212500D03*
X105212500Y-85712500D03*
X105212500Y-86212500D03*
D63*
X105862500Y-86862500D03*
X106362500Y-86862500D03*
X106862500Y-86862500D03*
X107362500Y-86862500D03*
D62*
X108012500Y-86212500D03*
X108012500Y-85712500D03*
X108012500Y-85212500D03*
X108012500Y-84712500D03*
X108012500Y-84212500D03*
X108012500Y-83712500D03*
D63*
X107362500Y-83062500D03*
X106862500Y-83062500D03*
X106362500Y-83062500D03*
X105862500Y-83062500D03*
D64*
X107025000Y-85625000D03*
X107025000Y-84300000D03*
X106200000Y-85625000D03*
X106200000Y-84300000D03*
G04 #@! TD*
D65*
G04 #@! TO.C,U9*
X99350000Y-76250000D03*
X99350000Y-76750000D03*
X99350000Y-77250000D03*
X99350000Y-77750000D03*
X99350000Y-78250000D03*
X99350000Y-78750000D03*
X99350000Y-79250000D03*
X99350000Y-79750000D03*
X99350000Y-80250000D03*
X99350000Y-80750000D03*
X99350000Y-81250000D03*
X99350000Y-81750000D03*
D66*
X97750000Y-83350000D03*
X97250000Y-83350000D03*
X96750000Y-83350000D03*
X96250000Y-83350000D03*
X95750000Y-83350000D03*
X95250000Y-83350000D03*
X94750000Y-83350000D03*
X94250000Y-83350000D03*
X93750000Y-83350000D03*
X93250000Y-83350000D03*
X92750000Y-83350000D03*
X92250000Y-83350000D03*
D65*
X90650000Y-81750000D03*
X90650000Y-81250000D03*
X90650000Y-80750000D03*
X90650000Y-80250000D03*
X90650000Y-79750000D03*
X90650000Y-79250000D03*
X90650000Y-78750000D03*
X90650000Y-78250000D03*
X90650000Y-77750000D03*
X90650000Y-77250000D03*
X90650000Y-76750000D03*
X90650000Y-76250000D03*
D66*
X92250000Y-74650000D03*
X92750000Y-74650000D03*
X93250000Y-74650000D03*
X93750000Y-74650000D03*
X94250000Y-74650000D03*
X94750000Y-74650000D03*
X95250000Y-74650000D03*
X95750000Y-74650000D03*
X96250000Y-74650000D03*
X96750000Y-74650000D03*
X97250000Y-74650000D03*
X97750000Y-74650000D03*
G04 #@! TD*
D67*
G04 #@! TO.C,U10*
X106600000Y-77100000D03*
X106600000Y-76150000D03*
X106600000Y-78050000D03*
X104400000Y-78050000D03*
X104400000Y-77100000D03*
X104400000Y-76150000D03*
G04 #@! TD*
D68*
G04 #@! TO.C,U11*
X72737500Y-77462500D03*
X74462500Y-77462500D03*
X72737500Y-75737500D03*
X74462500Y-75737500D03*
D62*
X71200000Y-78350000D03*
X71200000Y-77850000D03*
X71200000Y-77350000D03*
X71200000Y-76850000D03*
X71200000Y-76350000D03*
X71200000Y-75850000D03*
X71200000Y-75350000D03*
X71200000Y-74850000D03*
D63*
X71850000Y-74200000D03*
X72350000Y-74200000D03*
X72850000Y-74200000D03*
X73350000Y-74200000D03*
X73850000Y-74200000D03*
X74350000Y-74200000D03*
X74850000Y-74200000D03*
X75350000Y-74200000D03*
D62*
X76000000Y-74850000D03*
X76000000Y-75350000D03*
X76000000Y-75850000D03*
X76000000Y-76350000D03*
X76000000Y-76850000D03*
X76000000Y-77350000D03*
X76000000Y-77850000D03*
X76000000Y-78350000D03*
D63*
X75350000Y-79000000D03*
X74850000Y-79000000D03*
X74350000Y-79000000D03*
X73850000Y-79000000D03*
X73350000Y-79000000D03*
X72850000Y-79000000D03*
X72350000Y-79000000D03*
X71850000Y-79000000D03*
G04 #@! TD*
D69*
G04 #@! TO.C,U12*
X62360000Y-70700000D03*
X64900000Y-70700000D03*
X67440000Y-70700000D03*
D42*
X67440000Y-68070000D03*
X62360000Y-68070000D03*
G04 #@! TD*
G04 #@! TO.C,U13*
X51660000Y-68070000D03*
X56740000Y-68070000D03*
D69*
X56740000Y-70700000D03*
X54200000Y-70700000D03*
X51660000Y-70700000D03*
G04 #@! TD*
D70*
G04 #@! TO.C,U14*
X96850000Y-116575000D03*
X96850000Y-115925000D03*
X96850000Y-115275000D03*
X96850000Y-114625000D03*
X96850000Y-113975000D03*
X96850000Y-113325000D03*
X96850000Y-112675000D03*
X96850000Y-112025000D03*
X102750000Y-112025000D03*
X102750000Y-112675000D03*
X102750000Y-113325000D03*
X102750000Y-113975000D03*
X102750000Y-114625000D03*
X102750000Y-115275000D03*
X102750000Y-115925000D03*
X102750000Y-116575000D03*
G04 #@! TD*
G04 #@! TO.C,U15*
X86850000Y-116575000D03*
X86850000Y-115925000D03*
X86850000Y-115275000D03*
X86850000Y-114625000D03*
X86850000Y-113975000D03*
X86850000Y-113325000D03*
X86850000Y-112675000D03*
X86850000Y-112025000D03*
X92750000Y-112025000D03*
X92750000Y-112675000D03*
X92750000Y-113325000D03*
X92750000Y-113975000D03*
X92750000Y-114625000D03*
X92750000Y-115275000D03*
X92750000Y-115925000D03*
X92750000Y-116575000D03*
G04 #@! TD*
G04 #@! TO.C,U16*
X82650000Y-116575000D03*
X82650000Y-115925000D03*
X82650000Y-115275000D03*
X82650000Y-114625000D03*
X82650000Y-113975000D03*
X82650000Y-113325000D03*
X82650000Y-112675000D03*
X82650000Y-112025000D03*
X76750000Y-112025000D03*
X76750000Y-112675000D03*
X76750000Y-113325000D03*
X76750000Y-113975000D03*
X76750000Y-114625000D03*
X76750000Y-115275000D03*
X76750000Y-115925000D03*
X76750000Y-116575000D03*
G04 #@! TD*
G04 #@! TO.C,U17*
X65250000Y-116575000D03*
X65250000Y-115925000D03*
X65250000Y-115275000D03*
X65250000Y-114625000D03*
X65250000Y-113975000D03*
X65250000Y-113325000D03*
X65250000Y-112675000D03*
X65250000Y-112025000D03*
X71150000Y-112025000D03*
X71150000Y-112675000D03*
X71150000Y-113325000D03*
X71150000Y-113975000D03*
X71150000Y-114625000D03*
X71150000Y-115275000D03*
X71150000Y-115925000D03*
X71150000Y-116575000D03*
G04 #@! TD*
G04 #@! TO.C,U18*
X59650000Y-116575000D03*
X59650000Y-115925000D03*
X59650000Y-115275000D03*
X59650000Y-114625000D03*
X59650000Y-113975000D03*
X59650000Y-113325000D03*
X59650000Y-112675000D03*
X59650000Y-112025000D03*
X53750000Y-112025000D03*
X53750000Y-112675000D03*
X53750000Y-113325000D03*
X53750000Y-113975000D03*
X53750000Y-114625000D03*
X53750000Y-115275000D03*
X53750000Y-115925000D03*
X53750000Y-116575000D03*
G04 #@! TD*
G04 #@! TO.C,U19*
X41950000Y-109625000D03*
X41950000Y-110275000D03*
X41950000Y-110925000D03*
X41950000Y-111575000D03*
X41950000Y-112225000D03*
X41950000Y-112875000D03*
X41950000Y-113525000D03*
X41950000Y-114175000D03*
X47850000Y-114175000D03*
X47850000Y-113525000D03*
X47850000Y-112875000D03*
X47850000Y-112225000D03*
X47850000Y-111575000D03*
X47850000Y-110925000D03*
X47850000Y-110275000D03*
X47850000Y-109625000D03*
G04 #@! TD*
D71*
G04 #@! TO.C,L6*
X93800000Y-70850000D03*
X93800000Y-71750000D03*
G04 #@! TD*
G04 #@! TO.C,L7*
X96700000Y-71750000D03*
X96700000Y-70850000D03*
G04 #@! TD*
D72*
G04 #@! TO.C,L8*
X71650000Y-83700000D03*
X72550000Y-83700000D03*
G04 #@! TD*
G04 #@! TO.C,L9*
X75750000Y-71400000D03*
X76650000Y-71400000D03*
G04 #@! TD*
G04 #@! TO.C,L10*
X52550000Y-73800000D03*
X53450000Y-73800000D03*
G04 #@! TD*
D73*
G04 #@! TO.C,REF\002A\002A*
X86000000Y-71000000D03*
G04 #@! TD*
G04 #@! TO.C,REF\002A\002A*
X107000000Y-116000000D03*
G04 #@! TD*
G04 #@! TO.C,REF\002A\002A*
X37000000Y-96000000D03*
G04 #@! TD*
D74*
G04 #@! TO.C,TP1*
X86400000Y-110400000D03*
G04 #@! TD*
G04 #@! TO.C,TP2*
X79400000Y-110400000D03*
G04 #@! TD*
G04 #@! TO.C,TP3*
X90300000Y-110400000D03*
G04 #@! TD*
G04 #@! TO.C,TP4*
X82500000Y-110400000D03*
G04 #@! TD*
M02*
