M48
METRIC,TZ
T1C0.200
T2C0.400
T3C0.600
T4C0.800
T5C0.900
T6C1.000
T7C1.100
T8C1.200
T9C1.500
T10C2.200
%
G90
G05
T1
X33100Y-102500
X33700Y-62800
X36100Y-77600
X40700Y-95200
X40800Y-114200
X40900Y-77600
X42300Y-90100
X42300Y-102900
X42400Y-95300
X42900Y-80700
X43000Y-106000
X43100Y-77600
X43200Y-97900
X43200Y-112900
X43200Y-113500
X43300Y-96600
X43400Y-96000
X43800Y-112200
X43900Y-115400
X44100Y-88300
X44400Y-83800
X44400Y-86200
X44400Y-87700
X44400Y-100400
X44800Y-99800
X44900Y-78100
X44900Y-97300
X45000Y-80900
X45100Y-85500
X45100Y-101000
X45400Y-83700
X45700Y-80200
X45700Y-81500
X45700Y-86700
X45800Y-102000
X45900Y-85600
X45900Y-96200
X45900Y-99400
X46000Y-83700
X46000Y-104300
X46054Y-92154
X46100Y-106200
X46300Y-102500
X46400Y-80900
X46400Y-97500
X46400Y-99000
X46800Y-107700
X46900Y-102700
X47000Y-83700
X47500Y-100200
X47500Y-101000
X47500Y-96200
X47800Y-107700
X47900Y-97300
X48100Y-92100
X48100Y-104300
X48200Y-61800
X48200Y-65900
X48200Y-72100
X48300Y-95400
X48300Y-96200
X48300Y-101000
X48400Y-93900
X48400Y-97800
X48500Y-80200
X48700Y-94400
X48700Y-102000
X48800Y-81100
X48900Y-98300
X49100Y-82800
X49100Y-95400
X49100Y-96200
X49100Y-101000
X49100Y-110900
X49100Y-111600
X49500Y-97300
X49700Y-106000
X49700Y-112300
X49900Y-98700
X50200Y-92100
X50200Y-104300
X50300Y-94300
X50300Y-97300
X50500Y-86100
X50600Y-102200
X50700Y-95400
X50700Y-101000
X50800Y-92100
X50900Y-124900
X50998Y-98698
X51100Y-97300
X51402Y-99102
X51500Y-100200
X51500Y-101000
X51600Y-83400
X51900Y-97300
X52000Y-94400
X52300Y-86100
X52300Y-92100
X52300Y-96200
X52900Y-104300
X53000Y-109700
X53100Y-96200
X53100Y-101000
X53500Y-74700
X53800Y-118500
X53900Y-96200
X53900Y-100200
X54200Y-72300
X54200Y-97900
X54300Y-86100
X54300Y-121400
X54400Y-92100
X54400Y-104300
X54600Y-97500
X54700Y-95400
X54700Y-101000
X54800Y-99200
X54800Y-118500
X55000Y-114600
X55000Y-115300
X55500Y-96200
X55600Y-114000
X56200Y-104300
X56300Y-92100
X57100Y-92100
X57100Y-97000
X57100Y-104300
X58500Y-104200
X58600Y-86100
X59300Y-84900
X59400Y-101100
X59400Y-102200
X60000Y-109700
X60300Y-104400
X60700Y-97704
X60900Y-112000
X60900Y-112700
X60900Y-113400
X60900Y-116500
X61000Y-105800
X61300Y-84900
X61400Y-103800
X61500Y-114000
X61800Y-100100
X61800Y-102700
X61800Y-106000
X62400Y-100100
X62700Y-84700
X62900Y-105800
X63700Y-105200
X63800Y-97505
X64100Y-84700
X64100Y-109700
X64400Y-103200
X64400Y-93925
X64400Y-94475
X64600Y-95100
X65100Y-103100
X65300Y-118500
X65600Y-86100
X65800Y-84400
X65800Y-100000
X65800Y-101600
X65900Y-89800
X66100Y-90400
X66100Y-107100
X66300Y-118500
X66400Y-93100
X66600Y-91700
X66700Y-91100
X66709Y-103907
X66800Y-96200
X66800Y-99900
X66800Y-108400
X66800Y-109100
X66800Y-109800
X66900Y-87000
X66900Y-87700
X66900Y-88500
X67000Y-116000
X67400Y-115500
X67500Y-87000
X67500Y-87700
X67500Y-88500
X67500Y-108400
X67500Y-109100
X67500Y-109800
X67600Y-84100
X67700Y-91500
X67700Y-92300
X67700Y-93100
X67700Y-95500
X67700Y-96300
X67700Y-97100
X67700Y-101900
X67700Y-105900
X67900Y-115000
X68500Y-90700
X68500Y-84900
X68500Y-91500
X68500Y-92300
X68500Y-93100
X68500Y-93900
X68500Y-94700
X68500Y-95500
X68500Y-96300
X68500Y-99500
X68500Y-101100
X68500Y-103500
X68500Y-104300
X68800Y-84100
X68900Y-89700
X69100Y-87500
X69200Y-79800
X69200Y-108700
X69291Y-100320
X69300Y-90700
X69300Y-92300
X69300Y-93100
X69300Y-93900
X69300Y-94700
X69300Y-95500
X69300Y-96300
X69300Y-97100
X69300Y-97900
X69300Y-99480
X69300Y-101100
X69300Y-101900
X69300Y-106700
X69300Y-107500
X69600Y-85900
X70100Y-91500
X70100Y-92300
X70100Y-93100
X70100Y-93900
X70100Y-94700
X70100Y-95500
X70100Y-96300
X70100Y-97100
X70100Y-97900
X70100Y-99500
X70100Y-100300
X70100Y-101100
X70100Y-101900
X70100Y-106700
X70100Y-107500
X70200Y-111500
X70300Y-85900
X70400Y-89100
X70500Y-89700
X70500Y-108300
X70700Y-73700
X70800Y-111000
X70900Y-93900
X70900Y-95500
X70900Y-96300
X70900Y-97100
X70900Y-97900
X70900Y-99500
X70900Y-100300
X70900Y-101100
X70900Y-104300
X70900Y-105900
X70900Y-106700
X70900Y-107500
X70900Y-91500
X71000Y-85600
X71000Y-124900
X71700Y-73400
X71700Y-93100
X71700Y-93900
X71700Y-94700
X71700Y-95500
X71700Y-96300
X71700Y-97100
X71700Y-97900
X71700Y-99500
X71700Y-100300
X71700Y-101100
X71700Y-102700
X71700Y-103500
X71700Y-105900
X71700Y-106700
X71700Y-107500
X71900Y-89200
X72100Y-72500
X72100Y-82700
X72300Y-73200
X72400Y-114600
X72500Y-89200
X72500Y-89800
X72500Y-90700
X72500Y-91500
X72500Y-92300
X72500Y-93900
X72500Y-97100
X72500Y-97900
X72500Y-99500
X72500Y-100300
X72500Y-101900
X72500Y-102700
X72500Y-103500
X72500Y-106700
X72500Y-107500
X72800Y-111000
X73000Y-70500
X73200Y-87500
X73300Y-90700
X73300Y-91500
X73300Y-92300
X73300Y-94700
X73300Y-95500
X73300Y-96300
X73300Y-97100
X73300Y-97900
X73300Y-99500
X73300Y-100300
X73300Y-104300
X73300Y-105100
X73300Y-106700
X73300Y-107500
X73900Y-79800
X74100Y-89900
X74100Y-90700
X74100Y-93900
X74100Y-95500
X74100Y-96300
X74100Y-97100
X74100Y-97900
X74100Y-99500
X74100Y-100300
X74100Y-101100
X74100Y-101900
X74100Y-102700
X74100Y-106700
X74100Y-107500
X74100Y-121400
X74400Y-73200
X74500Y-80100
X74600Y-82800
X74600Y-83500
X74700Y-87500
X74900Y-90700
X74900Y-91500
X74900Y-94700
X74900Y-95500
X74900Y-96300
X74900Y-97100
X74900Y-97900
X74900Y-99500
X74900Y-100300
X74900Y-101100
X74900Y-101900
X74900Y-102700
X74900Y-104300
X74900Y-106700
X74900Y-107500
X75700Y-101100
X75700Y-103500
X75700Y-104300
X75800Y-79800
X76490Y-101080
X76500Y-83000
X76500Y-88900
X76500Y-93100
X76500Y-94700
X76500Y-95500
X76500Y-96300
X76500Y-97100
X76500Y-97900
X76500Y-99500
X76500Y-100300
X76500Y-101900
X76500Y-102700
X76500Y-105900
X76500Y-106700
X76500Y-107500
X76800Y-118500
X77300Y-71400
X77300Y-90700
X77300Y-93100
X77300Y-95500
X77300Y-96300
X77300Y-97100
X77300Y-97900
X77300Y-99500
X77300Y-100300
X77300Y-101100
X77300Y-103500
X77300Y-105900
X77300Y-106700
X77300Y-107500
X77800Y-118500
X78000Y-74100
X78000Y-75100
X78100Y-92300
X78100Y-93100
X78100Y-94700
X78100Y-95500
X78100Y-97100
X78100Y-97900
X78100Y-99500
X78100Y-100300
X78100Y-101100
X78100Y-101900
X78100Y-102700
X78100Y-105100
X78100Y-105900
X78100Y-106700
X78700Y-77900
X78900Y-89900
X78900Y-93900
X78900Y-97900
X78900Y-105900
X78900Y-106700
X79100Y-89200
X79200Y-81400
X79600Y-84900
X79600Y-86400
X79600Y-88300
X79700Y-91500
X79700Y-95500
X79700Y-96300
X79700Y-103500
X79700Y-104300
X79700Y-105900
X79800Y-81400
X80000Y-109800
X80200Y-86400
X80200Y-87800
X80400Y-81400
X80400Y-83900
X80500Y-93100
X80500Y-95500
X80500Y-99500
X80500Y-100300
X80500Y-101900
X80500Y-103500
X80500Y-104300
X80500Y-105900
X80900Y-107700
X81300Y-90700
X81300Y-92300
X81300Y-94700
X81300Y-95500
X81300Y-96300
X81300Y-99500
X81300Y-103500
X81300Y-105100
X81400Y-112000
X81400Y-116600
X81750Y-75900
X81800Y-72800
X82100Y-92300
X82100Y-94700
X82100Y-96300
X82100Y-97100
X82100Y-101900
X82100Y-105100
X82200Y-109600
X82300Y-88200
X82500Y-89700
X82850Y-75950
X82900Y-73500
X82900Y-90700
X82900Y-92300
X82900Y-93100
X82900Y-93900
X82900Y-94700
X82900Y-95500
X82900Y-101100
X82900Y-102700
X82900Y-106700
X83700Y-91500
X83700Y-95500
X83700Y-100300
X83700Y-102700
X83700Y-104300
X83700Y-107500
X84500Y-97100
X84600Y-67100
X84700Y-93500
X84700Y-96300
X84700Y-97800
X84800Y-102300
X84800Y-103100
X84800Y-105500
X85100Y-99400
X85200Y-107500
X85300Y-101500
X85500Y-86700
X85700Y-62300
X85900Y-75150
X85900Y-75150
X85900Y-75150
X85900Y-109700
X86100Y-96300
X86100Y-97800
X86200Y-67600
X86350Y-74650
X86350Y-75650
X86400Y-95000
X86500Y-101200
X86600Y-98600
X86800Y-75150
X86900Y-102100
X86900Y-118500
X87300Y-93800
X87500Y-96300
X87500Y-97800
X87800Y-67100
X87800Y-84600
X87800Y-99900
X87900Y-118500
X88400Y-73400
X88400Y-81100
X88400Y-82100
X88400Y-108100
X88600Y-78800
X88600Y-80300
X88600Y-95400
X88800Y-98900
X88800Y-100400
X89400Y-92500
X89400Y-94800
X89400Y-96000
X89500Y-110000
X89600Y-74000
X89600Y-104800
X89800Y-97900
X89800Y-99900
X90200Y-73700
X90700Y-72100
X90900Y-124900
X91000Y-67900
X91100Y-83600
X91100Y-97400
X91100Y-98600
X91100Y-99900
X91100Y-104000
X91500Y-102800
X91500Y-112000
X91500Y-116600
X91600Y-88400
X91600Y-89800
X91700Y-67900
X91700Y-72100
X92100Y-71200
X92200Y-103400
X92200Y-106800
X92500Y-72100
X92900Y-67900
X92900Y-89000
X93200Y-102800
X93700Y-85300
X93800Y-70100
X93800Y-88000
X93900Y-69300
X94100Y-67900
X94100Y-107000
X94200Y-84700
X94200Y-103400
X94600Y-102800
X94600Y-108600
X94800Y-73400
X94900Y-69300
X95400Y-73400
X95500Y-68800
X95500Y-75800
X95500Y-109400
X95600Y-97300
X95600Y-98700
X95600Y-103400
X95700Y-85000
X96000Y-86600
X96000Y-106800
X96100Y-117600
X96300Y-75800
X96400Y-67900
X96600Y-102800
X96700Y-70100
X96800Y-68500
X96800Y-89000
X96800Y-89800
X96800Y-97300
X96800Y-98700
X97300Y-67900
X97500Y-84500
X97500Y-89000
X97500Y-89800
X97600Y-103400
X98000Y-106200
X98000Y-107000
X98000Y-107800
X98000Y-108600
X98100Y-72100
X98100Y-79500
X98100Y-91800
X98200Y-84400
X98300Y-71200
X98500Y-67900
X98700Y-83800
X98700Y-93200
X98700Y-94600
X98700Y-100900
X98700Y-102300
X98700Y-117600
X98900Y-88000
X98900Y-91800
X99200Y-67900
X99400Y-103600
X99400Y-106900
X99600Y-85900
X99700Y-97300
X99700Y-98200
X99750Y-89900
X99900Y-88900
X100150Y-97750
X100400Y-71600
X100400Y-78800
X100600Y-74000
X100700Y-78300
X100800Y-88300
X100800Y-93200
X101100Y-102200
X101200Y-77800
X101200Y-83800
X101400Y-82600
X101400Y-112700
X101400Y-114600
X101400Y-115300
X101500Y-92200
X101700Y-75400
X101700Y-76000
X101700Y-77000
X101782Y-102282
X102100Y-67800
X102100Y-93700
X102300Y-76400
X102500Y-75400
X102650Y-97125
X102650Y-98875
X102700Y-67800
X103400Y-77400
X103400Y-78100
X103400Y-78800
X103400Y-79600
X103400Y-80900
X103400Y-82300
X103525Y-96250
X103525Y-98000
X103525Y-99750
X103700Y-93300
X103900Y-85700
X104000Y-112000
X104100Y-93800
X104300Y-85200
X104300Y-86200
X104300Y-105200
X104400Y-73300
X104400Y-83400
X104400Y-97125
X104400Y-98875
X104400Y-106000
X104600Y-93300
X105200Y-93800
X105275Y-96250
X105275Y-98000
X105275Y-99750
X105400Y-71600
X105400Y-79500
X105500Y-89900
X105600Y-69000
X105600Y-105100
X105800Y-87700
X106150Y-97100
X106150Y-98875
X106200Y-85000
X106300Y-88100
X106600Y-84300
X106600Y-85700
X106700Y-93700
X106800Y-79800
X107000Y-73200
X107000Y-85000
X107100Y-102300
X107400Y-93700
X107600Y-73500
X107700Y-77100
X107700Y-78000
X107700Y-102200
X107800Y-70800
X108200Y-74900
X108200Y-76700
X108200Y-79500
X108500Y-102600
X108600Y-92500
X108600Y-94900
X108600Y-97200
X108600Y-98300
X108700Y-101200
X108800Y-83400
X109000Y-90850
X109000Y-91450
X109000Y-96000
X109000Y-98700
X109000Y-100000
X109100Y-76700
X109100Y-84500
X109200Y-102400
X109200Y-104400
X109200Y-105000
X109550Y-90850
X109550Y-91450
X109600Y-92900
X110000Y-83400
X110000Y-106000
X110350Y-88650
X110600Y-105300
X110600Y-123600
X110700Y-67800
X110700Y-95200
X110700Y-96700
X110700Y-97500
X110700Y-99300
X110700Y-100800
X111200Y-70300
X111200Y-71300
X111200Y-92900
X111200Y-102400
X111200Y-105300
X111400Y-97400
X112900Y-67900
X114100Y-89600
X114900Y-69000
X117200Y-88800
X117200Y-97900
X117900Y-125100
T2
X93100Y-66200
X93900Y-66200
X94700Y-66200
X95500Y-66200
X96300Y-66200
X97100Y-66200
T4
X51660Y-70700
X54200Y-70700
X56740Y-70700
X54300Y-77100
X54300Y-79100
X56300Y-77100
X56300Y-79100
X58300Y-77100
X58300Y-79100
X60300Y-77100
X60300Y-79100
X62300Y-77100
X62300Y-79100
X64300Y-77100
X64300Y-79100
X66300Y-77100
X66300Y-79100
X62360Y-70700
X64900Y-70700
X67440Y-70700
T5
X109100Y-64200
X111100Y-64200
X113100Y-64200
X38000Y-84500
X38000Y-86500
X38000Y-88500
T6
X55840Y-121460
X55840Y-124000
X58380Y-121460
X58380Y-124000
X60920Y-121460
X60920Y-124000
X63460Y-121460
X63460Y-124000
X66000Y-121460
X66000Y-124000
X95840Y-121460
X95840Y-124000
X98380Y-121460
X98380Y-124000
X100920Y-121460
X100920Y-124000
X103460Y-121460
X103460Y-124000
X106000Y-121460
X106000Y-124000
X35000Y-103840
X35000Y-106380
X35000Y-108920
X35000Y-111460
X35000Y-114000
X37540Y-103840
X37540Y-106380
X37540Y-108920
X37540Y-111460
X37540Y-114000
X112700Y-74800
X112700Y-77300
X112700Y-79800
X112700Y-82300
X112700Y-84800
X75840Y-121460
X75840Y-124000
X78380Y-121460
X78380Y-124000
X80920Y-121460
X80920Y-124000
X83460Y-121460
X83460Y-124000
X86000Y-121460
X86000Y-124000
X113460Y-111000
X113460Y-113540
X113460Y-116080
X113460Y-118620
X113460Y-121160
X116000Y-111000
X116000Y-113540
X116000Y-116080
X116000Y-118620
X116000Y-121160
X35840Y-121460
X35840Y-124000
X38380Y-121460
X38380Y-124000
X40920Y-121460
X40920Y-124000
X43460Y-121460
X43460Y-124000
X46000Y-121460
X46000Y-124000
T7
X51660Y-68070
X56740Y-68070
X62360Y-68070
X67440Y-68070
T8
X72000Y-60800
X72000Y-63300
X77000Y-68300
X82000Y-60800
X82000Y-63300
T9
X107000Y-64200
X115200Y-64200
X38000Y-82400
X38000Y-90600
T10
X107000Y-116000
X86000Y-71000
X37000Y-96000
T3
X72000Y-67850G85X72000Y-68750
G05
X74500Y-67850G85X74500Y-68750
G05
X76550Y-63300G85X77450Y-63300
G05
X79500Y-67850G85X79500Y-68750
G05
X82000Y-67850G85X82000Y-68750
G05
X89550Y-62150G85X89550Y-61050
G05
X89550Y-67200G85X89550Y-66100
G05
X100650Y-62150G85X100650Y-61050
G05
X100650Y-67200G85X100650Y-66100
G05
T0
M30
