G04 #@! TF.GenerationSoftware,KiCad,Pcbnew,(5.0.0)*
G04 #@! TF.CreationDate,2018-08-18T19:39:24+09:00*
G04 #@! TF.ProjectId,TouchSensor,546F75636853656E736F722E6B696361,rev?*
G04 #@! TF.SameCoordinates,Original*
G04 #@! TF.FileFunction,Soldermask,Top*
G04 #@! TF.FilePolarity,Negative*
%FSLAX46Y46*%
G04 Gerber Fmt 4.6, Leading zero omitted, Abs format (unit mm)*
G04 Created by KiCad (PCBNEW (5.0.0)) date 08/18/18 19:39:24*
%MOMM*%
%LPD*%
G01*
G04 APERTURE LIST*
%ADD10C,6.800000*%
%ADD11O,2.100000X2.100000*%
%ADD12R,2.100000X2.100000*%
%ADD13R,1.600000X1.150000*%
%ADD14R,1.150000X1.600000*%
%ADD15C,2.398980*%
%ADD16R,1.300000X1.600000*%
%ADD17C,0.100000*%
%ADD18C,1.400000*%
%ADD19R,2.200000X2.200000*%
%ADD20C,2.200000*%
%ADD21R,1.600000X1.300000*%
%ADD22O,2.200000X0.800000*%
%ADD23C,2.400000*%
%ADD24O,2.400000X0.650000*%
%ADD25O,0.650000X2.400000*%
G04 APERTURE END LIST*
D10*
G04 #@! TO.C,REF\002A\002A*
X111000000Y-52000000D03*
G04 #@! TD*
D11*
G04 #@! TO.C,P1*
X143160000Y-274540000D03*
X143160000Y-272000000D03*
X140620000Y-274540000D03*
X140620000Y-272000000D03*
X138080000Y-274540000D03*
X138080000Y-272000000D03*
X135540000Y-274540000D03*
X135540000Y-272000000D03*
X133000000Y-274540000D03*
D12*
X133000000Y-272000000D03*
G04 #@! TD*
D13*
G04 #@! TO.C,C1*
X149300000Y-269250000D03*
X151200000Y-269250000D03*
G04 #@! TD*
G04 #@! TO.C,C2*
X151200000Y-267250000D03*
X149300000Y-267250000D03*
G04 #@! TD*
G04 #@! TO.C,C3*
X141550000Y-265000000D03*
X143450000Y-265000000D03*
G04 #@! TD*
G04 #@! TO.C,C4*
X143450000Y-263000000D03*
X141550000Y-263000000D03*
G04 #@! TD*
D14*
G04 #@! TO.C,C5*
X148000000Y-260300000D03*
X148000000Y-262200000D03*
G04 #@! TD*
D13*
G04 #@! TO.C,C6*
X150050000Y-254000000D03*
X151950000Y-254000000D03*
G04 #@! TD*
G04 #@! TO.C,C7*
X132950000Y-243000000D03*
X131050000Y-243000000D03*
G04 #@! TD*
D14*
G04 #@! TO.C,C8*
X150000000Y-248050000D03*
X150000000Y-249950000D03*
G04 #@! TD*
D13*
G04 #@! TO.C,C9*
X127300000Y-249000000D03*
X129200000Y-249000000D03*
G04 #@! TD*
G04 #@! TO.C,C10*
X143450000Y-260000000D03*
X141550000Y-260000000D03*
G04 #@! TD*
D15*
G04 #@! TO.C,J1*
X100000000Y-50000000D03*
G04 #@! TD*
G04 #@! TO.C,J2*
X100000000Y-55000000D03*
G04 #@! TD*
G04 #@! TO.C,J3*
X100000000Y-65000000D03*
G04 #@! TD*
G04 #@! TO.C,J4*
X100000000Y-75000000D03*
G04 #@! TD*
G04 #@! TO.C,J5*
X100000000Y-85000000D03*
G04 #@! TD*
G04 #@! TO.C,J6*
X100000000Y-95000000D03*
G04 #@! TD*
G04 #@! TO.C,J7*
X100000000Y-105000000D03*
G04 #@! TD*
G04 #@! TO.C,J8*
X100000000Y-115000000D03*
G04 #@! TD*
G04 #@! TO.C,J9*
X100000000Y-125000000D03*
G04 #@! TD*
G04 #@! TO.C,J10*
X100000000Y-135000000D03*
G04 #@! TD*
G04 #@! TO.C,J11*
X100000000Y-145000000D03*
G04 #@! TD*
G04 #@! TO.C,J12*
X100000000Y-155000000D03*
G04 #@! TD*
G04 #@! TO.C,J13*
X100000000Y-165000000D03*
G04 #@! TD*
G04 #@! TO.C,J14*
X100000000Y-175000000D03*
G04 #@! TD*
G04 #@! TO.C,J15*
X100000000Y-185000000D03*
G04 #@! TD*
G04 #@! TO.C,J16*
X100000000Y-195000000D03*
G04 #@! TD*
G04 #@! TO.C,J17*
X100000000Y-205000000D03*
G04 #@! TD*
G04 #@! TO.C,J18*
X100000000Y-215000000D03*
G04 #@! TD*
G04 #@! TO.C,J19*
X100000000Y-225000000D03*
G04 #@! TD*
G04 #@! TO.C,J20*
X100000000Y-235000000D03*
G04 #@! TD*
G04 #@! TO.C,J21*
X100000000Y-245000000D03*
G04 #@! TD*
G04 #@! TO.C,J22*
X100000000Y-255000000D03*
G04 #@! TD*
G04 #@! TO.C,J23*
X100000000Y-265000000D03*
G04 #@! TD*
G04 #@! TO.C,J24*
X100000000Y-275000000D03*
G04 #@! TD*
G04 #@! TO.C,J25*
X100000000Y-285000000D03*
G04 #@! TD*
G04 #@! TO.C,J26*
X100000000Y-295000000D03*
G04 #@! TD*
G04 #@! TO.C,J27*
X100000000Y-305000000D03*
G04 #@! TD*
G04 #@! TO.C,J28*
X100000000Y-315000000D03*
G04 #@! TD*
G04 #@! TO.C,J29*
X100000000Y-320000000D03*
G04 #@! TD*
G04 #@! TO.C,J30*
X107500000Y-320000000D03*
G04 #@! TD*
G04 #@! TO.C,J31*
X115000000Y-320000000D03*
G04 #@! TD*
G04 #@! TO.C,J32*
X122500000Y-320000000D03*
G04 #@! TD*
D16*
G04 #@! TO.C,L1*
X149000000Y-274100000D03*
X149000000Y-271900000D03*
G04 #@! TD*
D17*
G04 #@! TO.C,O1*
G36*
X151184306Y-261351685D02*
X151218282Y-261356725D01*
X151251600Y-261365071D01*
X151283939Y-261376642D01*
X151314989Y-261391328D01*
X151344450Y-261408986D01*
X151372038Y-261429446D01*
X151397487Y-261452513D01*
X151420554Y-261477962D01*
X151441014Y-261505550D01*
X151458672Y-261535011D01*
X151473358Y-261566061D01*
X151484929Y-261598400D01*
X151493275Y-261631718D01*
X151498315Y-261665694D01*
X151500000Y-261700000D01*
X151500000Y-262400000D01*
X151498315Y-262434306D01*
X151493275Y-262468282D01*
X151484929Y-262501600D01*
X151473358Y-262533939D01*
X151458672Y-262564989D01*
X151441014Y-262594450D01*
X151420554Y-262622038D01*
X151397487Y-262647487D01*
X151372038Y-262670554D01*
X151344450Y-262691014D01*
X151314989Y-262708672D01*
X151283939Y-262723358D01*
X151251600Y-262734929D01*
X151218282Y-262743275D01*
X151184306Y-262748315D01*
X151150000Y-262750000D01*
X149650000Y-262750000D01*
X149615694Y-262748315D01*
X149581718Y-262743275D01*
X149548400Y-262734929D01*
X149516061Y-262723358D01*
X149485011Y-262708672D01*
X149455550Y-262691014D01*
X149427962Y-262670554D01*
X149402513Y-262647487D01*
X149379446Y-262622038D01*
X149358986Y-262594450D01*
X149341328Y-262564989D01*
X149326642Y-262533939D01*
X149315071Y-262501600D01*
X149306725Y-262468282D01*
X149301685Y-262434306D01*
X149300000Y-262400000D01*
X149300000Y-261700000D01*
X149301685Y-261665694D01*
X149306725Y-261631718D01*
X149315071Y-261598400D01*
X149326642Y-261566061D01*
X149341328Y-261535011D01*
X149358986Y-261505550D01*
X149379446Y-261477962D01*
X149402513Y-261452513D01*
X149427962Y-261429446D01*
X149455550Y-261408986D01*
X149485011Y-261391328D01*
X149516061Y-261376642D01*
X149548400Y-261365071D01*
X149581718Y-261356725D01*
X149615694Y-261351685D01*
X149650000Y-261350000D01*
X151150000Y-261350000D01*
X151184306Y-261351685D01*
X151184306Y-261351685D01*
G37*
D18*
X150400000Y-262050000D03*
D17*
G36*
X153884306Y-261351685D02*
X153918282Y-261356725D01*
X153951600Y-261365071D01*
X153983939Y-261376642D01*
X154014989Y-261391328D01*
X154044450Y-261408986D01*
X154072038Y-261429446D01*
X154097487Y-261452513D01*
X154120554Y-261477962D01*
X154141014Y-261505550D01*
X154158672Y-261535011D01*
X154173358Y-261566061D01*
X154184929Y-261598400D01*
X154193275Y-261631718D01*
X154198315Y-261665694D01*
X154200000Y-261700000D01*
X154200000Y-262400000D01*
X154198315Y-262434306D01*
X154193275Y-262468282D01*
X154184929Y-262501600D01*
X154173358Y-262533939D01*
X154158672Y-262564989D01*
X154141014Y-262594450D01*
X154120554Y-262622038D01*
X154097487Y-262647487D01*
X154072038Y-262670554D01*
X154044450Y-262691014D01*
X154014989Y-262708672D01*
X153983939Y-262723358D01*
X153951600Y-262734929D01*
X153918282Y-262743275D01*
X153884306Y-262748315D01*
X153850000Y-262750000D01*
X152350000Y-262750000D01*
X152315694Y-262748315D01*
X152281718Y-262743275D01*
X152248400Y-262734929D01*
X152216061Y-262723358D01*
X152185011Y-262708672D01*
X152155550Y-262691014D01*
X152127962Y-262670554D01*
X152102513Y-262647487D01*
X152079446Y-262622038D01*
X152058986Y-262594450D01*
X152041328Y-262564989D01*
X152026642Y-262533939D01*
X152015071Y-262501600D01*
X152006725Y-262468282D01*
X152001685Y-262434306D01*
X152000000Y-262400000D01*
X152000000Y-261700000D01*
X152001685Y-261665694D01*
X152006725Y-261631718D01*
X152015071Y-261598400D01*
X152026642Y-261566061D01*
X152041328Y-261535011D01*
X152058986Y-261505550D01*
X152079446Y-261477962D01*
X152102513Y-261452513D01*
X152127962Y-261429446D01*
X152155550Y-261408986D01*
X152185011Y-261391328D01*
X152216061Y-261376642D01*
X152248400Y-261365071D01*
X152281718Y-261356725D01*
X152315694Y-261351685D01*
X152350000Y-261350000D01*
X153850000Y-261350000D01*
X153884306Y-261351685D01*
X153884306Y-261351685D01*
G37*
D18*
X153100000Y-262050000D03*
D17*
G36*
X151184306Y-259251685D02*
X151218282Y-259256725D01*
X151251600Y-259265071D01*
X151283939Y-259276642D01*
X151314989Y-259291328D01*
X151344450Y-259308986D01*
X151372038Y-259329446D01*
X151397487Y-259352513D01*
X151420554Y-259377962D01*
X151441014Y-259405550D01*
X151458672Y-259435011D01*
X151473358Y-259466061D01*
X151484929Y-259498400D01*
X151493275Y-259531718D01*
X151498315Y-259565694D01*
X151500000Y-259600000D01*
X151500000Y-260300000D01*
X151498315Y-260334306D01*
X151493275Y-260368282D01*
X151484929Y-260401600D01*
X151473358Y-260433939D01*
X151458672Y-260464989D01*
X151441014Y-260494450D01*
X151420554Y-260522038D01*
X151397487Y-260547487D01*
X151372038Y-260570554D01*
X151344450Y-260591014D01*
X151314989Y-260608672D01*
X151283939Y-260623358D01*
X151251600Y-260634929D01*
X151218282Y-260643275D01*
X151184306Y-260648315D01*
X151150000Y-260650000D01*
X149650000Y-260650000D01*
X149615694Y-260648315D01*
X149581718Y-260643275D01*
X149548400Y-260634929D01*
X149516061Y-260623358D01*
X149485011Y-260608672D01*
X149455550Y-260591014D01*
X149427962Y-260570554D01*
X149402513Y-260547487D01*
X149379446Y-260522038D01*
X149358986Y-260494450D01*
X149341328Y-260464989D01*
X149326642Y-260433939D01*
X149315071Y-260401600D01*
X149306725Y-260368282D01*
X149301685Y-260334306D01*
X149300000Y-260300000D01*
X149300000Y-259600000D01*
X149301685Y-259565694D01*
X149306725Y-259531718D01*
X149315071Y-259498400D01*
X149326642Y-259466061D01*
X149341328Y-259435011D01*
X149358986Y-259405550D01*
X149379446Y-259377962D01*
X149402513Y-259352513D01*
X149427962Y-259329446D01*
X149455550Y-259308986D01*
X149485011Y-259291328D01*
X149516061Y-259276642D01*
X149548400Y-259265071D01*
X149581718Y-259256725D01*
X149615694Y-259251685D01*
X149650000Y-259250000D01*
X151150000Y-259250000D01*
X151184306Y-259251685D01*
X151184306Y-259251685D01*
G37*
D18*
X150400000Y-259950000D03*
D17*
G36*
X153884306Y-259251685D02*
X153918282Y-259256725D01*
X153951600Y-259265071D01*
X153983939Y-259276642D01*
X154014989Y-259291328D01*
X154044450Y-259308986D01*
X154072038Y-259329446D01*
X154097487Y-259352513D01*
X154120554Y-259377962D01*
X154141014Y-259405550D01*
X154158672Y-259435011D01*
X154173358Y-259466061D01*
X154184929Y-259498400D01*
X154193275Y-259531718D01*
X154198315Y-259565694D01*
X154200000Y-259600000D01*
X154200000Y-260300000D01*
X154198315Y-260334306D01*
X154193275Y-260368282D01*
X154184929Y-260401600D01*
X154173358Y-260433939D01*
X154158672Y-260464989D01*
X154141014Y-260494450D01*
X154120554Y-260522038D01*
X154097487Y-260547487D01*
X154072038Y-260570554D01*
X154044450Y-260591014D01*
X154014989Y-260608672D01*
X153983939Y-260623358D01*
X153951600Y-260634929D01*
X153918282Y-260643275D01*
X153884306Y-260648315D01*
X153850000Y-260650000D01*
X152350000Y-260650000D01*
X152315694Y-260648315D01*
X152281718Y-260643275D01*
X152248400Y-260634929D01*
X152216061Y-260623358D01*
X152185011Y-260608672D01*
X152155550Y-260591014D01*
X152127962Y-260570554D01*
X152102513Y-260547487D01*
X152079446Y-260522038D01*
X152058986Y-260494450D01*
X152041328Y-260464989D01*
X152026642Y-260433939D01*
X152015071Y-260401600D01*
X152006725Y-260368282D01*
X152001685Y-260334306D01*
X152000000Y-260300000D01*
X152000000Y-259600000D01*
X152001685Y-259565694D01*
X152006725Y-259531718D01*
X152015071Y-259498400D01*
X152026642Y-259466061D01*
X152041328Y-259435011D01*
X152058986Y-259405550D01*
X152079446Y-259377962D01*
X152102513Y-259352513D01*
X152127962Y-259329446D01*
X152155550Y-259308986D01*
X152185011Y-259291328D01*
X152216061Y-259276642D01*
X152248400Y-259265071D01*
X152281718Y-259256725D01*
X152315694Y-259251685D01*
X152350000Y-259250000D01*
X153850000Y-259250000D01*
X153884306Y-259251685D01*
X153884306Y-259251685D01*
G37*
D18*
X153100000Y-259950000D03*
G04 #@! TD*
D19*
G04 #@! TO.C,P2*
X157270000Y-241880000D03*
D20*
X154730000Y-241880000D03*
X157270000Y-244420000D03*
X154730000Y-244420000D03*
X157270000Y-246960000D03*
X154730000Y-246960000D03*
X157270000Y-249500000D03*
X154730000Y-249500000D03*
X157270000Y-252040000D03*
X154730000Y-252040000D03*
X157270000Y-254580000D03*
X154730000Y-254580000D03*
X157270000Y-257120000D03*
X154730000Y-257120000D03*
G04 #@! TD*
D16*
G04 #@! TO.C,R1*
X160000000Y-252100000D03*
X160000000Y-249900000D03*
G04 #@! TD*
G04 #@! TO.C,R2*
X160000000Y-257100000D03*
X160000000Y-254900000D03*
G04 #@! TD*
D21*
G04 #@! TO.C,R3*
X152100000Y-252000000D03*
X149900000Y-252000000D03*
G04 #@! TD*
D22*
G04 #@! TO.C,U1*
X146600000Y-267025000D03*
X141400000Y-267025000D03*
X146600000Y-267675000D03*
X141400000Y-267675000D03*
X146600000Y-268325000D03*
X141400000Y-268325000D03*
X146600000Y-268975000D03*
X141400000Y-268975000D03*
D23*
X144000000Y-268000000D03*
D17*
G36*
X142800000Y-266800000D02*
X145200000Y-266800000D01*
X145200000Y-269200000D01*
X142800000Y-269200000D01*
X142800000Y-266800000D01*
X142800000Y-266800000D01*
G37*
G04 #@! TD*
D24*
G04 #@! TO.C,U2*
X147000000Y-254750000D03*
X147000000Y-254250000D03*
X147000000Y-253750000D03*
X147000000Y-253250000D03*
X147000000Y-252750000D03*
X147000000Y-252250000D03*
X147000000Y-251750000D03*
X147000000Y-251250000D03*
X147000000Y-250750000D03*
X147000000Y-250250000D03*
X147000000Y-249750000D03*
X147000000Y-249250000D03*
X147000000Y-248750000D03*
X147000000Y-248250000D03*
X147000000Y-247750000D03*
X147000000Y-247250000D03*
X147000000Y-246750000D03*
X147000000Y-246250000D03*
X147000000Y-245750000D03*
X147000000Y-245250000D03*
D25*
X144750000Y-243000000D03*
X144250000Y-243000000D03*
X143750000Y-243000000D03*
X143250000Y-243000000D03*
X142750000Y-243000000D03*
X142250000Y-243000000D03*
X141750000Y-243000000D03*
X141250000Y-243000000D03*
X140750000Y-243000000D03*
X140250000Y-243000000D03*
X139750000Y-243000000D03*
X139250000Y-243000000D03*
X138750000Y-243000000D03*
X138250000Y-243000000D03*
X137750000Y-243000000D03*
X137250000Y-243000000D03*
X136750000Y-243000000D03*
X136250000Y-243000000D03*
X135750000Y-243000000D03*
X135250000Y-243000000D03*
D24*
X133000000Y-245250000D03*
X133000000Y-245750000D03*
X133000000Y-246250000D03*
X133000000Y-246750000D03*
X133000000Y-247250000D03*
X133000000Y-247750000D03*
X133000000Y-248250000D03*
X133000000Y-248750000D03*
X133000000Y-249250000D03*
X133000000Y-249750000D03*
X133000000Y-250250000D03*
X133000000Y-250750000D03*
X133000000Y-251250000D03*
X133000000Y-251750000D03*
X133000000Y-252250000D03*
X133000000Y-252750000D03*
X133000000Y-253250000D03*
X133000000Y-253750000D03*
X133000000Y-254250000D03*
X133000000Y-254750000D03*
D25*
X135250000Y-257000000D03*
X135750000Y-257000000D03*
X136250000Y-257000000D03*
X136750000Y-257000000D03*
X137250000Y-257000000D03*
X137750000Y-257000000D03*
X138250000Y-257000000D03*
X138750000Y-257000000D03*
X139250000Y-257000000D03*
X139750000Y-257000000D03*
X140250000Y-257000000D03*
X140750000Y-257000000D03*
X141250000Y-257000000D03*
X141750000Y-257000000D03*
X142250000Y-257000000D03*
X142750000Y-257000000D03*
X143250000Y-257000000D03*
X143750000Y-257000000D03*
X144250000Y-257000000D03*
X144750000Y-257000000D03*
G04 #@! TD*
D10*
G04 #@! TO.C,REF\002A\002A*
X158000000Y-279000000D03*
G04 #@! TD*
M02*
