G04 #@! TF.GenerationSoftware,KiCad,Pcbnew,(5.0.0)*
G04 #@! TF.CreationDate,2018-08-18T19:39:24+09:00*
G04 #@! TF.ProjectId,TouchSensor,546F75636853656E736F722E6B696361,rev?*
G04 #@! TF.SameCoordinates,Original*
G04 #@! TF.FileFunction,Copper,L1,Top,Signal*
G04 #@! TF.FilePolarity,Positive*
%FSLAX46Y46*%
G04 Gerber Fmt 4.6, Leading zero omitted, Abs format (unit mm)*
G04 Created by KiCad (PCBNEW (5.0.0)) date 08/18/18 19:39:24*
%MOMM*%
%LPD*%
G01*
G04 APERTURE LIST*
G04 #@! TA.AperFunction,ComponentPad*
%ADD10C,6.400000*%
G04 #@! TD*
G04 #@! TA.AperFunction,ComponentPad*
%ADD11O,1.700000X1.700000*%
G04 #@! TD*
G04 #@! TA.AperFunction,ComponentPad*
%ADD12R,1.700000X1.700000*%
G04 #@! TD*
G04 #@! TA.AperFunction,SMDPad,CuDef*
%ADD13R,1.200000X0.750000*%
G04 #@! TD*
G04 #@! TA.AperFunction,SMDPad,CuDef*
%ADD14R,0.750000X1.200000*%
G04 #@! TD*
G04 #@! TA.AperFunction,ComponentPad*
%ADD15C,1.998980*%
G04 #@! TD*
G04 #@! TA.AperFunction,SMDPad,CuDef*
%ADD16R,0.900000X1.200000*%
G04 #@! TD*
G04 #@! TA.AperFunction,Conductor*
%ADD17C,0.100000*%
G04 #@! TD*
G04 #@! TA.AperFunction,SMDPad,CuDef*
%ADD18C,1.000000*%
G04 #@! TD*
G04 #@! TA.AperFunction,ComponentPad*
%ADD19R,1.800000X1.800000*%
G04 #@! TD*
G04 #@! TA.AperFunction,ComponentPad*
%ADD20C,1.800000*%
G04 #@! TD*
G04 #@! TA.AperFunction,SMDPad,CuDef*
%ADD21R,1.200000X0.900000*%
G04 #@! TD*
G04 #@! TA.AperFunction,SMDPad,CuDef*
%ADD22O,1.800000X0.400000*%
G04 #@! TD*
G04 #@! TA.AperFunction,SMDPad,CuDef*
%ADD23C,2.000000*%
G04 #@! TD*
G04 #@! TA.AperFunction,SMDPad,CuDef*
%ADD24O,2.000000X0.250000*%
G04 #@! TD*
G04 #@! TA.AperFunction,SMDPad,CuDef*
%ADD25O,0.250000X2.000000*%
G04 #@! TD*
G04 #@! TA.AperFunction,ViaPad*
%ADD26C,2.000000*%
G04 #@! TD*
G04 #@! TA.AperFunction,ViaPad*
%ADD27C,0.800000*%
G04 #@! TD*
G04 #@! TA.AperFunction,Conductor*
%ADD28C,1.000000*%
G04 #@! TD*
G04 #@! TA.AperFunction,Conductor*
%ADD29C,0.400000*%
G04 #@! TD*
G04 #@! TA.AperFunction,Conductor*
%ADD30C,0.250000*%
G04 #@! TD*
G04 #@! TA.AperFunction,Conductor*
%ADD31C,0.200000*%
G04 #@! TD*
G04 #@! TA.AperFunction,Conductor*
%ADD32C,0.254000*%
G04 #@! TD*
G04 APERTURE END LIST*
D10*
G04 #@! TO.P,REF\002A\002A,1*
G04 #@! TO.N,N/C*
X111000000Y-52000000D03*
G04 #@! TD*
D11*
G04 #@! TO.P,P1,10*
G04 #@! TO.N,GND*
X143160000Y-274540000D03*
G04 #@! TO.P,P1,9*
G04 #@! TO.N,/RES#*
X143160000Y-272000000D03*
G04 #@! TO.P,P1,8*
G04 #@! TO.N,N/C*
X140620000Y-274540000D03*
G04 #@! TO.P,P1,7*
G04 #@! TO.N,GND*
X140620000Y-272000000D03*
G04 #@! TO.P,P1,6*
G04 #@! TO.N,N/C*
X138080000Y-274540000D03*
G04 #@! TO.P,P1,5*
G04 #@! TO.N,Net-(P1-Pad5)*
X138080000Y-272000000D03*
G04 #@! TO.P,P1,4*
G04 #@! TO.N,Net-(P1-Pad4)*
X135540000Y-274540000D03*
G04 #@! TO.P,P1,3*
G04 #@! TO.N,Net-(P1-Pad3)*
X135540000Y-272000000D03*
G04 #@! TO.P,P1,2*
G04 #@! TO.N,GND*
X133000000Y-274540000D03*
D12*
G04 #@! TO.P,P1,1*
G04 #@! TO.N,+5V*
X133000000Y-272000000D03*
G04 #@! TD*
D13*
G04 #@! TO.P,C1,2*
G04 #@! TO.N,Net-(C1-Pad2)*
X149300000Y-269250000D03*
G04 #@! TO.P,C1,1*
G04 #@! TO.N,GND*
X151200000Y-269250000D03*
G04 #@! TD*
G04 #@! TO.P,C2,1*
G04 #@! TO.N,GND*
X151200000Y-267250000D03*
G04 #@! TO.P,C2,2*
G04 #@! TO.N,Net-(C1-Pad2)*
X149300000Y-267250000D03*
G04 #@! TD*
G04 #@! TO.P,C3,2*
G04 #@! TO.N,+3V3*
X141550000Y-265000000D03*
G04 #@! TO.P,C3,1*
G04 #@! TO.N,GND*
X143450000Y-265000000D03*
G04 #@! TD*
G04 #@! TO.P,C4,1*
G04 #@! TO.N,GND*
X143450000Y-263000000D03*
G04 #@! TO.P,C4,2*
G04 #@! TO.N,+3V3*
X141550000Y-263000000D03*
G04 #@! TD*
D14*
G04 #@! TO.P,C5,1*
G04 #@! TO.N,GND*
X148000000Y-260300000D03*
G04 #@! TO.P,C5,2*
G04 #@! TO.N,+3V3*
X148000000Y-262200000D03*
G04 #@! TD*
D13*
G04 #@! TO.P,C6,1*
G04 #@! TO.N,Net-(C6-Pad1)*
X150050000Y-254000000D03*
G04 #@! TO.P,C6,2*
G04 #@! TO.N,GND*
X151950000Y-254000000D03*
G04 #@! TD*
G04 #@! TO.P,C7,2*
G04 #@! TO.N,Net-(C7-Pad2)*
X132950000Y-243000000D03*
G04 #@! TO.P,C7,1*
G04 #@! TO.N,GND*
X131050000Y-243000000D03*
G04 #@! TD*
D14*
G04 #@! TO.P,C8,2*
G04 #@! TO.N,+3V3*
X150000000Y-248050000D03*
G04 #@! TO.P,C8,1*
G04 #@! TO.N,GND*
X150000000Y-249950000D03*
G04 #@! TD*
D13*
G04 #@! TO.P,C9,1*
G04 #@! TO.N,GND*
X127300000Y-249000000D03*
G04 #@! TO.P,C9,2*
G04 #@! TO.N,+3V3*
X129200000Y-249000000D03*
G04 #@! TD*
G04 #@! TO.P,C10,2*
G04 #@! TO.N,+3V3*
X143450000Y-260000000D03*
G04 #@! TO.P,C10,1*
G04 #@! TO.N,GND*
X141550000Y-260000000D03*
G04 #@! TD*
D15*
G04 #@! TO.P,J1,1*
G04 #@! TO.N,Net-(J1-Pad1)*
X100000000Y-50000000D03*
G04 #@! TD*
G04 #@! TO.P,J2,1*
G04 #@! TO.N,Net-(J2-Pad1)*
X100000000Y-55000000D03*
G04 #@! TD*
G04 #@! TO.P,J3,1*
G04 #@! TO.N,Net-(J3-Pad1)*
X100000000Y-65000000D03*
G04 #@! TD*
G04 #@! TO.P,J4,1*
G04 #@! TO.N,Net-(J4-Pad1)*
X100000000Y-75000000D03*
G04 #@! TD*
G04 #@! TO.P,J5,1*
G04 #@! TO.N,Net-(J5-Pad1)*
X100000000Y-85000000D03*
G04 #@! TD*
G04 #@! TO.P,J6,1*
G04 #@! TO.N,Net-(J6-Pad1)*
X100000000Y-95000000D03*
G04 #@! TD*
G04 #@! TO.P,J7,1*
G04 #@! TO.N,Net-(J7-Pad1)*
X100000000Y-105000000D03*
G04 #@! TD*
G04 #@! TO.P,J8,1*
G04 #@! TO.N,Net-(J8-Pad1)*
X100000000Y-115000000D03*
G04 #@! TD*
G04 #@! TO.P,J9,1*
G04 #@! TO.N,Net-(J9-Pad1)*
X100000000Y-125000000D03*
G04 #@! TD*
G04 #@! TO.P,J10,1*
G04 #@! TO.N,Net-(J10-Pad1)*
X100000000Y-135000000D03*
G04 #@! TD*
G04 #@! TO.P,J11,1*
G04 #@! TO.N,Net-(J11-Pad1)*
X100000000Y-145000000D03*
G04 #@! TD*
G04 #@! TO.P,J12,1*
G04 #@! TO.N,Net-(J12-Pad1)*
X100000000Y-155000000D03*
G04 #@! TD*
G04 #@! TO.P,J13,1*
G04 #@! TO.N,Net-(J13-Pad1)*
X100000000Y-165000000D03*
G04 #@! TD*
G04 #@! TO.P,J14,1*
G04 #@! TO.N,Net-(J14-Pad1)*
X100000000Y-175000000D03*
G04 #@! TD*
G04 #@! TO.P,J15,1*
G04 #@! TO.N,Net-(J15-Pad1)*
X100000000Y-185000000D03*
G04 #@! TD*
G04 #@! TO.P,J16,1*
G04 #@! TO.N,Net-(J16-Pad1)*
X100000000Y-195000000D03*
G04 #@! TD*
G04 #@! TO.P,J17,1*
G04 #@! TO.N,Net-(J17-Pad1)*
X100000000Y-205000000D03*
G04 #@! TD*
G04 #@! TO.P,J18,1*
G04 #@! TO.N,Net-(J18-Pad1)*
X100000000Y-215000000D03*
G04 #@! TD*
G04 #@! TO.P,J19,1*
G04 #@! TO.N,Net-(J19-Pad1)*
X100000000Y-225000000D03*
G04 #@! TD*
G04 #@! TO.P,J20,1*
G04 #@! TO.N,Net-(J20-Pad1)*
X100000000Y-235000000D03*
G04 #@! TD*
G04 #@! TO.P,J21,1*
G04 #@! TO.N,Net-(J21-Pad1)*
X100000000Y-245000000D03*
G04 #@! TD*
G04 #@! TO.P,J22,1*
G04 #@! TO.N,Net-(J22-Pad1)*
X100000000Y-255000000D03*
G04 #@! TD*
G04 #@! TO.P,J23,1*
G04 #@! TO.N,Net-(J23-Pad1)*
X100000000Y-265000000D03*
G04 #@! TD*
G04 #@! TO.P,J24,1*
G04 #@! TO.N,Net-(J24-Pad1)*
X100000000Y-275000000D03*
G04 #@! TD*
G04 #@! TO.P,J25,1*
G04 #@! TO.N,Net-(J25-Pad1)*
X100000000Y-285000000D03*
G04 #@! TD*
G04 #@! TO.P,J26,1*
G04 #@! TO.N,Net-(J26-Pad1)*
X100000000Y-295000000D03*
G04 #@! TD*
G04 #@! TO.P,J27,1*
G04 #@! TO.N,Net-(J27-Pad1)*
X100000000Y-305000000D03*
G04 #@! TD*
G04 #@! TO.P,J28,1*
G04 #@! TO.N,Net-(J28-Pad1)*
X100000000Y-315000000D03*
G04 #@! TD*
G04 #@! TO.P,J29,1*
G04 #@! TO.N,Net-(J29-Pad1)*
X100000000Y-320000000D03*
G04 #@! TD*
G04 #@! TO.P,J30,1*
G04 #@! TO.N,Net-(J30-Pad1)*
X107500000Y-320000000D03*
G04 #@! TD*
G04 #@! TO.P,J31,1*
G04 #@! TO.N,Net-(J31-Pad1)*
X115000000Y-320000000D03*
G04 #@! TD*
G04 #@! TO.P,J32,1*
G04 #@! TO.N,Net-(J32-Pad1)*
X122500000Y-320000000D03*
G04 #@! TD*
D16*
G04 #@! TO.P,L1,2*
G04 #@! TO.N,+5V*
X149000000Y-274100000D03*
G04 #@! TO.P,L1,1*
G04 #@! TO.N,Net-(C1-Pad2)*
X149000000Y-271900000D03*
G04 #@! TD*
D17*
G04 #@! TO.N,+3V3*
G04 #@! TO.C,O1*
G36*
X151074504Y-261551204D02*
X151098773Y-261554804D01*
X151122571Y-261560765D01*
X151145671Y-261569030D01*
X151167849Y-261579520D01*
X151188893Y-261592133D01*
X151208598Y-261606747D01*
X151226777Y-261623223D01*
X151243253Y-261641402D01*
X151257867Y-261661107D01*
X151270480Y-261682151D01*
X151280970Y-261704329D01*
X151289235Y-261727429D01*
X151295196Y-261751227D01*
X151298796Y-261775496D01*
X151300000Y-261800000D01*
X151300000Y-262300000D01*
X151298796Y-262324504D01*
X151295196Y-262348773D01*
X151289235Y-262372571D01*
X151280970Y-262395671D01*
X151270480Y-262417849D01*
X151257867Y-262438893D01*
X151243253Y-262458598D01*
X151226777Y-262476777D01*
X151208598Y-262493253D01*
X151188893Y-262507867D01*
X151167849Y-262520480D01*
X151145671Y-262530970D01*
X151122571Y-262539235D01*
X151098773Y-262545196D01*
X151074504Y-262548796D01*
X151050000Y-262550000D01*
X149750000Y-262550000D01*
X149725496Y-262548796D01*
X149701227Y-262545196D01*
X149677429Y-262539235D01*
X149654329Y-262530970D01*
X149632151Y-262520480D01*
X149611107Y-262507867D01*
X149591402Y-262493253D01*
X149573223Y-262476777D01*
X149556747Y-262458598D01*
X149542133Y-262438893D01*
X149529520Y-262417849D01*
X149519030Y-262395671D01*
X149510765Y-262372571D01*
X149504804Y-262348773D01*
X149501204Y-262324504D01*
X149500000Y-262300000D01*
X149500000Y-261800000D01*
X149501204Y-261775496D01*
X149504804Y-261751227D01*
X149510765Y-261727429D01*
X149519030Y-261704329D01*
X149529520Y-261682151D01*
X149542133Y-261661107D01*
X149556747Y-261641402D01*
X149573223Y-261623223D01*
X149591402Y-261606747D01*
X149611107Y-261592133D01*
X149632151Y-261579520D01*
X149654329Y-261569030D01*
X149677429Y-261560765D01*
X149701227Y-261554804D01*
X149725496Y-261551204D01*
X149750000Y-261550000D01*
X151050000Y-261550000D01*
X151074504Y-261551204D01*
X151074504Y-261551204D01*
G37*
D18*
G04 #@! TD*
G04 #@! TO.P,O1,4*
G04 #@! TO.N,+3V3*
X150400000Y-262050000D03*
D17*
G04 #@! TO.N,+3V3*
G04 #@! TO.C,O1*
G36*
X153774504Y-261551204D02*
X153798773Y-261554804D01*
X153822571Y-261560765D01*
X153845671Y-261569030D01*
X153867849Y-261579520D01*
X153888893Y-261592133D01*
X153908598Y-261606747D01*
X153926777Y-261623223D01*
X153943253Y-261641402D01*
X153957867Y-261661107D01*
X153970480Y-261682151D01*
X153980970Y-261704329D01*
X153989235Y-261727429D01*
X153995196Y-261751227D01*
X153998796Y-261775496D01*
X154000000Y-261800000D01*
X154000000Y-262300000D01*
X153998796Y-262324504D01*
X153995196Y-262348773D01*
X153989235Y-262372571D01*
X153980970Y-262395671D01*
X153970480Y-262417849D01*
X153957867Y-262438893D01*
X153943253Y-262458598D01*
X153926777Y-262476777D01*
X153908598Y-262493253D01*
X153888893Y-262507867D01*
X153867849Y-262520480D01*
X153845671Y-262530970D01*
X153822571Y-262539235D01*
X153798773Y-262545196D01*
X153774504Y-262548796D01*
X153750000Y-262550000D01*
X152450000Y-262550000D01*
X152425496Y-262548796D01*
X152401227Y-262545196D01*
X152377429Y-262539235D01*
X152354329Y-262530970D01*
X152332151Y-262520480D01*
X152311107Y-262507867D01*
X152291402Y-262493253D01*
X152273223Y-262476777D01*
X152256747Y-262458598D01*
X152242133Y-262438893D01*
X152229520Y-262417849D01*
X152219030Y-262395671D01*
X152210765Y-262372571D01*
X152204804Y-262348773D01*
X152201204Y-262324504D01*
X152200000Y-262300000D01*
X152200000Y-261800000D01*
X152201204Y-261775496D01*
X152204804Y-261751227D01*
X152210765Y-261727429D01*
X152219030Y-261704329D01*
X152229520Y-261682151D01*
X152242133Y-261661107D01*
X152256747Y-261641402D01*
X152273223Y-261623223D01*
X152291402Y-261606747D01*
X152311107Y-261592133D01*
X152332151Y-261579520D01*
X152354329Y-261569030D01*
X152377429Y-261560765D01*
X152401227Y-261554804D01*
X152425496Y-261551204D01*
X152450000Y-261550000D01*
X153750000Y-261550000D01*
X153774504Y-261551204D01*
X153774504Y-261551204D01*
G37*
D18*
G04 #@! TD*
G04 #@! TO.P,O1,1*
G04 #@! TO.N,+3V3*
X153100000Y-262050000D03*
D17*
G04 #@! TO.N,/CLK8*
G04 #@! TO.C,O1*
G36*
X151074504Y-259451204D02*
X151098773Y-259454804D01*
X151122571Y-259460765D01*
X151145671Y-259469030D01*
X151167849Y-259479520D01*
X151188893Y-259492133D01*
X151208598Y-259506747D01*
X151226777Y-259523223D01*
X151243253Y-259541402D01*
X151257867Y-259561107D01*
X151270480Y-259582151D01*
X151280970Y-259604329D01*
X151289235Y-259627429D01*
X151295196Y-259651227D01*
X151298796Y-259675496D01*
X151300000Y-259700000D01*
X151300000Y-260200000D01*
X151298796Y-260224504D01*
X151295196Y-260248773D01*
X151289235Y-260272571D01*
X151280970Y-260295671D01*
X151270480Y-260317849D01*
X151257867Y-260338893D01*
X151243253Y-260358598D01*
X151226777Y-260376777D01*
X151208598Y-260393253D01*
X151188893Y-260407867D01*
X151167849Y-260420480D01*
X151145671Y-260430970D01*
X151122571Y-260439235D01*
X151098773Y-260445196D01*
X151074504Y-260448796D01*
X151050000Y-260450000D01*
X149750000Y-260450000D01*
X149725496Y-260448796D01*
X149701227Y-260445196D01*
X149677429Y-260439235D01*
X149654329Y-260430970D01*
X149632151Y-260420480D01*
X149611107Y-260407867D01*
X149591402Y-260393253D01*
X149573223Y-260376777D01*
X149556747Y-260358598D01*
X149542133Y-260338893D01*
X149529520Y-260317849D01*
X149519030Y-260295671D01*
X149510765Y-260272571D01*
X149504804Y-260248773D01*
X149501204Y-260224504D01*
X149500000Y-260200000D01*
X149500000Y-259700000D01*
X149501204Y-259675496D01*
X149504804Y-259651227D01*
X149510765Y-259627429D01*
X149519030Y-259604329D01*
X149529520Y-259582151D01*
X149542133Y-259561107D01*
X149556747Y-259541402D01*
X149573223Y-259523223D01*
X149591402Y-259506747D01*
X149611107Y-259492133D01*
X149632151Y-259479520D01*
X149654329Y-259469030D01*
X149677429Y-259460765D01*
X149701227Y-259454804D01*
X149725496Y-259451204D01*
X149750000Y-259450000D01*
X151050000Y-259450000D01*
X151074504Y-259451204D01*
X151074504Y-259451204D01*
G37*
D18*
G04 #@! TD*
G04 #@! TO.P,O1,3*
G04 #@! TO.N,/CLK8*
X150400000Y-259950000D03*
D17*
G04 #@! TO.N,GND*
G04 #@! TO.C,O1*
G36*
X153774504Y-259451204D02*
X153798773Y-259454804D01*
X153822571Y-259460765D01*
X153845671Y-259469030D01*
X153867849Y-259479520D01*
X153888893Y-259492133D01*
X153908598Y-259506747D01*
X153926777Y-259523223D01*
X153943253Y-259541402D01*
X153957867Y-259561107D01*
X153970480Y-259582151D01*
X153980970Y-259604329D01*
X153989235Y-259627429D01*
X153995196Y-259651227D01*
X153998796Y-259675496D01*
X154000000Y-259700000D01*
X154000000Y-260200000D01*
X153998796Y-260224504D01*
X153995196Y-260248773D01*
X153989235Y-260272571D01*
X153980970Y-260295671D01*
X153970480Y-260317849D01*
X153957867Y-260338893D01*
X153943253Y-260358598D01*
X153926777Y-260376777D01*
X153908598Y-260393253D01*
X153888893Y-260407867D01*
X153867849Y-260420480D01*
X153845671Y-260430970D01*
X153822571Y-260439235D01*
X153798773Y-260445196D01*
X153774504Y-260448796D01*
X153750000Y-260450000D01*
X152450000Y-260450000D01*
X152425496Y-260448796D01*
X152401227Y-260445196D01*
X152377429Y-260439235D01*
X152354329Y-260430970D01*
X152332151Y-260420480D01*
X152311107Y-260407867D01*
X152291402Y-260393253D01*
X152273223Y-260376777D01*
X152256747Y-260358598D01*
X152242133Y-260338893D01*
X152229520Y-260317849D01*
X152219030Y-260295671D01*
X152210765Y-260272571D01*
X152204804Y-260248773D01*
X152201204Y-260224504D01*
X152200000Y-260200000D01*
X152200000Y-259700000D01*
X152201204Y-259675496D01*
X152204804Y-259651227D01*
X152210765Y-259627429D01*
X152219030Y-259604329D01*
X152229520Y-259582151D01*
X152242133Y-259561107D01*
X152256747Y-259541402D01*
X152273223Y-259523223D01*
X152291402Y-259506747D01*
X152311107Y-259492133D01*
X152332151Y-259479520D01*
X152354329Y-259469030D01*
X152377429Y-259460765D01*
X152401227Y-259454804D01*
X152425496Y-259451204D01*
X152450000Y-259450000D01*
X153750000Y-259450000D01*
X153774504Y-259451204D01*
X153774504Y-259451204D01*
G37*
D18*
G04 #@! TD*
G04 #@! TO.P,O1,2*
G04 #@! TO.N,GND*
X153100000Y-259950000D03*
D19*
G04 #@! TO.P,P2,1*
G04 #@! TO.N,N/C*
X157270000Y-241880000D03*
D20*
G04 #@! TO.P,P2,2*
G04 #@! TO.N,GND*
X154730000Y-241880000D03*
G04 #@! TO.P,P2,3*
G04 #@! TO.N,N/C*
X157270000Y-244420000D03*
G04 #@! TO.P,P2,4*
X154730000Y-244420000D03*
G04 #@! TO.P,P2,5*
X157270000Y-246960000D03*
G04 #@! TO.P,P2,6*
X154730000Y-246960000D03*
G04 #@! TO.P,P2,7*
G04 #@! TO.N,/FINED*
X157270000Y-249500000D03*
G04 #@! TO.P,P2,8*
G04 #@! TO.N,+3V3*
X154730000Y-249500000D03*
G04 #@! TO.P,P2,9*
G04 #@! TO.N,N/C*
X157270000Y-252040000D03*
G04 #@! TO.P,P2,10*
X154730000Y-252040000D03*
G04 #@! TO.P,P2,11*
X157270000Y-254580000D03*
G04 #@! TO.P,P2,12*
G04 #@! TO.N,GND*
X154730000Y-254580000D03*
G04 #@! TO.P,P2,13*
G04 #@! TO.N,/RES#*
X157270000Y-257120000D03*
G04 #@! TO.P,P2,14*
G04 #@! TO.N,GND*
X154730000Y-257120000D03*
G04 #@! TD*
D16*
G04 #@! TO.P,R1,1*
G04 #@! TO.N,+3V3*
X160000000Y-252100000D03*
G04 #@! TO.P,R1,2*
G04 #@! TO.N,/FINED*
X160000000Y-249900000D03*
G04 #@! TD*
G04 #@! TO.P,R2,2*
G04 #@! TO.N,/RES#*
X160000000Y-257100000D03*
G04 #@! TO.P,R2,1*
G04 #@! TO.N,+3V3*
X160000000Y-254900000D03*
G04 #@! TD*
D21*
G04 #@! TO.P,R3,2*
G04 #@! TO.N,GND*
X152100000Y-252000000D03*
G04 #@! TO.P,R3,1*
G04 #@! TO.N,Net-(R3-Pad1)*
X149900000Y-252000000D03*
G04 #@! TD*
D22*
G04 #@! TO.P,U1,8*
G04 #@! TO.N,Net-(C1-Pad2)*
X146600000Y-267025000D03*
G04 #@! TO.P,U1,1*
G04 #@! TO.N,+3V3*
X141400000Y-267025000D03*
G04 #@! TO.P,U1,7*
G04 #@! TO.N,Net-(C1-Pad2)*
X146600000Y-267675000D03*
G04 #@! TO.P,U1,2*
G04 #@! TO.N,+3V3*
X141400000Y-267675000D03*
G04 #@! TO.P,U1,6*
G04 #@! TO.N,N/C*
X146600000Y-268325000D03*
G04 #@! TO.P,U1,3*
G04 #@! TO.N,+3V3*
X141400000Y-268325000D03*
G04 #@! TO.P,U1,5*
G04 #@! TO.N,Net-(C1-Pad2)*
X146600000Y-268975000D03*
G04 #@! TO.P,U1,4*
G04 #@! TO.N,GND*
X141400000Y-268975000D03*
D23*
G04 #@! TO.P,U1,EP*
X144000000Y-268000000D03*
D17*
G04 #@! TD*
G04 #@! TO.N,GND*
G04 #@! TO.C,U1*
G36*
X143000000Y-267000000D02*
X145000000Y-267000000D01*
X145000000Y-269000000D01*
X143000000Y-269000000D01*
X143000000Y-267000000D01*
X143000000Y-267000000D01*
G37*
D24*
G04 #@! TO.P,U2,1*
G04 #@! TO.N,N/C*
X147000000Y-254750000D03*
G04 #@! TO.P,U2,2*
X147000000Y-254250000D03*
G04 #@! TO.P,U2,3*
X147000000Y-253750000D03*
G04 #@! TO.P,U2,4*
G04 #@! TO.N,Net-(C6-Pad1)*
X147000000Y-253250000D03*
G04 #@! TO.P,U2,5*
G04 #@! TO.N,N/C*
X147000000Y-252750000D03*
G04 #@! TO.P,U2,6*
G04 #@! TO.N,/FINED*
X147000000Y-252250000D03*
G04 #@! TO.P,U2,7*
G04 #@! TO.N,Net-(R3-Pad1)*
X147000000Y-251750000D03*
G04 #@! TO.P,U2,8*
G04 #@! TO.N,N/C*
X147000000Y-251250000D03*
G04 #@! TO.P,U2,9*
G04 #@! TO.N,/RES#*
X147000000Y-250750000D03*
G04 #@! TO.P,U2,10*
G04 #@! TO.N,N/C*
X147000000Y-250250000D03*
G04 #@! TO.P,U2,11*
G04 #@! TO.N,GND*
X147000000Y-249750000D03*
G04 #@! TO.P,U2,12*
G04 #@! TO.N,/CLK8*
X147000000Y-249250000D03*
G04 #@! TO.P,U2,13*
G04 #@! TO.N,+3V3*
X147000000Y-248750000D03*
G04 #@! TO.P,U2,14*
G04 #@! TO.N,N/C*
X147000000Y-248250000D03*
G04 #@! TO.P,U2,15*
X147000000Y-247750000D03*
G04 #@! TO.P,U2,16*
G04 #@! TO.N,Net-(J1-Pad1)*
X147000000Y-247250000D03*
G04 #@! TO.P,U2,17*
G04 #@! TO.N,Net-(J2-Pad1)*
X147000000Y-246750000D03*
G04 #@! TO.P,U2,18*
G04 #@! TO.N,Net-(J3-Pad1)*
X147000000Y-246250000D03*
G04 #@! TO.P,U2,19*
G04 #@! TO.N,Net-(J4-Pad1)*
X147000000Y-245750000D03*
G04 #@! TO.P,U2,20*
G04 #@! TO.N,Net-(J5-Pad1)*
X147000000Y-245250000D03*
D25*
G04 #@! TO.P,U2,21*
G04 #@! TO.N,N/C*
X144750000Y-243000000D03*
G04 #@! TO.P,U2,22*
X144250000Y-243000000D03*
G04 #@! TO.P,U2,23*
X143750000Y-243000000D03*
G04 #@! TO.P,U2,24*
X143250000Y-243000000D03*
G04 #@! TO.P,U2,25*
G04 #@! TO.N,Net-(J6-Pad1)*
X142750000Y-243000000D03*
G04 #@! TO.P,U2,26*
G04 #@! TO.N,Net-(J7-Pad1)*
X142250000Y-243000000D03*
G04 #@! TO.P,U2,27*
G04 #@! TO.N,N/C*
X141750000Y-243000000D03*
G04 #@! TO.P,U2,28*
X141250000Y-243000000D03*
G04 #@! TO.P,U2,29*
G04 #@! TO.N,Net-(J8-Pad1)*
X140750000Y-243000000D03*
G04 #@! TO.P,U2,30*
G04 #@! TO.N,Net-(J9-Pad1)*
X140250000Y-243000000D03*
G04 #@! TO.P,U2,31*
G04 #@! TO.N,Net-(J10-Pad1)*
X139750000Y-243000000D03*
G04 #@! TO.P,U2,32*
G04 #@! TO.N,Net-(J11-Pad1)*
X139250000Y-243000000D03*
G04 #@! TO.P,U2,33*
G04 #@! TO.N,Net-(J12-Pad1)*
X138750000Y-243000000D03*
G04 #@! TO.P,U2,34*
G04 #@! TO.N,Net-(J13-Pad1)*
X138250000Y-243000000D03*
G04 #@! TO.P,U2,35*
G04 #@! TO.N,Net-(J14-Pad1)*
X137750000Y-243000000D03*
G04 #@! TO.P,U2,36*
G04 #@! TO.N,Net-(J15-Pad1)*
X137250000Y-243000000D03*
G04 #@! TO.P,U2,37*
G04 #@! TO.N,Net-(J16-Pad1)*
X136750000Y-243000000D03*
G04 #@! TO.P,U2,38*
G04 #@! TO.N,Net-(C7-Pad2)*
X136250000Y-243000000D03*
G04 #@! TO.P,U2,39*
G04 #@! TO.N,Net-(J17-Pad1)*
X135750000Y-243000000D03*
G04 #@! TO.P,U2,40*
G04 #@! TO.N,Net-(J18-Pad1)*
X135250000Y-243000000D03*
D24*
G04 #@! TO.P,U2,41*
G04 #@! TO.N,Net-(J19-Pad1)*
X133000000Y-245250000D03*
G04 #@! TO.P,U2,42*
G04 #@! TO.N,Net-(J20-Pad1)*
X133000000Y-245750000D03*
G04 #@! TO.P,U2,43*
G04 #@! TO.N,Net-(J21-Pad1)*
X133000000Y-246250000D03*
G04 #@! TO.P,U2,44*
G04 #@! TO.N,Net-(J22-Pad1)*
X133000000Y-246750000D03*
G04 #@! TO.P,U2,45*
G04 #@! TO.N,Net-(J23-Pad1)*
X133000000Y-247250000D03*
G04 #@! TO.P,U2,46*
G04 #@! TO.N,N/C*
X133000000Y-247750000D03*
G04 #@! TO.P,U2,47*
X133000000Y-248250000D03*
G04 #@! TO.P,U2,48*
G04 #@! TO.N,+3V3*
X133000000Y-248750000D03*
G04 #@! TO.P,U2,49*
G04 #@! TO.N,N/C*
X133000000Y-249250000D03*
G04 #@! TO.P,U2,50*
G04 #@! TO.N,GND*
X133000000Y-249750000D03*
G04 #@! TO.P,U2,51*
G04 #@! TO.N,N/C*
X133000000Y-250250000D03*
G04 #@! TO.P,U2,52*
G04 #@! TO.N,Net-(J24-Pad1)*
X133000000Y-250750000D03*
G04 #@! TO.P,U2,53*
G04 #@! TO.N,Net-(J25-Pad1)*
X133000000Y-251250000D03*
G04 #@! TO.P,U2,54*
G04 #@! TO.N,Net-(J26-Pad1)*
X133000000Y-251750000D03*
G04 #@! TO.P,U2,55*
G04 #@! TO.N,Net-(J27-Pad1)*
X133000000Y-252250000D03*
G04 #@! TO.P,U2,56*
G04 #@! TO.N,Net-(J28-Pad1)*
X133000000Y-252750000D03*
G04 #@! TO.P,U2,57*
G04 #@! TO.N,Net-(J29-Pad1)*
X133000000Y-253250000D03*
G04 #@! TO.P,U2,58*
G04 #@! TO.N,N/C*
X133000000Y-253750000D03*
G04 #@! TO.P,U2,59*
G04 #@! TO.N,Net-(J30-Pad1)*
X133000000Y-254250000D03*
G04 #@! TO.P,U2,60*
G04 #@! TO.N,Net-(J31-Pad1)*
X133000000Y-254750000D03*
D25*
G04 #@! TO.P,U2,61*
G04 #@! TO.N,Net-(J32-Pad1)*
X135250000Y-257000000D03*
G04 #@! TO.P,U2,62*
G04 #@! TO.N,N/C*
X135750000Y-257000000D03*
G04 #@! TO.P,U2,63*
X136250000Y-257000000D03*
G04 #@! TO.P,U2,64*
G04 #@! TO.N,Net-(P1-Pad3)*
X136750000Y-257000000D03*
G04 #@! TO.P,U2,65*
G04 #@! TO.N,Net-(P1-Pad4)*
X137250000Y-257000000D03*
G04 #@! TO.P,U2,66*
G04 #@! TO.N,Net-(P1-Pad5)*
X137750000Y-257000000D03*
G04 #@! TO.P,U2,67*
G04 #@! TO.N,N/C*
X138250000Y-257000000D03*
G04 #@! TO.P,U2,68*
X138750000Y-257000000D03*
G04 #@! TO.P,U2,69*
X139250000Y-257000000D03*
G04 #@! TO.P,U2,70*
X139750000Y-257000000D03*
G04 #@! TO.P,U2,71*
X140250000Y-257000000D03*
G04 #@! TO.P,U2,72*
X140750000Y-257000000D03*
G04 #@! TO.P,U2,73*
X141250000Y-257000000D03*
G04 #@! TO.P,U2,74*
G04 #@! TO.N,GND*
X141750000Y-257000000D03*
G04 #@! TO.P,U2,75*
G04 #@! TO.N,N/C*
X142250000Y-257000000D03*
G04 #@! TO.P,U2,76*
G04 #@! TO.N,+3V3*
X142750000Y-257000000D03*
G04 #@! TO.P,U2,77*
X143250000Y-257000000D03*
G04 #@! TO.P,U2,78*
G04 #@! TO.N,N/C*
X143750000Y-257000000D03*
G04 #@! TO.P,U2,79*
G04 #@! TO.N,GND*
X144250000Y-257000000D03*
G04 #@! TO.P,U2,80*
G04 #@! TO.N,N/C*
X144750000Y-257000000D03*
G04 #@! TD*
D10*
G04 #@! TO.P,REF\002A\002A,1*
G04 #@! TO.N,N/C*
X158000000Y-279000000D03*
G04 #@! TD*
D26*
G04 #@! TO.N,GND*
X144000000Y-268000000D03*
D27*
X131000000Y-241750000D03*
X151250000Y-250000000D03*
X152250000Y-250750000D03*
X152250000Y-255250000D03*
X145000000Y-263500000D03*
X145000000Y-265000000D03*
X127250000Y-247750000D03*
X152750000Y-267250000D03*
X152750000Y-269250000D03*
X141250000Y-261250000D03*
X139500000Y-269000000D03*
X146750000Y-260250000D03*
X155000000Y-260000000D03*
X135500000Y-245500000D03*
X141750000Y-255000000D03*
X135000000Y-249750000D03*
X144250000Y-255000000D03*
X135500000Y-254500000D03*
X144500000Y-245500000D03*
X140000000Y-245500000D03*
X139000000Y-249500000D03*
X142000000Y-251000000D03*
X158500000Y-259000000D03*
X153000000Y-273500000D03*
X146500000Y-273500000D03*
X146500000Y-270500000D03*
X160000000Y-270000000D03*
X160000000Y-265000000D03*
X160000000Y-247000000D03*
X160000000Y-240000000D03*
G04 #@! TO.N,+3V3*
X139000000Y-258750000D03*
X151250000Y-248250000D03*
X129250000Y-247750000D03*
G04 #@! TO.N,Net-(J1-Pad1)*
X150250000Y-246500000D03*
G04 #@! TO.N,Net-(J4-Pad1)*
X149000000Y-242750000D03*
G04 #@! TO.N,Net-(J6-Pad1)*
X144500000Y-239500000D03*
G04 #@! TO.N,Net-(J8-Pad1)*
X141500000Y-240750000D03*
G04 #@! TO.N,Net-(J10-Pad1)*
X139750000Y-238000000D03*
G04 #@! TO.N,Net-(J12-Pad1)*
X137750000Y-237250000D03*
G04 #@! TO.N,Net-(J14-Pad1)*
X135500000Y-237250000D03*
G04 #@! TD*
D28*
G04 #@! TO.N,Net-(C1-Pad2)*
X149300000Y-269250000D02*
X149300000Y-267250000D01*
D29*
X149075000Y-267025000D02*
X149300000Y-267250000D01*
X146600000Y-267025000D02*
X149075000Y-267025000D01*
X148875000Y-267675000D02*
X149300000Y-267250000D01*
X146600000Y-267675000D02*
X148875000Y-267675000D01*
X149025000Y-268975000D02*
X149300000Y-269250000D01*
X146600000Y-268975000D02*
X149025000Y-268975000D01*
D28*
X149000000Y-269550000D02*
X149300000Y-269250000D01*
X149000000Y-271900000D02*
X149000000Y-269550000D01*
D30*
G04 #@! TO.N,GND*
X149800000Y-249750000D02*
X150000000Y-249950000D01*
X147000000Y-249750000D02*
X149800000Y-249750000D01*
X141750000Y-258250000D02*
X141750000Y-257000000D01*
X141750000Y-259175000D02*
X141750000Y-258250000D01*
X141550000Y-259375000D02*
X141750000Y-259175000D01*
X141550000Y-260000000D02*
X141550000Y-259375000D01*
D28*
X131050000Y-243000000D02*
X131050000Y-241800000D01*
X131050000Y-241800000D02*
X131000000Y-241750000D01*
X150000000Y-249950000D02*
X151200000Y-249950000D01*
X151200000Y-249950000D02*
X151250000Y-250000000D01*
X152100000Y-252000000D02*
X152100000Y-250900000D01*
X152100000Y-250900000D02*
X152250000Y-250750000D01*
X151950000Y-254000000D02*
X151950000Y-254950000D01*
X151950000Y-254950000D02*
X152250000Y-255250000D01*
X143450000Y-263000000D02*
X143450000Y-265000000D01*
X143450000Y-263000000D02*
X144500000Y-263000000D01*
X144500000Y-263000000D02*
X145000000Y-263500000D01*
X143450000Y-265000000D02*
X145000000Y-265000000D01*
X127300000Y-249000000D02*
X127300000Y-247800000D01*
X127300000Y-247800000D02*
X127250000Y-247750000D01*
D30*
X133000000Y-249750000D02*
X130250000Y-249750000D01*
X130250000Y-249750000D02*
X130000000Y-250000000D01*
X130000000Y-250000000D02*
X128525000Y-250000000D01*
X127525000Y-249000000D02*
X127300000Y-249000000D01*
X128525000Y-250000000D02*
X127525000Y-249000000D01*
D28*
X151200000Y-269250000D02*
X151200000Y-267250000D01*
X151200000Y-267250000D02*
X152750000Y-267250000D01*
X151200000Y-269250000D02*
X152750000Y-269250000D01*
X141550000Y-260000000D02*
X141550000Y-260950000D01*
X141550000Y-260950000D02*
X141250000Y-261250000D01*
D29*
X141400000Y-268975000D02*
X139525000Y-268975000D01*
X139525000Y-268975000D02*
X139500000Y-269000000D01*
D28*
X148000000Y-260300000D02*
X146800000Y-260300000D01*
X146800000Y-260300000D02*
X146750000Y-260250000D01*
X153100000Y-259950000D02*
X154950000Y-259950000D01*
X154950000Y-259950000D02*
X155000000Y-260000000D01*
D30*
X141750000Y-257000000D02*
X141750000Y-255000000D01*
X133000000Y-249750000D02*
X135000000Y-249750000D01*
X144250000Y-257000000D02*
X144250000Y-255000000D01*
D31*
X136000000Y-255000000D02*
X135500000Y-254500000D01*
X141750000Y-255000000D02*
X136000000Y-255000000D01*
X135500000Y-245500000D02*
X140000000Y-245500000D01*
X140000000Y-245500000D02*
X144500000Y-245500000D01*
X140000000Y-245500000D02*
X139000000Y-249500000D01*
X144250000Y-255000000D02*
X142000000Y-251000000D01*
X155000000Y-260000000D02*
X158500000Y-259000000D01*
X152750000Y-269250000D02*
X153000000Y-273500000D01*
X146500000Y-273500000D02*
X146500000Y-270500000D01*
X153000000Y-273500000D02*
X160000000Y-270000000D01*
X160000000Y-247000000D02*
X160000000Y-240000000D01*
D30*
G04 #@! TO.N,+3V3*
X148250000Y-248750000D02*
X147000000Y-248750000D01*
X149525000Y-248750000D02*
X148250000Y-248750000D01*
X150000000Y-248275000D02*
X149525000Y-248750000D01*
X150000000Y-248050000D02*
X150000000Y-248275000D01*
X143250000Y-258250000D02*
X143250000Y-257000000D01*
X143250000Y-259175000D02*
X143250000Y-258250000D01*
X143450000Y-259375000D02*
X143250000Y-259175000D01*
X143450000Y-260000000D02*
X143450000Y-259375000D01*
X142750000Y-258675000D02*
X143250000Y-259175000D01*
X142750000Y-257000000D02*
X142750000Y-258675000D01*
D28*
X141550000Y-265000000D02*
X141550000Y-263000000D01*
X143450000Y-260764998D02*
X143450000Y-260000000D01*
X141550000Y-263000000D02*
X141550000Y-262664998D01*
X141550000Y-262664998D02*
X142714998Y-261500000D01*
X142714998Y-261500000D02*
X143450000Y-260764998D01*
X142714998Y-261500000D02*
X145000000Y-261500000D01*
X156000000Y-264250000D02*
X161750000Y-258500000D01*
X161750000Y-258500000D02*
X161750000Y-253500000D01*
D30*
X160000000Y-253500000D02*
X160000000Y-254900000D01*
X160000000Y-252100000D02*
X160000000Y-253500000D01*
X160000000Y-253500000D02*
X161750000Y-253500000D01*
D28*
X150200000Y-248250000D02*
X150000000Y-248050000D01*
X151250000Y-248250000D02*
X150200000Y-248250000D01*
X145000000Y-261500000D02*
X146500000Y-263000000D01*
X146500000Y-263000000D02*
X147750000Y-264250000D01*
X147750000Y-264250000D02*
X153000000Y-264250000D01*
X129250000Y-248950000D02*
X129200000Y-249000000D01*
X129250000Y-247750000D02*
X129250000Y-248950000D01*
X140049991Y-261747061D02*
X140967928Y-262664998D01*
X140967928Y-262664998D02*
X141550000Y-262664998D01*
X140049991Y-259799991D02*
X140049991Y-261747061D01*
X139000000Y-258750000D02*
X140049991Y-259799991D01*
X153000000Y-264250000D02*
X156000000Y-264250000D01*
D29*
X139975000Y-267025000D02*
X139500000Y-267500000D01*
X141400000Y-267025000D02*
X139975000Y-267025000D01*
X139675000Y-267675000D02*
X139500000Y-267500000D01*
X141400000Y-267675000D02*
X139675000Y-267675000D01*
X139500000Y-267750000D02*
X140075000Y-268325000D01*
X139500000Y-267500000D02*
X139500000Y-267750000D01*
X140075000Y-268325000D02*
X141400000Y-268325000D01*
X146500000Y-262925000D02*
X146500000Y-263000000D01*
X147225000Y-262200000D02*
X146500000Y-262925000D01*
X148000000Y-262200000D02*
X147225000Y-262200000D01*
D28*
X150250000Y-262200000D02*
X150400000Y-262050000D01*
X148000000Y-262200000D02*
X150250000Y-262200000D01*
D29*
X150400000Y-262050000D02*
X153100000Y-262050000D01*
D28*
X139500000Y-266250000D02*
X139500000Y-267500000D01*
X141550000Y-265000000D02*
X140750000Y-265000000D01*
X140750000Y-265000000D02*
X139500000Y-266250000D01*
D30*
X133000000Y-248750000D02*
X130750000Y-248750000D01*
X130500000Y-249000000D02*
X129200000Y-249000000D01*
X130750000Y-248750000D02*
X130500000Y-249000000D01*
G04 #@! TO.N,Net-(C6-Pad1)*
X148250000Y-253250000D02*
X147000000Y-253250000D01*
X148450000Y-253250000D02*
X148250000Y-253250000D01*
X149200000Y-254000000D02*
X148450000Y-253250000D01*
X150050000Y-254000000D02*
X149200000Y-254000000D01*
G04 #@! TO.N,Net-(C7-Pad2)*
X132950000Y-243000000D02*
X133175000Y-243000000D01*
X136250000Y-244250000D02*
X136250000Y-243000000D01*
X136000000Y-244500000D02*
X136250000Y-244250000D01*
X134675000Y-244500000D02*
X136000000Y-244500000D01*
X133175000Y-243000000D02*
X134675000Y-244500000D01*
D31*
G04 #@! TO.N,Net-(J1-Pad1)*
X147000000Y-247250000D02*
X149000000Y-247250000D01*
X149000000Y-247250000D02*
X150250000Y-246500000D01*
G04 #@! TO.N,Net-(J2-Pad1)*
X149000000Y-246750000D02*
X147000000Y-246750000D01*
X151000000Y-244750000D02*
X149000000Y-246750000D01*
X151000000Y-225250000D02*
X151000000Y-244750000D01*
X114500000Y-188750000D02*
X151000000Y-225250000D01*
X100000000Y-55000000D02*
X112500000Y-75250000D01*
X112500000Y-75250000D02*
X114500000Y-188750000D01*
G04 #@! TO.N,Net-(J3-Pad1)*
X109500000Y-99000000D02*
X100000000Y-65000000D01*
X113000000Y-189750000D02*
X109500000Y-99000000D01*
X147000000Y-246250000D02*
X148500000Y-246250000D01*
X148500000Y-246250000D02*
X150000000Y-244750000D01*
X113000000Y-189750000D02*
X149000000Y-228000000D01*
X149000000Y-228000000D02*
X150000000Y-244750000D01*
G04 #@! TO.N,Net-(J4-Pad1)*
X148250000Y-245750000D02*
X147000000Y-245750000D01*
X149000000Y-242750000D02*
X149000000Y-245000000D01*
X149000000Y-245000000D02*
X148250000Y-245750000D01*
G04 #@! TO.N,Net-(J5-Pad1)*
X111750000Y-190000000D02*
X147250000Y-232000000D01*
X147250000Y-232000000D02*
X147250000Y-245000000D01*
X147000000Y-245250000D02*
X147250000Y-245000000D01*
X100000000Y-85000000D02*
X107500000Y-107500000D01*
X107500000Y-107500000D02*
X111750000Y-190000000D01*
G04 #@! TO.N,Net-(J6-Pad1)*
X144500000Y-239500000D02*
X142750000Y-241500000D01*
X142750000Y-241500000D02*
X142750000Y-243000000D01*
G04 #@! TO.N,Net-(J7-Pad1)*
X105750000Y-116000000D02*
X110500000Y-190750000D01*
X100000000Y-105000000D02*
X105750000Y-116000000D01*
X110500000Y-190750000D02*
X142500000Y-232500000D01*
X142500000Y-232500000D02*
X142500000Y-240750000D01*
X142500000Y-240750000D02*
X142250000Y-241500000D01*
X142250000Y-241500000D02*
X142250000Y-243000000D01*
G04 #@! TO.N,Net-(J8-Pad1)*
X141500000Y-240750000D02*
X140750000Y-241500000D01*
X140750000Y-241500000D02*
X140750000Y-243000000D01*
G04 #@! TO.N,Net-(J9-Pad1)*
X100000000Y-125000000D02*
X105500000Y-145000000D01*
X105500000Y-145000000D02*
X109250000Y-191500000D01*
X109250000Y-191500000D02*
X140750000Y-233500000D01*
X140750000Y-233500000D02*
X140750000Y-240250000D01*
X140750000Y-240250000D02*
X140250000Y-241500000D01*
X140250000Y-241500000D02*
X140250000Y-243000000D01*
G04 #@! TO.N,Net-(J10-Pad1)*
X139750000Y-238000000D02*
X139750000Y-243000000D01*
G04 #@! TO.N,Net-(J11-Pad1)*
X100000000Y-145000000D02*
X104500000Y-154750000D01*
X104500000Y-154750000D02*
X107750000Y-192250000D01*
X107750000Y-192250000D02*
X137750000Y-233750000D01*
X137750000Y-233750000D02*
X139250000Y-240500000D01*
X139250000Y-240500000D02*
X139250000Y-243000000D01*
G04 #@! TO.N,Net-(J12-Pad1)*
X137750000Y-237250000D02*
X138750000Y-240750000D01*
X138750000Y-240750000D02*
X138750000Y-243000000D01*
G04 #@! TO.N,Net-(J13-Pad1)*
X100000000Y-165000000D02*
X104750000Y-179750000D01*
X104750000Y-179750000D02*
X106500000Y-193500000D01*
X106500000Y-193500000D02*
X136250000Y-235750000D01*
X136250000Y-235750000D02*
X138250000Y-241000000D01*
X138250000Y-241000000D02*
X138250000Y-243000000D01*
G04 #@! TO.N,Net-(J14-Pad1)*
X135500000Y-237250000D02*
X137750000Y-241000000D01*
X137750000Y-241000000D02*
X137750000Y-243000000D01*
G04 #@! TO.N,Net-(J15-Pad1)*
X100000000Y-185000000D02*
X104500000Y-196250000D01*
X104500000Y-196250000D02*
X131000000Y-233750000D01*
X131000000Y-233750000D02*
X137250000Y-241000000D01*
X137250000Y-241000000D02*
X137250000Y-243000000D01*
G04 #@! TO.N,Net-(J16-Pad1)*
X136750000Y-243000000D02*
X136750000Y-241250000D01*
X136750000Y-241250000D02*
X127250000Y-233750000D01*
X127250000Y-233750000D02*
X100000000Y-195000000D01*
G04 #@! TO.N,Net-(J17-Pad1)*
X135750000Y-243000000D02*
X135750000Y-241250000D01*
X135750000Y-241250000D02*
X125000000Y-234500000D01*
X125000000Y-234500000D02*
X100000000Y-205000000D01*
G04 #@! TO.N,Net-(J18-Pad1)*
X135250000Y-243000000D02*
X135250000Y-241500000D01*
X135250000Y-241500000D02*
X121500000Y-235500000D01*
X121500000Y-235500000D02*
X100000000Y-215000000D01*
G04 #@! TO.N,Net-(J19-Pad1)*
X133000000Y-245250000D02*
X131250000Y-245250000D01*
X131250000Y-245250000D02*
X129000000Y-243250000D01*
X129000000Y-243250000D02*
X100000000Y-225000000D01*
G04 #@! TO.N,Net-(J20-Pad1)*
X133000000Y-245750000D02*
X131000000Y-245750000D01*
X131000000Y-245750000D02*
X128750000Y-244250000D01*
X128750000Y-244250000D02*
X100000000Y-235000000D01*
G04 #@! TO.N,Net-(J21-Pad1)*
X133000000Y-246250000D02*
X130750000Y-246250000D01*
X130750000Y-246250000D02*
X128750000Y-245000000D01*
X128750000Y-245000000D02*
X100000000Y-245000000D01*
G04 #@! TO.N,Net-(J22-Pad1)*
X133000000Y-246750000D02*
X130500000Y-246750000D01*
X130500000Y-246750000D02*
X128750000Y-246000000D01*
X128750000Y-246000000D02*
X125500000Y-246000000D01*
X125500000Y-246000000D02*
X100000000Y-255000000D01*
G04 #@! TO.N,Net-(J23-Pad1)*
X102500000Y-260000000D02*
X100000000Y-265000000D01*
X126000000Y-246750000D02*
X102500000Y-260000000D01*
X129250000Y-246750000D02*
X126000000Y-246750000D01*
X133000000Y-247250000D02*
X130250000Y-247250000D01*
X130250000Y-247250000D02*
X129250000Y-246750000D01*
G04 #@! TO.N,Net-(J24-Pad1)*
X133000000Y-250750000D02*
X126750000Y-250750000D01*
X126750000Y-250750000D02*
X104750000Y-262250000D01*
X104750000Y-262250000D02*
X100000000Y-275000000D01*
G04 #@! TO.N,Net-(J25-Pad1)*
X133000000Y-251250000D02*
X129000000Y-251250000D01*
X129000000Y-251250000D02*
X106250000Y-265000000D01*
X106250000Y-265000000D02*
X100000000Y-285000000D01*
G04 #@! TO.N,Net-(J26-Pad1)*
X100000000Y-295000000D02*
X108250000Y-267000000D01*
X108250000Y-267000000D02*
X129250000Y-251750000D01*
X129250000Y-251750000D02*
X133000000Y-251750000D01*
G04 #@! TO.N,Net-(J27-Pad1)*
X100000000Y-305000000D02*
X104500000Y-297500000D01*
X104500000Y-297500000D02*
X110000000Y-268500000D01*
X110000000Y-268500000D02*
X129750000Y-252250000D01*
X129750000Y-252250000D02*
X133000000Y-252250000D01*
G04 #@! TO.N,Net-(J28-Pad1)*
X130000000Y-252750000D02*
X112250000Y-269000000D01*
X133000000Y-252750000D02*
X130000000Y-252750000D01*
X112250000Y-269000000D02*
X107500000Y-299500000D01*
X107500000Y-299500000D02*
X100000000Y-315000000D01*
G04 #@! TO.N,Net-(J29-Pad1)*
X117000000Y-303000000D02*
X100000000Y-320000000D01*
X133000000Y-253250000D02*
X131500000Y-253250000D01*
X131500000Y-253250000D02*
X117000000Y-270000000D01*
X117000000Y-270000000D02*
X117000000Y-303000000D01*
G04 #@! TO.N,Net-(J30-Pad1)*
X120000000Y-307500000D02*
X107500000Y-320000000D01*
X133000000Y-254250000D02*
X131750000Y-254250000D01*
X131750000Y-254250000D02*
X120000000Y-270000000D01*
X120000000Y-270000000D02*
X120000000Y-307500000D01*
G04 #@! TO.N,Net-(J31-Pad1)*
X123000000Y-312000000D02*
X115000000Y-320000000D01*
X123000000Y-270000000D02*
X123000000Y-312000000D01*
X133000000Y-254750000D02*
X133000000Y-260000000D01*
X133000000Y-260000000D02*
X123000000Y-270000000D01*
G04 #@! TO.N,Net-(J32-Pad1)*
X126000000Y-316500000D02*
X122500000Y-320000000D01*
X126000000Y-270000000D02*
X126000000Y-316500000D01*
X135250000Y-257000000D02*
X135250000Y-260750000D01*
X135250000Y-260750000D02*
X126000000Y-270000000D01*
D28*
G04 #@! TO.N,+5V*
X149000000Y-275700000D02*
X149000000Y-274100000D01*
X148200000Y-276500000D02*
X149000000Y-275700000D01*
X132000000Y-276500000D02*
X148200000Y-276500000D01*
X131000000Y-275500000D02*
X132000000Y-276500000D01*
X131000000Y-274000000D02*
X131000000Y-275500000D01*
X133000000Y-272000000D02*
X131000000Y-274000000D01*
D30*
G04 #@! TO.N,/CLK8*
X145750000Y-249250000D02*
X145000000Y-250000000D01*
X147000000Y-249250000D02*
X145750000Y-249250000D01*
X145000000Y-250000000D02*
X145000000Y-255500000D01*
X149829290Y-259379290D02*
X150400000Y-259950000D01*
X148879290Y-259379290D02*
X149829290Y-259379290D01*
X145000000Y-255500000D02*
X148879290Y-259379290D01*
G04 #@! TO.N,/RES#*
X159980000Y-257120000D02*
X160000000Y-257100000D01*
X157270000Y-257120000D02*
X159980000Y-257120000D01*
X145750000Y-250750000D02*
X147000000Y-250750000D01*
X145500000Y-251000000D02*
X145750000Y-250750000D01*
X145500000Y-255000000D02*
X145500000Y-251000000D01*
X149000000Y-258500000D02*
X145500000Y-255000000D01*
X157270000Y-257120000D02*
X155890000Y-258500000D01*
X155890000Y-258500000D02*
X149000000Y-258500000D01*
G04 #@! TO.N,Net-(P1-Pad5)*
X137750000Y-271670000D02*
X138080000Y-272000000D01*
X137750000Y-257000000D02*
X137750000Y-271670000D01*
G04 #@! TO.N,Net-(P1-Pad4)*
X136389999Y-273690001D02*
X135540000Y-274540000D01*
X136715001Y-273364999D02*
X136389999Y-273690001D01*
X136715001Y-271625997D02*
X136715001Y-273364999D01*
X137250000Y-271090998D02*
X136715001Y-271625997D01*
X137250000Y-257000000D02*
X137250000Y-271090998D01*
G04 #@! TO.N,Net-(P1-Pad3)*
X136750000Y-270790000D02*
X135540000Y-272000000D01*
X136750000Y-257000000D02*
X136750000Y-270790000D01*
G04 #@! TO.N,/FINED*
X159600000Y-249500000D02*
X160000000Y-249900000D01*
X157270000Y-249500000D02*
X159600000Y-249500000D01*
X148250000Y-252250000D02*
X147000000Y-252250000D01*
X149000000Y-253000000D02*
X148250000Y-252250000D01*
X156020000Y-250750000D02*
X154206998Y-250750000D01*
X157270000Y-249500000D02*
X156020000Y-250750000D01*
X154206998Y-250750000D02*
X153250000Y-251706998D01*
X153250000Y-251706998D02*
X153250000Y-252750000D01*
X153250000Y-252750000D02*
X153000000Y-253000000D01*
X153000000Y-253000000D02*
X149000000Y-253000000D01*
G04 #@! TO.N,Net-(R3-Pad1)*
X148250000Y-251750000D02*
X147000000Y-251750000D01*
X148800000Y-251750000D02*
X148250000Y-251750000D01*
X149050000Y-252000000D02*
X148800000Y-251750000D01*
X149900000Y-252000000D02*
X149050000Y-252000000D01*
G04 #@! TD*
D32*
G04 #@! TO.N,GND*
G36*
X162873000Y-272447394D02*
X159747521Y-275572873D01*
X158762829Y-275165000D01*
X157237171Y-275165000D01*
X155827647Y-275748844D01*
X155203491Y-276373000D01*
X149915368Y-276373000D01*
X150069146Y-276142855D01*
X150069146Y-276142854D01*
X150157235Y-275700000D01*
X150135000Y-275588217D01*
X150135000Y-273988217D01*
X150097440Y-273799389D01*
X150097440Y-273500000D01*
X150048157Y-273252235D01*
X149907809Y-273042191D01*
X149844666Y-273000000D01*
X149907809Y-272957809D01*
X150048157Y-272747765D01*
X150097440Y-272500000D01*
X150097440Y-272200611D01*
X150135000Y-272011783D01*
X150135000Y-270225696D01*
X150147765Y-270223157D01*
X150357809Y-270082809D01*
X150498157Y-269872765D01*
X150547440Y-269625000D01*
X150547440Y-268875000D01*
X150498157Y-268627235D01*
X150435000Y-268532715D01*
X150435000Y-267967285D01*
X150498157Y-267872765D01*
X150547440Y-267625000D01*
X150547440Y-266875000D01*
X150498157Y-266627235D01*
X150357809Y-266417191D01*
X150147765Y-266276843D01*
X149900000Y-266227560D01*
X149812755Y-266227560D01*
X149742855Y-266180854D01*
X149300000Y-266092765D01*
X148857146Y-266180854D01*
X148843458Y-266190000D01*
X145817763Y-266190000D01*
X145574199Y-266238448D01*
X145297999Y-266422999D01*
X145113448Y-266699199D01*
X145048642Y-267025000D01*
X145113289Y-267350000D01*
X145048642Y-267675000D01*
X145113289Y-268000000D01*
X145048642Y-268325000D01*
X145113289Y-268650000D01*
X145048642Y-268975000D01*
X145113448Y-269300801D01*
X145297999Y-269577001D01*
X145574199Y-269761552D01*
X145817763Y-269810000D01*
X147865001Y-269810000D01*
X147865000Y-272011782D01*
X147902560Y-272200610D01*
X147902560Y-272500000D01*
X147951843Y-272747765D01*
X148092191Y-272957809D01*
X148155334Y-273000000D01*
X148092191Y-273042191D01*
X147951843Y-273252235D01*
X147902560Y-273500000D01*
X147902560Y-273799392D01*
X147865000Y-273988217D01*
X147865000Y-275229868D01*
X147729869Y-275365000D01*
X141854746Y-275365000D01*
X142018839Y-275119418D01*
X142134092Y-274540000D01*
X142018839Y-273960582D01*
X141690625Y-273469375D01*
X141199418Y-273141161D01*
X140766256Y-273055000D01*
X140473744Y-273055000D01*
X140040582Y-273141161D01*
X139549375Y-273469375D01*
X139350000Y-273767761D01*
X139150625Y-273469375D01*
X138852239Y-273270000D01*
X139150625Y-273070625D01*
X139478839Y-272579418D01*
X139594092Y-272000000D01*
X141645908Y-272000000D01*
X141761161Y-272579418D01*
X142089375Y-273070625D01*
X142580582Y-273398839D01*
X143013744Y-273485000D01*
X143306256Y-273485000D01*
X143739418Y-273398839D01*
X144230625Y-273070625D01*
X144558839Y-272579418D01*
X144674092Y-272000000D01*
X144558839Y-271420582D01*
X144230625Y-270929375D01*
X143739418Y-270601161D01*
X143306256Y-270515000D01*
X143013744Y-270515000D01*
X142580582Y-270601161D01*
X142089375Y-270929375D01*
X141761161Y-271420582D01*
X141645908Y-272000000D01*
X139594092Y-272000000D01*
X139478839Y-271420582D01*
X139150625Y-270929375D01*
X138659418Y-270601161D01*
X138627000Y-270594713D01*
X138627000Y-268236407D01*
X138681712Y-268318289D01*
X139057146Y-268569146D01*
X139158424Y-268589291D01*
X139426414Y-268857282D01*
X139472999Y-268927001D01*
X139544835Y-268975000D01*
X139749199Y-269111552D01*
X140075000Y-269176358D01*
X140157237Y-269160000D01*
X142182237Y-269160000D01*
X142425801Y-269111552D01*
X142702001Y-268927001D01*
X142735411Y-268877000D01*
X142750000Y-268877000D01*
X142798601Y-268867333D01*
X142839803Y-268839803D01*
X142867333Y-268798601D01*
X142877000Y-268750000D01*
X142877000Y-268665097D01*
X142886552Y-268650801D01*
X142951358Y-268325000D01*
X142886711Y-268000000D01*
X142951358Y-267675000D01*
X142886711Y-267350000D01*
X142951358Y-267025000D01*
X142886552Y-266699199D01*
X142877000Y-266684903D01*
X142877000Y-263000000D01*
X142867565Y-262952565D01*
X143185130Y-262635000D01*
X144529869Y-262635000D01*
X145776476Y-263881608D01*
X145776479Y-263881610D01*
X146868389Y-264973521D01*
X146931711Y-265068289D01*
X147307145Y-265319146D01*
X147750000Y-265407235D01*
X147861783Y-265385000D01*
X155888217Y-265385000D01*
X156000000Y-265407235D01*
X156111783Y-265385000D01*
X156442855Y-265319146D01*
X156818289Y-265068289D01*
X156881613Y-264973518D01*
X162473522Y-259381610D01*
X162568289Y-259318289D01*
X162819146Y-258942855D01*
X162857507Y-258750000D01*
X162873000Y-258672111D01*
X162873000Y-272447394D01*
X162873000Y-272447394D01*
G37*
X162873000Y-272447394D02*
X159747521Y-275572873D01*
X158762829Y-275165000D01*
X157237171Y-275165000D01*
X155827647Y-275748844D01*
X155203491Y-276373000D01*
X149915368Y-276373000D01*
X150069146Y-276142855D01*
X150069146Y-276142854D01*
X150157235Y-275700000D01*
X150135000Y-275588217D01*
X150135000Y-273988217D01*
X150097440Y-273799389D01*
X150097440Y-273500000D01*
X150048157Y-273252235D01*
X149907809Y-273042191D01*
X149844666Y-273000000D01*
X149907809Y-272957809D01*
X150048157Y-272747765D01*
X150097440Y-272500000D01*
X150097440Y-272200611D01*
X150135000Y-272011783D01*
X150135000Y-270225696D01*
X150147765Y-270223157D01*
X150357809Y-270082809D01*
X150498157Y-269872765D01*
X150547440Y-269625000D01*
X150547440Y-268875000D01*
X150498157Y-268627235D01*
X150435000Y-268532715D01*
X150435000Y-267967285D01*
X150498157Y-267872765D01*
X150547440Y-267625000D01*
X150547440Y-266875000D01*
X150498157Y-266627235D01*
X150357809Y-266417191D01*
X150147765Y-266276843D01*
X149900000Y-266227560D01*
X149812755Y-266227560D01*
X149742855Y-266180854D01*
X149300000Y-266092765D01*
X148857146Y-266180854D01*
X148843458Y-266190000D01*
X145817763Y-266190000D01*
X145574199Y-266238448D01*
X145297999Y-266422999D01*
X145113448Y-266699199D01*
X145048642Y-267025000D01*
X145113289Y-267350000D01*
X145048642Y-267675000D01*
X145113289Y-268000000D01*
X145048642Y-268325000D01*
X145113289Y-268650000D01*
X145048642Y-268975000D01*
X145113448Y-269300801D01*
X145297999Y-269577001D01*
X145574199Y-269761552D01*
X145817763Y-269810000D01*
X147865001Y-269810000D01*
X147865000Y-272011782D01*
X147902560Y-272200610D01*
X147902560Y-272500000D01*
X147951843Y-272747765D01*
X148092191Y-272957809D01*
X148155334Y-273000000D01*
X148092191Y-273042191D01*
X147951843Y-273252235D01*
X147902560Y-273500000D01*
X147902560Y-273799392D01*
X147865000Y-273988217D01*
X147865000Y-275229868D01*
X147729869Y-275365000D01*
X141854746Y-275365000D01*
X142018839Y-275119418D01*
X142134092Y-274540000D01*
X142018839Y-273960582D01*
X141690625Y-273469375D01*
X141199418Y-273141161D01*
X140766256Y-273055000D01*
X140473744Y-273055000D01*
X140040582Y-273141161D01*
X139549375Y-273469375D01*
X139350000Y-273767761D01*
X139150625Y-273469375D01*
X138852239Y-273270000D01*
X139150625Y-273070625D01*
X139478839Y-272579418D01*
X139594092Y-272000000D01*
X141645908Y-272000000D01*
X141761161Y-272579418D01*
X142089375Y-273070625D01*
X142580582Y-273398839D01*
X143013744Y-273485000D01*
X143306256Y-273485000D01*
X143739418Y-273398839D01*
X144230625Y-273070625D01*
X144558839Y-272579418D01*
X144674092Y-272000000D01*
X144558839Y-271420582D01*
X144230625Y-270929375D01*
X143739418Y-270601161D01*
X143306256Y-270515000D01*
X143013744Y-270515000D01*
X142580582Y-270601161D01*
X142089375Y-270929375D01*
X141761161Y-271420582D01*
X141645908Y-272000000D01*
X139594092Y-272000000D01*
X139478839Y-271420582D01*
X139150625Y-270929375D01*
X138659418Y-270601161D01*
X138627000Y-270594713D01*
X138627000Y-268236407D01*
X138681712Y-268318289D01*
X139057146Y-268569146D01*
X139158424Y-268589291D01*
X139426414Y-268857282D01*
X139472999Y-268927001D01*
X139544835Y-268975000D01*
X139749199Y-269111552D01*
X140075000Y-269176358D01*
X140157237Y-269160000D01*
X142182237Y-269160000D01*
X142425801Y-269111552D01*
X142702001Y-268927001D01*
X142735411Y-268877000D01*
X142750000Y-268877000D01*
X142798601Y-268867333D01*
X142839803Y-268839803D01*
X142867333Y-268798601D01*
X142877000Y-268750000D01*
X142877000Y-268665097D01*
X142886552Y-268650801D01*
X142951358Y-268325000D01*
X142886711Y-268000000D01*
X142951358Y-267675000D01*
X142886711Y-267350000D01*
X142951358Y-267025000D01*
X142886552Y-266699199D01*
X142877000Y-266684903D01*
X142877000Y-263000000D01*
X142867565Y-262952565D01*
X143185130Y-262635000D01*
X144529869Y-262635000D01*
X145776476Y-263881608D01*
X145776479Y-263881610D01*
X146868389Y-264973521D01*
X146931711Y-265068289D01*
X147307145Y-265319146D01*
X147750000Y-265407235D01*
X147861783Y-265385000D01*
X155888217Y-265385000D01*
X156000000Y-265407235D01*
X156111783Y-265385000D01*
X156442855Y-265319146D01*
X156818289Y-265068289D01*
X156881613Y-264973518D01*
X162473522Y-259381610D01*
X162568289Y-259318289D01*
X162819146Y-258942855D01*
X162857507Y-258750000D01*
X162873000Y-258672111D01*
X162873000Y-272447394D01*
G36*
X158951843Y-257947765D02*
X159092191Y-258157809D01*
X159302235Y-258298157D01*
X159550000Y-258347440D01*
X160297428Y-258347440D01*
X155529869Y-263115000D01*
X155052093Y-263115000D01*
X155089803Y-263089803D01*
X155117333Y-263048601D01*
X155127000Y-263000000D01*
X155127000Y-259260000D01*
X155815153Y-259260000D01*
X155890000Y-259274888D01*
X155964847Y-259260000D01*
X155964852Y-259260000D01*
X156186537Y-259215904D01*
X156437929Y-259047929D01*
X156480331Y-258984470D01*
X156855161Y-258609640D01*
X156964670Y-258655000D01*
X157575330Y-258655000D01*
X158139507Y-258421310D01*
X158571310Y-257989507D01*
X158616669Y-257880000D01*
X158938364Y-257880000D01*
X158951843Y-257947765D01*
X158951843Y-257947765D01*
G37*
X158951843Y-257947765D02*
X159092191Y-258157809D01*
X159302235Y-258298157D01*
X159550000Y-258347440D01*
X160297428Y-258347440D01*
X155529869Y-263115000D01*
X155052093Y-263115000D01*
X155089803Y-263089803D01*
X155117333Y-263048601D01*
X155127000Y-263000000D01*
X155127000Y-259260000D01*
X155815153Y-259260000D01*
X155890000Y-259274888D01*
X155964847Y-259260000D01*
X155964852Y-259260000D01*
X156186537Y-259215904D01*
X156437929Y-259047929D01*
X156480331Y-258984470D01*
X156855161Y-258609640D01*
X156964670Y-258655000D01*
X157575330Y-258655000D01*
X158139507Y-258421310D01*
X158571310Y-257989507D01*
X158616669Y-257880000D01*
X158938364Y-257880000D01*
X158951843Y-257947765D01*
G36*
X141953463Y-258590904D02*
X141990001Y-258598172D01*
X141990001Y-258600149D01*
X141975112Y-258675000D01*
X142034097Y-258971537D01*
X142085141Y-259047929D01*
X142202072Y-259222929D01*
X142265527Y-259265329D01*
X142302148Y-259301949D01*
X142251843Y-259377235D01*
X142202560Y-259625000D01*
X142202560Y-260375000D01*
X142207920Y-260401947D01*
X141991479Y-260618387D01*
X141896709Y-260681711D01*
X141833387Y-260776479D01*
X141258964Y-261350903D01*
X141184991Y-261276930D01*
X141184991Y-259911774D01*
X141207226Y-259799991D01*
X141119137Y-259357136D01*
X140931600Y-259076467D01*
X140868280Y-258981702D01*
X140773515Y-258918382D01*
X140462710Y-258607578D01*
X140500000Y-258600161D01*
X140750000Y-258649889D01*
X141000000Y-258600161D01*
X141250000Y-258649889D01*
X141546536Y-258590904D01*
X141750000Y-258454954D01*
X141953463Y-258590904D01*
X141953463Y-258590904D01*
G37*
X141953463Y-258590904D02*
X141990001Y-258598172D01*
X141990001Y-258600149D01*
X141975112Y-258675000D01*
X142034097Y-258971537D01*
X142085141Y-259047929D01*
X142202072Y-259222929D01*
X142265527Y-259265329D01*
X142302148Y-259301949D01*
X142251843Y-259377235D01*
X142202560Y-259625000D01*
X142202560Y-260375000D01*
X142207920Y-260401947D01*
X141991479Y-260618387D01*
X141896709Y-260681711D01*
X141833387Y-260776479D01*
X141258964Y-261350903D01*
X141184991Y-261276930D01*
X141184991Y-259911774D01*
X141207226Y-259799991D01*
X141119137Y-259357136D01*
X140931600Y-259076467D01*
X140868280Y-258981702D01*
X140773515Y-258918382D01*
X140462710Y-258607578D01*
X140500000Y-258600161D01*
X140750000Y-258649889D01*
X141000000Y-258600161D01*
X141250000Y-258649889D01*
X141546536Y-258590904D01*
X141750000Y-258454954D01*
X141953463Y-258590904D01*
G36*
X156369183Y-253310000D02*
X155968690Y-253710493D01*
X155735000Y-254274670D01*
X155735000Y-254885330D01*
X155968690Y-255449507D01*
X156369183Y-255850000D01*
X155968690Y-256250493D01*
X155735000Y-256814670D01*
X155735000Y-257425330D01*
X155780360Y-257534839D01*
X155575199Y-257740000D01*
X149314803Y-257740000D01*
X147084802Y-255510000D01*
X147949852Y-255510000D01*
X148171537Y-255465904D01*
X148422929Y-255297929D01*
X148590904Y-255046537D01*
X148649889Y-254750000D01*
X148600161Y-254500000D01*
X148604315Y-254479117D01*
X148609671Y-254484473D01*
X148652071Y-254547929D01*
X148903463Y-254715904D01*
X148915704Y-254718339D01*
X148992191Y-254832809D01*
X149202235Y-254973157D01*
X149450000Y-255022440D01*
X150650000Y-255022440D01*
X150897765Y-254973157D01*
X151107809Y-254832809D01*
X151248157Y-254622765D01*
X151297440Y-254375000D01*
X151297440Y-253760000D01*
X152925153Y-253760000D01*
X153000000Y-253774888D01*
X153074847Y-253760000D01*
X153074852Y-253760000D01*
X153296537Y-253715904D01*
X153547929Y-253547929D01*
X153590330Y-253484471D01*
X153734472Y-253340330D01*
X153797929Y-253297929D01*
X153805613Y-253286430D01*
X153860493Y-253341310D01*
X154424670Y-253575000D01*
X155035330Y-253575000D01*
X155599507Y-253341310D01*
X156000000Y-252940817D01*
X156369183Y-253310000D01*
X156369183Y-253310000D01*
G37*
X156369183Y-253310000D02*
X155968690Y-253710493D01*
X155735000Y-254274670D01*
X155735000Y-254885330D01*
X155968690Y-255449507D01*
X156369183Y-255850000D01*
X155968690Y-256250493D01*
X155735000Y-256814670D01*
X155735000Y-257425330D01*
X155780360Y-257534839D01*
X155575199Y-257740000D01*
X149314803Y-257740000D01*
X147084802Y-255510000D01*
X147949852Y-255510000D01*
X148171537Y-255465904D01*
X148422929Y-255297929D01*
X148590904Y-255046537D01*
X148649889Y-254750000D01*
X148600161Y-254500000D01*
X148604315Y-254479117D01*
X148609671Y-254484473D01*
X148652071Y-254547929D01*
X148903463Y-254715904D01*
X148915704Y-254718339D01*
X148992191Y-254832809D01*
X149202235Y-254973157D01*
X149450000Y-255022440D01*
X150650000Y-255022440D01*
X150897765Y-254973157D01*
X151107809Y-254832809D01*
X151248157Y-254622765D01*
X151297440Y-254375000D01*
X151297440Y-253760000D01*
X152925153Y-253760000D01*
X153000000Y-253774888D01*
X153074847Y-253760000D01*
X153074852Y-253760000D01*
X153296537Y-253715904D01*
X153547929Y-253547929D01*
X153590330Y-253484471D01*
X153734472Y-253340330D01*
X153797929Y-253297929D01*
X153805613Y-253286430D01*
X153860493Y-253341310D01*
X154424670Y-253575000D01*
X155035330Y-253575000D01*
X155599507Y-253341310D01*
X156000000Y-252940817D01*
X156369183Y-253310000D01*
G36*
X145555199Y-244734805D02*
X145409096Y-244953463D01*
X145350111Y-245250000D01*
X145399839Y-245500000D01*
X145350111Y-245750000D01*
X145399839Y-246000000D01*
X145350111Y-246250000D01*
X145399839Y-246500000D01*
X145350111Y-246750000D01*
X145399839Y-247000000D01*
X145350111Y-247250000D01*
X145399839Y-247500000D01*
X145350111Y-247750000D01*
X145399839Y-248000000D01*
X145350111Y-248250000D01*
X145399839Y-248500000D01*
X145383798Y-248580645D01*
X145202071Y-248702071D01*
X145159671Y-248765527D01*
X144515530Y-249409669D01*
X144452071Y-249452071D01*
X144284096Y-249703464D01*
X144240000Y-249925149D01*
X144240000Y-249925153D01*
X144225112Y-250000000D01*
X144240000Y-250074847D01*
X144240001Y-255425148D01*
X144225112Y-255500000D01*
X144231631Y-255532772D01*
X144046537Y-255409096D01*
X143750000Y-255350111D01*
X143500000Y-255399839D01*
X143250000Y-255350111D01*
X143000000Y-255399839D01*
X142750000Y-255350111D01*
X142500000Y-255399839D01*
X142250000Y-255350111D01*
X141953464Y-255409096D01*
X141750001Y-255545046D01*
X141546537Y-255409096D01*
X141250000Y-255350111D01*
X141000000Y-255399839D01*
X140750000Y-255350111D01*
X140500000Y-255399839D01*
X140250000Y-255350111D01*
X140000000Y-255399839D01*
X139750000Y-255350111D01*
X139500000Y-255399839D01*
X139250000Y-255350111D01*
X139000000Y-255399839D01*
X138750000Y-255350111D01*
X138500000Y-255399839D01*
X138250000Y-255350111D01*
X138000000Y-255399839D01*
X137750000Y-255350111D01*
X137500000Y-255399839D01*
X137250000Y-255350111D01*
X137000000Y-255399839D01*
X136750000Y-255350111D01*
X136500000Y-255399839D01*
X136250000Y-255350111D01*
X136000000Y-255399839D01*
X135750000Y-255350111D01*
X135500000Y-255399839D01*
X135250000Y-255350111D01*
X134953464Y-255409096D01*
X134734805Y-255555199D01*
X134444801Y-255265195D01*
X134590904Y-255046537D01*
X134649889Y-254750000D01*
X134600161Y-254500000D01*
X134649889Y-254250000D01*
X134600161Y-253999999D01*
X134649889Y-253750000D01*
X134600161Y-253500000D01*
X134649889Y-253250000D01*
X134600161Y-252999999D01*
X134649889Y-252750000D01*
X134600161Y-252500000D01*
X134649889Y-252250000D01*
X134600161Y-251999999D01*
X134649889Y-251750000D01*
X134600161Y-251500000D01*
X134649889Y-251250000D01*
X134600161Y-251000000D01*
X134649889Y-250750000D01*
X134600161Y-250500000D01*
X134649889Y-250250000D01*
X134590904Y-249953463D01*
X134454954Y-249750000D01*
X134590904Y-249546537D01*
X134649889Y-249250000D01*
X134600161Y-249000000D01*
X134649889Y-248750000D01*
X134600161Y-248500000D01*
X134649889Y-248250000D01*
X134600161Y-248000000D01*
X134649889Y-247750000D01*
X134600161Y-247500000D01*
X134649889Y-247250000D01*
X134600161Y-247000000D01*
X134649889Y-246750000D01*
X134600161Y-246500000D01*
X134649889Y-246250000D01*
X134600161Y-246000000D01*
X134649889Y-245750000D01*
X134600161Y-245500000D01*
X134646083Y-245269136D01*
X134674999Y-245274888D01*
X134749846Y-245260000D01*
X135925153Y-245260000D01*
X136000000Y-245274888D01*
X136074847Y-245260000D01*
X136074852Y-245260000D01*
X136296537Y-245215904D01*
X136547929Y-245047929D01*
X136590330Y-244984471D01*
X136734473Y-244840329D01*
X136797929Y-244797929D01*
X136919355Y-244616202D01*
X137000000Y-244600161D01*
X137250000Y-244649889D01*
X137500000Y-244600161D01*
X137750000Y-244649889D01*
X138000000Y-244600161D01*
X138250000Y-244649889D01*
X138500000Y-244600161D01*
X138750000Y-244649889D01*
X139000000Y-244600161D01*
X139250000Y-244649889D01*
X139500000Y-244600161D01*
X139750000Y-244649889D01*
X140000000Y-244600161D01*
X140250000Y-244649889D01*
X140500000Y-244600161D01*
X140750000Y-244649889D01*
X141000000Y-244600161D01*
X141250000Y-244649889D01*
X141500000Y-244600161D01*
X141750000Y-244649889D01*
X142000000Y-244600161D01*
X142250000Y-244649889D01*
X142500000Y-244600161D01*
X142750000Y-244649889D01*
X143000000Y-244600161D01*
X143250000Y-244649889D01*
X143500000Y-244600161D01*
X143750000Y-244649889D01*
X144000000Y-244600161D01*
X144250000Y-244649889D01*
X144500000Y-244600161D01*
X144750000Y-244649889D01*
X145046536Y-244590904D01*
X145265195Y-244444801D01*
X145555199Y-244734805D01*
X145555199Y-244734805D01*
G37*
X145555199Y-244734805D02*
X145409096Y-244953463D01*
X145350111Y-245250000D01*
X145399839Y-245500000D01*
X145350111Y-245750000D01*
X145399839Y-246000000D01*
X145350111Y-246250000D01*
X145399839Y-246500000D01*
X145350111Y-246750000D01*
X145399839Y-247000000D01*
X145350111Y-247250000D01*
X145399839Y-247500000D01*
X145350111Y-247750000D01*
X145399839Y-248000000D01*
X145350111Y-248250000D01*
X145399839Y-248500000D01*
X145383798Y-248580645D01*
X145202071Y-248702071D01*
X145159671Y-248765527D01*
X144515530Y-249409669D01*
X144452071Y-249452071D01*
X144284096Y-249703464D01*
X144240000Y-249925149D01*
X144240000Y-249925153D01*
X144225112Y-250000000D01*
X144240000Y-250074847D01*
X144240001Y-255425148D01*
X144225112Y-255500000D01*
X144231631Y-255532772D01*
X144046537Y-255409096D01*
X143750000Y-255350111D01*
X143500000Y-255399839D01*
X143250000Y-255350111D01*
X143000000Y-255399839D01*
X142750000Y-255350111D01*
X142500000Y-255399839D01*
X142250000Y-255350111D01*
X141953464Y-255409096D01*
X141750001Y-255545046D01*
X141546537Y-255409096D01*
X141250000Y-255350111D01*
X141000000Y-255399839D01*
X140750000Y-255350111D01*
X140500000Y-255399839D01*
X140250000Y-255350111D01*
X140000000Y-255399839D01*
X139750000Y-255350111D01*
X139500000Y-255399839D01*
X139250000Y-255350111D01*
X139000000Y-255399839D01*
X138750000Y-255350111D01*
X138500000Y-255399839D01*
X138250000Y-255350111D01*
X138000000Y-255399839D01*
X137750000Y-255350111D01*
X137500000Y-255399839D01*
X137250000Y-255350111D01*
X137000000Y-255399839D01*
X136750000Y-255350111D01*
X136500000Y-255399839D01*
X136250000Y-255350111D01*
X136000000Y-255399839D01*
X135750000Y-255350111D01*
X135500000Y-255399839D01*
X135250000Y-255350111D01*
X134953464Y-255409096D01*
X134734805Y-255555199D01*
X134444801Y-255265195D01*
X134590904Y-255046537D01*
X134649889Y-254750000D01*
X134600161Y-254500000D01*
X134649889Y-254250000D01*
X134600161Y-253999999D01*
X134649889Y-253750000D01*
X134600161Y-253500000D01*
X134649889Y-253250000D01*
X134600161Y-252999999D01*
X134649889Y-252750000D01*
X134600161Y-252500000D01*
X134649889Y-252250000D01*
X134600161Y-251999999D01*
X134649889Y-251750000D01*
X134600161Y-251500000D01*
X134649889Y-251250000D01*
X134600161Y-251000000D01*
X134649889Y-250750000D01*
X134600161Y-250500000D01*
X134649889Y-250250000D01*
X134590904Y-249953463D01*
X134454954Y-249750000D01*
X134590904Y-249546537D01*
X134649889Y-249250000D01*
X134600161Y-249000000D01*
X134649889Y-248750000D01*
X134600161Y-248500000D01*
X134649889Y-248250000D01*
X134600161Y-248000000D01*
X134649889Y-247750000D01*
X134600161Y-247500000D01*
X134649889Y-247250000D01*
X134600161Y-247000000D01*
X134649889Y-246750000D01*
X134600161Y-246500000D01*
X134649889Y-246250000D01*
X134600161Y-246000000D01*
X134649889Y-245750000D01*
X134600161Y-245500000D01*
X134646083Y-245269136D01*
X134674999Y-245274888D01*
X134749846Y-245260000D01*
X135925153Y-245260000D01*
X136000000Y-245274888D01*
X136074847Y-245260000D01*
X136074852Y-245260000D01*
X136296537Y-245215904D01*
X136547929Y-245047929D01*
X136590330Y-244984471D01*
X136734473Y-244840329D01*
X136797929Y-244797929D01*
X136919355Y-244616202D01*
X137000000Y-244600161D01*
X137250000Y-244649889D01*
X137500000Y-244600161D01*
X137750000Y-244649889D01*
X138000000Y-244600161D01*
X138250000Y-244649889D01*
X138500000Y-244600161D01*
X138750000Y-244649889D01*
X139000000Y-244600161D01*
X139250000Y-244649889D01*
X139500000Y-244600161D01*
X139750000Y-244649889D01*
X140000000Y-244600161D01*
X140250000Y-244649889D01*
X140500000Y-244600161D01*
X140750000Y-244649889D01*
X141000000Y-244600161D01*
X141250000Y-244649889D01*
X141500000Y-244600161D01*
X141750000Y-244649889D01*
X142000000Y-244600161D01*
X142250000Y-244649889D01*
X142500000Y-244600161D01*
X142750000Y-244649889D01*
X143000000Y-244600161D01*
X143250000Y-244649889D01*
X143500000Y-244600161D01*
X143750000Y-244649889D01*
X144000000Y-244600161D01*
X144250000Y-244649889D01*
X144500000Y-244600161D01*
X144750000Y-244649889D01*
X145046536Y-244590904D01*
X145265195Y-244444801D01*
X145555199Y-244734805D01*
G36*
X162873000Y-240052606D02*
X162873000Y-253327889D01*
X162819146Y-253057145D01*
X162568289Y-252681711D01*
X162192855Y-252430854D01*
X161750000Y-252342765D01*
X161307146Y-252430854D01*
X161097440Y-252570975D01*
X161097440Y-251500000D01*
X161048157Y-251252235D01*
X160907809Y-251042191D01*
X160844666Y-251000000D01*
X160907809Y-250957809D01*
X161048157Y-250747765D01*
X161097440Y-250500000D01*
X161097440Y-249300000D01*
X161048157Y-249052235D01*
X160907809Y-248842191D01*
X160697765Y-248701843D01*
X160450000Y-248652560D01*
X159550000Y-248652560D01*
X159302235Y-248701843D01*
X159245129Y-248740000D01*
X158616669Y-248740000D01*
X158571310Y-248630493D01*
X158170817Y-248230000D01*
X158571310Y-247829507D01*
X158805000Y-247265330D01*
X158805000Y-246654670D01*
X158571310Y-246090493D01*
X158170817Y-245690000D01*
X158571310Y-245289507D01*
X158805000Y-244725330D01*
X158805000Y-244114670D01*
X158571310Y-243550493D01*
X158402092Y-243381275D01*
X158417765Y-243378157D01*
X158627809Y-243237809D01*
X158768157Y-243027765D01*
X158817440Y-242780000D01*
X158817440Y-240980000D01*
X158768157Y-240732235D01*
X158627809Y-240522191D01*
X158417765Y-240381843D01*
X158170000Y-240332560D01*
X156370000Y-240332560D01*
X156122235Y-240381843D01*
X155912191Y-240522191D01*
X155771843Y-240732235D01*
X155722560Y-240980000D01*
X155722560Y-242780000D01*
X155771843Y-243027765D01*
X155912191Y-243237809D01*
X156122235Y-243378157D01*
X156137908Y-243381275D01*
X156000000Y-243519183D01*
X155599507Y-243118690D01*
X155035330Y-242885000D01*
X154424670Y-242885000D01*
X153860493Y-243118690D01*
X153428690Y-243550493D01*
X153195000Y-244114670D01*
X153195000Y-244725330D01*
X153428690Y-245289507D01*
X153829183Y-245690000D01*
X153428690Y-246090493D01*
X153195000Y-246654670D01*
X153195000Y-247265330D01*
X153428690Y-247829507D01*
X153829183Y-248230000D01*
X153428690Y-248630493D01*
X153195000Y-249194670D01*
X153195000Y-249805330D01*
X153428690Y-250369507D01*
X153470690Y-250411507D01*
X152765530Y-251116667D01*
X152702071Y-251159069D01*
X152534096Y-251410462D01*
X152490000Y-251632147D01*
X152490000Y-251632151D01*
X152475112Y-251706998D01*
X152490000Y-251781846D01*
X152490001Y-252240000D01*
X151147440Y-252240000D01*
X151147440Y-251550000D01*
X151098157Y-251302235D01*
X150957809Y-251092191D01*
X150747765Y-250951843D01*
X150731082Y-250948524D01*
X152589803Y-249089803D01*
X152617333Y-249048601D01*
X152627000Y-249000000D01*
X152627000Y-241052606D01*
X156552606Y-237127000D01*
X159947394Y-237127000D01*
X162873000Y-240052606D01*
X162873000Y-240052606D01*
G37*
X162873000Y-240052606D02*
X162873000Y-253327889D01*
X162819146Y-253057145D01*
X162568289Y-252681711D01*
X162192855Y-252430854D01*
X161750000Y-252342765D01*
X161307146Y-252430854D01*
X161097440Y-252570975D01*
X161097440Y-251500000D01*
X161048157Y-251252235D01*
X160907809Y-251042191D01*
X160844666Y-251000000D01*
X160907809Y-250957809D01*
X161048157Y-250747765D01*
X161097440Y-250500000D01*
X161097440Y-249300000D01*
X161048157Y-249052235D01*
X160907809Y-248842191D01*
X160697765Y-248701843D01*
X160450000Y-248652560D01*
X159550000Y-248652560D01*
X159302235Y-248701843D01*
X159245129Y-248740000D01*
X158616669Y-248740000D01*
X158571310Y-248630493D01*
X158170817Y-248230000D01*
X158571310Y-247829507D01*
X158805000Y-247265330D01*
X158805000Y-246654670D01*
X158571310Y-246090493D01*
X158170817Y-245690000D01*
X158571310Y-245289507D01*
X158805000Y-244725330D01*
X158805000Y-244114670D01*
X158571310Y-243550493D01*
X158402092Y-243381275D01*
X158417765Y-243378157D01*
X158627809Y-243237809D01*
X158768157Y-243027765D01*
X158817440Y-242780000D01*
X158817440Y-240980000D01*
X158768157Y-240732235D01*
X158627809Y-240522191D01*
X158417765Y-240381843D01*
X158170000Y-240332560D01*
X156370000Y-240332560D01*
X156122235Y-240381843D01*
X155912191Y-240522191D01*
X155771843Y-240732235D01*
X155722560Y-240980000D01*
X155722560Y-242780000D01*
X155771843Y-243027765D01*
X155912191Y-243237809D01*
X156122235Y-243378157D01*
X156137908Y-243381275D01*
X156000000Y-243519183D01*
X155599507Y-243118690D01*
X155035330Y-242885000D01*
X154424670Y-242885000D01*
X153860493Y-243118690D01*
X153428690Y-243550493D01*
X153195000Y-244114670D01*
X153195000Y-244725330D01*
X153428690Y-245289507D01*
X153829183Y-245690000D01*
X153428690Y-246090493D01*
X153195000Y-246654670D01*
X153195000Y-247265330D01*
X153428690Y-247829507D01*
X153829183Y-248230000D01*
X153428690Y-248630493D01*
X153195000Y-249194670D01*
X153195000Y-249805330D01*
X153428690Y-250369507D01*
X153470690Y-250411507D01*
X152765530Y-251116667D01*
X152702071Y-251159069D01*
X152534096Y-251410462D01*
X152490000Y-251632147D01*
X152490000Y-251632151D01*
X152475112Y-251706998D01*
X152490000Y-251781846D01*
X152490001Y-252240000D01*
X151147440Y-252240000D01*
X151147440Y-251550000D01*
X151098157Y-251302235D01*
X150957809Y-251092191D01*
X150747765Y-250951843D01*
X150731082Y-250948524D01*
X152589803Y-249089803D01*
X152617333Y-249048601D01*
X152627000Y-249000000D01*
X152627000Y-241052606D01*
X156552606Y-237127000D01*
X159947394Y-237127000D01*
X162873000Y-240052606D01*
G04 #@! TD*
M02*
