G04 #@! TF.GenerationSoftware,KiCad,Pcbnew,(5.0.0)*
G04 #@! TF.CreationDate,2018-08-18T19:39:24+09:00*
G04 #@! TF.ProjectId,TouchSensor,546F75636853656E736F722E6B696361,rev?*
G04 #@! TF.SameCoordinates,Original*
G04 #@! TF.FileFunction,Soldermask,Bot*
G04 #@! TF.FilePolarity,Negative*
%FSLAX46Y46*%
G04 Gerber Fmt 4.6, Leading zero omitted, Abs format (unit mm)*
G04 Created by KiCad (PCBNEW (5.0.0)) date 08/18/18 19:39:24*
%MOMM*%
%LPD*%
G01*
G04 APERTURE LIST*
%ADD10C,0.150000*%
%ADD11C,6.800000*%
%ADD12O,2.100000X2.100000*%
%ADD13R,2.100000X2.100000*%
%ADD14C,2.398980*%
%ADD15R,2.200000X2.200000*%
%ADD16C,2.200000*%
G04 APERTURE END LIST*
D10*
G36*
X88656011Y-49257299D02*
X90155097Y-49309649D01*
X80836932Y-316147000D01*
X79337846Y-316094650D01*
X88656011Y-49257299D01*
G37*
X88656011Y-49257299D02*
X90155097Y-49309649D01*
X80836932Y-316147000D01*
X79337846Y-316094650D01*
X88656011Y-49257299D01*
G36*
X83659057Y-49082802D02*
X85158143Y-49135151D01*
X75839978Y-315972502D01*
X74340891Y-315920153D01*
X83659057Y-49082802D01*
G37*
X83659057Y-49082802D02*
X85158143Y-49135151D01*
X75839978Y-315972502D01*
X74340891Y-315920153D01*
X83659057Y-49082802D01*
G36*
X65915868Y-313624725D02*
X67914650Y-313694524D01*
X67844851Y-315693306D01*
X65846069Y-315623507D01*
X65915868Y-313624725D01*
G37*
X65915868Y-313624725D02*
X67914650Y-313694524D01*
X67844851Y-315693306D01*
X65846069Y-315623507D01*
X65915868Y-313624725D01*
G36*
X66962853Y-283643001D02*
X68961635Y-283712800D01*
X68891836Y-285711581D01*
X66893054Y-285641782D01*
X66962853Y-283643001D01*
G37*
X66962853Y-283643001D02*
X68961635Y-283712800D01*
X68891836Y-285711581D01*
X66893054Y-285641782D01*
X66962853Y-283643001D01*
G36*
X69405818Y-213685643D02*
X71404600Y-213755442D01*
X71334801Y-215754223D01*
X69336019Y-215684424D01*
X69405818Y-213685643D01*
G37*
X69405818Y-213685643D02*
X71404600Y-213755442D01*
X71334801Y-215754223D01*
X69336019Y-215684424D01*
X69405818Y-213685643D01*
G36*
X69056823Y-223679551D02*
X71055605Y-223749350D01*
X70985806Y-225748132D01*
X68987024Y-225678333D01*
X69056823Y-223679551D01*
G37*
X69056823Y-223679551D02*
X71055605Y-223749350D01*
X70985806Y-225748132D01*
X68987024Y-225678333D01*
X69056823Y-223679551D01*
G36*
X68009838Y-253661276D02*
X70008620Y-253731075D01*
X69938821Y-255729856D01*
X67940039Y-255660057D01*
X68009838Y-253661276D01*
G37*
X68009838Y-253661276D02*
X70008620Y-253731075D01*
X69938821Y-255729856D01*
X67940039Y-255660057D01*
X68009838Y-253661276D01*
G36*
X67660843Y-263655184D02*
X69659625Y-263724983D01*
X69589826Y-265723765D01*
X67591044Y-265653966D01*
X67660843Y-263655184D01*
G37*
X67660843Y-263655184D02*
X69659625Y-263724983D01*
X69589826Y-265723765D01*
X67591044Y-265653966D01*
X67660843Y-263655184D01*
G36*
X68707828Y-233673459D02*
X70706610Y-233743258D01*
X70636811Y-235742040D01*
X68638029Y-235672241D01*
X68707828Y-233673459D01*
G37*
X68707828Y-233673459D02*
X70706610Y-233743258D01*
X70636811Y-235742040D01*
X68638029Y-235672241D01*
X68707828Y-233673459D01*
G36*
X68358833Y-243667368D02*
X70357615Y-243737167D01*
X70287816Y-245735948D01*
X68289034Y-245666149D01*
X68358833Y-243667368D01*
G37*
X68358833Y-243667368D02*
X70357615Y-243737167D01*
X70287816Y-245735948D01*
X68289034Y-245666149D01*
X68358833Y-243667368D01*
G36*
X66613858Y-293636909D02*
X68612640Y-293706708D01*
X68542841Y-295705490D01*
X66544059Y-295635691D01*
X66613858Y-293636909D01*
G37*
X66613858Y-293636909D02*
X68612640Y-293706708D01*
X68542841Y-295705490D01*
X66544059Y-295635691D01*
X66613858Y-293636909D01*
G36*
X66264863Y-303630817D02*
X68263645Y-303700616D01*
X68193846Y-305699398D01*
X66195064Y-305629599D01*
X66264863Y-303630817D01*
G37*
X66264863Y-303630817D02*
X68263645Y-303700616D01*
X68193846Y-305699398D01*
X66195064Y-305629599D01*
X66264863Y-303630817D01*
G36*
X67311848Y-273649092D02*
X69310630Y-273718891D01*
X69240831Y-275717673D01*
X67242049Y-275647874D01*
X67311848Y-273649092D01*
G37*
X67311848Y-273649092D02*
X69310630Y-273718891D01*
X69240831Y-275717673D01*
X67242049Y-275647874D01*
X67311848Y-273649092D01*
G36*
X71499788Y-153722193D02*
X73498569Y-153791992D01*
X73428770Y-155790774D01*
X71429989Y-155720975D01*
X71499788Y-153722193D01*
G37*
X71499788Y-153722193D02*
X73498569Y-153791992D01*
X73428770Y-155790774D01*
X71429989Y-155720975D01*
X71499788Y-153722193D01*
G36*
X71150793Y-163716101D02*
X73149575Y-163785900D01*
X73079776Y-165784682D01*
X71080994Y-165714883D01*
X71150793Y-163716101D01*
G37*
X71150793Y-163716101D02*
X73149575Y-163785900D01*
X73079776Y-165784682D01*
X71080994Y-165714883D01*
X71150793Y-163716101D01*
G36*
X72197778Y-133734377D02*
X74196559Y-133804176D01*
X74126760Y-135802957D01*
X72127979Y-135733158D01*
X72197778Y-133734377D01*
G37*
X72197778Y-133734377D02*
X74196559Y-133804176D01*
X74126760Y-135802957D01*
X72127979Y-135733158D01*
X72197778Y-133734377D01*
G36*
X71848783Y-143728285D02*
X73847564Y-143798084D01*
X73777765Y-145796865D01*
X71778984Y-145727066D01*
X71848783Y-143728285D01*
G37*
X71848783Y-143728285D02*
X73847564Y-143798084D01*
X73777765Y-145796865D01*
X71778984Y-145727066D01*
X71848783Y-143728285D01*
G36*
X70103808Y-193697826D02*
X72102590Y-193767625D01*
X72032791Y-195766407D01*
X70034009Y-195696608D01*
X70103808Y-193697826D01*
G37*
X70103808Y-193697826D02*
X72102590Y-193767625D01*
X72032791Y-195766407D01*
X70034009Y-195696608D01*
X70103808Y-193697826D01*
G36*
X69754813Y-203691734D02*
X71753595Y-203761533D01*
X71683796Y-205760315D01*
X69685014Y-205690516D01*
X69754813Y-203691734D01*
G37*
X69754813Y-203691734D02*
X71753595Y-203761533D01*
X71683796Y-205760315D01*
X69685014Y-205690516D01*
X69754813Y-203691734D01*
G36*
X70801798Y-173710010D02*
X72800580Y-173779809D01*
X72730781Y-175778590D01*
X70731999Y-175708791D01*
X70801798Y-173710010D01*
G37*
X70801798Y-173710010D02*
X72800580Y-173779809D01*
X72730781Y-175778590D01*
X70731999Y-175708791D01*
X70801798Y-173710010D01*
G36*
X70452803Y-183703918D02*
X72451585Y-183773717D01*
X72381786Y-185772499D01*
X70383004Y-185702700D01*
X70452803Y-183703918D01*
G37*
X70452803Y-183703918D02*
X72451585Y-183773717D01*
X72381786Y-185772499D01*
X70383004Y-185702700D01*
X70452803Y-183703918D01*
G36*
X72895768Y-113746560D02*
X74894549Y-113816359D01*
X74824750Y-115815141D01*
X72825969Y-115745342D01*
X72895768Y-113746560D01*
G37*
X72895768Y-113746560D02*
X74894549Y-113816359D01*
X74824750Y-115815141D01*
X72825969Y-115745342D01*
X72895768Y-113746560D01*
G36*
X72546773Y-123740468D02*
X74545554Y-123810267D01*
X74475755Y-125809049D01*
X72476974Y-125739250D01*
X72546773Y-123740468D01*
G37*
X72546773Y-123740468D02*
X74545554Y-123810267D01*
X74475755Y-125809049D01*
X72476974Y-125739250D01*
X72546773Y-123740468D01*
G36*
X73593758Y-93758743D02*
X75592539Y-93828542D01*
X75522740Y-95827324D01*
X73523959Y-95757525D01*
X73593758Y-93758743D01*
G37*
X73593758Y-93758743D02*
X75592539Y-93828542D01*
X75522740Y-95827324D01*
X73523959Y-95757525D01*
X73593758Y-93758743D01*
G36*
X73244763Y-103752652D02*
X75243544Y-103822451D01*
X75173745Y-105821232D01*
X73174964Y-105751433D01*
X73244763Y-103752652D01*
G37*
X73244763Y-103752652D02*
X75243544Y-103822451D01*
X75173745Y-105821232D01*
X73174964Y-105751433D01*
X73244763Y-103752652D01*
G36*
X74291748Y-73770927D02*
X76290529Y-73840726D01*
X76220730Y-75839508D01*
X74221949Y-75769709D01*
X74291748Y-73770927D01*
G37*
X74291748Y-73770927D02*
X76290529Y-73840726D01*
X76220730Y-75839508D01*
X74221949Y-75769709D01*
X74291748Y-73770927D01*
G36*
X73942753Y-83764835D02*
X75941534Y-83834634D01*
X75871735Y-85833416D01*
X73872954Y-85763617D01*
X73942753Y-83764835D01*
G37*
X73942753Y-83764835D02*
X75941534Y-83834634D01*
X75871735Y-85833416D01*
X73872954Y-85763617D01*
X73942753Y-83764835D01*
G36*
X74640743Y-63777019D02*
X76639524Y-63846818D01*
X76569725Y-65845599D01*
X74570944Y-65775800D01*
X74640743Y-63777019D01*
G37*
X74640743Y-63777019D02*
X76639524Y-63846818D01*
X76569725Y-65845599D01*
X74570944Y-65775800D01*
X74640743Y-63777019D01*
G36*
X74989738Y-53783110D02*
X76988519Y-53852909D01*
X76918720Y-55851691D01*
X74919939Y-55781892D01*
X74989738Y-53783110D01*
G37*
X74989738Y-53783110D02*
X76988519Y-53852909D01*
X76918720Y-55851691D01*
X74919939Y-55781892D01*
X74989738Y-53783110D01*
G36*
X75164235Y-48786156D02*
X77163017Y-48855955D01*
X77093218Y-50854737D01*
X75094436Y-50784938D01*
X75164235Y-48786156D01*
G37*
X75164235Y-48786156D02*
X77163017Y-48855955D01*
X77093218Y-50854737D01*
X75094436Y-50784938D01*
X75164235Y-48786156D01*
D11*
G04 #@! TO.C,REF\002A\002A*
X111000000Y-52000000D03*
G04 #@! TD*
D12*
G04 #@! TO.C,P1*
X143160000Y-274540000D03*
X143160000Y-272000000D03*
X140620000Y-274540000D03*
X140620000Y-272000000D03*
X138080000Y-274540000D03*
X138080000Y-272000000D03*
X135540000Y-274540000D03*
X135540000Y-272000000D03*
X133000000Y-274540000D03*
D13*
X133000000Y-272000000D03*
G04 #@! TD*
D14*
G04 #@! TO.C,J1*
X100000000Y-50000000D03*
G04 #@! TD*
G04 #@! TO.C,J2*
X100000000Y-55000000D03*
G04 #@! TD*
G04 #@! TO.C,J3*
X100000000Y-65000000D03*
G04 #@! TD*
G04 #@! TO.C,J4*
X100000000Y-75000000D03*
G04 #@! TD*
G04 #@! TO.C,J5*
X100000000Y-85000000D03*
G04 #@! TD*
G04 #@! TO.C,J6*
X100000000Y-95000000D03*
G04 #@! TD*
G04 #@! TO.C,J7*
X100000000Y-105000000D03*
G04 #@! TD*
G04 #@! TO.C,J8*
X100000000Y-115000000D03*
G04 #@! TD*
G04 #@! TO.C,J9*
X100000000Y-125000000D03*
G04 #@! TD*
G04 #@! TO.C,J10*
X100000000Y-135000000D03*
G04 #@! TD*
G04 #@! TO.C,J11*
X100000000Y-145000000D03*
G04 #@! TD*
G04 #@! TO.C,J12*
X100000000Y-155000000D03*
G04 #@! TD*
G04 #@! TO.C,J13*
X100000000Y-165000000D03*
G04 #@! TD*
G04 #@! TO.C,J14*
X100000000Y-175000000D03*
G04 #@! TD*
G04 #@! TO.C,J15*
X100000000Y-185000000D03*
G04 #@! TD*
G04 #@! TO.C,J16*
X100000000Y-195000000D03*
G04 #@! TD*
G04 #@! TO.C,J17*
X100000000Y-205000000D03*
G04 #@! TD*
G04 #@! TO.C,J18*
X100000000Y-215000000D03*
G04 #@! TD*
G04 #@! TO.C,J19*
X100000000Y-225000000D03*
G04 #@! TD*
G04 #@! TO.C,J20*
X100000000Y-235000000D03*
G04 #@! TD*
G04 #@! TO.C,J21*
X100000000Y-245000000D03*
G04 #@! TD*
G04 #@! TO.C,J22*
X100000000Y-255000000D03*
G04 #@! TD*
G04 #@! TO.C,J23*
X100000000Y-265000000D03*
G04 #@! TD*
G04 #@! TO.C,J24*
X100000000Y-275000000D03*
G04 #@! TD*
G04 #@! TO.C,J25*
X100000000Y-285000000D03*
G04 #@! TD*
G04 #@! TO.C,J26*
X100000000Y-295000000D03*
G04 #@! TD*
G04 #@! TO.C,J27*
X100000000Y-305000000D03*
G04 #@! TD*
G04 #@! TO.C,J28*
X100000000Y-315000000D03*
G04 #@! TD*
G04 #@! TO.C,J29*
X100000000Y-320000000D03*
G04 #@! TD*
G04 #@! TO.C,J30*
X107500000Y-320000000D03*
G04 #@! TD*
G04 #@! TO.C,J31*
X115000000Y-320000000D03*
G04 #@! TD*
G04 #@! TO.C,J32*
X122500000Y-320000000D03*
G04 #@! TD*
D15*
G04 #@! TO.C,P2*
X157270000Y-241880000D03*
D16*
X154730000Y-241880000D03*
X157270000Y-244420000D03*
X154730000Y-244420000D03*
X157270000Y-246960000D03*
X154730000Y-246960000D03*
X157270000Y-249500000D03*
X154730000Y-249500000D03*
X157270000Y-252040000D03*
X154730000Y-252040000D03*
X157270000Y-254580000D03*
X154730000Y-254580000D03*
X157270000Y-257120000D03*
X154730000Y-257120000D03*
G04 #@! TD*
D11*
G04 #@! TO.C,REF\002A\002A*
X158000000Y-279000000D03*
G04 #@! TD*
M02*
