M48
METRIC,TZ
T1C0.400
T2C0.800
T3C0.900
T4C1.000
T5C1.800
T6C3.200
%
G90
G05
T1
X127250Y-247750
X129250Y-247750
X131000Y-241750
X135000Y-249750
X135500Y-237250
X135500Y-245500
X135500Y-254500
X137750Y-237250
X139000Y-249500
X139000Y-258750
X139500Y-269000
X139750Y-238000
X140000Y-245500
X141250Y-261250
X141500Y-240750
X141750Y-255000
X142000Y-251000
X144250Y-255000
X144500Y-239500
X144500Y-245500
X145000Y-263500
X145000Y-265000
X146500Y-270500
X146500Y-273500
X146750Y-260250
X149000Y-242750
X150250Y-246500
X151250Y-248250
X151250Y-250000
X152250Y-250750
X152250Y-255250
X152750Y-267250
X152750Y-269250
X153000Y-273500
X155000Y-260000
X158500Y-259000
X160000Y-240000
X160000Y-247000
X160000Y-265000
X160000Y-270000
T2
X100000Y-145000
X115000Y-320000
X100000Y-235000
X100000Y-55000
X100000Y-165000
X100000Y-295000
X100000Y-255000
X100000Y-75000
X100000Y-185000
X100000Y-315000
X100000Y-275000
X100000Y-205000
X100000Y-95000
X100000Y-135000
X107500Y-320000
X100000Y-225000
X100000Y-115000
X100000Y-50000
X100000Y-155000
X122500Y-320000
X100000Y-285000
X100000Y-245000
X100000Y-65000
X100000Y-175000
X100000Y-305000
X100000Y-265000
X100000Y-85000
X100000Y-195000
X100000Y-125000
X100000Y-320000
X100000Y-215000
X100000Y-105000
T3
X154730Y-241880
X154730Y-244420
X154730Y-246960
X154730Y-249500
X154730Y-252040
X154730Y-254580
X154730Y-257120
X157270Y-241880
X157270Y-244420
X157270Y-246960
X157270Y-249500
X157270Y-252040
X157270Y-254580
X157270Y-257120
T4
X133000Y-272000
X133000Y-274540
X135540Y-272000
X135540Y-274540
X138080Y-272000
X138080Y-274540
X140620Y-272000
X140620Y-274540
X143160Y-272000
X143160Y-274540
T5
X144000Y-268000
T6
X111000Y-52000
X158000Y-279000
T0
M30
